<?xml version="1.0" standalone="no"?>
<!DOCTYPE svg PUBLIC "-//W3C//DTD SVG 1.1//EN" "http://www.w3.org/Graphics/SVG/1.1/DTD/svg11.dtd" >
<svg>
<metadata>
Created by FontForge 20120731 at Tue Apr 12 16:19:27 2016
 By Apache
</metadata>
<defs>
<font id="flaticon" horiz-adv-x="532" >
  <font-face 
    font-family="flaticon"
    font-weight="400"
    font-stretch="normal"
    units-per-em="512"
    panose-1="2 0 5 3 0 0 0 0 0 0"
    ascent="448"
    descent="-64"
    bbox="10 -65 950 495.267"
    underline-thickness="0"
    underline-position="0"
    unicode-range="U+E000-E420"
  />
<missing-glyph horiz-adv-x="0" 
 />
    <glyph glyph-name=".notdef" horiz-adv-x="0" 
 />
    <glyph glyph-name=".notdef" horiz-adv-x="0" 
 />
    <glyph glyph-name="car" unicode="&#xe000;" horiz-adv-x="521" 
d="M511 243q-1 12 -20.5 12t-38.5 -6l-19 -6l-5 -40q-3 1 -5 2l-19 83q-5 31 -26.5 50t-53.5 18h-112q-1 -7 -3 -14h123q19 0 34.5 -11.5t20.5 -31.5l20 -82h-1.5h-2.5h-237v-80h147v-18h-147v-5h146v-18h-146v-67h157v-43q0 -13 14 -22t34 -9t34 9t14 22v48q17 6 27.5 19
t10.5 29v77q0 25 -24 41l78 5v38zM421 97h-86v41h86v-41zM164 114h2v-18zM165 137h1v-18zM195 367.5q0 25.5 -12.5 47t-33.5 33.5v-74l-46 -27l-46 27v74q-22 -12 -34.5 -33.5t-12.5 -46.5q0 -27 14 -49t37 -34v-305q0 -18 12.5 -31t31 -13t31 13t12.5 31v307q21 12 34 33.5
t13 47zM114 -40q-5 -5 -12 -5t-11.5 5t-4.5 12t4.5 12t11.5 5t12 -5t5 -12t-5 -12z" />
    <glyph glyph-name="car106" unicode="&#xe001;" horiz-adv-x="500" 
d="M442 325l18 -19l8 8q10 10 10 24.5t-10 24.5l-47 47q-10 10 -24.5 10t-24.5 -10l-8 -8l18 -18l8 8q3 3 6.5 3t6.5 -3l47 -47q6 -6 0 -13zM44 54q-16 -16 -25 -44.5t3 -44.5q13 -10 32.5 -6.5t39.5 14.5q3 2 4 5q0 16 2 39q0 1 2 1l41 1q2 0 2 2l1 41q0 1 1 1q27 1 38 1
q4 0 8 3q13 14 55 56l-67 68zM451 297l-18 19l-60 59l-18 18l-32 32q-7 7 -16.5 7t-16.5 -7l-119 -119q-18 -18 -18 -44t18 -44l19 -18l68 -68l18 -19q18 -18 44 -18t44 18l119 120q7 6 7 16t-7 16zM310 179q-5 -5 -12 -6q-3 -1 -5 -1q-10 0 -17 7l-39 39q-7 7 -7 17v5
q2 7 7 12q7 7 17 7t17 -7l1 -2l36 -35l2 -2q7 -7 7 -17t-7 -17zM427 250l-23 -23q-11 -12 -27 -12t-27 12l-66 65q-11 11 -11 27t11 27l24 23q10 10 20 0l5 -5l89 -88l5 -6q10 -10 0 -20zM260 241q-3 2 -6.5 2t-6 -2.5t-2.5 -6t3 -5.5l39 -39q2 -3 5.5 -3t6 2.5t2.5 6
t-2 6.5z" />
    <glyph glyph-name="car165" unicode="&#xe002;" horiz-adv-x="378" 
d="M261 143q-15 0 -25.5 -11t-10.5 -26t10.5 -25.5t25.5 -10.5t25.5 10.5t10.5 25.5t-10.5 26t-25.5 11zM260.5 91q-6.5 0 -11 4.5t-4.5 11t4.5 11t11 4.5t11.5 -4.5t5 -11t-5 -11t-11.5 -4.5zM339 303h-38v1q0 10 -10 10h-137q-9 0 -9 -10v-1h-39q-14 0 -23 -11v0
q-6 -8 -6 -18v-138q0 -4 1 -7h-57q-5 0 -8 -3t-3 -8t3 -8.5t8 -3.5h85h62h50q0 18 12.5 30.5t30.5 12.5t30.5 -12.5t12.5 -30.5h35q12 0 20.5 9t8.5 21v138q0 12 -8.5 20.5t-20.5 8.5zM106 141v130q0 5 3.5 8.5t8.5 3.5h45q5 0 8 -2v0q5 -4 5 -10v-130q0 -9 -10 -12h-51
q-9 3 -9 12zM340 211q0 -5 -4 -8.5t-9 -3.5h-100q-5 0 -8.5 3.5t-3.5 8.5v60q0 4 2 7v0q4 5 10 5h100q5 0 9 -3.5t4 -8.5v-60zM136 204h-20q-5 0 -5 -5t5 -5h20q5 0 5 5t-5 5z" />
    <glyph glyph-name="car24" unicode="&#xe003;" horiz-adv-x="328" 
d="M120 140q9 -16 9 -21q0 -9 -9 -9t-9 9zM113 148h-11v-57h-18v-9h10v-8h-84v8h11v90h26v123h-29v15h298v-15h-255v-123h23v-73h10v53v4h4h19l6 -8l-6 -5zM70 158h-35v-26h35v26zM318 125q0 -13 -7 -23v-28h-37v14h-94v-14h-36v28q-7 10 -7 23q0 23 17 32q2 20 11.5 32.5
t22.5 12.5h78q13 0 22.5 -12.5t12.5 -32.5q17 -9 17 -32zM180 125q0 5 -3.5 8.5t-8.5 3.5t-8.5 -3.5t-3.5 -8.5t3.5 -8.5t8.5 -3.5t8.5 3.5t3.5 8.5zM247 162q0 8 5.5 13.5t13.5 5.5t13.5 -5.5t5.5 -13.5q3 -1 4 -1q-3 13 -9 21.5t-14 8.5h-78q-7 0 -13.5 -8.5t-8.5 -21.5
q4 1 6 1h75zM266 118q0 4 -4 4h-70q-3 0 -3 -4t3 -4h70q4 0 4 4zM266 128.5q0 3.5 -4 3.5h-70q-3 0 -3 -3.5t3 -3.5h70q4 0 4 3.5zM278 162q0 5 -3.5 8.5t-8.5 3.5t-8.5 -3.5t-3.5 -8.5h24zM298 125q0 5 -3.5 8.5t-8.5 3.5t-8.5 -3.5t-3.5 -8.5t3.5 -8.5t8.5 -3.5t8.5 3.5
t3.5 8.5z" />
    <glyph glyph-name="car26" unicode="&#xe004;" horiz-adv-x="304" 
d="M266 171q-4 29 -18.5 48t-34.5 19h-122q-20 0 -34.5 -19t-18.5 -48q-28 -14 -28 -52q0 -28 17 -44v-37h45v23h160v-23h45v37q17 16 17 44q0 38 -28 52zM91 224h122q13 0 23.5 -13.5t14.5 -34.5q-4 1 -9 1q0 12 -8.5 20.5t-20.5 8.5t-20.5 -8.5t-8.5 -20.5h-118
q-7 0 -13 -1q4 21 14.5 34.5t23.5 13.5zM233 177h-40q0 9 6 14.5t14 5.5t14 -5.5t6 -14.5zM59 100q-8 0 -13.5 5.5t-5.5 13.5t5.5 13.5t13.5 5.5t13.5 -5.5t5.5 -13.5t-5.5 -13.5t-13.5 -5.5zM207 103h-110q-5 0 -5 4.5t5 4.5h110q5 0 5 -4.5t-5 -4.5zM207 120h-110
q-5 0 -5 4.5t5 4.5h110q5 0 5 -4.5t-5 -4.5zM245 100q-8 0 -13.5 5.5t-5.5 13.5t5.5 13.5t13.5 5.5t13.5 -5.5t5.5 -13.5t-5.5 -13.5t-13.5 -5.5zM223 289q11 -17 32 -17q22 0 32 21h-24q-7 0 -11.5 4.5t-4.5 11.5t4.5 11.5t11.5 4.5h24q-10 21 -33 21q-20 0 -31 -18h-154
q-9 10 -23 10q-12 0 -20.5 -8.5t-8.5 -20.5t8.5 -21t20.5 -9q14 0 23 10h154zM38 295l-7 14l7 13h16l8 -13l-8 -14h-16z" />
    <glyph glyph-name="car34" unicode="&#xe005;" horiz-adv-x="358" 
d="M348 159q0 38 -29 52q-4 29 -18.5 47.5t-33.5 18.5h-122q-20 0 -34 -19t-18 -48q-29 -14 -29 -52q0 -28 18 -44v-36h45v22l159 1v-22h45v36q17 16 17 44zM145 263l122 1q12 0 22.5 -13.5t15.5 -34.5q-4 1 -9 1q0 12 -8.5 20.5t-20.5 8.5t-20.5 -8.5t-8.5 -20.5l-118 -1
q-7 0 -13 -1q5 21 15 34.5t23 13.5zM287 217h-40q0 8 5.5 14t14 6t14.5 -6t6 -14zM113.5 139q-7.5 0 -13 5.5t-6 13.5t5 13.5t13.5 5.5t13.5 -5.5t5.5 -13.5t-5.5 -13.5t-13 -5.5zM151 168l110 1q5 0 5 -4.5t-5 -4.5l-110 -1q-4 0 -4 4.5t4 4.5zM261 143h-110q-4 0 -4 4.5
t4 4.5h110q5 0 5 -4.5t-5 -4.5zM299 140q-8 0 -13.5 5.5t-5.5 13.5t5.5 13.5t13.5 5.5t13.5 -5.5t5.5 -13.5t-5.5 -13.5t-13.5 -5.5zM70 275v3q0 14 -7 21t-17 7h-4q-10 0 -17 -7t-7 -21v-3h-8v-58h68v58h-8zM25 278q0 21 17 21h4q17 0 17 -21v-3h-38v3z" />
    <glyph glyph-name="car36" unicode="&#xe006;" horiz-adv-x="328" 
d="M291 162q-3 27 -16.5 44t-31.5 17h-111q-18 0 -31.5 -17t-16.5 -44q-27 -13 -27 -47q0 -26 16 -41v-33h41v20h147v-20h41v33q16 15 16 41q0 34 -27 47zM132 211h111q12 0 21.5 -12.5t13.5 -31.5q-4 1 -8 1q0 11 -8 19t-19 8t-18.5 -8t-7.5 -19h-109q-5 0 -11 -1
q4 19 13.5 31.5t21.5 12.5zM262 168h-37q0 7 5.5 12.5t13 5.5t13 -5t5.5 -13zM102 97q-7 0 -12 5t-5 12.5t5 12.5t12 5t12.5 -5t5.5 -12.5t-5.5 -12.5t-12.5 -5zM238 100h-101q-4 0 -4 4.5t4 4.5h101q4 0 4 -4.5t-4 -4.5zM238 115h-101q-4 0 -4 4.5t4 4.5h101q4 0 4 -4.5
t-4 -4.5zM272.5 97q-7.5 0 -12.5 5t-5 12.5t5 12.5t12.5 5t12.5 -5t5 -12.5t-5 -12.5t-12.5 -5zM41 311v-12h16v-16h-16v-12h16v-16h-16v-12h16v-17h-16v-12q16 -6 16 -23q0 -10 -6.5 -16.5t-16.5 -6.5t-17 6.5t-7 16.5q0 15 14 22v130h17v-15h16v-17h-16z" />
    <glyph glyph-name="car38" unicode="&#xe007;" horiz-adv-x="226" 
d="M216 205v82h-19l-13 59h-142l-13 -59h-19v-82v-1v-9h16v-27h37v27h37v-12h-9v-11h15l-83 -57v11h-11v-32h11v10l74 -51h-11v-7h-15v-8h84v8h-15v7h-11l74 51v-10h11v32h-11v-11l-83 57h15v11h-9v12h37v-27h37v27h16v9v1zM52 240h-28v28h28v-28zM113 57l-72 49h144z
M185 114h-144l72 49zM107 183v12h12v-12h-12zM160 214h-94v7h94v-7zM160 237h-94v8h94v-8zM160 261h-94v7h94v-7zM170 287h-25v2q0 5 4 9t9 4t8.5 -4t3.5 -9v-2zM157.5 309q-8.5 0 -14 -5.5t-5.5 -14.5v-2h-93l10 43h116l10 -43h-3v2q0 9 -6 14.5t-14.5 5.5zM202 240h-28v28
h28v-28z" />
    <glyph glyph-name="car44" unicode="&#xe008;" horiz-adv-x="328" 
d="M287 273q-5 31 -20.5 51t-36.5 20h-132q-21 0 -36.5 -20t-20.5 -51q-31 -16 -31 -57q0 -30 19 -47v-40h49v24h20v-7h51v-97h-24v-9h78v9h-24v97h51v7h20v-24h49v40q19 17 19 47q0 41 -31 57zM63.5 196q-8.5 0 -14.5 6t-6 14.5t6 14.5t14.5 6t14.5 -6t6 -14.5t-6 -14.5
t-14.5 -6zM71 279q-7 0 -14 -1q5 23 16 37.5t25 14.5h132q14 0 25 -14.5t16 -37.5q-4 1 -10 1q0 13 -9 22.5t-22 9.5t-22 -9.5t-9 -22.5h-128zM223 199h-118q-5 0 -5 5t5 5h118q5 0 5 -5t-5 -5zM223 217h-118q-5 0 -5 5t5 5h118q5 0 5 -5t-5 -5zM208 279q0 9 6.5 15.5
t15.5 6.5t15.5 -6.5t6.5 -15.5h-44zM264.5 196q-8.5 0 -14.5 6t-6 14.5t6 14.5t14.5 6t14.5 -6t6 -14.5t-6 -14.5t-14.5 -6z" />
    <glyph glyph-name="car5" unicode="&#xe009;" horiz-adv-x="628" 
d="M459 157l-3 -28q-2 0 -4 1l-13 60q-4 22 -19.5 35.5t-38.5 12.5h-130q-52 0 -58 -48l-14 -60q-1 0 -3 -1l-3 28q-5 2 -13 5t-23.5 3.5t-20 -8.5t-4.5 -15.5t2 -9.5l2 -2l57 -3q-17 -12 -17 -30v-55q0 -20 21 -32v-37q0 -9 10 -15.5t24 -6.5t24 6.5t10 15.5v31h135v-31
q0 -9 10 -15.5t24.5 -6.5t24.5 6.5t10 15.5v34q27 11 27 35v55q0 18 -17 30l56 3q3 7 0 27q0 6 -6 8t-14.5 1t-16.5 -3t-13 -4zM251 53h-61v29h61v-29zM372 52h-106v13h106v-13zM373 69h-106v12h106v-12zM194 139h-2h-1l15 58q2 13 14 22t25 9h141q14 0 25 -8t15 -23l14 -58
h-1h-1h-244zM450 53h-61v29h61v-29zM316 448l-306 -130v-382h65v338h477v-338h66v382z" />
    <glyph glyph-name="car53" unicode="&#xe00a;" horiz-adv-x="358" 
d="M63 274h-49v12h2v22h27v-5h-21v-17h11v12h11v-12h19v-12zM63 269h-49v-12h49v12zM63 252h-49v-12h49v12zM67 211v23h-57v-23h9v-11h-9v-24h11v-72h10v-11h2v-6h-2v-11h15v11h-2v6h2v11h10v72h11v24h-9v11h9zM348 128v-10h-19v-33h-45v33h-120v-33h-45v33h-19v10v2v99h23
l16 70h170l16 -70h23v-99v-2zM150 205h-33v-34h33v34zM280 149h-113v-9h113v9zM280 178h-113v-9h113v9zM280 206h-113v-9h113v9zM293 231q0 6 -4.5 10.5t-10.5 4.5t-10.5 -4.5t-4.5 -10.5v-2h30v2zM302 231v-1v-1h4l-12 52h-140l-12 -52h112v2q0 10 7 17t17 7t17 -7t7 -17z
M331 205h-34v-34h34v34z" />
    <glyph glyph-name="car6" unicode="&#xe00b;" horiz-adv-x="420" 
d="M410 209q-1 1 -2.5 3.5t-9 7.5t-18 9t-30.5 7.5t-46 2.5q-4 4 -11 9.5t-32.5 15.5t-55 12.5t-77.5 -8.5t-99 -40q0 -2 0.5 -5.5t-2.5 -9t-9 -5.5q-8 -34 4 -45h25q-1 3 -1 7q0 14 10 24t24 10t23.5 -10t9.5 -24v-7h5h164h22v7q0 14 9.5 24t24.5 10q17 0 28 -14t9 -27
l35 3q-3 16 -3 25.5t2 13.5zM151 234h-81q34 16 81 25v-25zM169 234v28q30 4 60 -3t45 -16l16 -9h-121zM338 197q-11 0 -19 -8t-8 -19t8 -18.5t19 -7.5t20 8t9 18.5t-9 18.5t-20 8zM337.5 160q-10.5 0 -10.5 10t10.5 10t10.5 -10t-10.5 -10zM79 197q-11 0 -18.5 -8t-7.5 -19
t7.5 -18.5t18.5 -7.5t18.5 7.5t7.5 18.5t-7.5 19t-18.5 8zM79 160q-10 0 -10 10t10 10t10 -10t-10 -10z" />
    <glyph glyph-name="car72" unicode="&#xe00c;" horiz-adv-x="521" 
d="M503 225q-2 18 -3 26q-3 14 -11 14h-3q-1 -1 -2 -1v2q-3 7 -25 25q-7 5 -8 7q1 8 -3 12q-2 4 -8 4l-2 -1q-3 0 -18 3q-62 13 -122 15q-25 0 -50.5 -6.5t-43.5 -15t-34.5 -19.5t-22.5 -16t-10 -8l-2 -2q-10 -5 -50 -13q-54 -11 -61 -31q-10 -8 -11 -19l-3 -9v-1v-47v-1
q4 -19 37 -19q7 0 12 1h7q-1 2 -1 4q-1 2 -1 4q-1 5 -1 10q0 21 15.5 36.5t37 15.5t36.5 -15.5t15 -36.5q0 -3 -1 -8v-4q-1 -2 -1 -4q131 3 211 5v4q-1 2 -1 4v3q0 21 15.5 36.5t36.5 15.5t36 -15t16 -36v-1v-3q0 -2 -1 -4q19 3 27 19q6 14 5.5 27.5t-4.5 19.5q-1 2 -3 23z
M75 125q11 -26 40 -26q14 0 25 8t16 20q1 2 1.5 4t0.5 4q1 4 1 8q0 18 -13 31t-31 13t-31 -13t-13 -31q0 -5 1 -10q1 -2 1.5 -4t1.5 -4zM384 132q4 -14 16 -23.5t27 -9.5q16 0 28 10.5t15 25.5q1 2 1 4v4q0 18 -13 31t-31 13t-31 -13t-13 -31v-3q0 -2 0.5 -4t0.5 -4z" />
    <glyph glyph-name="cogs2" unicode="&#xe00d;" 
d="M192 87l21 29l-23 23l-29 -21q-8 4 -17 7l-6 35h-32l-6 -35q-9 -3 -17 -7l-29 21l-23 -23l21 -29q-4 -8 -7 -17l-35 -6v-32l35 -6q3 -9 7 -17l-21 -29l23 -23l29 21q8 -4 17 -7l6 -35h32l6 35q9 3 17 7l29 -21l23 23l-21 29q4 8 7 17l35 6v32l-35 6q-3 9 -7 17zM122 16
q-13 0 -22.5 9.5t-9.5 22.5t9.5 22.5t22.5 9.5t22.5 -9.5t9.5 -22.5t-9.5 -22.5t-22.5 -9.5zM522 256v32l-34 6l-2 12l29 19l-13 29l-33 -7q-3 5 -7 10l20 28l-23 23l-28 -20q-5 4 -10 7l7 33l-29 13l-19 -29l-12 2l-6 34h-32l-6 -34l-12 -2l-19 29l-29 -13l7 -33
q-5 -3 -10 -7l-28 20l-23 -23l20 -28q-4 -5 -7 -10l-33 7l-13 -29l29 -19l-2 -12l-34 -6v-32l34 -6l2 -12l-29 -19l13 -29l33 7q3 -5 7 -10l-20 -28l23 -23l28 20q5 -4 10 -7l-7 -33l29 -13l19 29l12 -2l6 -34h32l6 34l12 2l19 -29l29 13l-7 33q5 3 10 7l28 -20l23 23
l-20 28q4 5 7 10l33 -7l13 29l-29 19l2 12zM346 202q-29 0 -49.5 20.5t-20.5 49.5t20.5 49.5t49.5 20.5t49.5 -20.5t20.5 -49.5t-20.5 -49.5t-49.5 -20.5z" />
    <glyph glyph-name="disc24" unicode="&#xe00e;" horiz-adv-x="489" 
d="M259 399q-8 0 -17 -1v-46q0 -8 -5.5 -14t-14.5 -6q-22 -2 -42.5 -11t-36.5 -25t-25 -36.5t-11 -42.5q0 -9 -6 -14.5t-15 -5.5h-45q-1 -9 -1 -18q0 -90 64.5 -154.5t155 -64.5t155 64.5t64.5 155t-64.5 155t-155.5 64.5zM354 85q-39 -39 -94.5 -39t-94.5 39t-39 94.5
t39 94.5t94.5 39t94.5 -39t39 -94.5t-39 -94.5zM259.5 287q-44.5 0 -76 -31.5t-31.5 -76t31.5 -76t76 -31.5t76 31.5t31.5 76t-31.5 76t-76 31.5zM259 264q5 0 8.5 -3.5t3.5 -8.5t-3.5 -8.5t-8.5 -3.5t-8.5 3.5t-3.5 8.5t3.5 8.5t8.5 3.5zM186 167q-5 0 -8.5 3.5t-3.5 8.5
t3.5 8.5t8.5 3.5t8.5 -3.5t3.5 -8.5t-3.5 -8.5t-8.5 -3.5zM259 94q-5 0 -8.5 3.5t-3.5 8.5t3.5 8.5t8.5 3.5t8.5 -3.5t3.5 -8.5t-3.5 -8.5t-8.5 -3.5zM259 141q-16 0 -27 11.5t-11 27t11 27t27 11.5t27.5 -11.5t11.5 -27t-11.5 -27t-27.5 -11.5zM344 179q0 -5 -3.5 -8.5
t-8.5 -3.5t-8.5 3.5t-3.5 8.5t3.5 8.5t8.5 3.5t8.5 -3.5t3.5 -8.5zM18 210h24h44q8 0 9 7q2 52 38.5 88t88.5 39q7 1 7 8v45v24q0 8 -8 8q-86 -4 -147 -64.5t-64 -146.5q0 -8 8 -8z" />
    <glyph glyph-name="drill5" unicode="&#xe00f;" horiz-adv-x="488" 
d="M247 55h-230q-7 0 -7 -7v-47q0 -10 6 -17.5t15 -9.5q2 -3 6 -3h190q11 0 19 8t8 20v0.5v1.5v47q0 7 -7 7zM303 387l-54 18h-2h-230q-7 0 -7 -7v-126q0 -7 7 -7h61l-33 -152l-31 -13q-4 -2 -4 -7v-17q0 -7 7 -7h230q7 0 7 7v21q0 6 -6 7l-67 13l8 58l18 8q3 2 4 6l13 64
q1 7 -6 9l-11 3v4l40 1q2 0 4 1l55 43q3 2 3 6v60q0 5 -6 7zM357 387h-29q-8 0 -8 -7v-57q0 -7 8 -7h29q8 0 8 7v57q0 7 -8 7zM470 359h-82v5q0 8 -7.5 8t-7.5 -8v-26q0 -8 7.5 -8t7.5 8v6h82q8 0 8 7.5t-8 7.5z" />
    <glyph glyph-name="electric57" unicode="&#xe010;" horiz-adv-x="386" 
d="M123.5 130q-13.5 0 -23.5 -9.5t-10 -23t9.5 -23.5t23.5 -10t23.5 9.5t9.5 23t-9.5 23.5t-23 10zM123 82.5q-6 0.5 -10 4.5t-4 10t4.5 10t10 4t10 -4t4.5 -10t-4.5 -10.5t-10.5 -4zM271 128q-14 0 -23.5 -9.5t-10 -23t9.5 -23.5t23.5 -10t23 9.5t10 23t-9 23.5t-23.5 10z
M270.5 80q-5.5 0 -10 4.5t-4.5 10.5t4.5 10t10.5 4t10 -4.5t4 -10t-4.5 -10t-10 -4.5zM334 186q-22 6 -32 26l-20 39q-4 8 -13.5 14t-18.5 6l-116 2q-10 0 -18.5 -6t-11.5 -15l-13 -36q-1 -4 -3.5 -9.5t-8.5 -12t-14 -6.5q-9 0 -17.5 -9t-8.5 -19v-13q-7 2 -11 8
q-8 12 -1 27q6 14 24 18q25 6 34 36l15 42q3 9 12 15t18 6l125 -1v-4q-1 -10 9 -10h12q6 -1 9 5h10q4 0 4 4v1q0 4 -4 5h-9v6h9q4 0 4 4v1q0 4 -4 4h-10q-2 6 -9 6h-11q-10 0 -10 -10v-3l-125 1q-12 1 -23.5 -7.5t-15.5 -19.5l-15 -42v-1q-7 -24 -27 -29q-22 -6 -30 -23
q-9 -20 2 -36q6 -9 18 -13l-1 -19q0 -9 6.5 -16t15.5 -7h23v2q1 17 12.5 28.5t28 11.5t28.5 -12t11 -29v-2l68 -1v2q0 17 12 28.5t28.5 11.5t28 -12t11.5 -29v-2l41 -1q10 0 16.5 6.5t6.5 15.5v33q1 10 -2 17.5t-9 11.5t-10 5.5t-12 3.5zM98 194q5 7 7 14l10 30
q3 7 10.5 12.5t14.5 4.5h24l-1 -62zM185 193l1 62l53 -1q8 0 16 -5t11 -12l17 -33q3 -7 10 -12z" />
    <glyph glyph-name="front16" unicode="&#xe011;" horiz-adv-x="404" 
d="M349 341q-3 10 -11.5 16t-18.5 6h-234q-23 0 -30 -22l-45 -128v-170q0 -10 6 -16t15 -6h22q9 0 15 6t6 16v21h256v-21q0 -10 6 -16t15 -6h22q9 0 15 6t6 16v170zM84.5 128q-12.5 0 -22 9.5t-9.5 22.5t9.5 22.5t22 9.5t22.5 -9.5t10 -22.5t-10 -22.5t-22.5 -9.5z
M319.5 128q-12.5 0 -22.5 9.5t-10 22.5t10 22.5t22.5 9.5t22 -9.5t9.5 -22.5t-9.5 -22.5t-22 -9.5zM53 235l32 96h234l32 -96h-298z" />
    <glyph glyph-name="gas" unicode="&#xe012;" horiz-adv-x="492" 
d="M474 80q-5 21 -27 46q-10 11 -14.5 17.5t-9.5 21.5t-5 35v129v1q-2 29 -57 62q-10 6 -23.5 12t-13.5 7q0 13 -10 23t-23 10h-214q-13 0 -23 -10t-10 -23v-418h-1q-13 0 -23 -9.5t-10 -22.5v-22h348v22q0 13 -10 22.5t-23 9.5h-1v213q5 0 8 -1v-134q-3 -28 15 -48
q18 -21 53 -21q49 0 67 22q15 19 7 56zM97 348q0 10 7 17.5t17 7.5h126q10 0 17 -7.5t7 -17.5v-37q0 -11 -7 -18t-17 -7h-126q-10 0 -17 7t-7 18v37zM441 45q-7 -10 -41 -10q-20 0 -29 10q-3 4 -5 10t-2 10v3l1 138q0 14 -11 23q-10 9 -30 10v135q10 -5 23 -11
q34 -16 39 -35v-128q0 -25 6.5 -45.5t12.5 -29t18 -21.5q16 -18 19 -31q5 -22 -1 -28z" />
    <glyph glyph-name="jeep5" unicode="&#xe013;" horiz-adv-x="745" 
d="M702 279h33v-64h-24zM284 356h65v-33h-60zM687 -37l-15 10l30 151l-57 13l2 7l45 -11l20 88l-34 7l21 93q8 29 1.5 46t-34.5 23l-240 55q-28 7 -40 -2t-19 -39l-22 -99l-35 8l-20 -87l57 -13l-15 -64l25 -27l241 -56l30 15l-16 -70l-68 43l-11 5.5t-26 11.5t-35 12
t-32.5 4.5t-24.5 -7.5l-49 -50l-50 50l29 126l-67 16l-22 -97q-40 10 -69 -18l-121 -121q-6 -7 -26 -24t-30 -26h706q-5 4 -14.5 13t-14.5 14zM365.5 246q-2.5 -12 -13 -18.5t-22 -3.5t-18 13t-4 22t13 18.5t22.5 4t18 -13t3.5 -22.5zM689 175q-3 -12 -13 -18.5t-22 -4
t-18.5 13t-3.5 22.5t13 18.5t22 3.5t18.5 -13t3.5 -22zM560 148l-145 33l17 73l145 -34zM390 324l20 90l259 -60l-20 -89z" />
    <glyph glyph-name="key29" unicode="&#xe014;" horiz-adv-x="182" 
d="M148 346h-114q-10 0 -17 -7t-7 -17v-79q0 -9 7 -16t17 -7h33v-160l11 -9v169h10v-179l3 -3l24 22v160h33q10 0 17 7t7 16v79q0 10 -7 17t-17 7zM127 289h-72q-9 0 -16 5t-7 12t7 12t16 5h72q9 0 16 -5t7 -12t-7 -12t-16 -5z" />
    <glyph glyph-name="light41" unicode="&#xe015;" horiz-adv-x="330" 
d="M215 278.5q3 9.5 12 5.5l84 -31q9 -3 6 -12q-2 -7 -9 -7q-2 0 -3 1l-84 31q-9 3 -6 12.5zM123 301q-50 -10 -81.5 -38.5t-31.5 -65.5t32 -66t81 -39v209zM311 175l-84 31q-9 3 -12 -6t6 -12l84 -31q1 -1 3 -1q7 0 9 7q3 9 -6 12zM167 278v28q-17 0 -34 -3v-212
q17 -3 34 -3v27q13 2 21 25.5t8 56t-8 56t-21 25.5zM311 97l-84 31q-9 3 -12 -6t6 -12l84 -31q1 -1 3 -1q7 0 9 6q3 9 -6 13z" />
    <glyph glyph-name="light42" unicode="&#xe016;" horiz-adv-x="328" 
d="M123 297q-49 -11 -81 -39.5t-32 -65.5t32 -65.5t81 -39.5v210zM308 202h-84q-10 0 -10 -10t10 -10h84q10 0 10 10t-10 10zM224 261h84q10 0 10 9.5t-10 9.5h-84q-10 0 -10 -9.5t10 -9.5zM167 273v28q-17 0 -34 -3v-212q17 -3 34 -3v28q13 2 21 25.5t8 55.5t-8 55.5
t-21 25.5zM308 124h-84q-10 0 -10 -10t10 -10h84q10 0 10 10t-10 10z" />
    <glyph glyph-name="my2" unicode="&#xe017;" horiz-adv-x="356" 
d="M316 290q1 3 1 5v29q0 8 -5.5 13.5t-13.5 5.5h-17q-8 0 -13.5 -5.5t-5.5 -13.5v-29q0 -2 1 -5h-165q1 3 1 5v29q0 8 -5.5 13.5t-13.5 5.5h-17q-8 0 -13.5 -5.5t-5.5 -13.5v-29q0 -2 1 -5h-35v-249h336v249h-30zM141 169h-90v31h90v-31zM319 170h-40v-42h-26v42h-40v25h40
v42h26v-42h40v-25z" />
    <glyph glyph-name="personal7" unicode="&#xe018;" horiz-adv-x="520" 
d="M500 179q-1 21 -3.5 28.5t1.5 11.5q3 5 -14 1l-1 -2q-14 0 -67.5 19.5t-81.5 21.5q-74 8 -123 -4q-11 -2 -48.5 -20.5t-39.5 -19.5q-4 1 -4 2q-16 -1 -40.5 -9t-41.5 -16l-16 -7l-4 -12l1 -4q-5 -4 -6.5 -11.5t-1.5 -12.5t1 -5l5 1l2 -10q-8 -4 -2 -8q3 4 19 -1
q7 -2 32 -3q-3 8 -3 16q0 18 13 31t31 13t30.5 -13t12.5 -31q0 -7 -3 -14h223q-3 7 -3 14q0 18 13 31t31 13t30.5 -13t12.5 -31q0 -6 -2 -12l48 8l5 6q4 27 0 31zM108 100q22 0 32 21q3 7 3 14q0 15 -10.5 25.5t-25 10.5t-25 -10.5t-10.5 -25.5q0 -8 4 -16q10 -19 32 -19z
M412 100q22 0 31 20q4 8 4 15q0 15 -10.5 25.5t-25 10.5t-25 -10.5t-10.5 -25.5q0 -7 3 -14q10 -21 33 -21z" />
    <glyph glyph-name="police15" unicode="&#xe019;" horiz-adv-x="504" 
d="M61 168h33v32h33v-32h32v32h32v-32h33v32h28h4v-32h-4h-28v-32h-33v32h-32v-32h-32v32h-33v-32h-18v-15q7 -24 27.5 -40t45 -22.5t48 -9.5t39.5 -3l16 1q2 1 16 -0.5t39 2t49 9.5t44.5 22.5t27.5 40.5v34q6 6 15 13h-26v-33h-32v33h-32v-33h-32v33h-33v-32h-32v32h32v32
h33v-32h32v32h32v-32h32v32h33v-27q35 29 41 35q3 3 -1.5 8.5t-13.5 18t-12 27.5q-1 5 -3 14t-2.5 12t-2.5 9t-4 7.5t-5.5 4.5t-8.5 4t-12 2q-1 0 -11 1t-13 1.5t-13 1.5t-15 2.5t-14 3.5t-15 5t-14.5 6.5t-15.5 8.5t-13 11q-19 16 -31 23.5t-16 7.5l-3 -1q-9 6 -50 -30
q-6 -6 -13.5 -11t-15.5 -8.5t-14 -6.5t-15.5 -5t-14.5 -3.5t-14.5 -2.5t-12.5 -1.5t-13 -1.5t-11 -1q-7 -1 -12 -2t-8.5 -4t-5.5 -4.5t-4 -7.5t-2.5 -9t-2.5 -12t-3 -14q-4 -15 -12.5 -27.5t-13 -18t-1.5 -8.5q7 -7 48 -40z" />
    <glyph glyph-name="rentacar1" unicode="&#xe01a;" horiz-adv-x="440" 
d="M422 161l-38 6v17q0 31 -19 51.5t-48 20.5h-188q-30 0 -51 -21t-21 -51v-17l-38 -6q-9 -2 -9 -10v-10q0 -9 10 -9h11q-4 -7 -4 -15v-82q0 -9 5.5 -16.5t14.5 -9.5v-52q0 -4 3 -7t7 -3h45q4 0 7 3t3 7v51h221v-51q0 -4 3 -7t7 -3h45q10 0 10 10v53q17 7 17 25v82
q0 8 -4 15h9q10 0 10 9v10q0 8 -8 10zM93 184q0 14 10.5 24.5t25.5 10.5h55v-1v-16q0 -6 5 -6h58q5 0 5 6v16v1h65q14 0 22 -10.5t8 -24.5v-29h-254v29zM111.5 54q-8.5 0 -14 5.5t-5.5 13.5t5.5 14t14 6t14 -6t5.5 -14t-5.5 -13.5t-14 -5.5zM277 55h-112q-7 0 -12.5 5.5
t-5.5 13t5.5 13t12.5 5.5h112q8 0 13.5 -5.5t5.5 -13t-5.5 -13t-13.5 -5.5zM311 73q0 8 6 14t14 6t13.5 -6t5.5 -14t-5.5 -13.5t-13.5 -5.5t-14 5.5t-6 13.5zM332 437q-20 0 -37.5 -11t-27.5 -29h-17q-4 0 -6 -1l-20 -13q-4 -3 -9 0l-19 13q-4 2 -8 0l-20 -13q-4 -2 -8 0
l-21 13q-4 2 -9 0l-13 -9q-4 -2 -8 0l-14 9q-1 1 -4 1h-21q-15 0 -25.5 -10t-10.5 -25q0 -14 9.5 -23t24.5 -9h199q10 -18 27.5 -29t37.5 -11q31 0 52.5 21.5t21.5 52t-21.5 52t-52.5 21.5zM352.5 339q-9.5 0 -17 7t-7.5 17t7.5 17t17 7t16.5 -7t7 -17t-7 -17t-16.5 -7z" />
    <glyph glyph-name="running16" unicode="&#xe01b;" horiz-adv-x="399" 
d="M95 320q1 -14 12 -23t25 -9q15 0 26 11t11 26.5t-11 26.5t-26 11q-14 0 -25 -9.5t-12 -23.5h-4q-6 0 -6 -5t6 -5h4zM261 164l53 -53q2 -1 4 -1t4 1l65 66q2 1 2 3.5t-2 3.5l-31 31v0l-22 22q-4 4 -7 0l-28 -27q1 2 1 3q0 11 -8 17l-48 40q-5 5 -12 6l-52 13q-6 3 -13 4
h-1h-2q-21 0 -32 -19l-23 -30l-42 10l-3 1h-2q-8 0 -14 -4v18q7 7 7 16q0 14 -12 20q-2 2 -4.5 0.5t-2.5 -4.5v-10h-7v10q0 3 -2.5 4.5t-4.5 -0.5q-12 -6 -12 -20q0 -9 7 -16v-63q-7 -7 -7 -16q0 -14 12 -20q2 -2 4.5 -0.5t2.5 4.5v11h7v-11q0 -3 2 -4q1 -1 2.5 -1t2.5 1
q12 6 12 20q0 9 -7 16v12q5 -5 12 -5l50 -11h2q15 -2 21 11l5 8l22 -51l-31 -26l-3 -3q-7 -8 -7 -18q0 -5 16 -68l-23 -9l-2 -2q-5 -4 -5 -10q0 -5 5.5 -8t8.5 -3h1l39 -1q2 -1 3.5 -1t3.5 1h1h1q2 0 3 1q16 6 16 23v1v1q0 2 -1 3q0 2 -2 5l-17 52q0 1 1 2l31 29l5 -25h1
q4 -11 14 -16l64 -28v-30q0 -2 2 -3q3 -8 11 -8q6 0 12 8q1 1 1 2l14 37q2 3 3 7v3v2q0 8 -5.5 15t-13.5 9l-55 24l-18 57l-21 44l7 -1l45 -38q6 -5 14 -5h4l-22 -21q-3 -4 0 -8z" />
    <glyph glyph-name="saw1" unicode="&#xe01c;" horiz-adv-x="489" 
d="M479 383l-25 39l-403 -261l6 -11l40 26q8 5 16 5q17 0 25 -14l75 -115l43 28l22 31l-5 25l28 6l-6 26l30 6zM380 343q7 0 12.5 -5.5t5.5 -12.5t-5.5 -12.5t-12.5 -5.5t-12.5 5.5t-5.5 12.5t5.5 12.5t12.5 5.5zM91 -30q7 -10 19 -10q6 0 11 4l80 52q8 4 10 13t-3 17l-2 2
l-74 115q-7 10 -18 10q-7 0 -12 -4l-40 -25l-40 -26q-8 -5 -10 -14t3 -16zM48 100l29 19l15 10q10 6 16 -4l42 -64q6 -10 -4 -17l-14 -9l-29 -19q-10 -6 -17 4l-41 64q-7 10 3 16z" />
    <glyph glyph-name="speed" unicode="&#xe01d;" horiz-adv-x="360" 
d="M193 138q12 -5 16 -17t-1.5 -24t-16.5 -16q-12 -4 -23.5 1t-16.5 16q-4 11 0 23t15 17l10 114q0 5 2 7.5t4 0t2 -7.5zM350 192q0 -70 -50 -120t-120.5 -50t-120 50t-49.5 120t49.5 120t120 50t120.5 -50t50 -120zM305 142q10 24 10 50q0 56 -39.5 95.5t-95.5 39.5
t-95.5 -39.5t-39.5 -95.5q0 -26 9 -50q55 38 106 42l-3 -31q-24 -11 -24 -42q0 -19 14 -32.5t33 -14t32.5 13.5t13.5 33q0 31 -23 42l-4 31q52 -4 106 -42z" />
    <glyph glyph-name="steering1" unicode="&#xe01e;" 
d="M266 448q-106 0 -181 -75t-75 -181t75 -181t181 -75t181 75t75 181t-75 181t-181 75zM266 384q62 0 111 -35.5t69 -92.5h-360q20 57 69 92.5t111 35.5zM266 160q-13 0 -22.5 9.5t-9.5 22.5t9.5 22.5t22.5 9.5t22.5 -9.5t9.5 -22.5t-9.5 -22.5t-22.5 -9.5zM74 192
q65 0 112 -55t48 -134q-69 12 -114.5 65t-45.5 124zM298 3q1 79 48 134t112 55q0 -71 -45.5 -124t-114.5 -65z" />
    <glyph glyph-name="toolbox3" unicode="&#xe01f;" horiz-adv-x="430" 
d="M71 296l2 2q1 -1 1 -2l45 -44q4 5 11 5h4l6 -2l3 12l-49 49q-1 1 -3 2h1v2t1 2q0 1 1 1v2l2 2q0 1 1 3l1 1l1 1q1 2 2 3l3.5 3.5l0.5 0.5q1 1 2 1l2 2q1 1 3 2q1 0 1 1q1 0 3 1h0.5t1 0.5t1.5 0.5h1l2 1h1q2 1 3 1l6 1q1 0 2 1t1 3q1 3 -3 4l-6 2q-1 0 -3 1h-2h-2h-3h-1
h-2q-3 1 -5 0h-1q-4 0 -6 -1h-3q-2 0 -3 -1h-1q-3 -1 -7 -3h-1q-2 -1 -5 -3h-1l-1 -1l-1 -1q-3 -1 -5 -2l-2 -2l-3 -2q0 -1 -2 -2q-6 -1 -11 -6l-5 -5q-3 -3 -6 -9q-7 2 -34 -25l35 -36q27 27 26 34zM347 299l22 -5l23 29q7 8 17 6v12h-33v-26h-36zM146 291l7 24h-30z
M409 171v86q-1 -2 -1 -3q-15 -18 -36 -25h4v-58h-78h-11l41 57l3 3q17 -4 35 1.5t30 20.5q18 23 12 52q-1 4 -4 4.5t-6 -1.5l-27 -35l-35 7l-14 33l27 34q2 3 0.5 6t-5.5 3q-29 -1 -48 -24q-25 -32 -6 -69q-1 -1 -3 -2l-54 -65l13 -13q5 -5 7 -12h-6q-1 5 -5 8l-74 75l-2 -7
l5 -1q6 -2 9 -7.5t1 -11.5q-1 -3 -3 -5q0 -6 -1 -11l-7 -22l18 -18h-6h-12h-13l14 44q1 6 -1 12q4 1 4 4q3 8 -5 10l-12 4l32 107h1l9 16l3 24l-14 5l-11 -23l-1 -18h1l-32 -108l-12 4q-8 2 -10 -5q-1 -3 0 -6q-4 -4 -6 -10l-18 -60h-12h-5v58h22l4 14q1 3 4 7l-36 36
q-10 -14 -17 -21l-10 -10v-84h-11v-117q0 -27 19.5 -47t47.5 -20h248q28 0 47.5 20t19.5 47v117h-11zM147 213q3 8 11 5.5t5 -10.5l-10 -37h-18zM120 221q3 8 11 5.5t5 -10.5l-13 -45h-17zM191 315l-13 -44l41 -42h23l37 45q-8 19 -4 41h-84z" />
    <glyph glyph-name="traffic17" unicode="&#xe020;" horiz-adv-x="529" 
d="M517 97l-5 14q-4 13 -18 13h-16q-12 35 -23 60q-2 4 -5 7.5t-8 5.5l-7.5 3t-9 2.5l-6.5 1.5q-19 6 -79 6q-27 0 -46.5 -1.5t-25.5 -2.5l-6 -2q-1 0 -9.5 -2.5t-12 -4t-8.5 -5t-7 -8.5q-8 -14 -24 -60h-15q-14 0 -18 -13l-5 -14q-2 -5 1 -10.5t8 -5.5h16l-7 -17
q-2 -4 -2 -14v-101q0 -5 4 -9t9 -4h38q5 0 9 4t4 9v19h194v-19q0 -5 4 -9t10 -4h37q6 0 10 4t4 9v101q0 10 -2 14q-3 5 -7 17h15q5 0 8 5.5t1 10.5zM261 17h-18q-32 0 -32 13v14q0 13 14 13q8 0 31 -11l5 -2.5t4.5 -2t4 -2t3.5 -2.5l2.5 -2.5t2 -3t0.5 -3.5q0 -11 -17 -11z
M223 110q5 17 9.5 29.5t8.5 20l4 7.5q8 18 95 18t94 -15q0 -2 4.5 -10.5t9.5 -21.5t9 -28q-39 -13 -117 -13q-34 0 -63.5 3.5t-41.5 6.5zM469 30q0 -13 -32 -13h-17q-18 0 -18 11q0 2 0.5 3.5t2 3t3 2.5t4 2.5t3.5 2t4.5 2t4.5 2.5q23 11 31 11q14 0 14 -13v-14zM186 146
q13 36 19 48q10 19 44 29l6 2q21 7 85 7h0.5h1.5q-1 0 -1 1h15q6 0 8.5 5t0.5 11l-4 13q-5 14 -18 14h-16q-12 35 -23 60q-2 4 -5 7t-8 5t-8 3l-9 3t-7 2q-18 5 -78 5q-27 0 -46.5 -1t-26.5 -3l-6 -1q-1 0 -9.5 -3t-11.5 -4.5t-8.5 -5t-7.5 -8.5q-8 -15 -23 -59h-16
q-13 0 -18 -14l-4 -13q-2 -6 0.5 -11t8.5 -5h15l-7 -18q-2 -3 -2 -13v-101q0 -6 4 -10t10 -4h37q6 0 10 4t4 10v19h56q5 11 15.5 18.5t22.5 7.5v0zM109 168h-18q-32 0 -32 14v13q0 14 15 14q8 0 31 -12q1 0 4 -1.5t4.5 -2.5t4 -2.5t4 -2.5t3 -2.5t2 -3t0.5 -2.5
q0 -12 -18 -12zM72 261q4 17 9 29.5t9 20t4 8.5q7 17 95 17q87 0 93 -15q1 -2 5 -10.5t9 -21t9 -28.5q-39 -12 -116.5 -12t-116.5 12zM245 405q8 18 95.5 18t93.5 -15q0 -2 4.5 -10.5t9.5 -21.5t9 -28q-39 -13 -117 -13l-13 1q8 -19 15 -39h1q12 0 23 -7.5t15 -20.5l5 -13
q4 -13 -1 -26q29 -2 40 -5l4 -1q36 -9 46 -31q3 -6 8 -19h5q6 0 10 4t4 9v101q0 10 -2 14q-3 5 -7 17h15q5 0 8 5.5t1 10.5l-5 14q-4 13 -18 13h-16q-12 36 -23 60q-2 4 -5 7.5t-8 5.5l-7.5 3t-9 2.5t-7.5 1.5q-18 6 -78 6q-27 0 -46.5 -1.5t-25.5 -2.5l-6 -2
q-1 0 -9.5 -2.5t-12 -4t-8.5 -5t-7 -8.5q-5 -9 -16 -39q13 0 25 -1q3 8 7 15.5zM469 282v-14q0 -13 -32 -13h-17q-18 0 -18 11q0 2 0.5 3.5t2 3t3 2.5t4 2.5t3.5 2t4.5 2t4.5 2.5q23 11 31 11q14 0 14 -13z" />
    <glyph glyph-name="vehicle3" unicode="&#xe021;" horiz-adv-x="524" 
d="M262 444q-105 0 -178.5 -73.5t-73.5 -178.5t73.5 -178.5t178.5 -73.5t178.5 73.5t73.5 178.5t-73.5 178.5t-178.5 73.5zM262 -6q-82 0 -140 58t-58 140t58 140t140 58t140 -58t58 -140t-58 -140t-140 -58zM262 367q-73 0 -124 -51t-51 -124t51 -124t124 -51t124 51
t51 124t-51 124t-124 51zM390 138h-1l-63 42q1 7 1 12q0 6 -1 12l63 42h1q11 -26 11 -54t-11 -54zM372 276l-68 -34q-9 7 -20 11l-4 76v1q57 -8 92 -54zM262 161q-13 0 -22 9t-9 22t9 22t22 9t22 -9t9 -22t-9 -22t-22 -9zM245 330v-1l-5 -76q-11 -4 -20 -12l-69 34
q36 48 94 55zM134 245l64 -42q-1 -6 -1 -11t1 -11l-64 -42q-11 25 -11 53t11 53zM151 109l69 34q9 -8 20 -12l5 -76v-1q-58 7 -94 55zM280 54v1l4 76q11 4 20 11l68 -34q-35 -46 -92 -54z" />
    <glyph glyph-name="wrench11" unicode="&#xe022;" horiz-adv-x="392" 
d="M368 -13l4 5l5 4q4 4 -9 24l-19 29q-13 20 -26 22l-12 3l-57 56l-20 -20l56 -57l3 -12q2 -13 22 -26l29 -19q20 -13 24 -9zM22 281l84 -83l11 -11v-1l14 14l-99 99q-4 4 0.5 8.5t8.5 0.5l99 -99l15 15l-99 99q-4 5 0.5 9t8.5 0l99 -99l14 14h-0.5t-0.5 1l-11 11l-83 83
q-13 12 -30.5 12t-30 -12.5t-12.5 -30t12 -30.5zM379 274q-1 10 -8 12t-14 -6l-33 -32q-6 -6 -14 -6t-14 6l-21 21q-6 6 -6 14t6 14l34 33q7 7 5 14.5t-11 8.5q-42 5 -72 -24q-22 -22 -25 -54q-1 -11 1 -23l-181 -182q-15 -15 -15 -36t14.5 -36t36 -15t35.5 15l184 184
q12 -2 25 0q28 4 48 24q28 28 25 68zM78.5 14q-7.5 -8 -18.5 -8t-19 8t-8 19t8 18.5t19 7.5t18.5 -7.5t7.5 -18.5t-7.5 -19z" />
    <glyph glyph-name="abacus11" unicode="&#xe023;" horiz-adv-x="524" 
d="M251 355v0v0zM506 372q0 5 -3.5 7t-7.5 1q-3 2 -7 1q-5 -2 -15 -2t-11 -1q-7 0 -16 -2q-2 4 -7 3t-5 -7v0q-3 -3 -1 -6q-1 -18 -1 -40q-54 11 -133 6q1 11 4 23q1 8 -4.5 12t-12 1.5t-6.5 -10.5l-3 -27q-9 -1 -11 -1v1t1 2q2 14 -3.5 20.5t-12.5 1.5l-1 -1l1 1l-2 -2
l-2 -2q-2 -3 -2 -6q-1 -4 -3 -17q-86 -7 -129 -4q-2 0 -4 -1q-2 33 -6 61q4 3 3.5 7t-5.5 6q-7 3 -39 1q-24 -1 -36 -5q-6 -2 -4 -8q-5 -55 -7 -87q-2 -1 -2 -3.5t2 -4.5q-5 -77 -3 -135q-1 -1 -1 -3t1 -3q3 -75 18 -137q1 -6 6 -4q-1 -7 5 -8q15 -4 34 -3q12 2 18 7
q5 0 5 6q0 26 2 67q2 -1 3 -1q66 -2 211 5q0 -7 -2 -11q-2 -9 7 -13t14 5q4 8 4 20h5h5.5h4.5q0 -8 1 -16q1 -7 9 -8.5t9 6.5q1 2 2 9t1 10q17 1 18 1q-1 -6 -2 -11q-1 -7 4 -11.5t11 -3t8 8.5q1 8 2 18h7h8q2 0 5 1q-2 -43 -8 -78q-1 -7 6 -8q-6 -3 -4.5 -10.5t8.5 -6.5
q5 0 7 1q6 1 26 2.5t30 4.5q1 1 3 2q8 -3 8 6q3 62 -2.5 186.5t-2.5 186.5zM34 218q29 -11 47 -11v-6.5v-6.5h-1q-3 2 -27 8q-12 3 -19 5v6v5zM33 170q7 -4 12 -6q20 -10 29 -9q3 0 4 3t-2 5q-4 2 -13 5t-13 4q-7 3 -16 9v9v7q10 -2 16 -4q23 -7 29 -6q1 0 2 1
q-1 -31 -1 -49q-2 1 -47 11v20zM33 141q30 -11 48 -11v-9.5v-9.5q-5 2 -13.5 4.5t-11.5 3.5t-11 4t-12 5v6v7zM34 99q0 1 -1 18l20 -8q20 -8 28 -8q1 -18 1 -19q-1 0 -3.5 1l-2.5 1q-7 1 -18 5q-12 4 -24 10zM34 89q4 -2 24 -11q18 -7 24 -7q0 -1 0.5 -8t0.5 -10
q-4 2 -13.5 4.5t-13.5 4.5q-9 4 -21 13q0 3 -0.5 7.5t-0.5 6.5zM42 13l-1 -1v3q-1 3 -2 15q18 -12 30 -17q-7 -1 -27 0zM59 29q-6 2 -21 11q-1 2 -2 23q27 -20 45 -19q1 0 3 1q1 -22 2 -26q-2 0 -12 3.5t-15 6.5zM81 218q-2 1 -25 5q-10 2 -21 5v22q9 -2 18 -5q19 -4 24 -1
q5 4 1 7q-3 2 -22 5l-20 4v21q1 0 4.5 -1.5t5.5 -2.5q22 -8 30 -5q3 1 3.5 4t-2.5 5q-5 2 -14 3.5t-11 2.5q-7 2 -16 5v8.5v8.5q7 -2 15 -4q22 -4 29 -1q3 1 2.5 4t-2.5 4q-2 2 -21 4q-11 1 -23 5v24q8 -5 16 -8q25 -10 34 -8q-4 -65 -5 -111zM86 338q-4 2 -14 4t-13 3
q-12 3 -23 11q0 2 -0.5 5t-0.5 4q13 -3 25 -8q3 0 12.5 -4t14.5 -6v-2.5t-0.5 -3.5t-0.5 -3zM88 361q-4 1 -11 3.5t-9 2.5q-18 6 -33 9v1.5v2.5q1 0 11.5 0.5t15.5 0.5q3 0 12.5 -0.5t14.5 0.5q0 -4 -1 -20zM470 156l-13 5v7.5v7.5q5 -1 6 -1q10 -2 17 -5q4 -1 7 -2
q1 0 1.5 -0.5l0.5 -0.5q1 -2 1 -8v-9q-3 1 -10 3t-10 3zM490 140h1v-11.5t1 -12.5q-3 1 -8 2.5t-8 2.5q-9 3 -20 9q1 7 1 22q7 -2 9 -3q1 -1 7 -4t10 -4t7 -1zM479 180q-7 2 -21 5h-1v6.5v8v6.5q6 -2 13 -4q14 -5 18 -5q1 -2 1 -8.5v-10.5q-2 1 -10 2zM457 215q0 2 -1 21
q6 -2 13 -5q15 -8 19 -8v-7.5v-8.5q-6 2 -17 4.5t-14 3.5zM472 239q-10 4 -16 6q0 2 -0.5 7.5t-0.5 8.5q5 -2 8 -4q3 -1 11.5 -4.5t13.5 -4.5v-7v-8q-3 1 -5.5 2t-5.5 2t-5 2zM455 269q0 4 -0.5 11t-0.5 9q3 -2 13 -6q18 -8 20 -8v-8.5v-8.5q-4 2 -32 11zM487 287
q0 1 -3.5 1.5t-4.5 1.5q-22 8 -24 8h-2q0 5 -1 13t-1 12q3 -1 8 -2.5t7 -2.5q17 -5 22 -3q-1 -19 -1 -28zM456 122q6 -4 13 -8q15 -7 23 -8q1 -17 2 -31h-1q-8 3 -23 9q-3 2 -9 5t-7 3q1 13 2 30zM488 323q-1 1 -19 4q-6 1 -18 4q-1 3 -1.5 10t-0.5 10q8 -3 11 -5
q8 -3 19 -9l3.5 -1.5t5.5 -2.5v-5v-5zM453 85q15 -9 16 -9q22 -13 25 -13q2 -21 2 -24q-2 1 -7.5 2.5t-7.5 2.5q-13 5 -32 13q2 9 4 28zM488 364h1q0 -3 -0.5 -9.5t-0.5 -7.5q-4 2 -12.5 5.5t-9.5 3.5q-16 7 -18 8v1q27 2 40 -1zM110 309q1 -2 3 -2q49 -5 126 -1
q-1 -15 3 -23q3 -7 11.5 -5t7.5 10t1 19q10 1 16 1q1 -13 5 -23q3 -7 10.5 -5.5t5.5 9.5q-2 9 -2 20q83 4 135 -2q0 -29 2 -94h-2q-75 14 -224 -2q2 12 0 18q-2 5 -7 6.5t-9 -2.5q-7 -8 -8 -24q-1 0 -5 -0.5t-7 -0.5q2 14 2 19q2 7 -3 11.5t-11 3t-8 -8.5q-3 -12 -3 -28
q-9 -1 -10 -1q0 1 0.5 2.5t0.5 2.5t0.5 6t1 7.5t0 6.5t-2.5 6t-6 3q-7 2 -11 -4.5t-5 -14.5q-1 -6 -1 -17h-4t-4 -1q3 63 2 108zM435 103q-2 2 -5 2h-7.5h-6.5q-1 14 -3 25q-2 7 -8 8.5t-11.5 -3t-3.5 -11.5q2 -8 2 -20h-7.5h-7.5q1 18 0 30q-1 11 -11 11t-11 -11
q-2 -16 -3 -31h-8h-7q0 14 1.5 21t-3.5 11.5t-11.5 3t-8.5 -8.5q-2 -9 -1 -28q-40 -1 -211 -10h-2q1 14 3 46.5t3 49.5h4.5h3.5q-1 -7 -2 -12q-1 -6 4 -10.5t11 -3.5t7 8t3 17h5h6l2 -16q1 -7 9 -7t8 7q1 3 2 16q3 0 8 0.5t8 0.5q1 -9 4 -17q2 -8 10.5 -7t7.5 9q0 9 -1 15
q86 1 223 9q2 0 4 1q2 -58 1 -95zM438 1q2 2 2 3q2 7 4 18q5 -3 8 -5q0 -1 -1 -1l1 1h-1q0 -1 -0.5 -2.5t-1.5 -1.5q-1 -3 -2 -3q0 -1 1 -1l-0.5 -1t-0.5 -2q-1 0 -1 -3q-6 -1 -8 -2zM473 6q-15 -1 -27 -3q1 3 3 7q0 1 4 7q7 -4 10 -5q1 0 3.5 -1.5t5 -2.5t4.5 -1zM491 8
q2 3 -1.5 5.5t-13 5t-10.5 2.5q-10 3 -21 9q1 4 2 11t1 8q24 -15 48 -21l0.5 -8.5t1.5 -12.5q-3 1 -7 1z" />
    <glyph glyph-name="abacus2" unicode="&#xe024;" horiz-adv-x="485" 
d="M474 395q-6 25 -34 31q-2 1 -5 1h-1q-37 1 -108 1t-160.5 -0.5t-108.5 -0.5h-1h-1q-22 -1 -32 -13q-10 -13 -8 -34q1 -2 2 -5q-1 -33 -2 -56v-3v-1.5v-2.5v0q1 -47 -2 -150.5t-2 -159.5v-2t1 -4q3 -15 14.5 -24t26.5 -10l2 1l0.5 -0.5l0.5 -0.5q151 -2 368 -2h3h1
q25 -3 35 20q2 3 2 7v1q4 61 6 125t2.5 150.5t1.5 125.5v1q0 3 -1 5zM438 -9l-1 -1l-1 -1v-1l-2 -1h-1h-1h-4h-2h-1h-1q-217 0 -368 3h-2h-1q-6 0 -10 3l-1 1l-1 1l-1 1q-1 2 -2 5v1v24h24q11 -16 34 -19.5t35 12.5q14 -15 38 -14t30 22q28 -1 84.5 -2.5t84.5 -2.5
q11 -18 36 -21.5t36 15.5q-2 -21 -2 -25zM97 55q6 1 9 0q4 0 5.5 -1.5t2.5 -5.5t0 -10q0 -1 -1 -2v-2l-0.5 -1l-0.5 -1l-1 -1l-0.5 -0.5l-0.5 -0.5l-1 -1l-1 -1h-1q-1 0 -1 -1q-17 -1 -26 10q-1 15 17 18zM161 54q5 1 9 0q4 0 5.5 -2t2.5 -5q1 -4 0 -10q-1 -1 -1 -2t-1 -2
v-1v-1l-1 -1l-1 -1l-1 -1t-2 -1l-0.5 -0.5t-1.5 -0.5q-16 -1 -25 10q-2 15 17 18zM403 50h1h9q4 -1 5.5 -2.5t2.5 -5.5q1 -3 0 -9q-1 -2 -1 -3l-0.5 -1.5l-0.5 -1.5l-1 -1l-0.5 -1l-0.5 -1h-1q-1 -1 -2 -1q0 -1 -1 -1h-1q-17 -1 -25 10q-2 15 16 18zM441 50q-2 7 -7 12
q-11 13 -30.5 12t-31.5 -17q-4 -5 -6 -10q-28 1 -83.5 3t-83.5 3q-2 8 -8 13q-11 13 -29.5 12.5t-30.5 -14.5l-3 3q-12 13 -31.5 12t-31.5 -16q-4 -5 -6 -11h-21q0 42 2 114q7 0 159 -6q8 -19 33.5 -24t37.5 12q14 -13 34 -14t31 14q14 -14 36.5 -13t29.5 20h38q3 0 6 2
q-1 -57 -4 -107zM220 173q2 9 16 11h1q5 1 8 0q4 0 6 -1.5t3 -5.5t0 -10q-1 -1 -1 -2t-1 -2v-1t-0.5 -1t-0.5 -1l-1 -1q-1 0 -1 -1q-1 0 -2 -1h-1l-1 -1q-17 -1 -25 10v3v4zM300 183q6 1 9 0q4 0 5.5 -2t2.5 -5q1 -4 0 -10q0 -1 -1 -2v-2l-0.5 -1l-0.5 -1l-1 -1l-0.5 -0.5
l-0.5 -0.5l-1 -1q0 -1 -1 -1l-1 -1h-1q-17 -1 -26 10q-1 15 17 18zM363 184q6 1 9 0q4 0 6 -1.5t3 -5.5v-10q-1 -1 -1 -2q-1 -1 -1 -2l-0.5 -1l-0.5 -1l-1 -1l-0.5 -0.5l-0.5 -0.5v-1q-1 0 -2 -1h-1l-1 -1q-17 -1 -25 10q-2 15 16 18zM445 179q-3 2 -6 2h-37q-2 9 -8 15
q-11 13 -30 12.5t-32 -15.5q-1 1 -1 2q-11 13 -29.5 12.5t-31.5 -14.5l-3 3q-11 13 -30.5 12t-32.5 -16q-2 -3 -4 -7q-17 1 -50 3t-59.5 2.5t-49.5 0.5q1 60 1 97h68q12 -20 39.5 -22t35.5 22h64q8 -19 33.5 -24.5t38.5 11.5q14 -14 36.5 -12.5t28.5 20.5q8 0 26.5 -0.5
t29.5 -0.5h4q-1 -69 -1 -103zM146 316h1h8q4 -1 6 -2.5t3 -5.5q1 -3 0 -10q-1 -1 -1 -2l-1 -2v-1q-1 -1 -1 -2l-0.5 -0.5t-1 -0.5t-0.5 -1q-1 0 -2 -1h-1h-1q-17 -2 -25 10q-2 14 16 18zM287 312q6 1 9 0q4 0 5.5 -2t2.5 -5q1 -4 0 -10q0 -1 -1 -2v-2v-1l-1 -1l-1 -1
l-0.5 -0.5t-0.5 -1t-1 -0.5q0 -1 -1 -1t-1 -1h-1q-17 -1 -26 10q-1 15 17 18zM348 312h1q5 1 8 0q4 0 6 -2t3 -5q1 -4 0 -10q-1 -1 -1 -2t-1 -2v-1q0 -1 -0.5 -1t-0.5 -1l-1 -1l-1 -1q-1 -1 -2 -1l-1 -0.5l-1 -0.5q-17 -1 -25 10q-2 15 16 18zM447 389q0 -32 -1 -83
q-2 1 -4 1q-11 1 -29.5 1t-25.5 1q-2 9 -8 15q-11 12 -29 12t-31 -14l-1 2q-12 13 -31.5 12t-31.5 -17q-2 -2 -4 -5h-66q-3 8 -8 14q-11 13 -30.5 12t-32.5 -17q-3 -4 -5 -9h-66q1 25 1 65q0 4 -2 7v5l1 3v1l1 1l1 1l1 1q3 1 9 1l0.5 0.5l0.5 0.5l0.5 -0.5l0.5 -0.5
q19 0 108.5 1t160.5 1t108 -2v0q3 0 5 -1l1 -0.5l1 -0.5q1 0 2 -1l2 -2l0.5 -0.5l0.5 -0.5l0.5 -1l0.5 -1v-2z" />
    <glyph glyph-name="abc" unicode="&#xe025;" horiz-adv-x="504" 
d="M330 204q16 0 28 11.5t12 28.5v152q0 17 -12 28.5t-28 11.5h-152q-17 0 -28.5 -11.5t-11.5 -28.5v-152q0 -17 11.5 -28.5t28.5 -11.5h152zM162 244v152q0 7 4.5 11.5t11.5 4.5h152q6 0 11 -4.5t5 -11.5v-152q0 -7 -5 -11.5t-11 -4.5h-152q-7 0 -11.5 4.5t-4.5 11.5z
M10 148v-152q0 -17 11.5 -28.5t28.5 -11.5h152q16 0 28 11.5t12 28.5v152q0 17 -12 28.5t-28 11.5h-152q-17 0 -28.5 -11.5t-11.5 -28.5zM218 148v-152q0 -7 -5 -11.5t-11 -4.5h-152q-7 0 -11.5 4.5t-4.5 11.5v152q0 7 4.5 11.5t11.5 4.5h152q6 0 11 -4.5t5 -11.5zM494 148
q0 17 -12 28.5t-28 11.5h-152q-17 0 -28.5 -11.5t-11.5 -28.5v-152q0 -17 11.5 -28.5t28.5 -11.5h152q16 0 28 11.5t12 28.5v152zM470 -4q0 -7 -5 -11.5t-11 -4.5h-152q-7 0 -11.5 4.5t-4.5 11.5v152q0 7 4.5 11.5t11.5 4.5h152q6 0 11 -4.5t5 -11.5v-152zM189 249
q2 -1 5 -1q8 0 11 7l11 22h76l10 -22q4 -7 11 -7q3 0 6 1q10 6 5 16l-60 120q0 1 -0.5 1.5t-0.5 1t-1 1l-1 0.5l-0.5 0.5t-1.5 0.5v1h-1h-1l-1 0.5t-1.5 0.5h-1h-1t-1 -0.5t-1 -0.5h-1.5h-1v-1h-1l-0.5 -0.5l-0.5 -0.5l-0.5 -0.5l-1.5 -1.5t-1 -2l-60 -120q-5 -10 6 -16z
M254 353l26 -52h-52zM97 -3h30q20 0 33.5 14t13.5 33q0 28 -25 41q8 11 8 23q0 16 -11.5 27.5t-27.5 11.5h-21q-15 0 -19 -14q-1 -2 -1 -5v-1v-37v-19v-54v-1v-2q2 -7 7.5 -12t12.5 -5zM150 44q0 -9 -6.5 -16t-16.5 -7h-26v46h26q10 0 16.5 -7t6.5 -16zM133 108
q0 -6 -4.5 -10t-10.5 -4h-17v29h17q6 0 10.5 -4.5t4.5 -10.5zM420 37q-14 -13 -33 -13q-20 0 -34 14t-14 34t14 34t34 14q18 0 32 -12q9 -8 16.5 1t-0.5 17q-21 18 -48 18q-30 0 -51 -21t-21 -51t21 -51t51 -21q28 0 49 20q9 8 0.5 17t-16.5 0z" />
    <glyph glyph-name="abc8" unicode="&#xe026;" horiz-adv-x="510" 
d="M371 435h-232v-232h232v232zM342 232h-174v174h174v-174zM269 181v-232h231v232h-231zM472 -22h-175v174h175v-174zM10 -51h231v232h-231v-232zM38 152h175v-174h-175v174zM227 287h55l14 -40h25l-53 144h-26l-53 -144h24zM247 344q5 14 8 26q1 -3 3.5 -11.5t4.5 -12.5
l13 -39h-42zM148 69v1q12 2 18.5 10t6.5 21q0 18 -13.5 27t-42.5 9h-43v-143h52q24 0 37.5 10.5t13.5 30.5q0 14 -7 22.5t-22 11.5zM98 117h20q16 0 23 -4.5t7 -14.5q0 -11 -6.5 -15.5t-21.5 -4.5h-22v39zM144.5 19q-7.5 -6 -21.5 -6h-25v46h23q16 0 23.5 -5.5t7.5 -16.5
q0 -12 -7.5 -18zM395 -10q21 0 38 6v20q-9 -3 -17.5 -4.5t-17.5 -1.5q-21 0 -32 13.5t-11 39.5q0 25 11.5 39.5t31.5 14.5q9 0 17 -3t15 -6l9 19q-19 10 -41 10q-21 0 -36 -9t-23.5 -26t-8.5 -39q0 -35 17 -54t48 -19z" />
    <glyph glyph-name="abc9" unicode="&#xe027;" horiz-adv-x="412" 
d="M400 331q-3 22 -10.5 38.5t-22 27t-27 17t-34.5 11t-35.5 6t-38.5 3.5q-12 1 -17 1q-21 2 -33 3t-34 1t-36 -2t-32.5 -7.5t-29.5 -14t-20 -23t-11 -33.5q-4 -14 -1.5 -67.5t2.5 -66.5q-3 -168 -9 -237q-1 -5 4 -6t7 3q43 -46 338 -36q4 -2 7 0v21h-3h-3q-7 10 -9 21
t3.5 15t17.5 8q9 -3 11 6q4 29 6 58.5t3 74t2 57.5q1 14 3.5 41t3 40t-1.5 40zM339 -30q-87 1 -191 4q-109 4 -109 30q1 14 26 34q28 20 65 22t68 -7.5t73 -21t68 -13.5q-6 -8 -7 -20q-2 -13 7 -28zM366 37q-54 23 -184 36q-8 1 -12 1q-92 10 -135 -37q5 30 6.5 67t1 67.5
t-0.5 67.5q1 16 -1.5 47t-2.5 44q0 37 19 57q-16 -129 -1 -325q1 -3 4 -3t3 3q0 44 1 158t3 176q29 21 105 20q52 -1 139 -14q68 -11 69 -102q1 -140 -14 -263zM164 249q-18 40 -39 49q-14 5 -23 -6t-11 -25q-4 -37 7 -66q2 -5 8.5 -4.5t6.5 6.5q-1 13 -2 25q3 0 18 -1
q19 -1 21 -1l1 1q0 -1 0.5 -2.5t1 -2t1 -2.5t1 -3.5t1.5 -2.5q0 -1 0.5 -1.5l0.5 -0.5v1q0 -3 2 -5h1q6 -7 12 0q2 3 3 7t-0.5 9t-3 8.5t-4.5 9.5t-3 7zM127 245q-11 0 -16 -1q1 36 9 33q11 -6 23 -32h-9h-7zM311 258q-6 4 -13 5q1 5 1 9q1 13 -7 24.5t-21 14.5
q-21 6 -34 -15q-6 -1 -6 -8v-5v-4q-3 -19 4 -51q2 -11 4 -21q2 -6 7.5 -7.5t10.5 2.5q5 -11 16.5 -15.5t22.5 -0.5q20 6 27 33q6 26 -12 39zM261 289q10 4 15 -13q3 -10 -6 -17q-7 -3 -15 -7l-2 -2q-5 33 8 39zM300 224q-3 -13 -11 -16q-3 -2 -7 -0.5t-8.5 4.5t-6.5 4
q-3 1 -6 0q-1 2 -2 7.5t-2 8.5q3 -2 7 -1q8 3 15 7q27 9 21 -14zM232 155q-12 -12 -16 -14q-2 -1 -5 -2h-1h-1h-4h1l-3 1q-1 0 -3 1q0 1 -2 2t-4 3l-1 2q-1 1 -2 3v1v1l-1 2q-1 2 -1 4v1v3v1t1 3v0.5v0.5q1 1 3 2q0 1 1 1t1 1h1q6 2 19 2q7 -1 8 6.5t-6 9.5q-31 10 -46 -10
q-11 -16 -1 -39q10 -22 31 -25q14 -2 27.5 5t21.5 20q5 8 -3 14.5t-15 -0.5z" />
    <glyph glyph-name="airplane81" unicode="&#xe028;" horiz-adv-x="517" 
d="M237 180zM496 398q-3 5 -10 5q-50 -2 -116 -13.5t-115 -23.5t-115.5 -19t-116.5 1q-5 1 -7.5 -2.5t-1.5 -7.5q-3 -3 -3.5 -6.5t3.5 -5.5q11 -4 22.5 -12t18 -13t20.5 -17t17 -15q3 -2 18 -15.5t26.5 -22t22.5 -11.5q-5 -5 -8 -13.5t-3.5 -19t-0.5 -18t1 -19.5t1 -14
q2 -65 16 -144q2 -8 11 -9.5t12 6.5q1 1 6 11q70 48 137 114l0.5 0.5l0.5 0.5q1 0 4 -1.5t5 -1.5q36 -17 46 -22q5 -2 15.5 -10t17.5 -11q4 -2 8.5 -0.5t5.5 5.5q9 1 10 9q8 48 34 157q0 2 5.5 23.5t7 29.5t4 25t2 29.5t-3.5 24.5q1 1 3.5 2.5t3.5 2.5q7 5 5 12.5t-9 8.5z
M146 254q-9 6 -51 39q-40 32 -45 35q60 -9 129 0t148.5 26.5t128.5 22.5q-1 -1 -8 -6q-44 -27 -137.5 -69.5t-137.5 -67.5q-3 3 -7.5 6.5t-10.5 7.5zM237 180l0.5 -0.5l0.5 -0.5q4 -1 6 3q0 3 0.5 5t-3 5t-5 4t-5.5 3t-5 2q-28 16 -36 20q2 1 25 11q6 -9 26 -24
q18 -13 23 -15q-17 -14 -26 -20q-4 -3 -4 -8q-4 1 -8 -1q-3 3 -7.5 6.5t-11 7t-8.5 5.5q-18 11 -24 15q0 10 -1 17q1 0 3.5 1t3.5 2q19 -11 31 -20q9 -6 16 -12q1 0 2.5 -2t2.5 -2.5t3 -0.5q0 -1 1 -1v0zM250 217q-6 3 -15.5 10.5t-10.5 8.5q6 3 24 10q5 -3 15.5 -10.5
t16.5 -10.5q9 -6 13 -8q-13 -11 -18 -15q-4 3 -13.5 8t-11.5 7zM277 239q-7 4 -19 11q6 3 22 10l18 -12q14 -10 17 -11q-1 -1 -5 -4.5t-6 -5.5v0q-1 0 -3 0.5t-4 1.5l-2 1zM302.5 256q-1.5 1 -13.5 8q2 1 7 3t7 3q7 -3 15 -8q2 -2 6 -5t7 -5q-2 -1 -4.5 -3.5l-4.5 -4.5v1
q-2 3 -5 4.5t-8 3.5t-6.5 3zM323 270q-5 3 -9 5q1 0 21 9q0 -1 1.5 -2t2.5 -2l4.5 -4.5t6.5 -4.5l-5.5 -5.5t-5.5 -4.5q-2 2 -16 9zM357 278q-2 2 -6 4t-5 2q-1 1 -2.5 2l-1.5 1q26 12 45 22q-11 -12 -17 -18zM183 42q-4 31 -7 67q11 -12 17 -22q1 -2 2 -3q-7 -26 -12 -42z
M201 105q0 -1 -1 -3.5t-1 -3.5q-10 12 -25 26v1q-1 10 0 25q1 -1 4.5 -3t5.5 -3q4 -3 11 -8.5t11 -8.5q0 -3 -2 -11t-3 -11zM192 150q-3 1 -6 2.5t-6.5 3.5t-5.5 3q1 22 1 28q9 -6 20 -15q20 -15 23 -16q-5 -7 -8 -17q-2 2 -18 11zM210 39q24 62 31 115q3 -1 6 1
q21 -12 59 -29q-16 -16 -48.5 -45t-47.5 -42zM447 229q-21 -89 -24 -130q-10 8 -53 27q-17 8 -53 20.5t-53 19.5q52 36 113 96q5 5 27.5 27t36.5 36t26 29q1 0 1 1q-4 -18 -10 -60.5t-11 -65.5z" />
    <glyph glyph-name="airplane83" unicode="&#xe029;" horiz-adv-x="528" 
d="M515 138q-26 40 -35 63q-2 6 -8 6q0 2 -1 3q-5 9 -14 19q10 11 5 52q-6 46 -26 66q-7 6 -14 0q-34 -37 -49 -58q-1 0 -1 -0.5v-0.5q-43 21 -89 30t-87 6t-69.5 -28t-33.5 -68q-2 -3 0 -7q-1 -7 0 -13h-2q-35 -7 -58 -30.5t-8 -54.5q14 -28 65 -41q14 -4 33.5 -5
t34.5 -0.5t34 -0.5q4 -1 7 3q29 -26 62 -35.5t71 1.5q34 13 64 55q7 11 -7 34q12 3 16 3q3 1 4 3q51 -17 99 -14q5 0 7.5 4t-0.5 8zM443 242q-7 7 -17 14q3 14 4 32q1 3 2 13.5t1 16.5q6 -10 7.5 -21.5t2 -30.5t0.5 -24zM408 287q1 4 5 25q2 1 3.5 2.5l3 3l2.5 2.5
q-1 -4 -2 -20q0 -4 -0.5 -12t-1 -14.5t-0.5 -11.5q-9 6 -11 7q1 13 1 18zM401 299q-2 -10 -1 -25l-16 8zM131 274h1.5h0.5q19 -1 33.5 -8t2.5 -22q-22 -28 -63 -18q9 29 25 48zM43 160q3 7 10 13q0 -2 -0.5 -5.5t-0.5 -4.5q-3 -22 -2 -36q0 -4 3.5 -4t3.5 4q1 18 3 34
q1 2 2.5 8.5t1.5 10.5q1 0 2.5 0.5t2.5 1.5q-8 -31 -8 -68q-32 21 -18 46zM69 110h-1q1 12 5.5 35.5t5.5 36.5q4 -6 7 -12q-5 -14 -3 -58q0 -3 3 -3t3 3q1 20 2 33q0 4 2 10q4 -11 6 -22q2 -7 3 -19t2 -15q-21 3 -35 11zM378 109q-4 -5 -12.5 -14t-14 -14t-14 -11t-17.5 -10
q-7 -3 -18 -3q1 4 -1 7q-16 18 -54 49.5t-54 51.5q-2 2 -4 0.5t-1 -3.5q6 -21 39 -52q8 -8 27.5 -25t29.5 -27q-33 6 -66 28.5t-45 50.5t13 53q36 15 81 10.5t72 -31.5q6 -5 24.5 -31t14.5 -29zM393 151q-1 -1 -3.5 -1.5t-3.5 -0.5q-2 -1 -6 -2q-1 3 -5.5 8.5t-5.5 7.5
q-21 30 -55.5 44.5t-71.5 12.5t-70 -17q-7 -3 -3 -11q-12 -12 -13 -29.5t6 -34t18 -29.5q1 -2 5 -6q-12 2 -35.5 2.5t-29.5 1.5q3 10 -5 40q-6 25 -18 40q0 4 -3 4q-5 6 -7 7q5 1 8 2q8 2 7 10q6 4 13 8q2 2 3 4q44 -7 67 25q13 19 1 36q-11 14 -37 17q32 18 70.5 18
t83.5 -16.5t82.5 -38.5t67.5 -46q-42 -1 -69 -8q-7 -1 -6 -9q3 -21 16 -33q-2 -3 -1 -6zM402 160q-6 14 -8 26q30 5 73 5q9 -22 27 -49q-44 -1 -92 18z" />
    <glyph glyph-name="alphabet5" unicode="&#xe02a;" horiz-adv-x="516" 
d="M230 195q-91 4 -204 -15q-7 -1 -8 -8q-5 -30 -6 -63.5t-1 -73.5t-1 -63q0 -7 6.5 -8.5t9.5 2.5q9 -3 21.5 -4t28.5 -0.5t21 -0.5q107 -4 122 -5q5 -1 8.5 3t3.5 9q1 23 11 215q1 5 -3 8.5t-9 3.5zM48 -12q-8 1 -17 2h-2q3 26 5 76t4 73q0 10 7 16.5t19 9t22.5 3t24.5 1
t19 0.5q41 4 87 2q-9 -156 -10 -190q-15 1 -100 5q-37 1 -59 2zM381 420q-2 9 -12 9h-183q-5 0 -8.5 -3.5t-3.5 -8.5q0 -33 -1.5 -96.5t-2.5 -94.5q-4 -1 -5.5 -5.5t3.5 -7.5q1 0 4 -1q1 0 2 -1q4 -3 9 -3q27 -9 58 -10t73 2.5t58 3.5q5 0 9 3.5t4 8.5q0 16 0.5 50t1 53.5
t-1 48t-4.5 52.5zM195 224q0 31 1.5 91.5t1.5 88.5h160q3 -20 4 -45t0.5 -41.5t-1 -47t-1.5 -42.5q-16 -1 -54.5 -3.5t-55.5 -2.5t-55 2zM488 168q-11 21 -36.5 28t-47.5 4t-57 -10.5t-44 -8.5q-1 0 -2 -1q-4 3 -9 0.5t-6 -8.5q-6 -128 -2 -200q0 -12 12 -13q28 -1 58 -1
t70 0.5t58 0.5q10 0 12 9q6 45 9 69t0.5 64.5t-15.5 66.5zM308 -17q-2 32 -2 90v84q8 1 30 6t40 8.5t38.5 4.5t34.5 -4.5t19 -19.5q20 -52 3 -168q-139 -2 -163 -1zM162 22q0 7 -1 12q-2 4 -10 36q-15 54 -27 72q-4 6 -11 6t-10 -6q-23 -49 -31 -130q-1 -8 5 -11t12 0t7 11
q1 5 2 17h16h12h6h2h3q9 -28 23 -16q3 3 2 7v2zM101 48q5 34 14 58q5 -14 15 -54q-5 -2 -16 -3t-13 -1zM434 63q-3 4 -9 7q12 16 9 38q-4 24 -26 31t-42 -4q-6 -3 -6 -10q0 -85 2 -106q1 -6 5 -8.5t9 -0.5q4 -9 15 -13.5t22 -2.5q20 5 29 29q8 21 -8 40zM387 76q0 -1 -2 -1
v42q18 5 23 -12q5 -19 -12 -27q-4 -2 -9 -2zM418 29q-2 -9 -7.5 -10t-14.5 2.5t-13 3.5l2 26h1.5h1.5q15 2 25 -3t5 -19zM329 303q-7 -1 -21.5 -11.5t-24.5 -9.5q-16 3 -23 23t1 35q7 13 36 8q10 -2 12.5 7.5t-7.5 13.5q-14 6 -31.5 3.5t-26.5 -15.5q-18 -23 -8 -57
q9 -32 38 -41q14 -4 31 3q31 12 34 28q0 5 -2.5 9.5t-7.5 3.5z" />
    <glyph glyph-name="baby10" unicode="&#xe02b;" horiz-adv-x="404" 
d="M202 163q-9 0 -16 -6.5t-7 -16t7 -16t16 -6.5t16 6.5t7 16t-7 16t-16 6.5zM281 421h-1h-3h-4h-4.5h-5.5h-6.5h-6.5h-20q-15 -1 -14 -29q1 -14 5.5 -24t12.5 -10h16q11 0 19 -8t8 -19t-8 -19t-19 -8h-89q-11 0 -19 8t-8 19t8 19t19 8q3 -1 8 -1q4 0 7 1h1q10 0 15 10
q3 8 3 20t-3.5 22.5t-11.5 10.5h-57q-47 0 -80 -33.5t-33 -80.5v-231q0 -47 33 -80t80 -33h158q47 0 80 33t33 80v231q0 47 -33 80.5t-80 33.5zM269 139l-18 -18l5 -25q2 -13 -9 -21q-6 -4 -13 -4q-5 0 -10 3l-22 11l-22 -11q-5 -3 -10 -3q-7 0 -13 4q-11 8 -9 21l5 25
l-18 18q-10 9 -6 22t17 15l25 3l12 23q6 12 19 12t19 -12l12 -23l25 -3q13 -2 17 -15t-6 -22z" />
    <glyph glyph-name="baby100" unicode="&#xe02c;" horiz-adv-x="468" 
d="M234 305q19 0 35 5.5t24.5 12t14.5 15t8 12t2 6.5q4 13 -9 17t-16 -9l-2 -4t-5 -7.5t-10 -9.5t-17 -7.5t-25 -3.5q-21 0 -36 8.5t-18 14t-5 9.5q-4 13 -16.5 9t-8.5 -17q0 -3 2 -6.5t8 -12t14.5 -15t24.5 -12t35 -5.5zM425 157q-9 0 -17 -5v1q-26 9 -41 27t-18.5 40.5
t-2.5 41t5 37.5q5 26 -10 36l-18 10q-24 -47 -87.5 -47t-87.5 47q-8 -5 -17 -10q-16 -10 -11 -36q4 -19 5 -37t-2.5 -40t-18 -40.5t-38.5 -27.5q-9 9 -23 9t-23.5 -9.5t-9.5 -23.5q0 -13 8.5 -22t20.5 -11q-3 -7 -3 -14q0 -14 9.5 -23.5t23.5 -9.5q7 0 13 3q-3 -15 5 -27
q8 -11 20 -13.5t23 3.5q2 -8 6 -14q8 -11 21.5 -13.5t24.5 5.5l4 4q1 -3 3 -5q8 -12 21.5 -14.5t24.5 5.5q5 3 8 8q8 -11 21 -13t25 5l4 4q12 -6 24.5 -3.5t20.5 13.5q4 6 5 13q25 -9 39 12q8 10 6 23q5 -2 11 -2q14 0 23.5 9.5t9.5 23.5q0 7 -3 14q12 2 20.5 11t8.5 22
q0 14 -9.5 23.5t-23.5 9.5zM262 177l-3 -32q-1 -17 -8 -18.5t-16 11.5l-17 27q-13 21 -1 35q-5 1 -9.5 2.5t-8 5.5t-1.5 8q4 8 19 2q-4 14 4 17q8 4 13 -13q10 12 17 7q9 -5 -7 -21q20 -5 18 -31zM226 183q0 1 1 1q-1 0 -1 -1q0 1 1 1q-1 0 -1 -1zM242 188q0 4 2 4
q-2 0 -2 -4q0 4 2 4q-2 0 -2 -4z" />
    <glyph glyph-name="baby108" unicode="&#xe02d;" horiz-adv-x="453" 
d="M282 279q0 10 -12.5 16.5t-29.5 6.5h-188q-17 0 -29.5 -6.5t-12.5 -16.5v-24h272v24zM265 146v95h-238v-95q0 -17 12 -29t30 -12h155q17 0 29 12t12 29zM62 130q-10 2 -10 12v65q0 11 10 9q45 -8 84.5 -7t83.5 7q10 2 10 -9v-65q0 -10 -10 -12q-41 -5 -83.5 -5t-84.5 5z
M134 197h-14l-7 -12l7 -12h14l7 12zM144 159h14l7 12l-7 12h-14l-7 -12zM144 156l-7 -12l7 -12h14l7 12l-7 12h-14zM168 170l-7 -12l7 -12h14l7 12l-7 12h-14zM422 92l-153 -12h-83q-8 0 -11 -5.5t3 -11.5q18 -19 43 -20q18 0 30.5 6t17.5 13l4 6l149 -9q8 0 14 5t6.5 12.5
t-6 12t-14.5 3.5zM243 61q-12 -7 -23 -5.5t-15 3t-6 3.5q-1 1 0 2t2 0q17 -13 40 0q1 1 2 -0.5t0 -2.5z" />
    <glyph glyph-name="baby110" unicode="&#xe02e;" horiz-adv-x="426" 
d="M86 79v-40q0 -16 14 -27.5t34 -11.5h159q20 0 34 11.5t14 27.5v40q31 0 53 26t22 62t-22 62t-53 27v12h-255v-12q-31 0 -53.5 -26t-22.5 -62.5t22.5 -62.5t53.5 -26zM341 218q16 0 27 -15t11 -36t-11 -35.5t-27 -15.5v102zM86 219v-103q-16 0 -27.5 15t-11.5 36
t11.5 36.5t27.5 15.5zM341 325q0 7 -5 11.5t-12 4.5h-33q-10 0 -18.5 6.5t-10.5 15.5q-2 5 -3 11q-3 10 -19 10h-53q-17 0 -20 -10q-2 -8 -3 -11q-2 -9 -10.5 -15.5t-17.5 -6.5h-33q-8 0 -12.5 -4.5t-4.5 -11.5v-43h255v43z" />
    <glyph glyph-name="baby116" unicode="&#xe02f;" horiz-adv-x="376" 
d="M187 131q4 14 -17 42t-25 38l1.5 0.5t3.5 1t4 1.5q9 3 5 19l-10 33q-3 13 -16 11l4 -12l-8 -3l-4 13l-14 -5l5 -14l-8 -3l-4 15l-14 -5l5 -16l-7 -3l-6 16l-14 -4l6 -18l-7 -3l-6 18l-14 -5l6 -19l-7 -3l-7 20l-11 -4l7 -20l-8 -3l-6 20q-11 -7 -6 -19l13 -33
q3 -7 6.5 -11t5.5 -3l5 2q-25 -85 10 -118q21 -19 47 -27t47.5 2t24.5 42q-1 1 0.5 7.5t-3.5 18t-17 17.5l6.5 -1.5t15 2t11.5 13.5zM315 316l-6 -18l-8 3l6 17l-13 5l-6 -16l-7 2l5 17l-14 4l-5 -14l-7 2l5 15l-14 5l-4 -13l-8 2l4 13q-13 2 -17 -11l-9 -33q-4 -16 5 -20
q2 0 4 -1t3.5 -1.5l1.5 -0.5q-4 -9 -25 -37.5t-17 -41.5q3 -11 11 -14.5t15 -1.5l7 2q-12 -6 -17 -17t-4 -19l1 -8q3 -31 24.5 -41.5t47.5 -2t46 27.5q36 33 11 118l5 -2q2 -1 5.5 3t5.5 10l14 34q5 12 -6 19l-7 -20l-7 3l7 20l-12 3l-6 -19l-8 3l7 19z" />
    <glyph glyph-name="baby120" unicode="&#xe030;" horiz-adv-x="458" 
d="M393 203l-30 -40h-146l10 -22h157l23 72q-9 -3 -14 -10zM432 60h-405q-7 0 -12 -4.5t-5 -11.5t5 -12t12 -5h405q7 0 11.5 5t4.5 12t-4.5 11.5t-11.5 4.5zM444 177q1 10 -4.5 20t-13.5 15q-1 0 -1.5 0.5l-0.5 0.5l-26 -82q-2 -6 -8 -6h-169q-5 0 -7 5l-15 33v62h37
q5 0 8.5 3.5t3.5 8.5t-3.5 8.5t-8.5 3.5h-98q-5 0 -8.5 -3.5t-3.5 -8.5t3.5 -8.5t8.5 -3.5h37v-63q-18 -2 -36 -6t-42 -14t-40.5 -30t-19.5 -48h371q1 0 8.5 14.5t16.5 42.5t11 56z" />
    <glyph glyph-name="baby121" unicode="&#xe031;" horiz-adv-x="466" 
d="M440 340q-66 54 -131 70q-13 3 -24 -11q-20 -25 -52 -25t-52 25q-11 14 -24 11q-65 -16 -131 -70q-10 -8 -13 -22t3 -25t19 -17t26 -3l45 10q-1 -7 -3.5 -18t-7.5 -42.5t-7 -59.5t1 -61t13 -54l-7 -31q-4 -13 3.5 -24t20.5 -14l36 -7q13 -2 23.5 5t12.5 21q14 64 42 67
q28 -3 41 -67q3 -14 13.5 -21t23.5 -5l36 7q13 3 20 14t4 24l-7 31q32 70 -2 225l-2 10l45 -10q12 -3 25.5 3t19.5 17t3 25t-13 22zM237 189q-12 0 -20.5 8t-8.5 18q0 11 8 18.5t19 7.5q0 14 -9 25q-17 22 -17 37q0 4 4 4t4 -4q0 -13 15 -32q11 -13 11 -30q10 -2 17 -9
t7 -17t-9 -18t-21 -8zM220 221q0 2 1 2.5t5 0.5q-4 0 -5 -0.5t-1 -2.5q0 2 1 2.5t5 0.5q-4 0 -5 -0.5t-1 -2.5zM244 221q0 3 2 3q-2 0 -2 -3q0 3 2 3q-2 0 -2 -3z" />
    <glyph glyph-name="baby125" unicode="&#xe032;" horiz-adv-x="393" 
d="M194 284q23 0 44 2t30 4l10 2v4.5t-2 10t-5.5 14t-11.5 13.5t-19 12q-34 12 -37 57q-1 8 -8 8h-21q-8 0 -8 -8q1 -13 0 -26q0 -9 -6 -18t-12 -14l-6 -5q-8 -5 -13.5 -12.5t-8 -13t-4 -11t-1 -8t-0.5 -3.5l8.5 -2t28 -4t42.5 -2zM75 75q-1 -5 -1 -9v-50q0 -9 5 -19.5
t12 -14.5q42 -25 102.5 -25t102.5 25q7 4 12 14.5t5 19.5v50v6v-1q3 2 8 6t17 17.5t21 27t16.5 34.5t7.5 42t-9 37t-23 24.5t-24 13t-21 6.5q-6 12 -19 8q-35 -10 -93 -10q-55 0 -87 9q-13 4 -20 -7q-10 -2 -20.5 -6t-24.5 -13t-23 -25t-9 -37q0 -28 14 -57t26.5 -42.5
t24.5 -23.5zM28 197q4 58 62 60l6 -4q35 -11 98 -11q61 0 102 12q4 1 7 3q58 -2 62 -60q1 -23 -6.5 -40t-21 -25t-23 -11.5t-18.5 -5.5q-9 21 -10 34q0 15 9 37t10 33t-2 18t-7 8l-3 2q-47 -11 -99 -11q-24 0 -48.5 2.5t-38.5 5.5l-13 3q-1 -1 -3.5 -2t-6 -8t-2.5 -18
t10 -33t9 -37q-1 -13 -9 -33q-10 2 -19.5 6.5t-21.5 13t-18 24.5t-5 37z" />
    <glyph glyph-name="baby127" unicode="&#xe033;" horiz-adv-x="449" 
d="M91 339q0 16 -12 28t-28.5 12t-28.5 -12t-12 -28q0 -25 22 -36v-280q0 -8 5.5 -13.5t13 -5.5t13 5.5t5.5 13.5v11h312v-11q0 -8 5 -13.5t13 -5.5t13 5.5t5 13.5v280q22 11 22 36q0 16 -11.5 28t-28.5 12t-28.5 -12t-11.5 -28q0 -25 22 -36v-9h-312v9q22 11 22 36z
M154 115v142h52v-142h-52zM243 115v142h53v-142h-53zM395 338.5q0 3.5 4 3.5t4 -3.5t-4 -3.5t-4 3.5zM69 70v8h312v-8h-312zM332 115v142h49v-142h-49zM69 115v142h48v-142h-48zM50.5 342q3.5 0 3.5 -3.5t-3.5 -3.5t-3.5 3.5t3.5 3.5z" />
    <glyph glyph-name="baby128" unicode="&#xe034;" horiz-adv-x="226" 
d="M167 232q-16 0 -30 -11q-5 5 -7 10q17 7 27 21.5t10 32.5q0 25 -17 42t-41 17t-41 -17t-17 -42q0 -18 10 -32.5t27 -21.5q-4 -7 -24 -14.5t-37 -19.5t-17 -31q0 -39 24 -75q-3 -20 6 -33q13 -18 39 -18q9 0 19 3q6 -1 11 -1q37 0 66.5 36.5t32.5 79.5q8 12 8 26
q0 20 -14.5 34t-34.5 14zM168 148q10 -14 0 -36t-34 -39q-25 -18 -49 -20t-34.5 12t-0.5 36.5t35 39.5q28 20 55 20q-8 10 -8 23q0 15 10.5 25.5t25 10.5t25 -10.5t10.5 -25.5t-10 -25.5t-25 -10.5zM119 125q0 2 -1 5.5t-5 7.5t-10 1q-8 -4 -4 -18.5t17 -26.5q21 10 29 21
t0 18q-5 4 -11 2t-10 -6z" />
    <glyph glyph-name="baby133" unicode="&#xe035;" horiz-adv-x="458" 
d="M151 348q0 28 18 46t46 18q22 0 39 -18.5t17 -45.5q0 -22 -17 -39t-39 -17q-27 0 -45.5 17t-18.5 39zM81 213l-60 -51q-9 -7 -10 -18.5t6 -20.5q9 -10 22 -10q10 0 18 7l95 80q-35 41 -71 13zM64 108v0v-25q-16 -6 -26 -20t-10 -31q0 -22 15.5 -38t38 -16t38.5 16t16 38
q0 18 -11.5 32.5t-28.5 19.5v14l32 27q7 -3 22 -10.5t23.5 -11t26.5 -5.5t40 -1q16 2 30 11l37 -41q-13 -15 -13 -35q0 -22 16 -38t38 -16t38 16t16 38t-16 38t-38 16q-6 0 -12 -1l-43 48q18 29 23.5 75t-2.5 76q0 1 2 4q6 6 17.5 18.5t17.5 19.5q13 12 25 19q13 6 28 -5
l1 -1l1 -1q16 -19 -9 -42q-6 -5 -3.5 -11.5t8 -8t11.5 2.5q35 32 15 67q-4 7 -11 13q-16 13 -31 12q-15 0 -34 -14q-13 -9 -32 -30.5t-26 -27.5q-1 -1 -3 -2q-113 -94 -179 -149z" />
    <glyph glyph-name="baby135" unicode="&#xe036;" horiz-adv-x="453" 
d="M289 37q11 7 32 20t27 17q2 1 4 1h17q2 0 3 2l70 141q1 2 -1 2h-86h-170q-2 0 -2 2v198q0 2 -2 1q-71 0 -121 -51t-50 -122t49 -121t120 -53h3h1v0h1.5h0.5h17q2 0 4 -1q7 -5 24 -17t26 -18q1 -1 0 -2q-14 -9 -23 -15h-1q-12 10 -28 10q-18 0 -30.5 -12.5t-12.5 -31
t12.5 -31t30.5 -12.5q19 0 31.5 12.5t12.5 31.5q0 10 -5 19q13 8 27 18q2 1 4 0q19 -15 35 -28q-1 -5 -1 -10q0 -18 12.5 -30.5t30.5 -12.5t30.5 12.5t12.5 31t-12.5 31t-30.5 12.5q-22 0 -35 -18q-13 11 -27 22q-2 1 0 2zM274 48q-1 -1 -3 0q-11 8 -36 25q-2 2 0 2h80
q2 0 1 -1q-26 -16 -42 -26z" />
    <glyph glyph-name="baby139" unicode="&#xe037;" horiz-adv-x="400" 
d="M32 2h336v-46h22v46v7v237h-380v-237v-7v-46h22v46zM360 230h15v-122h-15v122zM330 230h22v-122h-22v122zM299 230h23v-122h-23v122zM268 230h23v-122h-23v122zM238 230h23v-122h-23v122zM208 230h22v-122h-22v122zM177 230h23v-122h-23v122zM147 230h23v-122h-23v122z
M116 230h23v-122h-23v122zM86 230h22v-122h-22v122zM55 230h23v-122h-23v122zM25 230h23v-122h-23v122zM272 289l-3 8v71l-3 9l-60 62q-1 1 -2.5 1t-3.5 -1l-55 -63q-6 -6 -6 -10v-76l-14 -14l22 -22l21 22l-21 22v59q15 -9 53 -10v-39q-12 -2 -12 -15q0 -7 4.5 -11.5
t11 -4.5t11.5 4.5t5 11.5q0 12 -12 15v39q38 1 53 10v-60l-3 -7l-17 -3l12 -12l-3 -17l15 8l15 -8l-2 17l12 12zM200 352q-16 1 -28.5 3t-18.5 5t-6 6q-1 1 2 3q13 10 51 10v-27zM159 380l45 50l49 -51q-18 5 -46 5.5t-48 -4.5zM261 365q-1 -2 -7 -5t-18.5 -5.5t-27.5 -2.5
v27q15 0 27.5 -2.5t18.5 -5.5t7 -5v-1z" />
    <glyph glyph-name="baby140" unicode="&#xe038;" horiz-adv-x="514" 
d="M497 241q-3 16 -15.5 27t-28.5 14q3 2 3 2.5t1 1.5h2q10 2 17 11.5t9 20.5q4 19 -9 38q-12 18 -32.5 26.5t-39.5 3.5q-11 -3 -19 -11q0 6 -1 11q-3 22 -24.5 30.5t-43.5 3.5q-21 -5 -33 -25q-6 7 -12 11q-19 13 -42.5 7.5t-35.5 -24.5q-17 -27 5 -54q-13 -9 -23 -28
q-1 -1 -1 -1.5v-0.5q-3 -1 -4 -3q-35 -55 -14 -112q-28 9 -52 3t-44 -20t-31.5 -36t-15 -45t5.5 -48t30 -44q26 -22 60 -23.5t63 13.5t49.5 43t20.5 60q0 7 -6 10q23 -13 45.5 -19t46 -1.5t37.5 24.5q3 4 5 9q16 -25 45 -23t47 24t13 49q-2 9 -7 17q36 19 29 58zM466 327
l-5 -7.5t-4 -5.5q-12 -16 -18 -25q-1 -1 0 -3q-6 -1 -12 0q11 13 23 32q2 2 6.5 9t6.5 11q2 -5 3 -11zM456 349q-2 -4 -6.5 -12.5t-5.5 -9.5q-12 -22 -24 -39q-7 2 -13 7q2 0 2 1q4 6 10.5 17.5t7.5 14.5q1 2 8.5 13.5t9.5 17.5q6 -4 11 -10zM416 368q4 0 10 -1q-2 1 -3 0
q-23 -6 -28 -54q-1 -4 3 -4.5t5 3.5q6 20 9 26q2 5 8 12.5t8 11.5t-2 5q5 -1 11 -3q-5 -6 -18 -31q-10 -17 -16 -34q-10 9 -14 20q-5 15 3 31t24 18zM298 383q5 11 19 16q11 5 25.5 2t20.5 -14q8 -16 -4 -31t-29 -16q-23 -1 -33 17q-2 21 1 26zM273 368q3 -10 2 -21
q-2 -16 -18 -17q11 22 16 38zM259 389l3 -3q2 -1 5 -6q-5 -7 -17 -50h-1q-3 0 -5 -1q-4 0 -9 1q6 20 12 35q2 3 6 11t6 13zM231.5 362.5q0.5 2.5 2.5 9t3.5 12.5t1.5 10q4 0 8 -1q-17 -27 -20 -62h-1l-2 2q2 0 1 3l0.5 2t1.5 4t1 3zM213 381q4 7 14 11q-1 -5 -1 -6
q-1 -3 -3 -12.5t-3 -14.5q-3 -17 1 -24q-2 1 -3 1q-19 23 -5 45zM219 93q-1 -49 -44 -75.5t-90 -11.5q-31 9 -42 42t-3 65q10 37 46 52.5t75 10.5q4 -8 11 -17q-23 -3 -43 -10t-38 -19.5t-21.5 -30.5t6.5 -43q12 -23 33.5 -24t41 14.5t35.5 36.5t20 37v2q1 0 2 -1l2 -2
q11 -8 25 -16q-6 2 -10.5 -0.5t-5.5 -9.5zM181 147q7 -8 15 -16q-4 -1 -6 -4q-7 -12 -17.5 -26.5t-28 -32.5t-29.5 -17.5t-23 17.5q-4 9 -4.5 17t3 14.5t7.5 11.5t12 10t14 8t16.5 6.5t16.5 5t16 4.5q5 1 8 2zM347 117q-8 -14 -24.5 -17t-36 3.5t-35 14t-26.5 15.5
q-42 28 -54 71.5t10 88.5q7 -2 10 4l3 3q4 6 6 8.5t5.5 5.5t6.5 0.5t5 -8.5q4 -10 9 -36q1 -5 3 -18t4 -22.5t6 -17.5q16 -29 58 -44q4 -1 13.5 -4t15 -5t12.5 -6t10 -8.5t3.5 -11.5t-4.5 -16zM361 163q-4 3 -7 6q-12 9 -37.5 16t-42 17.5t-21.5 34.5q-1 7 -3 22.5t-4.5 28
t-7.5 22.5q4 1 5 1h1q16 -9 30 -1t20 24q12 -11 30 -13q26 -2 44 15q-1 -17 5 -31q12 -27 39 -34q-24 -18 -20 -46q1 -7 6 -14q-5 -2 -8 -3q-5 -2 -5 -7.5t4 -8.5q-23 -5 -28 -29zM404 183q7 2 2 9h12v-1q-22 -19 -36 -59q-7 14 -1 30.5t23 20.5zM387 125h1q5 14 16 31
q2 4 9.5 14t10.5 16q2 2 0 5q5 -1 9 -4q-21 -17 -42 -67q-2 2 -4 5zM413 145q3 6 12.5 18.5t12.5 19.5q0 1 1 1q4 -3 7 -7q-8 -11 -20.5 -33t-18.5 -30q-6 0 -10 2q8 16 16 29zM416 114q10 12 20 28q1 1 17 23v-1q7 -18 -5.5 -32.5t-31.5 -17.5zM455 198q-1 3 -4 3
q-14 10 -31 12q-6 6 -9 15q-4 14 9 24t28 10q11 0 19 -7.5t10 -18.5q6 -24 -22 -38z" />
    <glyph glyph-name="baby141" unicode="&#xe039;" horiz-adv-x="272" 
d="M244 329h-27q-3 26 -20.5 46t-42.5 26v29q0 8 -5.5 13t-12.5 5t-12.5 -5t-5.5 -13v-29q-25 -6 -43 -26t-20 -46h-27q-8 0 -13 -5.5t-5 -12.5v-54q0 -7 4.5 -12t11.5 -5v-286q0 -8 5 -13t13 -5h184q7 0 12.5 5t5.5 13v286q6 0 11 5t5 12v54q0 7 -5.5 12.5t-12.5 5.5z
M62 -29v268h148v-268h-148z" />
    <glyph glyph-name="baby142" unicode="&#xe03a;" horiz-adv-x="443" 
d="M349 86zM353 90zM351 101q-4 5 -6 6q-4 2 -9 7l-15 16q-2 2 -4 2q30 32 30 63q-2 51 -46 113t-96 109q-31 26 -69.5 14.5t-71.5 -39t-50 -56.5q-4 -9 4 -14q1 -20 10.5 -44t16.5 -35t25 -38q5 -8 14 -23v-0.5v-1.5q0 -6 6 -8q44 -76 72 -90q31 -14 73.5 -0.5t74.5 44.5
q0 -2 1 -4q3 -5 13 -18q1 -1 5.5 -7.5t7.5 -9.5q6 -4 12 -1q2 1 2.5 1.5l1.5 1.5q3 6 -2 12zM316 218q8 -20 0 -40q-1 1 -4.5 3t-5.5 4q-3 3 -6 8q13 13 16 25zM140 409q1 -6 9 -15q5 -6 9 -10q-1 0 -3.5 -2t-3.5 -3q-2 1 -4.5 4t-3.5 4q-5 6 -14 18q5 2 11 4zM118 400
q7 -12 12 -19q7 -9 8 -11l-2.5 -1.5t-3.5 -2.5q-15 11 -18 13q-4 5 -10 13q9 5 14 8zM97 387q11 -21 23 -29q-1 -1 -2.5 -2l-3 -2t-2.5 -1t-3 1t-3.5 2t-3.5 2q-9 7 -16 18q-1 2 -2 2q5 4 13 9zM78 374v-2q6 -12 18 -22q3 -3 5 -4q-9 -6 -10 -7q-2 1 -7 2.5t-7 3.5
q-9 5 -15 16q7 6 16 13zM55 353q6 -11 15 -17q4 -4 8 -6q-11 -7 -16 -10q0 2 -1 4q-3 3 -9 8.5t-8 8.5q3 4 11 12zM37 327q0 1 -1 3l1 1t1 2q7 -12 14 -18q2 -1 3 -1q-9 -8 -13 -14q-4 14 -5 27zM93 260q-5 -21 -7 -40q-27 37 -38 65q1 0 15 13q9 8 41 28q61 39 76 53
q6 5 1.5 11t-11.5 3q-1 1 -4.5 3.5t-5.5 3.5q-8 7 -10 10q29 3 63 -33q22 -24 42 -52q-32 6 -63 -1q-9 -2 -9 -12q0 -37 -4 -60q-13 2 -36.5 8.5t-35.5 8.5t-14 -9zM161 116q-7 7 -17 22.5t-10 16.5q-8 11 -30 41q3 24 9 47q8 -2 23.5 -6t28 -7t23.5 -3q10 -1 12 9
q7 25 8 66q29 4 61 -5q3 -1 6 -1q20 -31 33 -61q-3 0 -5 -3q-7 -15 -22 -29.5t-23.5 -20t-30.5 -20.5q-6 -4 -21.5 -13t-26.5 -17t-18 -16zM169 107q12 4 26 12q1 -1 4 -5q6 -7 14 -14q-26 -7 -44 7zM229 106l-0.5 0.5l-0.5 0.5q-9 6 -18 14l-4 4q7 4 15 10q1 -1 1 -2
q6 -6 16 -14q1 -1 6 -5q-9 -5 -15 -8zM255 120q-2 1 -5.5 3t-4.5 4q-10 6 -17 12l16 12q5 -7 15 -19l5 -5q-4 -3 -9 -7zM275 134l-3 3q-4 3 -6 4q-7 5 -14 15l1 1q2 1 11 7q0 -1 1 -1q8 -17 16 -23h1.5h0.5q-4 -4 -8 -6zM291 155q-4 -4 -8 -0.5t-10 13.5q0 1 -1 2
q11 7 19 14q10 -16 19 -18q-5 -6 -11 -13q-3 6 -8 2zM353 89v1v-1zM430 59q-3 32 -29 41.5t-53 -3.5q-7 -3 -3.5 -11t11.5 -6q50 14 54 -25t-30 -72q-19 -18 -46.5 -19t-48.5 14q-18 12 -23 32q-5 22 30 33q4 2 4 5.5t-3 4.5q0 5 -4 8q-6 3 -17 14l-3 3t-3 4l-4 2h-1
q-3 5 -4 7q-3 3 -8 1t-5 -7q1 -8 7 -16.5t13 -12.5q2 -1 4 -1q3 -4 4 -5q-22 -8 -27.5 -27.5t9.5 -42.5q21 -28 57.5 -34.5t65.5 10.5q26 14 41 44t12 59zM359 57q-6 1 -9 -4q-6 1 -15 -1q-23 -4 -34 -22q-10 -15 -0.5 -31.5t27.5 -16.5q15 0 29.5 9t23.5 22q9 16 2 28
t-24 16zM365 21q-11 -17 -34 -21q-9 -2 -14.5 5.5t-1.5 16.5q5 10 23 16q9 3 13 4q2 -1 3 -2q21 -5 11 -19zM151 209q-6 8 -15.5 4t-6.5 -14q4 -13 12 -15q7 -2 12 3q3 5 4 12q0 7 -6 10zM248 267q-2 6 -8 6h-2h-1q-8 0 -12 -9q-1 -3 -1 -6q1 -9 9.5 -11t12.5 5t2 15z
M141 309q-7 0 -10 -6t0 -11.5t10 -5.5q11 0 11 11.5t-11 11.5z" />
    <glyph glyph-name="baby143" unicode="&#xe03b;" horiz-adv-x="455" 
d="M346 129q76 53 91 114q4 1 5 5.5t-2 7.5q5 36 -8 77q-13 39 -48.5 65.5t-76.5 35.5t-82 6q-63 -4 -115 -39.5t-75 -92.5q-25 -62 14 -110q-1 -3 1.5 -5t5.5 -3q11 -12 24.5 -23t36.5 -27t29 -20q-4 -14 -4 -26q-28 3 -43.5 -8t-18.5 -42q-3 -27 6.5 -57.5t32.5 -33.5
q143 -21 258 6q11 2 18.5 6.5t11.5 13t7 14.5t3.5 19t0.5 17.5t-1 19.5t-1 17q-1 9 -10 9q-4 0 -21 1t-28.5 0t-20.5 -5v7q2 3 2 5q-2 22 0 46q4 -3 8 0zM354 260q1 -1 2 0q22 1 43 4q19 3 25 5q0 -5 -2 -11q-15 0 -41 -2q-20 -1 -26 -4q0 4 -1 8zM425 284q-6 -1 -16.5 -4
t-12.5 -3q-8 -2 -22.5 -4.5t-18.5 -3.5q-2 0 -3 -2q-2 6 -5 11q12 0 42 12q32 12 33 13q2 -9 3 -19zM269 420q-1 0 -1 1q70 -7 117 -54h-1q-6 -4 -16.5 -12.5t-11.5 -9.5q-4 -3 -14.5 -10.5t-16.5 -11.5q-3 -2 -2.5 -5.5t2.5 -5t6 0.5q14 8 32 20q24 16 30 22l1 2
q7 -8 12 -16q6 -10 11 -23q-6 -2 -16.5 -7.5t-12.5 -5.5q-7 -4 -22.5 -10t-21.5 -9l-4 6q11 4 37 16q17 7 21 9q1 1 4.5 3t4.5 3q5 2 4.5 6.5t-5.5 4.5q-7 0 -26 -10q-30 -16 -47 -22v-1q-21 26 -52 37q-11 4 -24 5q1 1 1 2q2 7 8 43q0 2 2 10.5t2 11t-1 10.5zM278 195
q-2 0 -4 -1q-47 4 -55 6q-28 5 -50 25t-18 46q4 25 28.5 39t52 13.5t49.5 -5.5q22 -8 37.5 -28.5t18.5 -43.5q2 -26 -15 -38.5t-44 -12.5zM248 417q0 3 -4 5q5 0 17 -1h-1q-3 -2 -4 -6.5t-1.5 -8t-1 -9t-0.5 -7.5q-4 -33 -5 -44q0 -1 1 -2h-11q2 11 6 36q4 34 4 37zM195 416
q22 5 46 6q-2 0 -2 -1q-5 -6 -8 -33q-1 -5 -2 -20.5t-2 -24.5q-9 -1 -15 -2v0q3 12 4 38q1 2 1.5 8t0.5 9.5t-0.5 8.5t-1.5 8q-2 3 -5.5 3t-4.5 -3q-2 -4 -2.5 -9t0 -12t0.5 -9q0 -12 -2 -40q0 -3 2 -4q-8 -2 -13 -5l-1 2q-19 20 -31 67q18 8 36 13zM151 400q2 -19 12 -43
q-3 3 -4 5q-20 29 -22 31q7 3 14 7zM47 278q11 -2 45 -7q2 -1 9 -2.5t11 -2t9.5 0.5t8.5 3q5 5 0 10q-3 3 -10.5 4.5t-14 1t-11.5 -0.5q-9 1 -24.5 3t-20.5 3q13 57 81 97q4 -10 19 -36q1 -1 3.5 -5.5t3.5 -6.5t3.5 -5t5 -5.5t5.5 -3.5q5 -2 7 4l2 -1q-41 -21 -47 -59
q-2 -14 4 -29q-6 -1 -11 -3q2 1 2 2q1 1 1 3t-1 3q-1 2 -3 3h1q4 0 5 3.5t-2 5.5q-8 5 -36 8q-11 1 -46 3q0 6 1 9zM47 252q-1 1 -1 8q9 -2 34 -4q5 -1 23 -5q-4 0 -11 -0.5t-9 -0.5q-19 -1 -35 -3q-1 1 -1 2.5v2.5zM49 239q17 -2 34 -2l13 -1.5t19 -0.5q-13 -4 -18 -6
q-36 -10 -39 -11q-6 10 -9 21zM336 143q-1 0 -1 -0.5v-0.5q-8 4 -10 -4q-5 -14 -7 -55q0 -2 1 -5v-5q-1 -5 -1 -7q1 -4 4 -5.5t5 0.5q1 -6 8 -7q8 0 21 1.5t20.5 2t14 -5t7.5 -18.5q1 -15 -2 -26t-11.5 -18t-15.5 -11t-21 -6.5t-21.5 -3.5t-24.5 -1.5t-22 -0.5
q-78 -6 -148 3q-4 1 -7.5 2t-5.5 2t-4 3.5t-3.5 4t-2.5 5.5t-1.5 5.5t-2 6.5t-1.5 7q-8 29 2 50t38 25q8 -12 18 -3q7 6 -1 11q-1 2 -2 3q0 2 -1 9q0 6 1 29q0 4 -4.5 4.5t-5.5 -3.5q-10 9 -33.5 27.5t-34.5 29.5q5 0 13 2q43 8 51 25q2 3 0 6.5t-5 3.5q-8 -1 -22.5 -8
t-18.5 -9q-13 -4 -31 -5l-6 8q8 -1 33 4q38 9 48 12q14 -19 37 -34q29 -17 90 -9q2 -5 8 -6q33 -4 55 13.5t23 50.5v1v1q0 2 16 0.5t17 -1.5q4 0 28 -1q-16 -40 -81 -99zM195 367q-9 21 -13 37q-2 6 -6 1q-1 -1 -1 -3q1 -8 9 -38q5 -17 9 -21q2 -3 5 -1.5t3 4.5q1 5 -6 21z
" />
    <glyph glyph-name="baby21" unicode="&#xe03c;" horiz-adv-x="197" 
d="M59 254v-61h24v-10h-24v-60h24v-11h-24v-60h24v-10h-24v-60h24v-11h-34v293h34v-10h-24zM187 247v-269q0 -17 -12.5 -29.5t-29.5 -12.5h-93q-17 0 -29.5 12.5t-12.5 29.5v269q0 25 17 45q-9 4 -9 13v26q0 6 4.5 10.5t10.5 4.5h10l19 34l19 32q-5 6 -5 13q0 10 6.5 16.5
t16 6.5t16 -6.5t6.5 -16.5q0 -7 -5 -13l19 -32l19 -34h10q6 0 10.5 -4.5t4.5 -10.5v-26q0 -9 -9 -13q17 -20 17 -45zM171 247q0 27 -22 43h-101q-22 -16 -22 -43v-269q0 -11 7.5 -18.5t18.5 -7.5h93q11 0 18.5 7.5t7.5 18.5v269z" />
    <glyph glyph-name="baby23" unicode="&#xe03d;" horiz-adv-x="379" 
d="M264 124l49 -49q11 -13 9.5 -30t-12.5 -29l-69 -71q-12 -12 -26.5 -8t-17 17t7.5 27l44 43l-43 42zM112 124l-49 -49q-12 -13 -10.5 -30t13.5 -29l68 -71q13 -12 27 -8t17 17t-8 27l-43 43l42 42zM189.5 306q29.5 0 50 21t20.5 50t-20.5 50t-50 21t-50.5 -21t-21 -50
t21 -50t50.5 -21zM266 152l1 49l59 -55q7 -7 18 -7q10 0 18 8q7 7 6.5 17.5t-7.5 17.5q-68 74 -78 82q-28 25 -87 25h-13q-59 0 -88 -25q-4 -3 -23.5 -23.5t-36.5 -39.5l-17 -19q-8 -7 -8 -17.5t7 -17.5q7 -8 18 -8q10 0 17 7l59 55l1 -49h154z" />
    <glyph glyph-name="baby29" unicode="&#xe03e;" horiz-adv-x="502" 
d="M11 28q1 -2 2 -3l48 -53h199v36l33 -36h199v198l-1 4h-2h-1l-48 45l-1 1q-1 1 -3 1.5l-2 0.5h-118v162l-1 4h-2l-49 45v1q-2 1 -4 1q-1 1 -2 1h-192v-191q0 -1 1 -3t2 -3l15 -17h-74v-191q0 -2 1 -3zM130 388l-27 27h150l29 -27h-152zM312 -7v159h158v-159h-158zM136 222
v83v61h159v-61v-83v-4v-4v-5v-4v-1h-25h-6h-14h-4h-4h-17h-6h-6h-7h-6h-64v1v4v5v4v4zM305 174l-12 12h23v15h113l29 -27h-153zM239 152v-159h-159v159h159zM117 186h95l14 -12h-152l-27 27h57zM257 174v12v4v2l2 -2l3 -4l31 -35v-153l-33 37l-3 3v136zM81 408l36 -41v-145
v-4v-4l-3 4l-4 4l-29 32v154zM61 151v-153l-36 40v154zM158 227q2 -1 5 -1q8 0 11 7l9 19h68l9 -19q4 -7 11 -7q3 0 5 1q11 6 6 16l-31 62l-23 47l-0.5 1t-1 1t-1 1l-0.5 1l-1 0.5l-1 0.5h-1v1h-1.5h-1h-1h-1.5h-1h-1h-1.5h-1.5v-1v0q-1 0 -2 -1q-1 0 -1.5 -1l-0.5 -1
l-0.5 -0.5t-0.5 -1.5h-1l-23 -47l-31 -62q-5 -10 6 -16zM217 320l7 -15l15 -29h-44l15 29zM139 6h28q18 0 30.5 13t12.5 31q0 25 -22 38q7 9 7 20q0 15 -11 25.5t-26 10.5h-19q-14 0 -18 -13q-1 -2 -1 -5v-1v-34v-17v-48v-1v-3q3 -16 19 -16zM167 30h-23v40h23q8 0 13.5 -6
t5.5 -14t-5.5 -14t-13.5 -6zM171 108q0 -5 -4 -8.5t-9 -3.5h-14v24h14q5 0 9 -3.5t4 -8.5zM431 45q-12 -12 -29 -12t-29.5 12.5t-12.5 30t12.5 29.5t29.5 12q16 0 28 -10q9 -8 17 1t-1 17q-19 16 -44 16q-27 0 -46.5 -19t-19.5 -46.5t19.5 -47t46.5 -19.5q26 0 45 18
q9 9 1 17.5t-17 0.5z" />
    <glyph glyph-name="baby3" unicode="&#xe03f;" horiz-adv-x="334" 
d="M292 165q32 31 32 76t-31.5 76.5t-76.5 31.5t-76 -32q-23 -23 -29.5 -54.5t4.5 -59.5q-54 51 -59 46q-3 -3 19.5 -30t57 -61.5t61.5 -57t30 -19.5q5 5 -46 59q28 -11 59.5 -4.5t54.5 29.5zM200 158q5 9 0.5 24t-17 27t-27 16.5t-23.5 -0.5q-3 34 21 58q21 22 51.5 22
t52.5 -21.5t22 -52.5t-22 -52q-24 -24 -58 -21zM115 158q-8 8 -16 0l-12 -12q-33 10 -59 -16q-17 -17 -17.5 -40.5t15 -39t39 -15t40.5 17.5q26 26 16 59l12 12q8 8 0 16z" />
    <glyph glyph-name="baby31" unicode="&#xe040;" horiz-adv-x="496" 
d="M247.5 430q-98.5 0 -168 -70t-69.5 -168t69.5 -168t168 -70t168.5 70t70 168t-70 168t-168.5 70zM357 192q0 -84 -32.5 -145t-77 -61t-76.5 61t-32 145t32 145t76.5 61t77 -61t32.5 -145zM42 192q0 60 32 110t85 76q-52 -71 -52 -186t52 -186q-53 26 -85 76t-32 110z
M337 6q52 71 52 186t-52 186q52 -26 84.5 -76t32.5 -110t-32.5 -110t-84.5 -76z" />
    <glyph glyph-name="baby37" unicode="&#xe041;" horiz-adv-x="504" 
d="M247 315q8 0 14 -4q-10 13 -26 13q-15 0 -25 -10t-10 -24.5t10 -24.5t25 -10q16 0 26 13q-6 -4 -14 -4q-11 0 -18.5 7.5t-7.5 18t7.5 18t18.5 7.5zM482 275q-5 0 -8.5 -3.5t-3.5 -8.5v-29h-88h-260h-88v29q0 5 -3.5 8.5t-8.5 3.5t-8.5 -3.5t-3.5 -8.5v-29v-209v-34v-31
q0 -5 3.5 -8.5t8.5 -3.5t8.5 3.5t3.5 8.5v19h436v-19q0 -5 3.5 -8.5t8.5 -3.5t8.5 3.5t3.5 8.5v31v34v209v29q0 5 -3.5 8.5t-8.5 3.5zM470 210v-161h-88v161h88zM358 49h-94v161h94v-161zM240 210v-161h-94v161h94zM122 210v-161h-88v161h88zM470 3h-436v22h88h260h88v-22z
M125 338q0 -4 4 -4h10h2q1 -6 4 -10l-1 -1l-7 -7q-3 -3 0 -6q1 -1 2.5 -1t3.5 1l7 7v1q5 -3 11 -4v-1v-10q0 -4 4 -4t4 4v10v1q6 1 10 4q1 0 1 -1l7 -7q1 -1 3 -1t3 1q3 3 0 6l-7 7q-1 0 -1 1q3 4 4 10h1h10q4 0 4 4t-4 4h-10h-1q-1 6 -4 11h1l7 7q3 3 0 6t-6 0l-7 -7l-1 -1
q-4 3 -10 4v2v10q0 4 -4 4t-4 -4v-10v-2q-6 -1 -11 -4v1l-7 7q-3 3 -6 0t0 -6l7 -7h1q-3 -5 -4 -11h-2h-10q-4 0 -4 -4zM129 429q0 -8 8 -8h20v-28q0 -8 8 -8t8 8v28h45v-85q0 -8 8 -8t8 8v85h53v-28q0 -8 8 -8t8 8v28h12q8 0 8 8t-8 8h-20h-69h-61h-28q-8 0 -8 -8zM320 358
h-16l-5 14q-2 6 -4.5 6t-4.5 -6l-5 -14h-15q-7 0 -8 -3t5 -6l12 -10l-5 -14q-2 -6 0.5 -8t7.5 2l13 9l12 -9q5 -4 7.5 -2t0.5 8l-5 14l13 10q5 3 4 6t-7 3z" />
    <glyph glyph-name="baby39" unicode="&#xe042;" horiz-adv-x="508" 
d="M386 378q-6 6 -12.5 3.5t-8.5 -9t2 -12.5q3 -4 6.5 -6.5t6 -5t7 -5t6.5 -3.5t8 -3l7.5 -2.5t8.5 -3l7 -2.5q32 -11 34 -34q1 -19 -33 -45q-82 -29 -172 -29q-44 0 -89 8t-60.5 13t-23.5 8q-6 4 -4.5 10.5t4.5 10t8.5 9.5t8.5 10q12 18 2 36q-5 9 -22 18.5t-29 19
t-10 21.5q2 8 -4 13t-13 3.5t-8 -9.5q-3 -16 2 -27.5t12.5 -17t21.5 -13.5t22 -13q7 -4 5 -12t-7 -13.5t-11.5 -13.5t-8.5 -11q-9 -20 14 -41v-92q0 -69 49.5 -118.5t119.5 -49.5h41q69 0 118.5 49.5t49.5 118.5v92q57 46 36 92q-9 19 -45 31.5t-46 24.5zM417 138
q0 -59 -42.5 -101.5t-101.5 -42.5h-41q-60 0 -102.5 42.5t-42.5 101.5v84q78 -25 166 -25q85 0 164 25v-84zM223 164q-19 11 -35 -5t-5 -35q-9 -3 -15.5 -11t-6.5 -18t6.5 -17.5t15.5 -10.5q-11 -19 5 -35t35 -5q2 -9 10 -15t18 -6t18 6t10 15q20 -11 35.5 5t4.5 35
q10 3 16 10.5t6 17.5t-6 18t-16 11q11 19 -4.5 35t-35.5 5q-2 9 -10 15t-18 6t-18 -6t-10 -15zM277 144l3 4l2 2q5 5 12 5t12 -5t5 -12t-5 -12l-2 -2l-4 -4l4 -9l4 1q2 1 4 1q7 0 12 -5t5 -12.5t-5 -12.5t-12 -5q-2 0 -4 1l-4 1l-2 -5l5 -2v0l-6 1l-2 -4l5 -3l2 -2
q5 -5 5 -12.5t-5 -12t-12 -4.5t-12 4q-1 2 -2 3l-4 4l-9 -4l1 -5v-3q0 -7 -5 -12t-12 -5t-12 5t-5 12v3l1 5l-4 2l-3 -6v0l2 6l-5 2l-3 -4q-1 -1 -2 -3q-5 -4 -12 -4t-12 4.5t-5 12t5 12.5q1 1 3 2l3 3l-3 10l-5 -1q-2 -1 -4 -1q-7 0 -12 5t-5 12.5t5 12.5t12 5q2 0 4 -1
l5 -1l1 5l-5 2v0l6 -1l2 4l-4 3q-2 1 -3 2q-5 5 -5 12t5 12t12 5t12 -5l2 -2l3 -4l10 4l-1 5v3q0 7 5 12t12 5t12 -5t5 -12v-3v-5zM216.5 129.5q-14.5 -14.5 -14.5 -35t14.5 -35t35.5 -14.5t35.5 14.5t14.5 35t-14.5 35t-35.5 14.5t-35.5 -14.5zM279 68q-11 -11 -27 -11
t-27 11t-11 26.5t11 26.5t27 11t27 -11t11 -26.5t-11 -26.5z" />
    <glyph glyph-name="baby42" unicode="&#xe043;" horiz-adv-x="488" 
d="M478 11v18q0 20 -13.5 35t-33.5 17q9 13 9 28v18q0 19 -12 33t-29 18q9 13 9 29v18q0 19 -12 33t-29 18q9 13 9 29v18q0 22 -15.5 37t-36.5 15h-36v15q0 21 -15 35.5t-35.5 14.5t-35 -14.5t-14.5 -35.5v-15h-36q-22 0 -37 -15t-15 -37v-18q0 -16 9 -29q-18 -4 -29.5 -18
t-11.5 -33v-18q0 -16 9 -29q-18 -4 -29.5 -18t-11.5 -33v-18q0 -17 10 -31q-16 -5 -26 -18.5t-10 -30.5v-18q0 -22 15 -37t37 -15h364q21 0 36.5 15t15.5 37zM34 11v18q0 12 8 20t20 8h26h300h38q11 0 19.5 -8t8.5 -20v-18q0 -12 -8.5 -20t-19.5 -8h-364q-12 0 -20 8t-8 20z
M124 305v18q0 12 8 20t20 8h36h24h52h24h36q11 0 19.5 -8t8.5 -20v-18q0 -12 -8.5 -20t-19.5 -8h-36h-24h-52h-24h-36q-12 0 -20 8t-8 20zM92 207v18q0 12 8 20t20 8h32h36h24h52h24h36h32q11 0 19.5 -8t8.5 -20v-18q0 -12 -8.5 -20t-19.5 -8h-93h-51h-92q-12 0 -20 8t-8 20
zM60 127q0 12 8 20t20 8h32h236h32q11 0 19.5 -8t8.5 -20v-18q0 -12 -8.5 -20t-19.5 -8h-300q-12 0 -20 8t-8 20v18zM212 390q0 11 7.5 18.5t18 7.5t18.5 -7.5t8 -18.5v-15h-52v15zM389 25q9 0 15.5 -6.5t6.5 -15.5q0 -5 3.5 -8.5t8.5 -3.5t8.5 3.5t3.5 8.5q0 19 -13.5 32.5
t-32.5 13.5q-5 0 -8.5 -3.5t-3.5 -8.5t3.5 -8.5t8.5 -3.5zM349 121q9 0 15.5 -6.5t6.5 -15.5q0 -5 3.5 -8.5t8.5 -3.5t8.5 3.5t3.5 8.5q0 19 -13.5 32.5t-32.5 13.5q-5 0 -8.5 -3.5t-3.5 -8.5t3.5 -8.5t8.5 -3.5zM317 221q9 0 15.5 -6.5t6.5 -15.5q0 -5 3.5 -8.5t8.5 -3.5
t8.5 3.5t3.5 8.5q0 19 -13.5 32.5t-32.5 13.5q-5 0 -8.5 -3.5t-3.5 -8.5t3.5 -8.5t8.5 -3.5zM285 322h3q8 -1 13.5 -7.5t5.5 -14.5q0 -5 3.5 -8.5t8.5 -3.5t8.5 3.5t3.5 8.5q0 18 -12.5 31.5t-30.5 14.5h-3q-5 0 -8.5 -3.5t-3.5 -8.5t3.5 -8.5t8.5 -3.5z" />
    <glyph glyph-name="baby45" unicode="&#xe044;" horiz-adv-x="490" 
d="M428 427h-366q-21 0 -36.5 -15.5t-15.5 -36.5v-46v-274v-46q0 -21 15.5 -36.5t36.5 -15.5h366q21 0 36.5 15.5t15.5 36.5v46v274v46q0 21 -15.5 36.5t-36.5 15.5zM88 305q4 -12 14 -19.5t23 -7.5q16 0 28 12q12 -12 28 -12q13 0 23 7.5t14 19.5h94q4 -12 14 -19.5
t23 -7.5t23 7.5t14 19.5h70v-101h-79q-10 25 -36 25q-15 0 -26 -11q-12 13 -29 13t-28 -12q-12 12 -28 12q-13 0 -23.5 -7.5t-13.5 -19.5h-159v101h54zM110 317.5q0 7.5 6 11.5q4 4 9 4t9 -4q6 -4 6 -11.5t-6 -12.5q-4 -3 -9 -3t-9 3q-6 5 -6 12.5zM196 317.5
q0 -7.5 -6 -12.5q-4 -3 -9 -3t-9 3q-6 5 -6 12.5t6 11.5q4 4 9 4t9 -4q6 -4 6 -11.5zM334 317.5q0 7.5 6 11.5q4 4 9 4t9 -4q6 -4 6 -11.5t-6 -12.5q-4 -3 -9 -3t-9 3q-6 5 -6 12.5zM435 79q-3 13 -13.5 21.5t-24.5 8.5q-16 0 -28 -12q-12 12 -28 12q-14 0 -24.5 -8.5
t-13.5 -21.5h-148q-3 13 -13.5 21.5t-24.5 8.5t-24.5 -8.5t-13.5 -21.5h-45v101h159q3 -12 13.5 -19.5t23.5 -7.5q16 0 28 12q11 -12 28 -12q15 0 26 10q12 -13 29 -13q14 0 24.5 8.5t13.5 21.5h77v-101h-21zM412 69q0 -11 -11 -14q-2 -1 -4 -1t-4 1q-11 3 -11 14q0 5 3 10
q5 6 12 6t12 -6q3 -5 3 -10zM326 69q0 5 3 10q5 6 12 6t12 -6q3 -5 3 -10q0 -11 -11 -14q-2 -1 -4 -1t-4 1q-11 3 -11 14zM132 69q0 -11 -11 -14q-2 -1 -4 -1t-4 1q-11 3 -11 14q0 5 3 10q5 6 12 6t12 -6q3 -5 3 -10zM214 192q0 7 6 12q5 3 10 3t9 -3q6 -5 6 -12t-6 -12
q-4 -3 -9 -3t-10 3q-6 5 -6 12zM301 192q0 -7 -6 -12q-4 -3 -9 -3t-10 3q-6 5 -6 12t6 12q5 3 10 3t9 -3q6 -5 6 -12zM356 189q0 -5 -3 -9q-5 -6 -12 -6t-12 6q-3 4 -3 9q0 12 11 15q2 1 4 1t4 -1q11 -3 11 -15zM456 9q0 -11 -8.5 -19.5t-19.5 -8.5h-366q-11 0 -19.5 8.5
t-8.5 19.5v46h47q10 -25 36 -25t36 25h152q10 -25 36 -25q16 0 28 12q12 -12 28 -12q26 0 36 25h23v-46zM386 329q-4 12 -14 20t-23 8t-23 -8t-14 -20h-94q-4 12 -14 20t-23 8q-16 0 -28 -12q-12 12 -28 12q-13 0 -23 -8t-14 -20h-54v46q0 11 8.5 19.5t19.5 8.5h366
q11 0 19.5 -8.5t8.5 -19.5v-46h-70z" />
    <glyph glyph-name="baby60" unicode="&#xe045;" horiz-adv-x="451" 
d="M441 157.5q0 24.5 -15.5 43t-38.5 23.5q25 34 -9 68l-4 4h-9q9 91 69 120q6 4 6 10.5t-6.5 11t-13.5 1.5q-71 -36 -81 -143h-5h-217h-1q-11 107 -82 143q-7 3 -13.5 -1.5t-6.5 -11t7 -10.5q60 -29 69 -120h-14l-3 -4q-34 -34 -10 -68q-23 -5 -38 -23.5t-15 -43
t15.5 -43.5t38.5 -23q-11 -17 -11 -38q0 -28 20 -48t48 -20q21 0 37 11q5 -23 24 -38.5t43.5 -15.5t43 15.5t23.5 38.5q17 -11 37 -11q29 0 49 20t20 48q0 21 -11 38q23 4 38.5 23t15.5 43.5zM373 113q-4 0 -9 1l-10 1l-8 -20l8 -5q4 -3 7 -6q13 -13 13 -31t-13 -31
t-31.5 -13t-31.5 13q-3 3 -5 6l-6 9l-20 -9l2 -10q1 -4 1 -8q0 -18 -13 -31t-31.5 -13t-31.5 13t-13 31q0 4 1 8l1 10l-20 9l-5 -9l-6 -6q-13 -13 -31 -13t-31 13t-13 31t13 31l6 6l9 5l-9 21l-10 -2q-4 -1 -8 -1q-18 0 -31 13t-13 31.5t13 31.5t31 13q4 0 8 -1l10 -1l9 19
l-9 6q-3 2 -6 5q-12 12 -13 21t9 21h31v-112q0 -41 29 -70t71 -29h17q41 0 70.5 29t29.5 70v112h30q10 -12 9.5 -21t-12.5 -21q-3 -3 -7 -5l-8 -6l9 -20l9 2q5 1 9 1q18 0 31 -13t13 -31.5t-13 -31.5t-31 -13zM310 272v-112q0 -31 -22.5 -53t-53.5 -22h-17q-32 0 -54 22
t-22 53v112h169zM163 181v-1l1 -1q10 -32 56 -56l5 -3l6 3q46 24 56 56v1l1 1q1 3 1 7v4q0 18 -12.5 30.5t-30.5 12.5q-11 0 -21 -6q-10 6 -21 6q-17 0 -30 -12.5t-13 -30.5q0 -2 1 -4q0 -3 1 -7zM186 190q-1 1 -1 2q0 8 5.5 13.5t13.5 5.5t13 -5l8 -8l9 8q5 5 12 5
q8 0 13.5 -5.5t5.5 -13.5v-2t-1 -3v-1q-6 -19 -39 -38q-33 19 -39 38l-11 -3l11 4v3z" />
    <glyph glyph-name="baby78" unicode="&#xe046;" horiz-adv-x="520" 
d="M412 167q-20 1 -42.5 -0.5t-51 -4.5t-42.5 -4q-28 -3 -55 0.5t-70.5 14t-53.5 12.5q-3 1 -5 0q-36 9 -68 12q-9 1 -11.5 -7.5t3.5 -14.5q-1 -2 0 -4l15 -131q1 -33 24 -56t56 -23h286q33 0 56 23t23 55l14 74q20 20 -16 36t-62 18zM453 43l-1 -3q0 -23 -16 -39t-39 -16
h-286q-23 0 -39.5 16t-16.5 39l-15 129q48 -7 146 -39.5t153 -37.5q83 -8 124 5zM412 140q23 -1 43 -9q6 -3 7 -4q1 0 -11 -2.5t-17 -3.5q-84 -10 -164 9q-2 1 -8 3q26 -1 51 1q37 4 57 5q24 1 42 1zM262 282.5q0 19.5 -13.5 33t-33 13.5t-33.5 -13.5t-14 -33t14 -33.5
t33.5 -14t33 14t13.5 33.5zM192 282q0 7 4 13q-1 -6 2.5 -10.5t9.5 -4.5q11 0 12 11t-8 14h3q10 0 16.5 -6.5t6.5 -16t-6.5 -16.5t-16 -7t-16.5 7t-7 16zM303 231.5q0 -19.5 13.5 -33t33 -13.5t33.5 13.5t14 33t-14 33.5t-33.5 14t-33 -14t-13.5 -33.5zM373 231.5
q0 -9.5 -7 -16t-16.5 -6.5t-16 6.5t-6.5 16.5v5q3 -9 12 -9q11 0 12 11.5t-9 13.5q4 2 8 2q9 0 16 -7t7 -16.5zM324.5 405q-19.5 0 -33.5 -14t-14 -33.5t14 -33t33.5 -13.5t33 13.5t13.5 33t-13.5 33.5t-33 14zM324.5 335q-9.5 0 -16.5 6.5t-7 16.5q0 3 1 6q1 -11 13 -11
t12 12.5t-12 12.5h-1q5 3 10 3q10 0 16.5 -7t6.5 -16.5t-6.5 -16t-16 -6.5z" />
    <glyph glyph-name="baby79" unicode="&#xe047;" horiz-adv-x="402" 
d="M52 126q-42 -29 -42 -79q0 -39 28 -67t67 -28q32 0 57 19q40 -12 80 -2q24 -17 54 -17q40 0 68 28t28 67q0 43 -32 71v1q0 39 -18.5 73t-51.5 56q17 25 17 55q0 7 -1 13q16 7 26.5 21.5t10.5 32.5q0 24 -17.5 41.5t-41.5 17.5q-33 0 -50 -29q-29 9 -58 0q-17 29 -49 29
q-24 0 -41.5 -17.5t-17.5 -41.5q0 -18 10 -32.5t27 -21.5q-1 -6 -1 -13q0 -30 17 -55q-31 -21 -49.5 -53t-19.5 -69zM144 234q5 2 6 8t-3 10q-19 22 -19 51q0 9 2 19q2 5 -1 9.5t-8 5.5q-13 2 -21 11.5t-8 21.5q0 14 10 24.5t25 10.5q24 0 32 -24q2 -4 6.5 -6.5t9.5 -0.5
q30 13 61 0q5 -2 9.5 0.5t6.5 6.5q8 24 32 24q14 0 24.5 -10.5t10.5 -24.5q0 -12 -8.5 -21.5t-20.5 -11.5q-5 -1 -8 -5.5t-1 -9.5q2 -10 2 -19q0 -29 -20 -51q-3 -4 -2 -10t6 -8q32 -17 50.5 -48t18.5 -67q0 -1 -1 -3v-3q0 -6 5 -10q28 -21 28 -56q0 -29 -21 -50t-51 -21
q-25 0 -44 16q-3 2 -8 2h-3q-39 -11 -78 2q-6 2 -11 -2q-20 -18 -47 -18q-30 0 -50.5 21t-20.5 50q0 41 35 62q6 3 6 10q0 36 18.5 67t50.5 48zM106 88q19 -3 29.5 -18.5t7.5 -34.5q-2 -11 10 -14h2q10 0 12 10q5 28 -11.5 52t-44.5 29q-12 2 -14 -10t9 -14zM253 21h3
q11 3 9 14q-3 19 7.5 34.5t29.5 18.5q12 2 10 14t-14 10q-29 -5 -45 -29t-11 -52q1 -10 11 -10zM199 279h18q11 0 11 12t-11 12h-18q-11 0 -11 -12t11 -12z" />
    <glyph glyph-name="baby83" unicode="&#xe048;" horiz-adv-x="490" 
d="M101 122q5 0 8.5 3.5t3.5 8.5v21q11 2 21 9l15 -15q3 -4 8 -4t9 4q8 8 0 17l-15 15q6 9 8 20h21q5 0 8.5 3.5t3.5 8.5t-3.5 8.5t-8.5 3.5h-21q-2 11 -8 21l15 15q8 8 -0.5 16.5t-16.5 0.5l-15 -15q-10 6 -21 9v21q0 5 -3.5 8.5t-8.5 3.5t-8.5 -3.5t-3.5 -8.5v-21
q-11 -3 -21 -9l-15 15q-8 8 -16.5 -0.5t-0.5 -16.5l15 -15q-6 -10 -8 -21h-21q-5 0 -8.5 -3.5t-3.5 -8.5t3.5 -8.5t8.5 -3.5h21q2 -11 8 -20l-15 -15q-8 -9 0 -17q4 -4 9 -4t8 4l15 15q10 -7 21 -9v-21q0 -5 3.5 -8.5t8.5 -3.5zM65 213.5q0 14.5 10.5 25t25.5 10.5
t25.5 -10.5t10.5 -25t-10.5 -25t-25.5 -10.5t-25.5 10.5t-10.5 25zM253 -52q34 0 58 22q6 6 3 14q-2 8 -10 9q-3 0 -6.5 0.5t-12 3.5t-15 7t-11.5 12t-5 18q0 11 5 19t11.5 12t15 6.5t12 3.5t6.5 1q7 1 9.5 8.5t-2.5 12.5q-25 22 -58 22q-35 0 -60 -25t-25 -60.5t25 -60.5
t60 -25zM253 95q10 0 18 -3q-39 -17 -41 -55v-2v-0.5v-0.5v-1v-2q3 -39 44 -55q-10 -4 -21 -4q-25 0 -43 18t-18 43.5t18 43.5t43 18zM477.5 240.5q-2.5 8.5 -11.5 8.5h-49l-15 47q-3 8 -11.5 8t-11.5 -8l-15 -47h-50q-8 0 -11 -8.5t4 -13.5l40 -29l-15 -47q-3 -8 4 -13
q4 -2 7.5 -2t6.5 2l40 29l40 -29q7 -5 14 0t5 13l-16 47l40 29q7 5 4.5 13.5zM408 199l6 -20l-17 13q-3 2 -7 2t-7 -2l-17 -13l7 20q2 8 -5 14l-17 12h21q9 0 12 8l6 20l7 -20q3 -8 11 -8h21l-17 -12q-7 -6 -4 -14zM237 435q-5 0 -8.5 -3.5t-3.5 -8.5v-29l-125 -7
q-11 -1 -11 -12v-36q0 -5 3.5 -8.5t8.5 -3.5t8.5 3.5t3.5 8.5v24l112 7v-239q0 -5 3.5 -8.5t8.5 -3.5t8.5 3.5t3.5 8.5v240l128 7v-39q0 -5 3.5 -8.5t8.5 -3.5t8.5 3.5t3.5 8.5v52q0 5 -3.5 8.5t-9.5 3.5l-139 -8v28q0 5 -3.5 8.5t-8.5 3.5z" />
    <glyph glyph-name="baby84" unicode="&#xe049;" horiz-adv-x="401" 
d="M288 40q0 19 10 29.5t26 10.5q11 0 19.5 -11t8.5 -29q0 -8 -9 -16t-19 -8q-15 0 -25.5 8t-10.5 16zM72 40q0 19 9.5 29.5t26.5 10.5q11 0 19.5 -11t8.5 -29q0 -8 -9 -16t-19 -8q-15 0 -25.5 8t-10.5 16zM168 199q0 9 9 9q7 0 7 -9q0 -7 -7 -7q-9 0 -9 7zM254 372v1
q2 8 -2.5 15t-13 8.5t-15 -3t-8.5 -12.5l-34 -159q18 -4 18 -22q0 -10 -6.5 -16.5t-16 -6.5t-16 6.5t-6.5 16.5h-124q-8 0 -14 -6t-6 -14.5t6 -14t14 -5.5h15q11 -44 41 -78q9 4 19 4q21 0 35.5 -14.5t14.5 -35.5q29 -11 61 -11t62 11q0 21 14.5 35.5t35.5 14.5q9 0 18 -4
q45 51 45 118q0 63 -39 110.5t-98 61.5z" />
    <glyph glyph-name="baby90" unicode="&#xe04a;" horiz-adv-x="502" 
d="M56 109q11 -20 26 -23q22 -5 37 -5q6 0 9 4q5 8 -3 27q22 11 32 31q3 -1 5 -2q1 0 3 -3q13 -16 29 -19l10 -1l-1 10q-2 28 -12 43q10 16 12 44l1 10l-10 -1q-16 -3 -29 -19l-2 -2v-1q-1 -1 -6 -2q-10 19 -32 30q8 20 3 28q-3 4 -9 4h-11v69l102 12q11 -14 29 -19v-198h-9
q-6 0 -9 -4q-5 -8 3 -28q-22 -11 -32 -30l-6 2l-2 3q-13 16 -29 19l-10 1l1 -10q1 -28 11 -44q-9 -15 -11 -43l-1 -10l10 1q16 3 29 19q1 1 1.5 2l0.5 1q1 0 6 2q10 -20 32 -31q-8 -19 -3 -27q3 -4 9 -4q15 0 36 5q16 3 27 23q21 8 33.5 25t12.5 37t-12.5 37t-33.5 25
q-11 21 -27 24l-1.5 0.5l-1.5 0.5v202q24 6 35 29l78 9v-100q0 -1 1 -3q-2 -1 -7 -2q-15 -3 -26 -24q-21 -8 -33.5 -24.5t-12.5 -37t12.5 -37.5t33.5 -25q11 -20 26 -23q22 -5 37 -5q6 0 9 4q5 8 -3 27q22 11 32 31q3 -1 5 -2q1 0 3 -3q13 -16 29 -19l10 -1l-1 10
q-2 28 -12 43q10 16 12 44l1 10l-10 -1q-16 -3 -29 -19l-2 -2v-1q-1 -1 -6 -2q-10 19 -32 30q8 20 3 28q-3 4 -9 4h-7v112v1v1q-1 5 -5 8.5t-8 2.5l-84 -10q-1 18 -12 31.5t-28 17.5v14h-24v-14q-17 -5 -28.5 -19t-11.5 -32q0 -4 1 -9l-105 -12h-1q-1 0 -1.5 -0.5t-1 -0.5
t-1 -0.5t-1 -0.5t-1 -0.5l-1 -1t-0.5 -1t-0.5 -0.5t-1 -1l-0.5 -1l-0.5 -1t-0.5 -1.5v-1v-0.5v-1v-82v-2l-0.5 -0.5t-1.5 -0.5q-15 -3 -26 -24q-21 -8 -33.5 -24.5t-12.5 -37t12.5 -37.5t33.5 -25zM280 87l1 -3l4 -1q17 -6 27.5 -19t10.5 -29t-10.5 -29t-28.5 -19l-3 -1
l-1 -3q-8 -16 -17 -18q-18 -4 -28 -4q2 6 6 16l4 8l-8 3q-25 10 -34 32l-2 7l-7 -3q-12 -3 -16 -5l-7 -7q-4 -6 -8 -8q4 20 10 26l6 5l-6 6q-6 6 -10 26q4 -2 8 -8l7 -7q4 -2 16 -6l7 -2l3 7q8 22 33 31l8 3l-4 8q-4 11 -6 17q10 0 28 -4q9 -2 17 -19zM402 246q-2 -6 -7 -17
l-3 -8l8 -3q25 -9 33 -31l3 -7l7 2q12 4 16 6q2 2 6 7q5 6 8 8q-3 -20 -9 -26l-6 -6l6 -5q6 -6 9 -26q-3 2 -8 8q-4 5 -6 7q-4 2 -16 5l-7 3l-3 -7q-8 -22 -33 -32l-8 -3l4 -8q4 -10 6 -16q-10 0 -28 4q-9 2 -17 18l-1 3l-3 1q-18 6 -28.5 19t-10.5 29t10.5 29t27.5 19l3 1
l2 3q8 17 17 19q18 4 28 4zM223 375q0 18 16 25q6 3 12 3t12 -3q16 -7 16 -25t-16 -25q-1 -1 -3 -2q-5 -1 -9 -1h-1h-1q-6 1 -10 3q-12 6 -15 19q-1 3 -1 6zM64 219l3 1l2 3q8 17 17 19q18 4 28 4q-2 -6 -7 -17l-3 -8l8 -3q25 -9 33 -31l3 -7l7 2q12 4 16 6q2 2 6 7q5 6 8 8
q-3 -20 -9 -26l-6 -6l6 -5q6 -6 9 -26q-3 2 -8 8q-4 5 -6 7q-4 2 -16 5l-7 3l-3 -7q-8 -22 -33 -32l-8 -3l4 -8q4 -10 6 -16q-10 0 -28 4q-9 2 -17 18l-1 3l-3 1q-18 6 -28.5 19t-10.5 29t10.5 29t27.5 19zM58 173q10 0 10 10.5t-10 10.5t-10 -10.5t10 -10.5zM346 194
q-10 0 -10 -10.5t10 -10.5t10 10.5t-10 10.5zM299 37q10 0 10 10.5t-10 10.5t-10 -10.5t10 -10.5z" />
    <glyph glyph-name="baby91" unicode="&#xe04b;" horiz-adv-x="392" 
d="M180 313q0 -18 12.5 -30t29.5 -12q8 0 16 3l63 14q11 3 19 9.5t8 14t-8 13.5t-20 7l-42 4q-13 20 -36 20q-17 0 -29.5 -12.5t-12.5 -30.5zM145 314q0 -14 6 -27q-72 -71 -103 -179q-17 -8 -27.5 -23.5t-10.5 -35.5v-36h11q-2 8 -2 16q0 24 17.5 41.5t42 17.5t41.5 -17.5
t17 -41.5q0 -8 -2 -16h122q-2 8 -2 16q0 24 17 41.5t41.5 17.5t42 -17.5t17.5 -41.5q0 -8 -2 -16h11v70q-17 39 -73 39q-27 0 -46 -20q-3 -3 -9.5 -8.5t-27.5 -15t-43 -8.5q-26 0 -47 14q11 64 60 171q5 -1 9 -1q21 0 37 14l-3 -1q-8 -3 -18 -3q-21 0 -35.5 14.5t-14.5 35.5
t14.5 36t35.5 15q12 0 23 -6q-17 15 -39 15q-25 0 -42.5 -17.5t-17.5 -42.5zM28 28q0 23 14 37.5t36 14.5q19 0 32.5 -15t13.5 -37q0 -17 -14 -30.5t-32 -13.5q-21 0 -35.5 13.5t-14.5 30.5zM260 28q0 23 15 37.5t39 14.5q16 0 29 -15t13 -37q0 -17 -13 -30.5t-29 -13.5
q-23 0 -38.5 13t-15.5 31z" />
    <glyph glyph-name="baby92" unicode="&#xe04c;" horiz-adv-x="385" 
d="M373 8q-2 -1 -5 -1q-19 0 -32.5 13.5t-13.5 32.5q0 14 7 25q10 19 8 20q-6 1 -12 1q-8 0 -17 -2v98q7 9 0 18q0 2 -2 3q-23 20 -47 36v5q1 -1 2 -1q6 -3 12 -1t9 8t1 12t-8 9q-36 19 -87 11v119q0 7 -4.5 11.5t-11.5 4.5t-11.5 -4.5t-4.5 -11.5v-121q-68 12 -115 -12
l-4 -4q-4 0 -4 -4v-4v-5v-97q-10 -2 -16.5 -9.5t-6.5 -17.5q0 -11 8 -19t19 -8t19 8t8 19q0 10 -6.5 17.5t-16.5 9.5v86q7 -5 15 -1q19 10 50 12q-21 -13 -40 -31q-12 -10 -2 -22q3 -4 8 -5v-109l-3 -6l-6 -20h-22q-9 0 -10.5 -4t6.5 -9l17 -13l-6 -21q-3 -9 0 -11t10 3
l18 13l18 -13q7 -5 10.5 -3t0.5 11l-7 21l18 13q7 5 6 9t-10 4h-22l-7 20q-1 4 -3 6v109q4 1 7 4q40 35 81 48q42 -11 83 -39v-70q-7 2 -15 0q-12 -4 -16 -16q-13 -4 -9.5 -17t16.5 -10q10 -8 23 -5q5 2 9 5q9 -9 21 -5q8 2 12.5 9.5t2.5 16.5q-4 12 -16 15v4q-2 6 -7.5 9
t-11.5 2l-1 -1v57q13 -10 26 -21q4 -4 10 -4q3 0 5 1v-95q-16 -7 -26.5 -22t-10.5 -34q0 -25 18 -43t44 -18q20 0 36 12q14 11 12 19zM251 257q-6 3 -9 5q5 -1 9 -2v-3z" />
    <glyph glyph-name="baby94" unicode="&#xe04d;" horiz-adv-x="392" 
d="M161 206l3 4q4 6 8 0l5 -8q4 -6 4 1l1 15q1 7 7 4l10 -6q3 -2 4 -1t0 4l-4 8q-2 7 5 8h4q2 1 2.5 2.5t-1.5 2.5q-13 7 -28 1l-7 10q-3 6 -8.5 2.5t-1.5 -9.5l6 -9q-15 -12 -14 -28q0 -3 1.5 -3t3.5 2zM213 237q0 -3 -5 -4l-4 -1q-1 0 -2 -1.5t0 -3.5l3 -8q2 -3 0 -5
q-1 -2 -2 -2q-2 0 -4 1l-11 6l-1 1q-2 0 -2 -3l-1 -14q-1 -5 -4 -5q-2 0 -4 3l-6 8q-1 1 -2 1t-2 -1l-3 -5q-2 -3 -5 -3l-1 1q1 -5 4 -10q10 -20 28 -28t29 -2q12 7 14.5 27t-9.5 39q-4 6 -10 9zM182 180q-3 1 -3 2q-2 2 0 3.5t4 -0.5v-4q1 -1 0.5 -1h-1.5zM203 195
q-1 -1 -4 -2q-1 0 -1.5 0.5t0.5 0.5q0 4 1 4q2 2 3.5 0t0.5 -3zM207 170q-1 -1 -2 0q-1 3 -1 4q0 2 2.5 2t2.5 -3q0 -1 -2 -3zM224 185q-1 -1 -4 -1q-2 0 -1 2l2 3q2 1 3.5 -1t-0.5 -3zM223 203q-3 -1 -4 -1q-2 0 -2 2.5t3 2.5q1 0 3 -2q1 -1 0 -2zM382 363q0 13 -16.5 22.5
t-40.5 9.5h-257q-24 0 -41 -9.5t-17 -22.5v-33h372v33zM360 311h-327v-283q0 -24 16.5 -41t40.5 -17h212q24 0 41 17t17 41v283zM325 175q0 -6 -4 -10.5t-10 -5.5q-56 -8 -114 -8t-115 8q-6 1 -10.5 5.5t-4.5 10.5v90q0 6 4.5 9t9.5 2q62 -10 116 -9t114 10q6 1 10 -2.5
t4 -9.5v-90z" />
    <glyph glyph-name="baby96" unicode="&#xe04e;" horiz-adv-x="182" 
d="M22 265v-240q0 -16 11.5 -28t28.5 -12h58q17 0 28.5 12t11.5 28v240q12 9 12 22q0 17 -19 25q-12 35 -38 35l-8 -1q-8 0 -6 6l2 6v1l1 2v4q0 7 -4 11.5t-10 4.5t-10.5 -4.5t-4.5 -11.5q0 -2 1 -4q0 -2 1 -3q1 -3 1 -6q2 -6 -4 -6q-1 0 -3.5 0.5t-3.5 0.5q-26 0 -39 -35
q-18 -8 -18 -25q0 -13 12 -22zM99 246q1 4 5 3q13 -4 20 -1.5t9 4.5t2 3q1 4 5 3t3 -5q-4 -14 -25 -14q-7 0 -16 2q-4 1 -3 5zM99 182q1 4 5 3q13 -4 20 -1.5t9 4.5t2 3q1 4 5 3t3 -5q-4 -14 -25 -14q-7 0 -16 2q-4 1 -3 5zM99 117.5q1 3.5 5 2.5q13 -4 20 -1t9 4.5t2 3.5
q1 4 5 2.5t3 -4.5q-4 -14 -25 -14q-7 0 -16 2q-4 1 -3 4.5zM99 53q1 4 5 3q13 -4 20 -1t9 4.5t2 3.5q1 3 5 2t3 -5q-4 -14 -25 -14q-7 0 -16 2q-4 1 -3 5z" />
    <glyph glyph-name="balloon7" unicode="&#xe04f;" horiz-adv-x="303" 
d="M192 78q4 2 15 7q8 4 4 13q-7 13 -25 32q42 11 69.5 46.5t32.5 77.5t-4 86q-11 47 -48.5 72t-83 24t-84.5 -27q-34 -22 -46 -62t-2.5 -81.5t29 -78t49 -57t56.5 -13.5q-1 -11 -6 -37q-1 -5 1.5 -8.5t6.5 -3.5q10 0 21 4q5 -18 41 -33q25 -10 30.5 -26t-12.5 -39
q-17 -19 -62 0q-4 2 -22 13t-36 21t-37 17.5t-33 3.5t-17 -21q-1 -9 6 -12t12 4t14 7.5t20.5 -4.5t21 -11t20.5 -13.5t15 -9.5q58 -34 93 -22q21 7 32.5 31t5.5 45q-5 18 -38 30.5t-39 24.5zM157 140q-37 -8 -66 19t-41.5 68t-8.5 85.5t27 69.5q30 31 71.5 34t76.5 -20
t47 -62q18 -56 -6.5 -113t-79.5 -71q-6 -1 -8 -6q-3 -1 -8 -3q-2 1 -4 -1zM167 122l1 -1q15 -16 21 -24q-13 -7 -22 -9q2 19 0 34zM237 306q-3 1 -12 -2q-4 -1 -13 -4q-9 -2 -12.5 -3.5t-5.5 -4.5l1 1l-1 -1q-5 -5 0 -10q2 -2 5 -2q3 -1 7 0q7 -27 -2.5 -47.5t-36.5 -26.5
q-22 -5 -41 6q-16 10 -16 46q0 1 -1 2q18 -2 23 3q4 4 3 8.5t-5 7.5q-2 1 -6.5 1.5t-10 0.5h-7.5q-17 1 -23 -3q-7 -4 -4 -12t11 -5h1h2l-0.5 -0.5l-0.5 -0.5q-10 -35 14.5 -58t59.5 -18q37 5 54.5 34.5t7.5 64.5q12 3 15 9q3 4 1 8.5t-7 5.5zM123 323q0 3 -2 16q0 6 -1 10
q0 4 -3 7t-6 3q-9 0 -10 -10q0 -4 -1 -16q0 -12 4.5 -16t10.5 -1h1q3 -1 5 1v1q2 2 2 5zM205 365v1q1 8 -8 9t-10 -7q-2 -9 -2 -26q0 -7 5.5 -9.5t10.5 0t5 9.5q0 14 -1 23z" />
    <glyph glyph-name="balloon8" unicode="&#xe050;" horiz-adv-x="303" 
d="M192 78q4 2 15 7q8 4 4 13q-7 13 -25 32q42 11 69.5 46.5t32.5 77.5t-4 86q-11 47 -48.5 72t-83 24t-84.5 -27q-34 -22 -46 -62t-2.5 -81.5t29 -78t49 -57t56.5 -13.5q-1 -11 -6 -37q-1 -5 1.5 -8.5t6.5 -3.5q10 0 21 4q5 -18 41 -33q25 -10 30.5 -26t-12.5 -39
q-17 -19 -62 0q-4 2 -22 13t-36 21t-37 17.5t-33 3.5t-17 -21q-1 -9 6 -12t12 4t14 7.5t20.5 -4.5t21 -11t20.5 -13.5t15 -9.5q58 -34 93 -22q21 7 32.5 31t5.5 45q-5 18 -38 30.5t-39 24.5zM157 140q-37 -8 -66 19t-41.5 68t-8.5 85.5t27 69.5q30 31 71.5 34t76.5 -20
t47 -62q18 -56 -6.5 -113t-79.5 -71q-6 -1 -8 -6q-3 -1 -8 -3q-2 1 -4 -1zM167 122l1 -1q15 -16 21 -24q-13 -7 -22 -9q2 19 0 34zM237 306q-3 1 -12 -2q-4 -1 -13 -4q-9 -2 -12.5 -3.5t-5.5 -4.5l1 1l-1 -1q-5 -5 0 -10q2 -2 5 -2q3 -1 7 0q7 -27 -2.5 -47.5t-36.5 -26.5
q-22 -5 -41 6q-16 10 -16 46q0 1 -1 2q18 -2 23 3q4 4 3 8.5t-5 7.5q-2 1 -6.5 1.5t-10 0.5h-7.5q-17 1 -23 -3q-7 -4 -4 -12t11 -5h1h2l-0.5 -0.5l-0.5 -0.5q-10 -35 14.5 -58t59.5 -18q37 5 54.5 34.5t7.5 64.5q12 3 15 9q3 4 1 8.5t-7 5.5zM123 323q0 3 -2 16q0 6 -1 10
q0 4 -3 7t-6 3q-9 0 -10 -10q0 -4 -1 -16q0 -12 4.5 -16t10.5 -1h1q3 -1 5 1v1q2 2 2 5zM205 365v1q1 8 -8 9t-10 -7q-2 -9 -2 -26q0 -7 5.5 -9.5t10.5 0t5 9.5q0 14 -1 23z" />
    <glyph glyph-name="balloons2" unicode="&#xe051;" horiz-adv-x="363" 
d="M273 305q-5 -12 7 -18q10 -5 14 5q10 20 8.5 46t-18.5 41q-6 5 -13 2.5t-8.5 -8.5t3.5 -11q23 -20 7 -57zM258 177q39 10 67 58t28 93q0 46 -33 78.5t-78 32.5q-33 0 -60 -18q-28 18 -60 18q-46 0 -79 -32.5t-33 -78.5t29 -94.5t69 -56.5q-9 -17 -7 -33q1 -8 10 -30
t8.5 -37t-16.5 -25q-9 -6 -15 -12.5t-8 -13.5t-2.5 -12t3 -14t6 -13.5t8.5 -15.5t8 -15q5 -6 11 -6t10 6t0 12q-2 3 -6.5 11.5t-6.5 12t-4.5 11t-1.5 12t5 10t11 10.5q15 9 19 20q7 17 0 41.5t-12.5 40.5t9.5 40h1q23 6 44 27q22 -22 46 -27q-9 -17 -7 -33q1 -8 10 -30
t8.5 -37t-16.5 -25q-9 -6 -15 -12.5t-8 -13.5t-2.5 -12t3 -14t6 -13.5t8.5 -15.5t8 -15q5 -6 11 -6t10 6t0 12q-2 3 -6.5 11.5t-6.5 12t-4.5 11t-1.5 12t5 10t11 10.5q15 9 19 20q7 17 0 41.5t-12.5 40.5t9.5 40h1zM197 223l-8 10t-7 11q-13 20 -20 43q-5 13 -6 26
q-2 8 -2 15q0 9 2 18q4 15 12 29q6 8 14 16q4 4 9 7.5t10 6.5q19 10 41 10q35 0 61 -25.5t26 -61.5q0 -40 -27.5 -84.5t-59.5 -44.5q-23 0 -45 24zM122 199q-33 0 -60.5 44.5t-27.5 84.5q0 36 26 61.5t62 25.5q21 0 40 -10q-32 -33 -32 -77q0 -54 36 -105q-22 -24 -44 -24z
" />
    <glyph glyph-name="bear11" unicode="&#xe052;" horiz-adv-x="355" 
d="M345 166q0 22 -15 37t-37 15q-17 0 -30 -10q-10 9 -21 16q27 27 27 66q0 13 -3 25q18 3 30 17t12 33q0 21 -14.5 35.5t-35.5 14.5q-18 0 -31.5 -10.5t-17.5 -27.5q-16 6 -32 6t-31 -5q-4 16 -17.5 26.5t-30.5 10.5q-21 0 -36 -14.5t-15 -35.5q0 -18 11.5 -32t29.5 -18
q-4 -12 -4 -25q0 -39 29 -67q-12 -7 -20 -16q-14 11 -32 11q-21 0 -36 -15t-15 -36t14 -35.5t34 -16.5q0 -9 2 -16q-18 -13 -20.5 -37.5t12.5 -46.5q15 -23 39.5 -30t43.5 5q9 6 14 16q15 -4 29 -4t29 4q5 -10 14 -16q19 -12 43 -5t39 30q15 22 13 47t-20 37l2 16
q20 2 33.5 16.5t13.5 34.5zM185 68h-1q-35 15 -49.5 44.5t3.5 43.5q11 9 21.5 8t17.5 -6l7 -6q1 1 3 2.5t7.5 4.5t11 4.5t12.5 0t13 -7.5q17 -14 3.5 -44t-49.5 -44z" />
    <glyph glyph-name="bear15" unicode="&#xe053;" horiz-adv-x="497" 
d="M479 205q-5 20 -27 28t-55.5 9t-41.5 3q28 29 1 86h1q36 16 40 49q3 27 -23 48q-23 19 -49 13q-27 -6 -35 -42q-28 15 -56 15q-45 2 -83 -28q-8 13 -22.5 19.5t-29.5 3.5q-25 -5 -40 -37q-15 -30 -3 -53.5t48 -15.5q-4 -42 27 -74q-21 1 -41 -1t-39.5 -8.5t-30 -21
t-7.5 -35.5q5 -30 50 -43q16 -5 46 -8q3 -1 8 -1.5t9.5 -1t8.5 -1.5q-2 -6 -10 -29.5t-11 -36.5t-5.5 -32.5t4 -32.5t20.5 -21q48 -26 127 79q6 -21 42 -52q58 -50 97 -33q24 11 29.5 39.5t-2.5 50.5q-15 57 -42 82q39 -2 71 21.5t24 61.5zM355 366l-6 -6q-4 -3 -7 -7
q-12 18 -28 31l1 3l1 6q2 4 6 5q9 3 21 -5q13 -7 15 -17q0 -4 -3 -10zM329 427q17 3 35 -12q16 -14 16 -33q0 -13 -12 -24q6 10 5 19q-2 18 -23 29q-20 11 -35 4q-7 -3 -10 -12q-1 -2 -1 -7q-1 0 -3 1.5t-3 2.5q11 28 31 32zM106 316q-28 -4 -35 11q-8 13 3 36q10 22 27 29
q3 1 6 1h5.5t5.5 -1.5t4.5 -2t4.5 -3t4 -3.5l4.5 -4.5t4.5 -3.5l-1 -1q-9 12 -34 6q-16 -4 -24 -19q-7 -14 0 -27q7 -11 27 -13q0 -1 -1 -2.5t-1 -2.5zM95 356q5 7 16 10q4 1 6.5 0.5t6.5 -1.5t6 -1q-13 -17 -20 -36q-10 3 -15 10.5t0 17.5zM369 132q-4 1 -7.5 -2.5
t-2.5 -7.5q5 -11 19.5 -31.5t19.5 -30.5q6 -12 9.5 -26.5t4 -30.5t-8 -27t-25.5 -12q-5 -1 -10 0t-10.5 3.5t-10 4.5t-10.5 6.5t-9.5 7t-9.5 8t-8 7.5t-8.5 7.5t-6.5 6.5q-4 3 -16.5 14t-13.5 12l0.5 0.5l0.5 0.5q3 5 0.5 9t-7.5 4t-9 -4q-1 -1 -3 -4q-6 -8 -10 -13
t-11.5 -14.5t-13 -15t-14 -13.5t-15.5 -12t-15 -7t-15.5 -2.5t-14.5 4.5q-7 3 -10 10t-2 17.5t1.5 17t4 19t3.5 13.5q11 50 12 59h1q4 1 5 6t-3 7q-7 4 -16 5t-20.5 1.5t-16.5 1.5q-49 7 -62 25q-14 19 3.5 33t39.5 19q15 3 41.5 6t34.5 4q3 0 3 4t-3 5h-7q0 2 -1 3
q-27 39 -22.5 75t35.5 62t75 28q50 3 95 -56q28 -38 10 -90q-3 -7 5 -9q-4 -10 6 -13q10 -2 47.5 -4.5t54.5 -12.5q11 -6 10 -17t-7.5 -21.5t-14.5 -15.5q-25 -18 -64 -18q-6 0 -7 -6zM236 314q-17 8 -37.5 -11t-26.5 -40q-11 -37 14 -63t64 -25q48 2 56 51q6 43 -20 75
q-22 27 -50 13zM187 249v1v1q4 28 23 41v-1q3 -13 8 -22q2 -11 -0.5 -18t-11.5 -8h1q1 6 -2 11q-5 7 -12 2q-3 -3 -6 -7zM259 195q-21 -7 -40.5 2t-27.5 28q12 -7 27 2q12 6 16 18q4 -9 13 -13q11 -6 24.5 2t11.5 22q-1 3 -4.5 4.5t-6.5 -0.5q-2 -1 -5.5 -5.5t-6.5 -6.5
t-7 0q-12 6 -10 25q0 1 2 3.5t2 4.5q3 4 4 7l2 3l1 1h-1q2 2 2 5v1q25 -6 33 -38q5 -21 -2.5 -40t-26.5 -25zM179 329h-1.5h-1.5q4 3 6 5q8 6 1 13t-13 -1t-9 -13q-1 0 -3 1t-3 1q-6 3 -9 -4t3 -10q1 -1 4 -3q-2 -5 -3 -10q0 -6 5 -7.5t7 4.5l4 8q7 -3 13 -3q5 1 7.5 5.5
t0 9t-7.5 4.5zM304 351q-3 0 -12 -2q-2 6 -4.5 9.5t-6.5 2.5t-4 -5t1 -9q-9 -2 -13 -4q-4 -1 -3.5 -5.5t4.5 -4.5q6 -1 15 -1q1 -1 1.5 -5.5t1 -6t2.5 -4t5 -3.5q5 -2 9 4q4 5 -1 15h5q5 0 7.5 5t0 9.5t-7.5 4.5z" />
    <glyph glyph-name="bear16" unicode="&#xe054;" horiz-adv-x="515" 
d="M499 216q-4 1 -20 -6q-8 8 -18 12q-20 8 -69 1q11 13 18 27q20 42 -8 83q9 2 16 11.5t9 20.5q2 20 -14 39t-42 18t-40 -22q-4 -5 2 -10t10 1q11 13 27 14t29 -10q12 -11 12 -27q0 -6 -2.5 -10t-7.5 -9t-6 -7l-8 8q3 0 5 2q6 9 2 19.5t-12 16.5q-10 7 -19.5 4.5
t-14.5 -12.5q-30 16 -59 21q-2 1 -4 1h-1l-1 1q-43 14 -90 -3q-11 19 -36 24q-22 4 -42 -13q-18 -14 -17 -36.5t21 -33.5q-6 -10 -9 -19q-21 -65 33 -113q-30 10 -75 -2q-28 -7 -39 -33q-8 1 -14 2q-5 1 -5 -4q0 -3 3 -4q7 -2 13 -3q-1 -8 0 -15v-1q-4 -1 -8 -3
q-3 -2 -1.5 -5t4.5 -2q2 0 8 2q12 -22 56 -31q39 -7 60 -1q0 -4 -10.5 -39.5t-9.5 -57t19 -31.5q15 -9 35.5 -12.5t36 -3t40.5 2t36 2.5q9 0 29 -1t28.5 0t22 4.5t22 13t15.5 25.5q7 15 2.5 51t-15.5 48q24 -5 51.5 7t38.5 35h4q4 1 4.5 5t-3.5 6l-1 1q1 3 1 5q1 15 -5 28
q14 5 17 12q2 5 -4 6zM375 377q4 -4 6 -9q1 -1 0.5 -5.5t-0.5 -5.5v-1q-12 11 -27 20q11 9 21 1zM126 400q12 11 29 8q9 -2 22 -14q-1 -1 -2.5 -2t-2.5 -1v1q-9 6 -22 5.5t-21 -6.5q-9 -8 -8 -17t9 -17q-5 -7 -6 -7q-23 27 2 50zM159 383q-13 -9 -23 -19q-7 11 2 17
q4 3 13 3q3 0 8 -1zM141 231q-36 44 -14 94q17 41 58.5 57.5t88.5 11.5q0 -6 6 -7q35 -5 67 -25t47.5 -51t-6.5 -69q0 1 -1 3q-14 32 -52.5 50t-78.5 17t-74 -22t-41 -59zM218 249v0v2v1v1.5v1.5l1 1q0 1 0.5 4.5t-3 5t-6.5 -0.5q-15 -7 -6 -26q5 -12 21 -14q14 -2 23 13
q2 2 3 6q5 -11 15 -15q13 -7 26 3t13 25q0 5 -5 6.5t-8 -3.5q-1 -1 -3.5 -6t-4 -7t-6 -5t-8.5 1q-12 5 -13 24q9 5 15 19q2 5 -2 7.5t-8 0.5v1q36 1 66 -14t45 -44q3 -6 9 -4q-24 -31 -71.5 -41.5t-91.5 -3.5q-41 5 -71 35h1q17 49 75 66q0 -1 1 -2q7 -17 16 -21
q-1 -11 -5 -18q-1 -2 -2 -3.5t-3 -1.5q-2 -2 -5 -2v1h-2h-1q0 1 -1 1q-2 1 -4 4v2zM333 -12q-9 -1 -27 -0.5t-24 0.5q-7 0 -37 -2t-46 -1q-3 20 1 45.5t13.5 50.5t28.5 39.5t43 7.5q34 -8 46 -76q3 -8 2 -32.5t0 -31.5zM474 168h-2.5h-3.5q-13 0 -27 -2q-3 0 -3 -4t3 -4
q5 -1 13.5 -1.5t10.5 -1.5h4q-10 -15 -32 -23t-38 -4q-7 1 -10 -4.5t1 -9.5q-3 0 -5.5 -2t-2.5 -6q1 -10 5 -32.5t5 -33.5q3 -42 -40 -50q6 24 -6 80q-14 64 -62 77q-27 7 -49.5 -9.5t-34 -43.5t-16.5 -57t4 -51q-7 1 -11 1q-19 3 -26 18.5t-4 33.5t6.5 41t2.5 33v1q3 3 4 6
q3 7 -4 9q-3 1 -19 -3q-12 -2 -33 -1q-38 2 -55 19h1h1q4 1 3.5 5t-4.5 5h-8q-2 4 -1 9q8 0 13 2q3 0 3 3.5t-3 4.5t-7 1q14 16 39 20q14 3 68 -1q4 0 5 4q26 -18 56 -24q41 -9 86 0.5t77 35.5q1 -1 2 -1q7 -1 24.5 0.5t32 0.5t23.5 -7l-2.5 -0.5t-3.5 -1.5q-5 -1 -3.5 -6.5
t6.5 -4t12 3.5q4 -7 5 -15q1 -5 0 -10zM187 333h-3q4 5 6 9q3 5 -2 9t-9 -1q-3 -2 -11 -15q-5 2 -9 3q-5 2 -7 -3.5t2 -7.5q3 -1 7 -3q-4 -5 -5 -8q-3 -5 1.5 -8.5t7.5 0.5t9 11h1t2 -0.5t4 -0.5h1q4 -2 7 0q2 1 4 4q3 4 0.5 7.5t-6.5 3.5zM360 332q0 6 -6 6q-4 0 -13 -6
q-1 2 -3.5 5.5t-3.5 4.5q-3 4 -7 3.5t-5.5 -3.5t0.5 -7q2 -3 5 -9q-1 0 -3 -0.5l-4 -1t-3 -0.5q-3 -1 -3.5 -4.5t3.5 -4.5q6 -2 16 1q3 -6 6 -9q4 -5 9 -0.5t3 9.5q-1 1 -3 5q11 4 12 11zM412 193h-0.5t-0.5 -1q-3 1 -5 -1l-3 -2t-4 -3t-3 -2q0 -1 -1 -1v-1q-4 -2 -4 -7
q0 -2 1 -4l-0.5 -1l-0.5 -1q-1 -11 16 -16t24 1q8 6 9 18t-8 18.5t-20 2.5zM114 155q-4 9 -9 15q-5 7 -10 9q-7 3 -12 -2q-20 -10 -14 -24t29 -20q12 -3 17 5q4 6 -1 17z" />
    <glyph glyph-name="bear17" unicode="&#xe055;" horiz-adv-x="515" 
d="M499 216q-4 1 -20 -6q-8 8 -18 12q-20 8 -69 1q11 13 18 27q20 42 -8 83q9 2 16 11.5t9 20.5q2 20 -14 39t-42 18t-40 -22q-4 -5 2 -10t10 1q11 13 27 14t29 -10q12 -11 12 -27q0 -6 -2.5 -10t-7.5 -9t-6 -7l-8 8q3 0 5 2q6 9 2 19.5t-12 16.5q-10 7 -19.5 4.5
t-14.5 -12.5q-30 16 -59 21q-2 1 -4 1h-1l-1 1q-43 14 -90 -3q-11 19 -36 24q-22 4 -42 -13q-18 -14 -17 -36.5t21 -33.5q-6 -10 -9 -19q-21 -65 33 -113q-30 10 -75 -2q-28 -7 -39 -33q-8 1 -14 2q-5 1 -5 -4q0 -3 3 -4q7 -2 13 -3q-1 -8 0 -15v-1q-4 -1 -8 -3
q-3 -2 -1.5 -5t4.5 -2q2 0 8 2q12 -22 56 -31q39 -7 60 -1q0 -4 -10.5 -39.5t-9.5 -57t19 -31.5q15 -9 35.5 -12.5t36 -3t40.5 2t36 2.5q9 0 29 -1t28.5 0t22 4.5t22 13t15.5 25.5q7 15 2.5 51t-15.5 48q24 -5 51.5 7t38.5 35h4q4 1 4.5 5t-3.5 6l-1 1q1 3 1 5q1 15 -5 28
q14 5 17 12q2 5 -4 6zM375 377q4 -4 6 -9q1 -1 0.5 -5.5t-0.5 -5.5v-1q-12 11 -27 20q11 9 21 1zM126 400q12 11 29 8q9 -2 22 -14q-1 -1 -2.5 -2t-2.5 -1v1q-9 6 -22 5.5t-21 -6.5q-9 -8 -8 -17t9 -17q-5 -7 -6 -7q-23 27 2 50zM159 383q-13 -9 -23 -19q-7 11 2 17
q4 3 13 3q3 0 8 -1zM141 231q-36 44 -14 94q17 41 58.5 57.5t88.5 11.5q0 -6 6 -7q35 -5 67 -25t47.5 -51t-6.5 -69q0 1 -1 3q-14 32 -52.5 50t-78.5 17t-74 -22t-41 -59zM218 249v0v2v1v1.5v1.5l1 1q0 1 0.5 4.5t-3 5t-6.5 -0.5q-15 -7 -6 -26q5 -12 21 -14q14 -2 23 13
q2 2 3 6q5 -11 15 -15q13 -7 26 3t13 25q0 5 -5 6.5t-8 -3.5q-1 -1 -3.5 -6t-4 -7t-6 -5t-8.5 1q-12 5 -13 24q9 5 15 19q2 5 -2 7.5t-8 0.5v1q36 1 66 -14t45 -44q3 -6 9 -4q-24 -31 -71.5 -41.5t-91.5 -3.5q-41 5 -71 35h1q17 49 75 66q0 -1 1 -2q7 -17 16 -21
q-1 -11 -5 -18q-1 -2 -2 -3.5t-3 -1.5q-2 -2 -5 -2v1h-2h-1q0 1 -1 1q-2 1 -4 4v2zM333 -12q-9 -1 -27 -0.5t-24 0.5q-7 0 -37 -2t-46 -1q-3 20 1 45.5t13.5 50.5t28.5 39.5t43 7.5q34 -8 46 -76q3 -8 2 -32.5t0 -31.5zM474 168h-2.5h-3.5q-13 0 -27 -2q-3 0 -3 -4t3 -4
q5 -1 13.5 -1.5t10.5 -1.5h4q-10 -15 -32 -23t-38 -4q-7 1 -10 -4.5t1 -9.5q-3 0 -5.5 -2t-2.5 -6q1 -10 5 -32.5t5 -33.5q3 -42 -40 -50q6 24 -6 80q-14 64 -62 77q-27 7 -49.5 -9.5t-34 -43.5t-16.5 -57t4 -51q-7 1 -11 1q-19 3 -26 18.5t-4 33.5t6.5 41t2.5 33v1q3 3 4 6
q3 7 -4 9q-3 1 -19 -3q-12 -2 -33 -1q-38 2 -55 19h1h1q4 1 3.5 5t-4.5 5h-8q-2 4 -1 9q8 0 13 2q3 0 3 3.5t-3 4.5t-7 1q14 16 39 20q14 3 68 -1q4 0 5 4q26 -18 56 -24q41 -9 86 0.5t77 35.5q1 -1 2 -1q7 -1 24.5 0.5t32 0.5t23.5 -7l-2.5 -0.5t-3.5 -1.5q-5 -1 -3.5 -6.5
t6.5 -4t12 3.5q4 -7 5 -15q1 -5 0 -10zM187 333h-3q4 5 6 9q3 5 -2 9t-9 -1q-3 -2 -11 -15q-5 2 -9 3q-5 2 -7 -3.5t2 -7.5q3 -1 7 -3q-4 -5 -5 -8q-3 -5 1.5 -8.5t7.5 0.5t9 11h1t2 -0.5t4 -0.5h1q4 -2 7 0q2 1 4 4q3 4 0.5 7.5t-6.5 3.5zM360 332q0 6 -6 6q-4 0 -13 -6
q-1 2 -3.5 5.5t-3.5 4.5q-3 4 -7 3.5t-5.5 -3.5t0.5 -7q2 -3 5 -9q-1 0 -3 -0.5l-4 -1t-3 -0.5q-3 -1 -3.5 -4.5t3.5 -4.5q6 -2 16 1q3 -6 6 -9q4 -5 9 -0.5t3 9.5q-1 1 -3 5q11 4 12 11zM412 193h-0.5t-0.5 -1q-3 1 -5 -1l-3 -2t-4 -3t-3 -2q0 -1 -1 -1v-1q-4 -2 -4 -7
q0 -2 1 -4l-0.5 -1l-0.5 -1q-1 -11 16 -16t24 1q8 6 9 18t-8 18.5t-20 2.5zM114 155q-4 9 -9 15q-5 7 -10 9q-7 3 -12 -2q-20 -10 -14 -24t29 -20q12 -3 17 5q4 6 -1 17z" />
    <glyph glyph-name="bear18" unicode="&#xe056;" horiz-adv-x="487" 
d="M331 329q-7 6 -25 -3v0.5t-1 1.5q1 3 -1 5l-2 2t-2 1q-3 2 -6.5 0.5t-4.5 -5.5t2 -12q-3 -1 -8 -4q-5 -1 -10 -5q-6 -7 -0.5 -13.5t13.5 -2.5l15 7q2 -5 3 -5q8 -12 15 -12q7 1 9.5 6.5t-2.5 9.5q0 1 -0.5 1t-0.5 0.5v0.5l-2 2l-5 5q14 5 15 11t-2 9zM194 327h-1
q-3 1 -7 0q-2 -1 -8 -2q1 1 1 2v2q1 2 2 3l1 1h-1q5 5 2.5 10t-7.5 5.5t-9 -3.5q-3 -5 -7 -21v-1h-1q-2 1 -3 0q-7 -3 -3 -8q2 -3 5 -5q-1 -6 -1 -11q1 -7 7.5 -7t7.5 7q0 4 2 10h3q19 1 22 7q1 3 -0.5 6.5t-4.5 4.5zM467 324q10 33 -27 76q-35 40 -71 39q-22 0 -33.5 -17.5
t-12.5 -40.5q-28 13 -60 17q-4 4 -9 3q-4 -1 -9 -2h-1h-1q-2 0 -5 -2q-19 -4 -37 -10q-7 21 -28 36.5t-43 13.5q-36 -2 -65 -46q-27 -40 -17 -75q4 -15 17.5 -22t29.5 -5q-6 -31 8 -67q9 -23 27 -41q-2 1 -4 1q-30 -5 -50 -34q-10 -16 -8 -31q-13 0 -25 -4q-5 -1 -6 -6
q-22 -5 -24.5 -29.5t9.5 -45.5q16 -34 45 -59t62 -20q35 5 48 31l1 -1q24 -16 57 -16.5t59 13.5q5 -6 10 -11q21 -18 51.5 -9.5t58.5 28t43 46t5 45.5q7 2 4 8q-16 34 -56 33q-1 5 -8 15q-8 12 -18 21q-11 11 -18 13q24 21 33 52t2 64q20 -1 43 10q18 9 23 29zM98 300
q-30 4 -34 25q-4 23 17 57q21 33 49 37q8 1 15 -1t13 -6.5t9.5 -8.5t9.5 -12t8 -11q-1 0 -8 -3q-6 11 -18.5 18t-25.5 6q-25 -2 -45 -26q-19 -22 -14 -44q4 -19 28 -20q-3 -7 -4 -11zM119 362q-6 3 -13 8q7 6 15 10q1 -1 5 -4.5t6 -5.5q11 -10 13 -12q-6 -4 -8 -5
q-2 3 -9.5 5.5t-8.5 3.5zM129 346q-5 -4 -9 -9q-1 2 -3 3q-5 2 -8 4q-7 4 -16 8q3 6 9 13q6 -5 11 -9q12 -8 16 -10zM138 377q-2 2 -8 6l1 0.5t2 0.5q1 2 5.5 0t5.5 -1.5t5 -2.5t4.5 -3.5t4 -3.5t4.5 -4l-4 -2t-2 -2q-3 3 -9.5 6.5t-8.5 5.5zM108 322q-19 2 -19 16q0 1 1 5
q1 -1 4 -2q8 -6 14 -9q4 -3 6 -3zM129 -29q-16 -4 -34.5 6t-32 27t-23.5 37t-9.5 35.5t10.5 22.5q3 -4 8 -3q18 3 38 -3q-6 1 -7.5 -5t5.5 -20q3 -5 7.5 -3t4.5 7q0 1 -0.5 1.5l-0.5 0.5q1 1 1 2q2 10 -5 16q27 -11 51 -36q15 -15 20.5 -32t-2.5 -32t-31 -21zM286 -4
q-53 -26 -101 -1h-4q6 24 -7 49q21 30 70 34q21 1 38 -8q7 -3 14 -20q-18 -29 -10 -54zM445 91q-8 -3 -4 -10q13 -25 -7.5 -52t-54 -41.5t-55.5 -8.5q-13 3 -18 12q0 5 -3 8q-3 16 9.5 37.5t25.5 32.5q15 13 33 21.5t38.5 10.5t35.5 -10zM378 142q6 -8 11 -17q1 -2 4 -7
q-31 -6 -59 -27q1 3 -4 14q-7 17 -12 21q-5 5 -11 1t-2 -10q12 -19 14 -23q4 -8 8 -8q-9 -8 -18 -18q-7 12 -23.5 19t-31.5 8q-25 1 -50 -9.5t-36 -30.5q-14 20 -37.5 37t-47.5 23q-2 17 13 33t33 23q8 2 3 9q36 -34 96.5 -42t103.5 11q15 5 27 15q0 -1 1 -2l4 -4
q6 -5 14 -16zM187 243q-15 -14 -9.5 -33.5t25.5 -22.5q18 -3 30 14q1 2 2 5q8 -14 20 -19q16 -8 30 1q8 5 13.5 15.5t2.5 18.5q-1 4 -5 5t-7 -2t-6.5 -11.5t-8 -12t-13.5 -0.5q-14 5 -19 25q4 1 5 4q14 19 17 32v3v0v2q28 -7 50 -31t23 -49q1 -7 7 -8l-4 -3
q-45 -27 -100 -19.5t-94 41.5q4 40 65 63q1 -1 1 -2q2 -4 6 -10q2 -2 9 -13q-1 -15 -7 -24q-6 -8 -15 -7q-7 1 -10 8t4 23q2 5 -3 7.5t-9 -0.5zM355 187q10 23 -11 48t-52.5 39.5t-51.5 13.5q-32 -2 -67 -25.5t-39 -52.5q-25 32 -17 73t40 65q8 6 17.5 10.5t22 8t19.5 5.5
t23 5t20 4q79 -10 113 -74q17 -31 12 -64t-29 -56zM383 329v0q-5 8 -9 11l12.5 12.5t12.5 13.5h1q2 -2 4 -5q3 -4 3 -11q-21 -18 -24 -21zM379 359q-6 -6 -10 -13q-7 7 -8 9q1 2 8 10l10 8q2 2 4 3q3 -1 8 -3q-4 -3 -12 -14zM361 371q-4 -6 -6 -11q-5 4 -6 5q4 11 18 13
q-1 -1 -2 -2.5l-2 -3t-2 -1.5zM395 305q0 1 -1 2.5t-1 2.5q15 -3 26 14q14 21 0 46q-13 23 -43.5 24t-37.5 -22l-2 1.5t-3 1.5v1q4 14 6.5 21.5t11 16t19.5 7.5q26 -2 55 -33q28 -31 24 -56q-1 -10 -7.5 -15.5t-13 -6.5t-17.5 -2.5t-16 -2.5zM365 55q-12 4 -18 -9l-1 -1
q-3 0 -4 -1q-14 -14 -11 -26q3 -14 26 -17q11 -1 18.5 5.5t7.5 17.5q0 24 -18 31zM400 83q-5 9 -14 2q-3 -3 -4 -10q-1 -2 -2 -5q-2 -6 2 -9.5t9.5 -2.5t7.5 7q3 13 1 18zM416 61q-2 3 -5 4q-6 4 -10.5 -1.5t0.5 -13.5q1 -2 3 -2q6 -5 11.5 1t0.5 12zM413 42h-11t-9 -9
q0 -3 2 -6q-1 -3 2 -5t5 0q1 0 3 2h8q9 1 9 9t-9 9zM128 51q-13 9 -31 6q-18 1 -28 -12.5t-1 -29.5q3 -4 7 -9q2 -3 3 -5q5 -7 14 -9q19 -11 36 -9q17 3 19 24q2 28 -19 44zM130 6q0 2 -1 3l-1 2q6 16 -15 28q5 -1 8 -4q5 -4 8 -12.5t1 -16.5zM53 65q-8 2 -12 -2
q-6 -6 0 -12q2 -1 4 -1.5t4 -0.5q1 0 1 0.5t1 0.5v0q6 0 7 7t-5 8zM50 49l1 1zM73 79l-4.5 2t-6.5 4q-2 4 -6.5 3.5t-6.5 -4t0 -7.5q1 -3 4 -6q4 -5 8 -8.5t9 0.5q5 0 7 6.5t-4 9.5zM165 135q-8 -1 -14 -21q-6 -17 -2 -35q1 -4 6 -3.5t5 5.5q-1 13 4 27q1 3 5 9t5 9
q1 4 -2 7t-7 2z" />
    </font>
</defs>
</svg>
