<?xml version="1.0" standalone="no"?>
<!DOCTYPE svg PUBLIC "-//W3C//DTD SVG 1.1//EN" "http://www.w3.org/Graphics/SVG/1.1/DTD/svg11.dtd" >
<svg xmlns="http://www.w3.org/2000/svg">
<metadata>Generated by IcoMoon</metadata>
<defs>
<font id="layout-light" horiz-adv-x="1024">
<font-face units-per-em="1024" ascent="960" descent="-64" />
<missing-glyph horiz-adv-x="1024" />
<glyph unicode="&#x20;" horiz-adv-x="512" d="" />
<glyph unicode="&#xe600;" glyph-name="i01-home" d="M992 444.8l-179.2 166.4h6.4v233.6c0 9.6-6.4 16-16 16h-131.2c-9.6 0-16-6.4-16-16v-89.6l-131.2 121.6c-6.4 6.4-16 6.4-22.4 0l-470.4-432c-6.4-6.4-6.4-16 0-22.4 3.2-3.2 6.4-6.4 12.8-6.4 3.2 0 6.4 0 9.6 3.2l83.2 76.8v-464c0-9.6 6.4-16 16-16h252.8c9.6 0 16 6.4 16 16v252.8h182.4v-252.8c0-9.6 6.4-16 16-16h252.8c9.6 0 16 6.4 16 16v464l83.2-76.8c6.4-6.4 16-6.4 22.4 0 3.2 9.6 3.2 19.2-3.2 25.6zM684.8 828.8h99.2v-195.2l-99.2 89.6v105.6zM854.4 528v-480h-220.8v252.8c0 9.6-6.4 16-16 16h-214.4c-9.6 0-16-6.4-16-16v-252.8h-217.6v480l342.4 313.6 342.4-313.6z" />
<glyph unicode="&#xe601;" glyph-name="i02-cart" d="M448 220.8c-19.2 0-35.2-6.4-48-19.2s-19.2-28.8-19.2-48c0-19.2 6.4-35.2 19.2-48s28.8-19.2 48-19.2c19.2 0 35.2 6.4 48 19.2s19.2 28.8 19.2 48c0 19.2-6.4 35.2-19.2 48-9.6 12.8-25.6 19.2-48 19.2zM476.8 128c-6.4-6.4-16-9.6-25.6-9.6s-19.2 3.2-25.6 9.6c-6.4 6.4-9.6 16-9.6 25.6s3.2 19.2 9.6 25.6c6.4 6.4 16 12.8 25.6 12.8s19.2-3.2 25.6-12.8c6.4-6.4 9.6-16 9.6-25.6 0-12.8-3.2-19.2-9.6-25.6zM812.8 220.8c-19.2 0-35.2-6.4-48-19.2s-19.2-28.8-19.2-48c0-19.2 6.4-35.2 19.2-48s28.8-19.2 48-19.2 35.2 6.4 48 19.2c12.8 12.8 19.2 28.8 19.2 48s-6.4 35.2-19.2 48c-12.8 12.8-28.8 19.2-48 19.2zM838.4 128c-6.4-6.4-16-9.6-25.6-9.6s-19.2 3.2-25.6 9.6c-6.4 6.4-9.6 16-9.6 25.6s3.2 19.2 9.6 25.6c6.4 6.4 16 9.6 25.6 9.6s19.2-3.2 25.6-9.6c6.4-6.4 9.6-16 9.6-25.6 0-12.8-3.2-19.2-9.6-25.6zM892.8 310.4h-521.6l-195.2 489.6c-3.2 6.4-9.6 9.6-16 9.6h-92.8c-9.6 0-16-6.4-16-16s6.4-16 16-16h83.2l195.2-489.6c3.2-6.4 9.6-9.6 16-9.6h534.4c9.6 0 16 6.4 16 16s-9.6 16-19.2 16zM969.6 755.2c-3.2 3.2-6.4 6.4-12.8 6.4h-630.4c-6.4 0-9.6-3.2-12.8-6.4s-3.2-9.6-3.2-12.8l102.4-336c3.2-6.4 9.6-12.8 16-12.8h448c6.4 0 12.8 6.4 16 12.8l83.2 336c-3.2 3.2-3.2 6.4-6.4 12.8zM864 425.6h-422.4l-92.8 304h588.8l-73.6-304z" />
<glyph unicode="&#xe602;" glyph-name="i03-cart-express" d="M457.6 220.8c-19.2 0-35.2-6.4-48-19.2s-19.2-28.8-19.2-48c0-19.2 6.4-35.2 19.2-48s28.8-19.2 48-19.2c19.2 0 35.2 6.4 48 19.2s19.2 28.8 19.2 48c0 19.2-6.4 35.2-19.2 48s-28.8 19.2-48 19.2zM483.2 128c-6.4-6.4-16-9.6-25.6-9.6s-19.2 3.2-25.6 9.6c-6.4 6.4-9.6 16-9.6 25.6s3.2 19.2 9.6 25.6c6.4 6.4 16 12.8 25.6 12.8s19.2-3.2 25.6-12.8c6.4-6.4 9.6-16 9.6-25.6 0-12.8-3.2-19.2-9.6-25.6zM819.2 220.8c-19.2 0-35.2-6.4-48-19.2s-19.2-28.8-19.2-48c0-19.2 6.4-35.2 19.2-48s28.8-19.2 48-19.2c19.2 0 35.2 6.4 48 19.2s19.2 28.8 19.2 48c0 19.2-6.4 35.2-19.2 48s-28.8 19.2-48 19.2zM844.8 128c-6.4-6.4-16-9.6-25.6-9.6s-19.2 3.2-25.6 9.6c-6.4 6.4-9.6 16-9.6 25.6s3.2 19.2 9.6 25.6c6.4 6.4 16 9.6 25.6 9.6s19.2-3.2 25.6-9.6c6.4-6.4 9.6-16 9.6-25.6 0-12.8-3.2-19.2-9.6-25.6zM899.2 310.4h-521.6l-195.2 489.6c-3.2 6.4-9.6 9.6-16 9.6h-92.8c-9.6 0-16-6.4-16-16s6.4-16 16-16h83.2l195.2-489.6c3.2-6.4 9.6-9.6 16-9.6h534.4c9.6 0 16 6.4 16 16s-9.6 16-19.2 16zM976 755.2c-3.2 3.2-6.4 6.4-12.8 6.4h-630.4c-6.4 0-9.6-3.2-12.8-6.4s-3.2-9.6-3.2-12.8l102.4-336c3.2-6.4 9.6-12.8 16-12.8h448c6.4 0 12.8 6.4 16 12.8l83.2 336c-3.2 3.2-3.2 6.4-6.4 12.8zM870.4 425.6h-422.4l-92.8 304h588.8l-73.6-304zM179.2 576c0 9.6-6.4 16-16 16h-102.4c-9.6 0-16-6.4-16-16s6.4-16 16-16h102.4c6.4 0 16 6.4 16 16zM211.2 480c0 9.6-6.4 16-16 16h-102.4c-9.6 0-16-6.4-16-16s6.4-16 16-16h102.4c6.4 0 16 6.4 16 16zM227.2 400h-102.4c-9.6 0-16-6.4-16-16s6.4-16 16-16h102.4c9.6 0 16 6.4 16 16s-9.6 16-16 16z" />
<glyph unicode="&#xe603;" glyph-name="i04-cart-add" d="M448 220.8c-19.2 0-35.2-6.4-48-19.2s-19.2-28.8-19.2-48c0-19.2 6.4-35.2 19.2-48s28.8-19.2 48-19.2c19.2 0 35.2 6.4 48 19.2s19.2 28.8 19.2 48c0 19.2-6.4 35.2-19.2 48-9.6 12.8-25.6 19.2-48 19.2zM476.8 128c-6.4-6.4-16-9.6-25.6-9.6s-19.2 3.2-25.6 9.6c-6.4 6.4-9.6 16-9.6 25.6s3.2 19.2 9.6 25.6c6.4 6.4 16 12.8 25.6 12.8s19.2-3.2 25.6-12.8c6.4-6.4 9.6-16 9.6-25.6 0-12.8-3.2-19.2-9.6-25.6zM812.8 220.8c-19.2 0-35.2-6.4-48-19.2s-19.2-28.8-19.2-48c0-19.2 6.4-35.2 19.2-48s28.8-19.2 48-19.2 35.2 6.4 48 19.2c12.8 12.8 19.2 28.8 19.2 48s-6.4 35.2-19.2 48c-12.8 12.8-28.8 19.2-48 19.2zM838.4 128c-6.4-6.4-16-9.6-25.6-9.6s-19.2 3.2-25.6 9.6c-6.4 6.4-9.6 16-9.6 25.6s3.2 19.2 9.6 25.6c6.4 6.4 16 9.6 25.6 9.6s19.2-3.2 25.6-9.6c6.4-6.4 9.6-16 9.6-25.6 0-12.8-3.2-19.2-9.6-25.6zM892.8 310.4h-521.6l-195.2 489.6c-3.2 6.4-9.6 9.6-16 9.6h-92.8c-9.6 0-16-6.4-16-16s6.4-16 16-16h83.2l195.2-489.6c3.2-6.4 9.6-9.6 16-9.6h534.4c9.6 0 16 6.4 16 16s-9.6 16-19.2 16zM969.6 755.2c-3.2 3.2-6.4 6.4-12.8 6.4h-630.4c-6.4 0-9.6-3.2-12.8-6.4s-3.2-9.6-3.2-12.8l102.4-336c3.2-6.4 9.6-12.8 16-12.8h448c6.4 0 12.8 6.4 16 12.8l83.2 336c-3.2 3.2-3.2 6.4-6.4 12.8zM864 425.6h-422.4l-92.8 304h588.8l-73.6-304zM636.8 496c0 0 0 0 0 0 3.2-3.2 6.4-3.2 9.6-3.2 0 0 0 0 0 0v0c0 0 0 0 3.2 0 0 0 0 0 0 0v0c3.2 0 6.4 3.2 9.6 3.2l80 80c3.2 3.2 3.2 6.4 3.2 12.8s0 9.6-3.2 12.8c-6.4 6.4-16 6.4-22.4 0l-54.4-54.4v124.8c0 9.6-6.4 16-16 16s-16-6.4-16-16v-124.8l-54.4 54.4c-6.4 6.4-16 6.4-22.4 0s-6.4-16 0-22.4l83.2-83.2z" />
<glyph unicode="&#xe604;" glyph-name="i05-cart-success" d="M448 220.8c-19.2 0-35.2-6.4-48-19.2s-19.2-28.8-19.2-48c0-19.2 6.4-35.2 19.2-48s28.8-19.2 48-19.2c19.2 0 35.2 6.4 48 19.2s19.2 28.8 19.2 48c0 19.2-6.4 35.2-19.2 48-9.6 12.8-25.6 19.2-48 19.2zM476.8 128c-6.4-6.4-16-9.6-25.6-9.6s-19.2 3.2-25.6 9.6c-6.4 6.4-9.6 16-9.6 25.6s3.2 19.2 9.6 25.6c6.4 6.4 16 12.8 25.6 12.8s19.2-3.2 25.6-12.8c6.4-6.4 9.6-16 9.6-25.6 0-12.8-3.2-19.2-9.6-25.6zM812.8 220.8c-19.2 0-35.2-6.4-48-19.2s-19.2-28.8-19.2-48c0-19.2 6.4-35.2 19.2-48s28.8-19.2 48-19.2 35.2 6.4 48 19.2c12.8 12.8 19.2 28.8 19.2 48s-6.4 35.2-19.2 48c-12.8 12.8-28.8 19.2-48 19.2zM838.4 128c-6.4-6.4-16-9.6-25.6-9.6s-19.2 3.2-25.6 9.6c-6.4 6.4-9.6 16-9.6 25.6s3.2 19.2 9.6 25.6c6.4 6.4 16 9.6 25.6 9.6s19.2-3.2 25.6-9.6c6.4-6.4 9.6-16 9.6-25.6 0-12.8-3.2-19.2-9.6-25.6zM892.8 310.4h-521.6l-195.2 489.6c-3.2 6.4-9.6 9.6-16 9.6h-92.8c-9.6 0-16-6.4-16-16s6.4-16 16-16h83.2l195.2-489.6c3.2-6.4 9.6-9.6 16-9.6h534.4c9.6 0 16 6.4 16 16s-9.6 16-19.2 16zM969.6 755.2c-3.2 3.2-6.4 6.4-12.8 6.4h-630.4c-6.4 0-9.6-3.2-12.8-6.4s-3.2-9.6-3.2-12.8l102.4-336c3.2-6.4 9.6-12.8 16-12.8h448c6.4 0 12.8 6.4 16 12.8l83.2 336c-3.2 3.2-3.2 6.4-6.4 12.8zM864 425.6h-422.4l-92.8 304h588.8l-73.6-304zM627.2 505.6c3.2-3.2 6.4-3.2 12.8-3.2s9.6 0 12.8 3.2l128 128c6.4 6.4 6.4 16 0 22.4s-16 6.4-22.4 0l-118.4-118.4-67.2 67.2c-6.4 6.4-16 6.4-22.4 0s-6.4-16 0-22.4l76.8-76.8z" />
<glyph unicode="&#xe605;" glyph-name="i06-cart-error" d="M572.8 515.2c3.2-3.2 6.4-3.2 12.8-3.2s9.6 0 12.8 3.2l48 48 48-48c3.2-3.2 6.4-3.2 12.8-3.2s9.6 0 12.8 3.2c6.4 6.4 6.4 16 0 22.4l-48 48 48 48c6.4 6.4 6.4 16 0 22.4s-16 6.4-22.4 0l-48-48-48 48c-6.4 6.4-16 6.4-22.4 0s-6.4-16 0-22.4l48-48-48-48c-12.8-6.4-12.8-16-6.4-22.4zM448 220.8c-19.2 0-35.2-6.4-48-19.2s-19.2-28.8-19.2-48c0-19.2 6.4-35.2 19.2-48s28.8-19.2 48-19.2c19.2 0 35.2 6.4 48 19.2s19.2 28.8 19.2 48c0 19.2-6.4 35.2-19.2 48-9.6 12.8-25.6 19.2-48 19.2zM476.8 128c-6.4-6.4-16-9.6-25.6-9.6s-19.2 3.2-25.6 9.6c-6.4 6.4-9.6 16-9.6 25.6s3.2 19.2 9.6 25.6c6.4 6.4 16 12.8 25.6 12.8s19.2-3.2 25.6-12.8c6.4-6.4 9.6-16 9.6-25.6 0-12.8-3.2-19.2-9.6-25.6zM812.8 220.8c-19.2 0-35.2-6.4-48-19.2s-19.2-28.8-19.2-48c0-19.2 6.4-35.2 19.2-48s28.8-19.2 48-19.2 35.2 6.4 48 19.2c12.8 12.8 19.2 28.8 19.2 48s-6.4 35.2-19.2 48c-12.8 12.8-28.8 19.2-48 19.2zM838.4 128c-6.4-6.4-16-9.6-25.6-9.6s-19.2 3.2-25.6 9.6c-6.4 6.4-9.6 16-9.6 25.6s3.2 19.2 9.6 25.6c6.4 6.4 16 9.6 25.6 9.6s19.2-3.2 25.6-9.6c6.4-6.4 9.6-16 9.6-25.6 0-12.8-3.2-19.2-9.6-25.6zM892.8 310.4h-521.6l-195.2 489.6c-3.2 6.4-9.6 9.6-16 9.6h-92.8c-9.6 0-16-6.4-16-16s6.4-16 16-16h83.2l195.2-489.6c3.2-6.4 9.6-9.6 16-9.6h534.4c9.6 0 16 6.4 16 16s-9.6 16-19.2 16zM969.6 755.2c-3.2 3.2-6.4 6.4-12.8 6.4h-630.4c-6.4 0-9.6-3.2-12.8-6.4s-3.2-9.6-3.2-12.8l102.4-336c3.2-6.4 9.6-12.8 16-12.8h448c6.4 0 12.8 6.4 16 12.8l83.2 336c-3.2 3.2-3.2 6.4-6.4 12.8zM864 425.6h-422.4l-92.8 304h588.8l-73.6-304z" />
<glyph unicode="&#xe606;" glyph-name="i07-cart-proceed" d="M448 220.8c-19.2 0-35.2-6.4-48-19.2s-19.2-28.8-19.2-48c0-19.2 6.4-35.2 19.2-48s28.8-19.2 48-19.2c19.2 0 35.2 6.4 48 19.2s19.2 28.8 19.2 48c0 19.2-6.4 35.2-19.2 48-9.6 12.8-25.6 19.2-48 19.2zM476.8 128c-6.4-6.4-16-9.6-25.6-9.6s-19.2 3.2-25.6 9.6c-6.4 6.4-9.6 16-9.6 25.6s3.2 19.2 9.6 25.6c6.4 6.4 16 12.8 25.6 12.8s19.2-3.2 25.6-12.8c6.4-6.4 9.6-16 9.6-25.6 0-12.8-3.2-19.2-9.6-25.6zM812.8 220.8c-19.2 0-35.2-6.4-48-19.2s-19.2-28.8-19.2-48c0-19.2 6.4-35.2 19.2-48s28.8-19.2 48-19.2 35.2 6.4 48 19.2c12.8 12.8 19.2 28.8 19.2 48s-6.4 35.2-19.2 48c-12.8 12.8-28.8 19.2-48 19.2zM838.4 128c-6.4-6.4-16-9.6-25.6-9.6s-19.2 3.2-25.6 9.6c-6.4 6.4-9.6 16-9.6 25.6s3.2 19.2 9.6 25.6c6.4 6.4 16 9.6 25.6 9.6s19.2-3.2 25.6-9.6c6.4-6.4 9.6-16 9.6-25.6 0-12.8-3.2-19.2-9.6-25.6zM892.8 310.4h-521.6l-195.2 489.6c-3.2 6.4-9.6 9.6-16 9.6h-92.8c-9.6 0-16-6.4-16-16s6.4-16 16-16h83.2l195.2-489.6c3.2-6.4 9.6-9.6 16-9.6h534.4c9.6 0 16 6.4 16 16s-9.6 16-19.2 16zM969.6 755.2c-3.2 3.2-6.4 6.4-12.8 6.4h-630.4c-6.4 0-9.6-3.2-12.8-6.4s-3.2-9.6-3.2-12.8l102.4-336c3.2-6.4 9.6-12.8 16-12.8h448c6.4 0 12.8 6.4 16 12.8l83.2 336c-3.2 3.2-3.2 6.4-6.4 12.8zM864 425.6h-422.4l-92.8 304h588.8l-73.6-304zM563.2 572.8h124.8l-54.4-54.4c-6.4-6.4-6.4-16 0-22.4 3.2-3.2 6.4-3.2 12.8-3.2s9.6 0 12.8 3.2l80 80c0 0 0 0 0 0 3.2 3.2 3.2 6.4 3.2 9.6 0 0 0 3.2 0 3.2v0c0 3.2-3.2 6.4-3.2 9.6v0c0 0 0 0 0 0v0 0 0c0 0 0 0 0 0s0 0 0 0l-80 80c-6.4 6.4-16 6.4-22.4 0-3.2-3.2-3.2-6.4-3.2-12.8s0-9.6 3.2-12.8l54.4-54.4h-124.8c-9.6 0-16-6.4-16-16s6.4-9.6 12.8-9.6z" />
<glyph unicode="&#xe607;" glyph-name="i08-cart-bag" d="M864 630.4c0 9.6-6.4 16-16 16h-166.4v89.6c0 92.8-76.8 169.6-169.6 169.6s-169.6-76.8-169.6-169.6v-89.6h-166.4c-6.4 0-12.8-6.4-16-16l-28.8-624c0-3.2 0-9.6 3.2-12.8s6.4-6.4 12.8-6.4h729.6c3.2 0 9.6 3.2 12.8 6.4s3.2 6.4 3.2 12.8l-28.8 624zM374.4 736c0 73.6 60.8 137.6 137.6 137.6 73.6 0 137.6-60.8 137.6-137.6v-89.6h-272v89.6zM163.2 22.4l28.8 592h150.4v-76.8h32v76.8h272v-76.8h32v76.8h153.6l28.8-592h-697.6z" />
<glyph unicode="&#xe608;" glyph-name="i09-cart-basket" d="M908.8 582.4h-89.6l-144 233.6c-3.2 6.4-16 9.6-22.4 6.4s-9.6-16-6.4-22.4l134.4-217.6h-531.2l134.4 217.6c3.2 6.4 3.2 16-6.4 22.4-6.4 3.2-16 3.2-22.4-6.4l-144-233.6h-96c-22.4 0-41.6-16-41.6-35.2v-80c0-19.2 19.2-35.2 41.6-35.2h25.6l83.2-348.8c3.2-6.4 9.6-12.8 16-12.8h560c6.4 0 12.8 6.4 16 12.8l83.2 348.8h16c22.4 0 41.6 16 41.6 35.2v80c-3.2 19.2-22.4 35.2-48 35.2zM784 102.4h-534.4l-76.8 329.6h688l-76.8-329.6zM908.8 464h-28.8c0 0 0 0 0 0h-729.6c0 0 0 0 0 0h-35.2c-6.4 0-9.6 3.2-9.6 3.2v80c0 0 3.2 3.2 9.6 3.2h796.8c6.4 0 9.6-3.2 9.6-3.2v-80c0 0-6.4-3.2-12.8-3.2zM361.6 182.4c0 0 0 0 0 0 9.6 0 16 9.6 16 16l-6.4 134.4c0 9.6-9.6 16-16 16-9.6 0-16-9.6-16-16l6.4-134.4c0-9.6 9.6-16 16-16zM684.8 182.4c0 0 0 0 0 0 9.6 0 16 6.4 16 16l6.4 134.4c0 9.6-6.4 16-16 16s-16-6.4-16-16l-6.4-134.4c0-6.4 6.4-16 16-16zM528 172.8c9.6 0 16 6.4 16 16v150.4c0 9.6-6.4 16-16 16s-16-6.4-16-16v-150.4c0-9.6 9.6-16 16-16z" />
<glyph unicode="&#xe609;" glyph-name="i10-search" d="M876.8 105.6l-166.4 153.6c57.6 60.8 92.8 140.8 92.8 227.2 0 182.4-147.2 332.8-332.8 332.8s-329.6-150.4-329.6-332.8c0-182.4 147.2-332.8 332.8-332.8 83.2 0 156.8 32 217.6 80l166.4-153.6c3.2-3.2 6.4-3.2 9.6-3.2s9.6 3.2 12.8 6.4c3.2 6.4 3.2 16-3.2 22.4zM172.8 486.4c0 166.4 134.4 300.8 300.8 300.8s300.8-134.4 300.8-300.8-134.4-300.8-300.8-300.8-300.8 134.4-300.8 300.8z" />
<glyph unicode="&#xe60a;" glyph-name="i11-user" d="M851.2 195.2c-38.4 25.6-92.8 54.4-156.8 86.4l-38.4 22.4c-6.4 6.4-12.8 16-19.2 25.6-6.4 16-12.8 41.6-12.8 70.4 16 12.8 28.8 35.2 38.4 70.4 9.6 25.6 12.8 38.4 16 41.6l19.2 6.4c0 0 3.2 0 3.2 3.2 16 9.6 25.6 32 28.8 64 3.2 12.8-3.2 28.8-12.8 41.6-6.4 9.6-6.4 12.8-6.4 12.8l9.6 76.8c0 48-12.8 86.4-38.4 112-22.4 25.6-60.8 44.8-108.8 54.4l-57.6 6.4c0 0-3.2 0-3.2 0l-60.8-6.4c-48-9.6-83.2-28.8-108.8-54.4-22.4-28.8-35.2-64-35.2-115.2l9.6-70.4-9.6-19.2c-9.6-12.8-16-25.6-12.8-38.4 3.2-32 12.8-51.2 28.8-64 6.4-3.2 16-6.4 25.6-9.6 3.2-6.4 6.4-16 12.8-41.6 9.6-32 22.4-54.4 38.4-70.4 0-28.8-3.2-51.2-12.8-67.2l-22.4-28.8c-9.6-6.4-19.2-12.8-35.2-19.2-67.2-32-118.4-60.8-160-86.4-76.8-48-115.2-105.6-121.6-172.8 0-3.2 0-9.6 3.2-12.8s6.4-6.4 12.8-6.4h889.6c3.2 0 9.6 3.2 12.8 6.4s3.2 6.4 3.2 12.8c-3.2 64-41.6 121.6-118.4 169.6zM425.6 422.4c-9.6 6.4-22.4 19.2-32 57.6-16 51.2-19.2 57.6-32 60.8-9.6 0-16 3.2-19.2 6.4-6.4 6.4-12.8 19.2-16 41.6 0 6.4 3.2 9.6 6.4 19.2 0 0 3.2 3.2 3.2 3.2l9.6 25.6c0 3.2 0 6.4 0 9.6l-9.6 73.6c0 38.4 9.6 70.4 28.8 89.6 19.2 22.4 51.2 35.2 89.6 44.8l57.6 6.4 54.4-6.4c41.6-9.6 70.4-25.6 89.6-44.8 19.2-22.4 28.8-51.2 28.8-89.6l-9.6-76.8c0-9.6 3.2-22.4 12.8-38.4 6.4-6.4 6.4-12.8 6.4-19.2-3.2-25.6-9.6-35.2-12.8-38.4l-22.4-6.4c-9.6-3.2-12.8-9.6-32-60.8-12.8-38.4-22.4-51.2-32-57.6-6.4-3.2-6.4-9.6-6.4-12.8 0-38.4 6.4-70.4 16-92.8 3.2-9.6 9.6-16 16-22.4l-112-112-112 112 16 22.4c0 0 0 3.2 3.2 3.2 9.6 22.4 16 51.2 16 92.8 0 0-3.2 6.4-6.4 9.6zM86.4 38.4c9.6 48 44.8 92.8 105.6 131.2 38.4 25.6 89.6 54.4 153.6 83.2 12.8 3.2 22.4 9.6 32 16l121.6-121.6c3.2-3.2 9.6-6.4 16-3.2 3.2 0 6.4 3.2 6.4 3.2l124.8 124.8 32-19.2c64-32 118.4-60.8 153.6-83.2 60.8-38.4 96-83.2 105.6-131.2h-851.2z" />
<glyph unicode="&#xe60b;" glyph-name="i12-email" d="M915.2 150.4c0 0 0 0 0 0h-806.4c0 0 0 0 0 0-3.2 0-3.2 0-6.4 0-6.4 3.2-9.6 9.6-9.6 16v560c0 0 0 0 0 0s0 0 0 0v0c0 0 0 0 0 0v0c0 3.2 0 6.4 3.2 9.6 0 0 0 0 0 0v0c0 0 0 0 3.2 3.2s6.4 3.2 9.6 3.2c0 0 0 0 0 0h806.4c0 0 0 0 0 0 3.2 0 6.4 0 9.6-3.2 0 0 0 0 3.2-3.2s3.2-6.4 3.2-9.6v0c0 0 0 0 0 0v0c0 0 0 0 0 0v0c0 0 0 0 0 0v0-560c0 0 0 0 0 0v0c0 0 0 0 0 0v0c0 0 0 0 0 0v0c0-3.2 0-6.4-3.2-9.6 0 0 0 0 0 0v0c0 0 0 0-3.2-3.2 0 0-3.2-3.2-9.6-3.2 0 0 0 0 0 0zM147.2 182.4h729.6l-243.2 243.2-112-112c-3.2-3.2-6.4-3.2-12.8-3.2 0 0 0 0 0 0v0c-3.2 0-9.6 0-12.8 3.2l-112 112-236.8-243.2zM659.2 448l243.2-243.2v483.2l-243.2-240zM124.8 691.2v-483.2l243.2 243.2-243.2 240zM147.2 713.6l364.8-364.8 364.8 364.8h-729.6z" />
<glyph unicode="&#xe60c;" glyph-name="i13-lock" d="M864 524.8h-144v198.4c0 64-54.4 176-192 192v0c-6.4 0-9.6 0-16 0s-9.6 0-16 0v-3.2c-137.6-16-192-128-192-192v-198.4h-144c-9.6 0-16-6.4-16-16v-512c0-9.6 6.4-16 16-16h704c9.6 0 16 6.4 16 16v512c0 12.8-6.4 19.2-16 19.2zM336 723.2c0 44.8 57.6 150.4 176 160 118.4-9.6 176-115.2 176-160v-198.4h-352v198.4zM848 12.8h-672v480h672v-480z" />
<glyph unicode="&#xe60d;" glyph-name="i14-minus" d="M643.2 464h-262.4c-9.6 0-16-6.4-16-16s6.4-16 16-16h262.4c9.6 0 16 6.4 16 16s-6.4 16-16 16z" />
<glyph unicode="&#xe60e;" glyph-name="i15-plus" d="M643.2 464h-115.2v115.2c0 9.6-6.4 16-16 16s-16-6.4-16-16v-115.2h-115.2c-9.6 0-16-6.4-16-16s6.4-16 16-16h115.2v-115.2c0-9.6 6.4-16 16-16s16 6.4 16 16v115.2h115.2c9.6 0 16 6.4 16 16s-6.4 16-16 16z" />
<glyph unicode="&#xe60f;" glyph-name="i16-check" d="M464 294.4c-3.2 0-9.6 0-12.8 3.2l-153.6 153.6c-6.4 6.4-6.4 16 0 22.4s16 6.4 22.4 0l140.8-140.8 236.8 236.8c6.4 6.4 16 6.4 22.4 0s6.4-16 0-22.4l-249.6-249.6c3.2 0-3.2-3.2-6.4-3.2z" />
<glyph unicode="&#xe610;" glyph-name="i17-close" d="M614.4 550.4c-6.4 6.4-16 6.4-22.4 0l-80-80-80 80c-6.4 6.4-16 6.4-22.4 0s-6.4-16 0-22.4l80-80-80-80c-6.4-6.4-6.4-16 0-22.4 3.2-3.2 6.4-3.2 12.8-3.2s9.6 0 12.8 3.2l80 80 80-80c3.2-3.2 6.4-3.2 12.8-3.2s9.6 0 12.8 3.2c6.4 6.4 6.4 16 0 22.4l-86.4 80 80 80c6.4 6.4 6.4 16 0 22.4z" />
<glyph unicode="&#xe611;" glyph-name="i18-backward" d="M537.6 448l128 128c6.4 6.4 6.4 16 0 22.4s-16 6.4-22.4 0l-140.8-140.8c-6.4-6.4-6.4-16 0-22.4l140.8-140.8c3.2-3.2 6.4-3.2 12.8-3.2s9.6 0 12.8 3.2c6.4 6.4 6.4 16 0 22.4l-131.2 131.2zM393.6 448l128 128c6.4 6.4 6.4 16 0 22.4s-16 6.4-22.4 0l-140.8-140.8c-6.4-6.4-6.4-16 0-22.4l140.8-140.8c3.2-3.2 6.4-3.2 12.8-3.2s9.6 0 12.8 3.2c6.4 6.4 6.4 16 0 22.4l-131.2 131.2z" />
<glyph unicode="&#xe612;" glyph-name="i19-forward" d="M521.6 460.8l-140.8 140.8c-3.2 3.2-6.4 3.2-12.8 3.2s-9.6 0-12.8-3.2c-6.4-6.4-6.4-16 0-22.4l128-128-128-128c-6.4-6.4-6.4-16 0-22.4s16-6.4 22.4 0l140.8 140.8c9.6 0 9.6 12.8 3.2 19.2zM665.6 460.8l-140.8 140.8c-3.2 3.2-6.4 3.2-12.8 3.2s-9.6 0-12.8-3.2c-6.4-6.4-6.4-16 0-22.4l128-128-128-128c-6.4-6.4-6.4-16 0-22.4s16-6.4 22.4 0l140.8 140.8c9.6 0 9.6 12.8 3.2 19.2z" />
<glyph unicode="&#xe613;" glyph-name="i20-left" d="M614.4 643.2c-6.4 6.4-16 6.4-22.4 0l-185.6-185.6c-6.4-6.4-6.4-16 0-22.4l185.6-185.6c3.2-3.2 6.4-3.2 12.8-3.2s9.6 0 12.8 3.2c6.4 6.4 6.4 16 0 22.4l-176 176 172.8 172.8c6.4 6.4 6.4 16 0 22.4z" />
<glyph unicode="&#xe614;" glyph-name="i21-right" d="M432 643.2c-6.4 6.4-16 6.4-22.4 0s-6.4-16 0-22.4l172.8-172.8-172.8-172.8c-6.4-6.4-6.4-16 0-22.4 3.2-3.2 6.4-3.2 12.8-3.2s9.6 0 12.8 3.2l185.6 185.6c6.4 6.4 6.4 16 0 22.4l-188.8 182.4z" />
<glyph unicode="&#xe615;" glyph-name="i22-up" d="M524.8 550.4c-6.4 6.4-16 6.4-22.4 0l-185.6-185.6c-6.4-6.4-6.4-16 0-22.4 3.2-3.2 6.4-3.2 12.8-3.2s9.6 0 12.8 3.2l172.8 172.8 172.8-172.8c3.2-3.2 6.4-3.2 12.8-3.2s9.6 0 12.8 3.2c6.4 6.4 6.4 16 0 22.4l-188.8 185.6z" />
<glyph unicode="&#xe616;" glyph-name="i23-down" d="M684.8 550.4l-172.8-172.8-172.8 172.8c-6.4 6.4-16 6.4-22.4 0s-6.4-16 0-22.4l185.6-185.6c3.2-3.2 6.4-3.2 12.8-3.2s9.6 0 12.8 3.2l185.6 185.6c6.4 6.4 6.4 16 0 22.4s-22.4 6.4-28.8 0z" />
<glyph unicode="&#xe617;" glyph-name="i24-round-minus" d="M512 899.2c-249.6 0-451.2-201.6-451.2-451.2s201.6-451.2 451.2-451.2 451.2 201.6 451.2 451.2-201.6 451.2-451.2 451.2zM512 28.8c-230.4 0-419.2 188.8-419.2 419.2s188.8 419.2 419.2 419.2 419.2-188.8 419.2-419.2-188.8-419.2-419.2-419.2zM643.2 464h-262.4c-9.6 0-16-6.4-16-16s6.4-16 16-16h262.4c9.6 0 16 6.4 16 16s-6.4 16-16 16z" />
<glyph unicode="&#xe618;" glyph-name="i25-round-plus" d="M512 899.2c-249.6 0-451.2-201.6-451.2-451.2s201.6-451.2 451.2-451.2 451.2 201.6 451.2 451.2-201.6 451.2-451.2 451.2zM512 28.8c-230.4 0-419.2 188.8-419.2 419.2s188.8 419.2 419.2 419.2 419.2-188.8 419.2-419.2-188.8-419.2-419.2-419.2zM643.2 464h-115.2v115.2c0 9.6-6.4 16-16 16s-16-6.4-16-16v-115.2h-115.2c-9.6 0-16-6.4-16-16s6.4-16 16-16h115.2v-115.2c0-9.6 6.4-16 16-16s16 6.4 16 16v115.2h115.2c9.6 0 16 6.4 16 16s-6.4 16-16 16z" />
<glyph unicode="&#xe619;" glyph-name="i26-round-check" d="M512-3.2c-249.6 0-451.2 201.6-451.2 451.2s201.6 451.2 451.2 451.2 451.2-201.6 451.2-451.2-201.6-451.2-451.2-451.2zM512 867.2c-230.4 0-419.2-188.8-419.2-419.2s188.8-419.2 419.2-419.2 419.2 188.8 419.2 419.2-188.8 419.2-419.2 419.2zM464 294.4c-3.2 0-9.6 0-12.8 3.2l-153.6 153.6c-6.4 6.4-6.4 16 0 22.4s16 6.4 22.4 0l140.8-140.8 236.8 236.8c6.4 6.4 16 6.4 22.4 0s6.4-16 0-22.4l-249.6-249.6c3.2 0-3.2-3.2-6.4-3.2z" />
<glyph unicode="&#xe61a;" glyph-name="i27-round-close" d="M512 899.2c-249.6 0-451.2-201.6-451.2-451.2s201.6-451.2 451.2-451.2 451.2 201.6 451.2 451.2-201.6 451.2-451.2 451.2zM512 28.8c-230.4 0-419.2 188.8-419.2 419.2s188.8 419.2 419.2 419.2 419.2-188.8 419.2-419.2-188.8-419.2-419.2-419.2zM614.4 550.4c-6.4 6.4-16 6.4-22.4 0l-80-80-80 80c-6.4 6.4-16 6.4-22.4 0s-6.4-16 0-22.4l80-80-80-80c-6.4-6.4-6.4-16 0-22.4 3.2-3.2 6.4-3.2 12.8-3.2s9.6 0 12.8 3.2l80 80 80-80c3.2-3.2 6.4-3.2 12.8-3.2s9.6 0 12.8 3.2c6.4 6.4 6.4 16 0 22.4l-86.4 80 80 80c6.4 6.4 6.4 16 0 22.4z" />
<glyph unicode="&#xe61b;" glyph-name="i28-round-left" d="M512 899.2c-249.6 0-451.2-201.6-451.2-451.2s201.6-451.2 451.2-451.2 451.2 201.6 451.2 451.2-201.6 451.2-451.2 451.2zM512 28.8c-230.4 0-419.2 188.8-419.2 419.2s188.8 419.2 419.2 419.2 419.2-188.8 419.2-419.2-188.8-419.2-419.2-419.2zM614.4 643.2c-6.4 6.4-16 6.4-22.4 0l-185.6-185.6c-6.4-6.4-6.4-16 0-22.4l185.6-185.6c3.2-3.2 6.4-3.2 12.8-3.2s9.6 0 12.8 3.2c6.4 6.4 6.4 16 0 22.4l-176 176 172.8 172.8c6.4 6.4 6.4 16 0 22.4z" />
<glyph unicode="&#xe61c;" glyph-name="i29-round-right" d="M512 899.2c-249.6 0-451.2-201.6-451.2-451.2s201.6-451.2 451.2-451.2 451.2 201.6 451.2 451.2-201.6 451.2-451.2 451.2zM512 28.8c-230.4 0-419.2 188.8-419.2 419.2s188.8 419.2 419.2 419.2 419.2-188.8 419.2-419.2-188.8-419.2-419.2-419.2zM432 643.2c-6.4 6.4-16 6.4-22.4 0s-6.4-16 0-22.4l172.8-172.8-172.8-172.8c-6.4-6.4-6.4-16 0-22.4 3.2-3.2 6.4-3.2 12.8-3.2s9.6 0 12.8 3.2l185.6 185.6c6.4 6.4 6.4 16 0 22.4l-188.8 182.4z" />
<glyph unicode="&#xe61d;" glyph-name="i30-round-up" d="M512 899.2c-249.6 0-451.2-201.6-451.2-451.2s201.6-451.2 451.2-451.2 451.2 201.6 451.2 451.2-201.6 451.2-451.2 451.2zM512 28.8c-230.4 0-419.2 188.8-419.2 419.2s188.8 419.2 419.2 419.2 419.2-188.8 419.2-419.2-188.8-419.2-419.2-419.2zM524.8 550.4c-6.4 6.4-16 6.4-22.4 0l-185.6-185.6c-6.4-6.4-6.4-16 0-22.4 3.2-3.2 6.4-3.2 12.8-3.2s9.6 0 12.8 3.2l172.8 172.8 172.8-172.8c3.2-3.2 6.4-3.2 12.8-3.2s9.6 0 12.8 3.2c6.4 6.4 6.4 16 0 22.4l-188.8 185.6z" />
<glyph unicode="&#xe61e;" glyph-name="i31-round-down" d="M512 899.2c-249.6 0-451.2-201.6-451.2-451.2s201.6-451.2 451.2-451.2 451.2 201.6 451.2 451.2-201.6 451.2-451.2 451.2zM512 28.8c-230.4 0-419.2 188.8-419.2 419.2s188.8 419.2 419.2 419.2 419.2-188.8 419.2-419.2-188.8-419.2-419.2-419.2zM684.8 550.4l-172.8-172.8-172.8 172.8c-6.4 6.4-16 6.4-22.4 0s-6.4-16 0-22.4l185.6-185.6c3.2-3.2 6.4-3.2 12.8-3.2s9.6 0 12.8 3.2l185.6 185.6c6.4 6.4 6.4 16 0 22.4s-22.4 6.4-28.8 0z" />
<glyph unicode="&#xe61f;" glyph-name="i32-facebook" d="M512 899.84c-248.96 0-451.52-202.56-451.52-451.52s202.56-451.84 451.52-451.84 451.52 202.56 451.52 451.52-202.56 451.84-451.52 451.84zM512 28.48c-231.36 0-419.52 188.16-419.52 419.52s188.16 419.84 419.52 419.84 419.52-188.16 419.52-419.52-188.16-419.84-419.52-419.84zM650.56 615.36c0-5.76-4.8-10.56-10.56-10.56h-44.8c-30.72 0-36.48-12.16-36.48-35.84v-49.28h78.080c2.88 0 5.44-0.96 7.36-3.2 1.92-1.92 3.2-4.48 3.2-7.36v-84.16c0-5.76-4.8-10.56-10.56-10.56h-78.080v-212.48c0-5.76-4.8-10.56-10.56-10.56h-87.040c-5.76 0-10.56 4.8-10.56 10.56v212.48h-66.56c-5.76 0-10.56 4.8-10.56 10.56v84.16c0 5.76 4.8 10.56 10.56 10.56h66.88v58.24c0 76.48 48.32 126.080 122.88 126.080h66.56c5.76 0 10.56-4.8 10.56-10.56v-78.080z" />
<glyph unicode="&#xe620;" glyph-name="i33-twitter" d="M512 899.2c-249.6 0-451.2-201.6-451.2-451.2s201.6-451.2 451.2-451.2 451.2 201.6 451.2 451.2-201.6 451.2-451.2 451.2zM512 28.8c-230.4 0-419.2 188.8-419.2 419.2s188.8 419.2 419.2 419.2 419.2-188.8 419.2-419.2-188.8-419.2-419.2-419.2zM713.6 550.4v-12.8c0-137.6-105.6-297.6-297.6-297.6-57.6 0-115.2 16-160 48 9.6 0 16 0 25.6 0 48 0 92.8 16 128 44.8-44.8 0-83.2 32-96 73.6 6.4 0 12.8-3.2 19.2-3.2 9.6 0 19.2 0 28.8 3.2-48 9.6-83.2 51.2-83.2 102.4v0c12.8-6.4 28.8-12.8 48-12.8-28.8 19.2-44.8 51.2-44.8 86.4 0 19.2 6.4 38.4 12.8 51.2 51.2-64 128-105.6 214.4-108.8-3.2 6.4-3.2 16-3.2 22.4 0 57.6 48 105.6 105.6 105.6 28.8 0 57.6-12.8 76.8-32 22.4 3.2 44.8 12.8 67.2 25.6-6.4-25.6-25.6-44.8-44.8-57.6 22.4 3.2 41.6 9.6 60.8 16-19.2-19.2-35.2-38.4-57.6-54.4z" />
<glyph unicode="&#xe621;" glyph-name="i34-google" d="M512 899.84c-248.96 0-451.52-202.56-451.52-451.52s202.56-451.84 451.52-451.84 451.52 202.56 451.52 451.52-202.56 451.84-451.52 451.84zM512 28.48c-231.36 0-419.52 188.16-419.52 419.52s188.16 419.84 419.52 419.84 419.52-188.16 419.52-419.52-188.16-419.84-419.52-419.84zM512 209.28c-131.84 0-238.72 106.88-238.72 238.72s106.88 238.72 238.72 238.72c62.080 0 118.72-23.68 160.96-62.4l-70.4-68.8c-24.32 20.48-56 32.96-90.56 32.96-77.44 0-140.48-63.040-140.48-140.48s63.040-140.48 140.48-140.48c60.16 0 111.36 37.76 131.2 90.56h-134.4v99.84h236.8c3.52-16 5.12-32.64 5.12-49.92 0-131.84-106.88-238.72-238.72-238.72z" />
<glyph unicode="&#xe622;" glyph-name="i35-yahoo" d="M512 899.2c-249.6 0-451.2-201.6-451.2-451.2s201.6-451.2 451.2-451.2 451.2 201.6 451.2 451.2-201.6 451.2-451.2 451.2zM512 28.8c-230.4 0-419.2 188.8-419.2 419.2s188.8 419.2 419.2 419.2 419.2-188.8 419.2-419.2-188.8-419.2-419.2-419.2zM691.2 537.6c-16-3.2-147.2-105.6-156.8-131.2-3.2-9.6 0-92.8 3.2-105.6 9.6-3.2 70.4 0 83.2-3.2v-25.6c-12.8 0-92.8 0-137.6 0-22.4 0-99.2-3.2-121.6-3.2l3.2 25.6c12.8 0 64-3.2 76.8 9.6 6.4 6.4 3.2 86.4 3.2 99.2-6.4 16-121.6 160-150.4 182.4h-76.8v35.2h262.4v-38.4h-80c35.2-51.2 86.4-115.2 108.8-144l105.6 96h-64l-6.4 41.6h230.4l-3.2-3.2-16-22.4-6.4-9.6h-41.6c-6.4 0-12.8-3.2-16-3.2zM761.6 272h-38.4v38.4l22.4-3.2h19.2l-3.2-35.2zM764.8 336l-35.2 3.2v163.2c9.6-3.2 70.4-6.4 76.8-6.4l-41.6-160z" />
<glyph unicode="&#xe623;" glyph-name="i36-attention" d="M515.2 198.4c-3.2 0-9.6 0-12.8 6.4-3.2 3.2-3.2 6.4-3.2 9.6s3.2 9.6 3.2 12.8c6.4 6.4 16 6.4 22.4 0 3.2-3.2 3.2-6.4 3.2-12.8 0-3.2-3.2-9.6-6.4-9.6 0-3.2-3.2-6.4-6.4-6.4zM953.6 51.2c0 0 0 0 0 0h-883.2c-6.4 0-9.6 3.2-12.8 9.6s-3.2 9.6 0 16l441.6 761.6c6.4 9.6 22.4 9.6 28.8 0l438.4-758.4c3.2-3.2 3.2-6.4 3.2-12.8 0-9.6-6.4-16-16-16zM99.2 83.2h825.6l-412.8 713.6-412.8-713.6zM531.2 524.8l-6.4-195.2c0-6.4-3.2-9.6-9.6-9.6-3.2 0-9.6 3.2-9.6 9.6l-6.4 195.2c0 9.6 6.4 16 16 16 6.4 0 16-6.4 16-16 0 0 0 0 0 0z" />
<glyph unicode="&#xe624;" glyph-name="i37-error" d="M512 272c-3.2 0-9.6 3.2-12.8 6.4s-3.2 6.4-3.2 9.6c0 3.2 0 9.6 3.2 12.8 6.4 6.4 16 6.4 22.4 0 3.2-3.2 6.4-6.4 6.4-12.8 0-3.2-3.2-9.6-6.4-9.6 0-3.2-6.4-6.4-9.6-6.4zM528 598.4l-6.4-195.2c0-6.4-3.2-9.6-9.6-9.6-3.2 0-9.6 3.2-9.6 9.6l-6.4 195.2c0 9.6 6.4 16 16 16s16-6.4 16-16c0 0 0 0 0 0zM512-3.2c-249.6 0-451.2 201.6-451.2 451.2s201.6 451.2 451.2 451.2 451.2-201.6 451.2-451.2-201.6-451.2-451.2-451.2zM512 867.2c-230.4 0-419.2-188.8-419.2-419.2s188.8-419.2 419.2-419.2 419.2 188.8 419.2 419.2-188.8 419.2-419.2 419.2z" />
<glyph unicode="&#xe625;" glyph-name="i38-info" d="M512 643.2c-12.8 0-22.4-3.2-28.8-9.6s-9.6-19.2-9.6-28.8c0-12.8 3.2-22.4 9.6-28.8s19.2-12.8 28.8-12.8c12.8 0 22.4 3.2 28.8 12.8 6.4 6.4 12.8 16 12.8 28.8s-3.2 22.4-12.8 28.8c-6.4 6.4-16 9.6-28.8 9.6zM771.2 710.4c-70.4 70.4-156.8 105.6-259.2 105.6s-188.8-35.2-262.4-105.6c0 0 0 0 0 0-70.4-70.4-105.6-160-105.6-262.4s35.2-188.8 105.6-259.2c70.4-70.4 160-108.8 262.4-108.8s188.8 35.2 259.2 108.8c70.4 70.4 108.8 156.8 108.8 259.2s-35.2 188.8-108.8 262.4zM748.8 211.2c-64-67.2-144-99.2-236.8-99.2s-172.8 32-240 99.2c-64 64-96 144-96 236.8s32 172.8 96 240c67.2 64 147.2 96 240 96s172.8-32 236.8-96c67.2-67.2 99.2-147.2 99.2-240s-32-172.8-99.2-236.8zM496 486.4h32v-233.6h-32v233.6z" />
<glyph unicode="&#xe626;" glyph-name="i39-up-down" d="M377.6 499.2c3.2 0 9.6 0 12.8 3.2l124.8 124.8 124.8-124.8c3.2-3.2 6.4-3.2 12.8-3.2s9.6 0 12.8 3.2c6.4 6.4 6.4 16 0 22.4l-134.4 134.4c-6.4 6.4-16 6.4-22.4 0l-134.4-134.4c-6.4-6.4-6.4-16 0-22.4-6.4-3.2-3.2-3.2 3.2-3.2zM636.8 393.6l-124.8-124.8-124.8 124.8c-6.4 6.4-16 6.4-22.4 0s-6.4-16 0-22.4l134.4-134.4c3.2-3.2 6.4-3.2 12.8-3.2s9.6 0 12.8 3.2l134.4 134.4c6.4 6.4 6.4 16 0 22.4s-16 6.4-22.4 0z" />
<glyph unicode="&#xe627;" glyph-name="i40-left-right" d="M723.2 460.8l-134.4 134.4c-6.4 6.4-16 6.4-22.4 0s-6.4-16 0-22.4l124.8-124.8-124.8-124.8c-6.4-6.4-6.4-16 0-22.4 3.2-3.2 6.4-3.2 12.8-3.2s9.6 0 12.8 3.2l134.4 134.4c3.2 6.4 3.2 19.2-3.2 25.6zM457.6 595.2c-6.4 6.4-16 6.4-22.4 0l-134.4-134.4c-6.4-6.4-6.4-16 0-22.4l134.4-134.4c3.2-3.2 6.4-3.2 12.8-3.2s9.6 0 12.8 3.2c6.4 6.4 6.4 16 0 22.4l-128 121.6 124.8 124.8c6.4 6.4 6.4 16 0 22.4z" />
<glyph unicode="&#xe628;" glyph-name="i41-round-up-down" d="M512 899.2c-249.6 0-451.2-201.6-451.2-451.2s201.6-451.2 451.2-451.2 451.2 201.6 451.2 451.2-201.6 451.2-451.2 451.2zM512 28.8c-230.4 0-419.2 188.8-419.2 419.2s188.8 419.2 419.2 419.2 419.2-188.8 419.2-419.2-188.8-419.2-419.2-419.2zM524.8 659.2c-6.4 6.4-16 6.4-22.4 0l-134.4-134.4c-6.4-6.4-6.4-16 0-22.4 3.2-3.2 6.4-3.2 12.8-3.2s9.6 0 12.8 3.2l124.8 124.8 124.8-124.8c3.2-3.2 6.4-3.2 12.8-3.2s9.6 0 12.8 3.2c6.4 6.4 6.4 16 0 22.4l-144 134.4zM636.8 393.6l-124.8-124.8-124.8 124.8c-6.4 6.4-16 6.4-22.4 0s-6.4-16 0-22.4l134.4-134.4c3.2-3.2 6.4-3.2 12.8-3.2s9.6 0 12.8 3.2l134.4 134.4c6.4 6.4 6.4 16 0 22.4s-16 6.4-22.4 0z" />
<glyph unicode="&#xe629;" glyph-name="i42-round-left-right" d="M512 899.2c-249.6 0-451.2-201.6-451.2-451.2s201.6-451.2 451.2-451.2 451.2 201.6 451.2 451.2-201.6 451.2-451.2 451.2zM512 28.8c-230.4 0-419.2 188.8-419.2 419.2s188.8 419.2 419.2 419.2 419.2-188.8 419.2-419.2-188.8-419.2-419.2-419.2zM588.8 595.2c-6.4 6.4-16 6.4-22.4 0s-6.4-16 0-22.4l124.8-124.8-124.8-124.8c-6.4-6.4-6.4-16 0-22.4 3.2-3.2 6.4-3.2 12.8-3.2s9.6 0 12.8 3.2l134.4 134.4c6.4 6.4 6.4 16 0 22.4l-137.6 137.6zM457.6 595.2c-6.4 6.4-16 6.4-22.4 0l-134.4-134.4c-6.4-6.4-6.4-16 0-22.4l134.4-134.4c3.2-3.2 6.4-3.2 12.8-3.2s9.6 0 12.8 3.2c6.4 6.4 6.4 16 0 22.4l-128 121.6 124.8 124.8c6.4 6.4 6.4 16 0 22.4z" />
<glyph unicode="&#xe62a;" glyph-name="i43-go-left" d="M508.8 246.4c-3.2 0-9.6 0-12.8 3.2l-185.6 185.6c0 0 0 0 0 0v0c0 0 0 0 0 0s0 0 0 0 0 0 0 0v0c-3.2 3.2-3.2 6.4-3.2 9.6v0 0c0 0 0 3.2 0 3.2v0 0c0 3.2 3.2 6.4 3.2 9.6 0 0 0 0 0 0l185.6 185.6c6.4 6.4 16 6.4 22.4 0s6.4-16 0-22.4l-156.8-156.8h339.2c9.6 0 16-6.4 16-16s-6.4-16-16-16h-339.2l156.8-156.8c3.2-3.2 3.2-6.4 3.2-12.8s0-9.6-3.2-12.8-6.4-3.2-9.6-3.2z" />
<glyph unicode="&#xe62b;" glyph-name="i44-go-right" d="M515.2 246.4c-3.2 0-9.6 0-12.8 3.2-6.4 6.4-6.4 16 0 22.4l156.8 156.8h-336c-9.6 0-16 6.4-16 16s6.4 16 16 16h339.2l-156.8 156.8c-3.2 3.2-3.2 6.4-3.2 12.8s0 9.6 3.2 12.8c6.4 6.4 16 6.4 22.4 0l185.6-185.6c0 0 0 0 0 0v0c0 0 0 0 0 0s0 0 0 0 0 0 0 0v0c3.2-3.2 3.2-6.4 3.2-9.6v0 0c0 0 0-3.2 0-3.2v0 0c0-3.2-3.2-6.4-3.2-9.6 0 0 0 0 0 0l-185.6-185.6c-3.2 0-6.4-3.2-12.8-3.2z" />
<glyph unicode="&#xe62c;" glyph-name="i45-go-up" d="M512 243.2c-9.6 0-16 6.4-16 16v339.2l-156.8-156.8c-6.4-6.4-16-6.4-22.4 0s-6.4 16 0 22.4l185.6 185.6c0 0 0 0 0 0 3.2 3.2 6.4 3.2 9.6 3.2 0 0 0 0 0 0v0c0 0 0 0 3.2 0v0 0c3.2 0 6.4-3.2 9.6-3.2l185.6-185.6c3.2-3.2 3.2-6.4 3.2-12.8s0-9.6-3.2-12.8c-6.4-6.4-16-6.4-22.4 0l-156.8 156.8v-339.2c-3.2-6.4-9.6-12.8-19.2-12.8z" />
<glyph unicode="&#xe62d;" glyph-name="i46-go-down" d="M512 243.2c0 0 0 0 0 0v0 0c-3.2 0-9.6 3.2-12.8 3.2l-185.6 185.6c-3.2 3.2-3.2 6.4-3.2 12.8s0 9.6 3.2 12.8c6.4 6.4 16 6.4 22.4 0l156.8-156.8v336c0 9.6 6.4 16 16 16s16-6.4 16-16v-339.2l156.8 156.8c6.4 6.4 16 6.4 22.4 0s6.4-16 0-22.4l-185.6-185.6c0 0 0 0 0 0 3.2 0 0-3.2-6.4-3.2 3.2 0 3.2 0 0 0v0c0 0 0 0 0 0z" />
<glyph unicode="&#xe62e;" glyph-name="i47-expand" d="M784 160c0 0 0 0 0 0h-160c-9.6 0-16 6.4-16 16s6.4 16 16 16h118.4l-166.4 166.4c-6.4 6.4-6.4 16 0 22.4s16 6.4 22.4 0l166.4-166.4v118.4c0 9.6 6.4 16 16 16s16-6.4 16-16v-160c0 0 0 0 0 0v0c0 0 0 0 0 0v0c0 0 0 0 0 0v0c0-3.2 0-6.4-3.2-9.6 0 0 0 0-3.2-3.2 3.2 0 0 0-6.4 0 0 0 0 0 0 0zM396.8 160h-160c0 0 0 0 0 0v0c0 0 0 0 0 0v0c0 0 0 0 0 0v0c-3.2 0-6.4 0-9.6 3.2 0 0 0 0-3.2 3.2 0 3.2 0 3.2 0 6.4 0 0 0 0 0 0v156.8c0 9.6 6.4 16 16 16s16-3.2 16-12.8v-118.4l166.4 166.4c6.4 6.4 16 6.4 22.4 0s6.4-16 0-22.4l-166.4-166.4h118.4c9.6 0 16-6.4 16-16s-6.4-16-16-16zM592 512c-3.2 0-9.6 0-12.8 3.2-6.4 6.4-6.4 16 0 22.4l166.4 166.4h-118.4c-9.6 0-16 6.4-16 16s6.4 16 16 16h156.8c0 0 0 0 0 0 3.2 0 6.4 0 9.6-3.2 0 0 0 0 3.2-3.2 3.2 0 3.2-6.4 3.2-9.6v0c0 0 0 0 0 0v0c0 0 0 0 0 0v0c0 0 0 0 0 0v-160c0-9.6-6.4-16-16-16s-16 9.6-16 19.2v118.4l-166.4-166.4c-3.2-3.2-6.4-3.2-9.6-3.2zM432 512c-3.2 0-9.6 0-12.8 3.2l-163.2 166.4v-118.4c0-9.6-6.4-16-16-16s-16 6.4-16 16v156.8c0 0 0 0 0 0 0 3.2 0 6.4 3.2 9.6 0 0 0 3.2 3.2 3.2 0 3.2 6.4 3.2 9.6 3.2v0c0 0 0 0 0 0v0c0 0 0 0 0 0v0c0 0 0 0 0 0v0h160c9.6 0 16-6.4 16-16s-9.6-16-19.2-16h-118.4l166.4-166.4c6.4-6.4 6.4-16 0-22.4-3.2-3.2-9.6-3.2-12.8-3.2z" />
<glyph unicode="&#xe62f;" glyph-name="i48-reduce" d="M784 160c-3.2 0-9.6 0-12.8 3.2l-163.2 166.4v-118.4c0-9.6-6.4-16-16-16s-16 6.4-16 16v160c0 0 0 0 0 0v0c0 0 0 0 0 0v0c0 0 0 0 0 0v0c0 3.2 0 6.4 3.2 9.6 0 0 0 0 0 0v0c0 0 0 0 3.2 3.2s6.4 3.2 9.6 3.2c0 0 0 0 0 0h156.8c9.6 0 16-6.4 16-16s-6.4-19.2-16-19.2h-118.4l166.4-166.4c6.4-6.4 6.4-16 0-22.4-3.2-3.2-9.6-3.2-12.8-3.2zM240 160c-3.2 0-9.6 0-12.8 3.2-6.4 6.4-6.4 16 0 22.4l166.4 166.4h-118.4c-9.6 0-16 6.4-16 16s6.4 16 16 16h160c0 0 0 0 0 0v0c0 0 0 0 0 0v0c0 0 0 0 0 0v0c3.2 0 6.4 0 9.6-3.2 0 0 0 0 3.2-3.2s3.2-6.4 3.2-9.6c0 0 0 0 0 0v0c0 0 0 0 0 0v-156.8c0-9.6-6.4-16-16-16s-19.2 6.4-19.2 16v118.4l-166.4-166.4c-3.2-3.2-6.4-3.2-9.6-3.2zM592 512c0 0 0 0 0 0-3.2 0-6.4 0-9.6 3.2 0 0 0 0-3.2 3.2v0c0 0 0 0 0 0-3.2 0-3.2 6.4-3.2 9.6v0c0 0 0 0 0 0v0c0 0 0 0 0 0v0c0 0 0 0 0 0v160c0 9.6 6.4 16 16 16s16-9.6 16-19.2v-118.4l166.4 166.4c6.4 6.4 16 6.4 22.4 0s6.4-16 0-22.4l-166.4-166.4h118.4c9.6 0 16-6.4 16-16s-6.4-16-16-16h-156.8c0 0 0 0 0 0zM432 512h-160c-9.6 0-16 6.4-16 16s9.6 16 19.2 16h118.4l-166.4 166.4c-6.4 6.4-6.4 16 0 22.4s16 6.4 22.4 0l166.4-166.4v118.4c0 9.6 6.4 16 16 16s16-6.4 16-16v-156.8c0 0 0 0 0 0v0c0 0 0 0 0 0 0-3.2 0-6.4-3.2-9.6 0 0 0 0-3.2-3.2 0-3.2-6.4-3.2-9.6-3.2v0c0 0 0 0 0 0v0c0 0 0 0 0 0v0c0 0 0 0 0 0v0z" />
<glyph unicode="&#xe630;" glyph-name="i49-quickview" d="M512 176c0 0 0 0 0 0-326.4 9.6-448 262.4-451.2 265.6s-3.2 9.6 0 12.8c0 3.2 121.6 265.6 441.6 265.6h19.2c323.2 0 438.4-262.4 441.6-265.6s3.2-9.6 0-12.8c-3.2-3.2-128-265.6-451.2-265.6zM96 448c22.4-38.4 140.8-230.4 419.2-240 275.2 0 396.8 201.6 416 240-19.2 41.6-131.2 240-406.4 240h-19.2c-275.2 0-390.4-201.6-409.6-240zM512 316.8c-73.6 0-131.2 57.6-131.2 131.2s57.6 131.2 131.2 131.2 131.2-57.6 131.2-131.2-57.6-131.2-131.2-131.2z" />
<glyph unicode="&#xe631;" glyph-name="i50-fav" d="M515.2 35.2h-3.2c-3.2 0-6.4 0-9.6 3.2-275.2 185.6-425.6 364.8-448 531.2-12.8 92.8 12.8 169.6 76.8 230.4 44.8 41.6 99.2 64 163.2 64s118.4-22.4 163.2-64c22.4-22.4 41.6-44.8 54.4-73.6 12.8 25.6 28.8 51.2 54.4 73.6 44.8 41.6 99.2 64 163.2 64s118.4-22.4 163.2-64c64-57.6 89.6-137.6 76.8-230.4-22.4-163.2-172.8-342.4-448-531.2 0-3.2-3.2-3.2-6.4-3.2zM294.4 828.8c-54.4 0-102.4-16-140.8-54.4-57.6-51.2-80-118.4-67.2-201.6 19.2-153.6 163.2-323.2 425.6-505.6 262.4 182.4 406.4 352 425.6 505.6 12.8 86.4-9.6 150.4-67.2 201.6-41.6 35.2-86.4 54.4-144 54.4s-102.4-19.2-140.8-54.4c-38.4-35.2-57.6-76.8-57.6-124.8 0-9.6-6.4-16-16-16s-16 6.4-16 16c0 48-19.2 89.6-57.6 124.8-41.6 38.4-86.4 54.4-144 54.4z" />
<glyph unicode="&#xe632;" glyph-name="i51-zoom-in" d="M876.8 105.6l-166.4 153.6c57.6 60.8 92.8 140.8 92.8 227.2 0 182.4-147.2 332.8-332.8 332.8s-329.6-150.4-329.6-332.8 147.2-332.8 329.6-332.8c83.2 0 156.8 32 217.6 80l166.4-153.6c3.2-3.2 6.4-3.2 9.6-3.2s9.6 3.2 12.8 6.4c6.4 6.4 6.4 16 0 22.4zM172.8 486.4c0 166.4 134.4 300.8 297.6 300.8 166.4 0 300.8-134.4 300.8-300.8s-134.4-300.8-300.8-300.8c-163.2 0-297.6 134.4-297.6 300.8zM601.6 502.4h-112v112c0 9.6-6.4 16-16 16s-16-6.4-16-16v-112h-112c-9.6 0-16-6.4-16-16s6.4-16 16-16h112v-112c0-9.6 6.4-16 16-16s16 6.4 16 16v112h112c9.6 0 16 6.4 16 16s-6.4 16-16 16z" />
<glyph unicode="&#xe633;" glyph-name="i52-list-add" d="M691.2 713.6c-160 0-288-128-288-288s128-288 288-288 288 128 288 288c0 156.8-131.2 288-288 288zM691.2 156.8c-147.2 0-268.8 121.6-268.8 268.8s121.6 268.8 268.8 268.8 268.8-121.6 268.8-268.8c-3.2-147.2-121.6-268.8-268.8-268.8zM803.2 435.2h-102.4v102.4c0 6.4-3.2 9.6-9.6 9.6s-9.6-3.2-9.6-9.6v-102.4h-102.4c-6.4 0-9.6-3.2-9.6-9.6s3.2-9.6 9.6-9.6h102.4v-102.4c0-6.4 3.2-9.6 9.6-9.6s9.6 3.2 9.6 9.6v102.4h102.4c6.4 0 9.6 3.2 9.6 9.6 0 3.2-3.2 9.6-9.6 9.6zM240 534.4h96c3.2 9.6 6.4 22.4 12.8 32h-108.8c-9.6 0-16-6.4-16-16s9.6-16 16-16zM240 726.4h240c19.2 12.8 38.4 22.4 57.6 32h-297.6c-6.4 0-16-6.4-16-16s9.6-16 16-16zM240 342.4h86.4c-3.2 9.6-3.2 22.4-6.4 32h-80c-9.6 0-16-6.4-16-16s9.6-16 16-16zM240 182.4c-9.6 0-16-6.4-16-16s6.4-16 16-16h198.4c-9.6 9.6-22.4 19.2-32 32h-166.4zM131.2 566.4h-70.4c-9.6 0-16-6.4-16-16s6.4-16 16-16h70.4c9.6 0 16 6.4 16 16s-6.4 16-16 16zM131.2 758.4h-70.4c-9.6 0-16-6.4-16-16s6.4-16 16-16h70.4c9.6 0 16 6.4 16 16s-6.4 16-16 16zM131.2 374.4h-70.4c-9.6 0-16-6.4-16-16s6.4-16 16-16h70.4c9.6 0 16 6.4 16 16s-6.4 16-16 16zM131.2 182.4h-70.4c-9.6 0-16-6.4-16-16s6.4-16 16-16h70.4c9.6 0 16 6.4 16 16s-6.4 16-16 16z" />
<glyph unicode="&#xe634;" glyph-name="i53-list-added" d="M688 710.4c-160 0-288-128-288-288s128-288 288-288 288 128 288 288-128 288-288 288zM688 156.8c-147.2 0-268.8 121.6-268.8 268.8s121.6 268.8 268.8 268.8 268.8-121.6 268.8-268.8-121.6-268.8-268.8-268.8zM809.6 502.4l-150.4-150.4-89.6 89.6c-3.2 3.2-9.6 3.2-16 0-3.2-3.2-3.2-9.6 0-16l96-96c3.2-3.2 3.2-3.2 6.4-3.2s6.4 0 6.4 3.2l160 160c3.2 3.2 3.2 9.6 0 16-3.2 0-9.6 0-12.8-3.2zM243.2 537.6h96c3.2 9.6 6.4 22.4 12.8 32h-108.8c-9.6 0-16-6.4-16-16s6.4-16 16-16zM243.2 729.6h236.8c19.2 12.8 38.4 22.4 57.6 32h-294.4c-9.6 0-16-6.4-16-16s6.4-16 16-16zM243.2 345.6h86.4c-3.2 9.6-3.2 22.4-6.4 32h-80c-9.6 0-16-6.4-16-16s6.4-16 16-16zM243.2 185.6c-9.6 0-16-6.4-16-16s6.4-16 16-16h198.4c-9.6 9.6-22.4 19.2-32 32h-166.4zM134.4 569.6h-70.4c-9.6 0-16-6.4-16-16s6.4-16 16-16h70.4c9.6 0 16 6.4 16 16s-6.4 16-16 16zM134.4 761.6h-70.4c-9.6 0-16-6.4-16-16s6.4-16 16-16h70.4c9.6 0 16 6.4 16 16s-6.4 16-16 16zM134.4 377.6h-70.4c-9.6 0-16-6.4-16-16s6.4-16 16-16h70.4c9.6 0 16 6.4 16 16s-6.4 16-16 16zM134.4 185.6h-70.4c-9.6 0-16-6.4-16-16s6.4-16 16-16h70.4c9.6 0 16 6.4 16 16s-6.4 16-16 16z" />
<glyph unicode="&#xe635;" glyph-name="i54-mechanism" d="M377.6 681.6c-19.2 9.6-35.2 12.8-57.6 12.8-51.2 0-99.2-32-121.6-80-32-67.2 0-147.2 67.2-179.2 19.2-9.6 38.4-12.8 57.6-12.8 51.2 0 99.2 32 121.6 80 28.8 70.4 0 150.4-67.2 179.2zM425.6 512c-19.2-41.6-60.8-67.2-105.6-67.2-16 0-32 3.2-48 9.6-57.6 25.6-83.2 96-57.6 153.6 19.2 41.6 60.8 67.2 105.6 67.2 16 0 32-3.2 48-9.6 60.8-25.6 86.4-96 57.6-153.6zM451.2 339.2c3.2 9.6 6.4 22.4 0 32l-3.2 19.2c12.8 9.6 22.4 19.2 35.2 32l19.2-9.6c19.2-9.6 44.8 0 54.4 19.2l16 32c9.6 19.2 0 44.8-19.2 54.4l-19.2 9.6c3.2 16 3.2 32 3.2 48l19.2 6.4c9.6 3.2 19.2 12.8 22.4 22.4s6.4 22.4 0 32l-12.8 32c-6.4 19.2-32 32-54.4 25.6l-19.2-6.4c-9.6 12.8-19.2 22.4-32 35.2l9.6 19.2c9.6 19.2 0 44.8-19.2 54.4l-32 16c-19.2 9.6-44.8 0-54.4-19.2l-12.8-25.6c-16 3.2-32 3.2-44.8 3.2l-9.6 19.2c-6.4 19.2-32 32-54.4 25.6l-32-12.8c-22.4-6.4-32-32-25.6-54.4l6.4-19.2c-12.8-9.6-22.4-19.2-35.2-32l-12.8 9.6c-22.4 9.6-48 0-54.4-19.2l-16-32c-9.6-19.2 0-44.8 19.2-54.4l19.2-9.6c-3.2-16-3.2-32-3.2-48l-19.2-6.4c-22.4-6.4-32-32-25.6-54.4l12.8-32c3.2-9.6 12.8-19.2 22.4-22.4s22.4-6.4 32 0l19.2 6.4c9.6-12.8 19.2-22.4 32-35.2l-9.6-19.2c-9.6-19.2 0-44.8 19.2-54.4l32-16c19.2-9.6 44.8 0 54.4 19.2l12.8 22.4c16-3.2 32-3.2 44.8-3.2l6.4-19.2c3.2-9.6 12.8-19.2 22.4-22.4 6.4-3.2 12.8-3.2 16-3.2 6.4 0 9.6 0 12.8 3.2l32 12.8c12.8 0 22.4 9.6 25.6 19.2zM435.2 345.6c-3.2-6.4-6.4-9.6-12.8-12.8l-32-12.8c-6.4-3.2-12.8-3.2-16 0-6.4 3.2-9.6 6.4-12.8 12.8l-12.8 32h-6.4c-19.2-3.2-38.4 0-54.4 3.2h-6.4l-16-32c-6.4-9.6-19.2-16-28.8-9.6l-32 16c-12.8 6.4-19.2 19.2-12.8 32l16 32-6.4 3.2c-16 12.8-28.8 25.6-38.4 41.6l-3.2 6.4-32-12.8c-6.4-3.2-12.8-3.2-16 0-9.6 3.2-12.8 6.4-16 12.8l-12.8 32c-3.2 12.8 3.2 25.6 12.8 28.8l32 12.8v6.4c0 19.2 0 38.4 3.2 57.6v6.4l-32 16c-9.6 6.4-16 19.2-9.6 28.8l16 32c6.4 9.6 19.2 16 28.8 9.6l32-16 3.2 6.4c12.8 16 25.6 25.6 41.6 38.4l6.4 3.2-12.8 32c-3.2 16 3.2 28.8 16 32l32 12.8c9.6 3.2 25.6-3.2 28.8-12.8l12.8-32h6.4c19.2 3.2 38.4 0 54.4-3.2h6.4l16 32c6.4 9.6 19.2 16 28.8 9.6l32-16c9.6-6.4 16-19.2 9.6-28.8l-16-32 6.4-3.2c16-12.8 28.8-25.6 38.4-41.6l3.2-6.4 32 12.8c16 3.2 28.8-3.2 32-12.8l12.8-32c3.2-6.4 3.2-12.8 0-16-3.2-6.4-6.4-9.6-12.8-12.8l-32-12.8v-6.4c3.2-19.2 0-38.4-3.2-54.4v-6.4l32-16c9.6-6.4 16-19.2 9.6-28.8l-16-32c-6.4-9.6-19.2-16-28.8-9.6l-32 16-3.2-6.4c-12.8-16-25.6-28.8-41.6-38.4l-6.4-3.2 12.8-32c3.2-12.8 3.2-19.2 0-25.6zM809.6 566.4c-12.8 6.4-25.6 9.6-41.6 9.6v0c-38.4 0-73.6-25.6-89.6-60.8-22.4-51.2 0-112 51.2-134.4 12.8-6.4 25.6-9.6 41.6-9.6 0 0 0 0 0 0 38.4 0 73.6 25.6 89.6 60.8 25.6 54.4 0 112-51.2 134.4zM844.8 441.6c-12.8-28.8-41.6-48-73.6-48-12.8 0-22.4 3.2-32 6.4-41.6 19.2-60.8 67.2-41.6 108.8 12.8 28.8 41.6 48 73.6 48v0c12.8 0 22.4-3.2 32-6.4 41.6-19.2 60.8-67.2 41.6-108.8zM937.6 451.2l-12.8 6.4c0 9.6 0 19.2 0 32l12.8 6.4c9.6 3.2 16 9.6 19.2 16s3.2 16 0 25.6l-9.6 25.6c-6.4 16-25.6 25.6-41.6 19.2l-12.8-3.2c-6.4 9.6-12.8 16-22.4 22.4l6.4 12.8c6.4 16 0 35.2-16 41.6l-22.4 9.6c-16 6.4-35.2 0-41.6-16l-6.4-12.8c-9.6 0-19.2 0-32 0l-3.2 12.8c-6.4 16-25.6 25.6-41.6 19.2l-25.6-9.6c-16-6.4-25.6-25.6-19.2-41.6l3.2-12.8c-9.6-6.4-16-12.8-22.4-22.4h-9.6c-16 6.4-35.2 0-41.6-16l-12.8-22.4c-6.4-16 0-35.2 16-44.8l12.8-6.4c0-9.6 0-19.2 0-32l-12.8-6.4c-16-6.4-25.6-25.6-19.2-41.6l9.6-25.6c3.2-9.6 9.6-16 16-19.2 9.6-3.2 16-3.2 25.6 0l12.8 3.2c6.4-9.6 12.8-16 22.4-22.4l-6.4-12.8c-6.4-16 0-35.2 16-41.6l22.4-9.6c16-6.4 35.2 0 41.6 16l6.4 12.8c9.6 0 19.2 0 32 0l3.2-12.8c3.2-9.6 9.6-16 16-19.2 3.2-3.2 9.6-3.2 12.8-3.2s6.4 0 12.8 3.2l25.6 9.6c9.6 3.2 16 9.6 19.2 16s3.2 16 0 25.6l-3.2 19.2c9.6 6.4 16 12.8 22.4 22.4l12.8-6.4c16-6.4 35.2 0 41.6 16l9.6 22.4c9.6 16 0 38.4-16 44.8zM937.6 416l-9.6-25.6c-3.2-6.4-12.8-9.6-19.2-6.4l-25.6 12.8-3.2-6.4c-9.6-9.6-19.2-19.2-28.8-28.8l-6.4-3.2 9.6-25.6c0-3.2 0-6.4 0-9.6s-3.2-6.4-6.4-6.4l-25.6-9.6c-3.2 0-6.4 0-9.6 0s-6.4 3.2-6.4 6.4l-9.6 25.6h-6.4c-12.8-3.2-25.6 0-38.4 0h-6.4l-12.8-25.6c-3.2-6.4-12.8-9.6-19.2-6.4l-22.4 9.6c-6.4 3.2-9.6 12.8-6.4 19.2l12.8 25.6-6.4 3.2c-9.6 9.6-19.2 19.2-28.8 28.8l-3.2 6.4-25.6-9.6c-3.2 0-6.4 0-9.6 0s-6.4 3.2-6.4 6.4l-9.6 25.6c-3.2 6.4 0 16 6.4 19.2l25.6 9.6v6.4c-3.2 12.8 0 25.6 0 41.6v6.4l-32 12.8c-6.4 3.2-9.6 12.8-6.4 19.2l9.6 22.4c3.2 6.4 12.8 9.6 19.2 6.4l25.6-12.8 3.2 6.4c9.6 9.6 19.2 19.2 28.8 28.8l6.4 3.2-9.6 25.6c-3.2 6.4 0 16 6.4 19.2l25.6 9.6c6.4 3.2 16 0 19.2-6.4l9.6-25.6h6.4c12.8 3.2 25.6 0 38.4 0h6.4l12.8 25.6c3.2 6.4 12.8 9.6 19.2 6.4l22.4-9.6c6.4-3.2 9.6-12.8 6.4-19.2l-12.8-25.6 6.4-3.2c9.6-9.6 19.2-19.2 28.8-28.8l3.2-6.4 25.6 9.6c6.4 3.2 16 0 19.2-6.4l9.6-25.6c0-3.2 0-6.4 0-9.6s-3.2-6.4-6.4-6.4l-25.6-9.6v-6.4c3.2-12.8 0-25.6 0-38.4v-6.4l25.6-12.8c6.4-12.8 9.6-19.2 6.4-25.6zM688 224c6.4 3.2 12.8 6.4 16 12.8s3.2 12.8 0 19.2l-6.4 16c-6.4 12.8-22.4 19.2-32 16h-9.6c-3.2 3.2-9.6 9.6-12.8 12.8l3.2 6.4c6.4 12.8 0 28.8-12.8 35.2l-16 9.6c-12.8 6.4-28.8 0-35.2-12.8l-3.2-6.4c-6.4 0-12.8 0-19.2 0l-3.2 6.4c-6.4 12.8-19.2 19.2-32 16l-16-6.4c-12.8-6.4-19.2-19.2-16-35.2l3.2-6.4c-3.2-3.2-9.6-9.6-12.8-12.8l-6.4 3.2c-12.8 6.4-28.8 0-35.2-12.8l-6.4-16c-6.4-12.8 0-28.8 12.8-35.2l6.4-3.2c0-6.4 0-12.8 0-19.2l-6.4-3.2c-12.8-6.4-19.2-19.2-16-35.2l6.4-16c3.2-6.4 6.4-12.8 12.8-16s12.8-3.2 19.2 0l6.4 3.2c3.2-3.2 6.4-9.6 12.8-12.8l-3.2-6.4c-6.4-12.8 0-28.8 12.8-35.2l16-6.4c12.8-6.4 28.8 0 35.2 12.8l3.2 6.4c6.4 0 12.8 0 19.2 0l3.2-6.4c3.2-6.4 6.4-12.8 12.8-16 3.2 0 6.4-3.2 9.6-3.2s6.4 0 9.6 3.2l16 6.4c6.4 3.2 12.8 6.4 12.8 12.8 3.2 6.4 3.2 12.8 0 19.2l3.2 9.6c3.2 3.2 9.6 9.6 12.8 12.8l6.4-3.2c12.8-6.4 28.8 0 35.2 12.8l6.4 16c3.2 6.4 3.2 12.8 0 19.2s-6.4 12.8-12.8 16l-6.4 3.2c0 6.4 0 12.8 0 19.2h6.4zM662.4 227.2c0-9.6 0-19.2 0-28.8v-6.4l19.2-9.6c3.2 0 6.4-6.4 3.2-9.6l-6.4-16c0-3.2-6.4-6.4-9.6-3.2l-19.2 9.6-3.2-6.4c-6.4-6.4-12.8-12.8-19.2-19.2l-6.4-3.2 6.4-19.2c0-3.2 0-3.2 0-6.4s-3.2-3.2-3.2-3.2l-16-6.4c-3.2 0-3.2 0-6.4 0s-3.2 3.2-3.2 3.2l-6.4 19.2h-6.4c-9.6 0-19.2 0-28.8 0h-6.4l-9.6-19.2c0-3.2-6.4-6.4-9.6-3.2l-16 6.4c-3.2 0-6.4 6.4-3.2 9.6l9.6 19.2-6.4 3.2c-6.4 6.4-12.8 12.8-19.2 19.2l-3.2 6.4-25.6-3.2c-3.2 0-3.2 0-6.4 0s-3.2 3.2-3.2 3.2l-6.4 16c0 3.2 0 6.4 3.2 9.6l19.2 6.4v6.4c0 9.6 0 19.2 0 28.8v6.4l-19.2 9.6c-3.2 0-6.4 6.4-3.2 9.6l6.4 16c0 3.2 6.4 6.4 9.6 3.2l19.2-9.6 3.2 6.4c6.4 6.4 12.8 12.8 19.2 19.2l6.4 3.2-3.2 25.6c0 3.2 0 6.4 3.2 9.6l19.2 6.4c3.2 0 6.4-3.2 6.4-3.2l6.4-19.2h6.4c9.6 0 19.2 0 28.8 0h6.4l9.6 19.2c0 3.2 6.4 6.4 9.6 3.2l16-6.4c3.2 0 6.4-6.4 3.2-9.6l-9.6-19.2 6.4-3.2c6.4-6.4 12.8-12.8 19.2-19.2l3.2-6.4 22.4 9.6c3.2 0 6.4-3.2 6.4-3.2l6.4-16c0-3.2 0-3.2 0-6.4s-3.2-3.2-3.2-3.2l-19.2-6.4 3.2-19.2zM598.4 284.8c-9.6 3.2-19.2 6.4-28.8 6.4v0c-28.8 0-54.4-19.2-67.2-44.8-16-38.4 0-83.2 38.4-99.2 9.6-3.2 19.2-6.4 32-6.4 0 0 0 0 0 0 28.8 0 54.4 19.2 67.2 44.8 12.8 38.4-3.2 83.2-41.6 99.2zM620.8 195.2c-9.6-19.2-28.8-32-51.2-32-6.4 0-16 3.2-22.4 3.2-28.8 12.8-41.6 44.8-28.8 73.6 9.6 19.2 28.8 32 51.2 32v0c6.4 0 16-3.2 22.4-6.4 25.6-9.6 38.4-44.8 28.8-70.4z" />
<glyph unicode="&#xe636;" glyph-name="i55-question" d="M512 220.8c-3.2 0-9.6 3.2-9.6 3.2-3.2 3.2-6.4 6.4-6.4 12.8 0 3.2 3.2 9.6 6.4 9.6 6.4 6.4 16 6.4 22.4 0 3.2-3.2 3.2-6.4 3.2-9.6s0-9.6-3.2-9.6c-6.4-6.4-9.6-6.4-12.8-6.4zM512 336c-9.6 0-16 6.4-16 16 0 48 35.2 96 64 128 19.2 19.2 57.6 60.8 32 124.8-12.8 28.8-57.6 48-102.4 38.4-19.2-3.2-67.2-19.2-67.2-83.2 0-9.6-6.4-16-16-16s-16 6.4-16 16c0 60.8 35.2 102.4 92.8 115.2 51.2 9.6 118.4-9.6 137.6-57.6 32-80-19.2-137.6-38.4-156.8-38.4-38.4-57.6-76.8-57.6-105.6 3.2-12.8-3.2-19.2-12.8-19.2z" />
<glyph unicode="&#xe637;" glyph-name="i56-round-question" d="M512-3.2c-249.6 0-451.2 201.6-451.2 451.2s201.6 451.2 451.2 451.2 451.2-201.6 451.2-451.2-201.6-451.2-451.2-451.2zM512 867.2c-230.4 0-419.2-188.8-419.2-419.2s188.8-419.2 419.2-419.2 419.2 188.8 419.2 419.2-188.8 419.2-419.2 419.2zM512 220.8c-3.2 0-9.6 0-9.6 3.2-3.2 3.2-6.4 6.4-6.4 12.8 0 3.2 3.2 9.6 3.2 12.8 6.4 6.4 16 6.4 22.4 0 3.2-3.2 3.2-6.4 3.2-12.8 0-3.2 0-9.6-3.2-12.8s-6.4-3.2-9.6-3.2zM512 336c-9.6 0-16 6.4-16 16 0 48 35.2 96 64 128 19.2 19.2 57.6 60.8 32 124.8-12.8 28.8-57.6 48-102.4 38.4-19.2-3.2-67.2-19.2-67.2-83.2 0-9.6-6.4-16-16-16s-16 6.4-16 16c0 60.8 35.2 102.4 92.8 115.2 51.2 9.6 118.4-9.6 137.6-57.6 32-80-19.2-137.6-38.4-156.8-38.4-38.4-57.6-76.8-57.6-105.6 3.2-12.8-3.2-19.2-12.8-19.2z" />
<glyph unicode="&#xe638;" glyph-name="i57-percentage" d="M700.8 134.4c-70.4 0-128 57.6-128 124.8s57.6 124.8 128 124.8 128-57.6 128-124.8-57.6-124.8-128-124.8zM700.8 352c-54.4 0-96-41.6-96-92.8s41.6-92.8 96-92.8 96 41.6 96 92.8-44.8 92.8-96 92.8zM246.4 124.8c-16 0-28.8 6.4-38.4 16-22.4 22.4-22.4 57.6 0 80l531.2 531.2c22.4 22.4 57.6 22.4 80 0s22.4-57.6 0-80l-534.4-528c-9.6-12.8-25.6-19.2-38.4-19.2zM777.6 739.2c-6.4 0-12.8-3.2-16-6.4l-531.2-534.4c-9.6-9.6-9.6-25.6 0-32 9.6-9.6 25.6-9.6 32 0l531.2 531.2c9.6 9.6 9.6 25.6 0 32-3.2 6.4-9.6 9.6-16 9.6zM326.4 508.8c-70.4 0-128 57.6-128 124.8s57.6 124.8 128 124.8 128-57.6 128-124.8-57.6-124.8-128-124.8zM326.4 726.4c-54.4 0-96-41.6-96-92.8s41.6-92.8 96-92.8 96 41.6 96 92.8-44.8 92.8-96 92.8z" />
<glyph unicode="&#xe639;" glyph-name="i58-gift" d="M873.6 620.8h-240c60.8 12.8 131.2 35.2 169.6 76.8 41.6 44.8 57.6 108.8 38.4 153.6s-70.4 57.6-137.6 35.2c-153.6-51.2-185.6-252.8-185.6-262.4 0 0 0-3.2 0-3.2h-19.2c0 0 0 3.2 0 3.2-3.2 9.6-51.2 262.4-169.6 262.4-22.4 0-48-9.6-73.6-32-32-28.8-41.6-57.6-32-86.4 19.2-73.6 147.2-124.8 214.4-147.2h-288c-19.2 0-32-16-32-32v-144c0-19.2 16-32 32-32h28.8c3.2 0 3.2-3.2 3.2-6.4v-374.4c0-19.2 16-32 32-32h592c19.2 0 32 16 32 32v374.4c0 3.2 3.2 3.2 3.2 6.4h28.8c19.2 0 32 16 32 32v144c3.2 16-9.6 32-28.8 32zM710.4 857.6c19.2 6.4 35.2 9.6 51.2 9.6 25.6 0 44.8-9.6 54.4-32 16-35.2 0-86.4-35.2-121.6-54.4-57.6-188.8-76.8-236.8-80 12.8 48 54.4 185.6 166.4 224zM249.6 774.4c-6.4 19.2 3.2 38.4 22.4 57.6 19.2 16 38.4 22.4 54.4 22.4 70.4 0 121.6-140.8 137.6-217.6-67.2 25.6-198.4 76.8-214.4 137.6zM144 441.6v144c0 3.2 3.2 6.4 6.4 6.4h339.2v-153.6h-310.4c0 0 0 0 0 0h-28.8c-3.2 0-6.4 3.2-6.4 3.2zM211.2 32v374.4c0 3.2 0 3.2 0 6.4h278.4v-380.8h-272c-3.2-3.2-6.4 0-6.4 0zM812.8 406.4v-374.4c0-3.2-3.2-6.4-6.4-6.4h-272v384h278.4c0 0 0-3.2 0-3.2zM880 441.6c0-3.2-3.2-6.4-6.4-6.4h-28.8c0 0 0 0 0 0h-307.2v153.6h339.2c3.2 0 6.4-3.2 6.4-6.4v-140.8z" />
<glyph unicode="&#xe63a;" glyph-name="i59-bundle" d="M1001.6 329.6h-396.8v19.2h294.4c9.6 0 16 6.4 16 16v204.8c0 9.6-6.4 16-16 16h-294.4v19.2h137.6c9.6 0 16 6.4 16 16v102.4c0 9.6-6.4 16-16 16h-208l89.6 41.6c3.2 0 6.4 3.2 9.6 6.4 0 0 0 0 0 0 3.2 3.2 9.6 6.4 12.8 9.6 12.8 12.8 19.2 28.8 19.2 44.8s-6.4 32-19.2 44.8c-12.8 12.8-25.6 19.2-44.8 19.2 0 0 0 0 0 0-16 0-32-6.4-44.8-19.2-3.2-3.2-9.6-9.6-12.8-16 0 0 0 0 0-3.2l-35.2-73.6-32 64c0 3.2-3.2 6.4-6.4 9.6 0 0 0 0 0 0-3.2 3.2-6.4 9.6-9.6 12.8-12.8 12.8-28.8 19.2-44.8 19.2s-32-6.4-44.8-19.2c-12.8-12.8-19.2-25.6-19.2-44.8 0 0 0 0 0 0 0-19.2 6.4-32 19.2-44.8 3.2-3.2 9.6-9.6 16-12.8 0 0 0 0 3.2 0l96-44.8h-208c-9.6 0-16-6.4-16-16v-102.4c0-9.6 6.4-16 16-16h137.6v-19.2h-294.4c-9.6 0-16-6.4-16-16v-204.8c0-9.6 6.4-16 16-16h294.4v-19.2h-396.8c-9.6 0-16-6.4-16-16v-310.4c0-9.6 6.4-16 16-16h979.2c9.6 0 16 6.4 16 16v310.4c3.2 16-3.2 22.4-12.8 22.4zM582.4 854.4c0 3.2 3.2 3.2 3.2 6.4 3.2 3.2 9.6 6.4 16 6.4s12.8-3.2 16-6.4c3.2-3.2 6.4-9.6 6.4-16s-3.2-12.8-6.4-16c0 0-3.2-3.2-6.4-3.2 0 0-3.2 0-3.2-3.2 0 0 0 0-3.2 0l-54.4-25.6 32 57.6zM409.6 822.4c-3.2 0-3.2 3.2-6.4 3.2-3.2 3.2-6.4 9.6-6.4 16s3.2 12.8 6.4 16c3.2 3.2 9.6 6.4 16 6.4s12.8-3.2 16-6.4c0 0 3.2-3.2 3.2-6.4 0 0 0-3.2 3.2-3.2 0 0 0 0 0-3.2l25.6-54.4-57.6 32zM883.2 553.6v-172.8h-278.4v172.8h278.4zM729.6 640h-121.6v70.4h121.6v-70.4zM572.8 624v-499.2l-48 48c-3.2 3.2-6.4 3.2-12.8 3.2s-9.6-3.2-12.8-3.2l-51.2-51.2v588.8h121.6v-86.4zM294.4 640v70.4h121.6v-70.4h-121.6zM140.8 380.8v172.8h278.4v-172.8h-278.4zM985.6 19.2h-947.2v278.4h380.8v-217.6c0-6.4 3.2-12.8 9.6-16 3.2 0 3.2 0 6.4 0 0 0 0 0 3.2 0 0 0 0 0 3.2 0s6.4 3.2 6.4 3.2l67.2 67.2 64-64c3.2-3.2 12.8-6.4 16-3.2 6.4 3.2 9.6 9.6 9.6 16v214.4h380.8v-278.4z" />
<glyph unicode="&#xe63b;" glyph-name="i60-promo" d="M553.6 745.6c-12.8 3.2-28.8 3.2-41.6 3.2-150.4 0-278.4-112-297.6-259.2-12.8-80 9.6-160 57.6-224s118.4-105.6 198.4-118.4c12.8-3.2 28.8-3.2 41.6-3.2 150.4 0 278.4 112 297.6 259.2 12.8 80-9.6 160-57.6 224-48 67.2-118.4 108.8-198.4 118.4zM777.6 409.6c-19.2-131.2-134.4-230.4-265.6-230.4-12.8 0-25.6 0-38.4 3.2-70.4 9.6-134.4 48-176 105.6s-60.8 128-51.2 198.4c19.2 131.2 134.4 230.4 265.6 230.4 12.8 0 25.6 0 38.4-3.2 70.4-9.6 134.4-48 176-105.6 44.8-54.4 60.8-124.8 51.2-198.4zM960 528c-3.2 22.4-19.2 44.8-48 60.8-44.8 25.6-64 64-60.8 115.2 3.2 32-3.2 57.6-19.2 73.6-16 19.2-41.6 25.6-76.8 22.4-51.2-6.4-89.6 12.8-115.2 57.6-35.2 57.6-83.2 64-134.4 19.2-38.4-35.2-80-41.6-128-22.4-16 6.4-32 9.6-44.8 9.6-25.6 0-60.8-12.8-73.6-73.6-9.6-51.2-41.6-80-89.6-92.8-32-9.6-54.4-22.4-64-44.8s-9.6-48 3.2-76.8c19.2-48 16-89.6-19.2-128-22.4-25.6-28.8-51.2-25.6-73.6s19.2-44.8 48-60.8c44.8-25.6 64-64 60.8-115.2-3.2-32 3.2-57.6 19.2-73.6 16-19.2 41.6-25.6 76.8-22.4 51.2 6.4 89.6-12.8 115.2-57.6 19.2-32 44.8-48 70.4-48 19.2 0 41.6 9.6 64 28.8 38.4 35.2 80 41.6 128 22.4 16-6.4 32-9.6 44.8-9.6 25.6 0 60.8 12.8 73.6 73.6 9.6 51.2 41.6 80 89.6 92.8 32 9.6 54.4 22.4 64 44.8s9.6 48-3.2 76.8c-19.2 48-16 89.6 19.2 128 22.4 25.6 32 51.2 25.6 73.6zM912 473.6c-41.6-48-48-102.4-22.4-160 9.6-22.4 9.6-38.4 6.4-51.2-6.4-12.8-19.2-22.4-44.8-25.6-60.8-16-99.2-54.4-112-118.4-9.6-44.8-28.8-48-44.8-48-9.6 0-19.2 3.2-32 6.4-57.6 22.4-112 12.8-160-28.8-35.2-32-60.8-28.8-86.4 12.8-32 48-73.6 73.6-128 73.6-6.4 0-12.8 0-19.2 0-22.4-3.2-41.6 0-51.2 12.8-9.6 9.6-12.8 25.6-12.8 48 3.2 64-22.4 112-76.8 144-19.2 12.8-32 25.6-35.2 38.4s3.2 28.8 19.2 48c41.6 48 48 102.4 22.4 160-9.6 22.4-9.6 38.4-6.4 51.2 6.4 12.8 19.2 22.4 44.8 25.6 60.8 16 99.2 54.4 112 118.4 9.6 44.8 28.8 48 44.8 48 9.6 0 19.2-3.2 32-6.4 57.6-22.4 112-12.8 160 28.8 35.2 32 60.8 28.8 86.4-12.8 35.2-54.4 83.2-76.8 147.2-70.4 22.4 3.2 41.6 0 51.2-12.8 9.6-9.6 12.8-25.6 12.8-48-3.2-64 22.4-112 76.8-144 19.2-12.8 32-25.6 35.2-38.4 0-16-6.4-32-19.2-51.2z" />
<glyph unicode="&#xe63c;" glyph-name="i61-shield" d="M512 25.6c0 0-3.2 0-3.2 0-198.4 54.4-316.8 150.4-348.8 281.6 0 0 0 3.2 0 3.2v406.4c0 9.6 6.4 16 16 16 156.8 6.4 265.6 51.2 326.4 131.2 6.4 6.4 19.2 6.4 25.6 0 60.8-80 172.8-121.6 326.4-131.2 9.6 0 16-6.4 16-16v-406.4c0 0 0-3.2 0-3.2-32-134.4-150.4-227.2-348.8-281.6-6.4 0-9.6 0-9.6 0zM188.8 313.6c28.8-118.4 137.6-204.8 323.2-256 185.6 51.2 294.4 137.6 323.2 256v387.2c-147.2 9.6-256 51.2-323.2 128-67.2-73.6-176-118.4-323.2-128v-387.2zM464 278.4c-3.2 0-9.6 3.2-12.8 6.4l-102.4 105.6c-6.4 6.4-6.4 16 0 22.4s16 6.4 22.4 0l92.8-92.8 188.8 214.4c6.4 6.4 16 6.4 22.4 0s6.4-16 0-22.4l-201.6-227.2c0-3.2-6.4-6.4-9.6-6.4 0 0 0 0 0 0z" />
<glyph unicode="&#xe63d;" glyph-name="i62-description" d="M755.2 464h-486.4c-9.6 0-16-6.4-16-16s6.4-16 16-16h486.4c9.6 0 16 6.4 16 16s-6.4 16-16 16zM633.6 342.4h-364.8c-9.6 0-16-6.4-16-16s6.4-16 16-16h364.8c9.6 0 16 6.4 16 16s-6.4 16-16 16zM755.2 585.6h-486.4c-9.6 0-16-6.4-16-16s6.4-16 16-16h486.4c9.6 0 16 6.4 16 16s-6.4 16-16 16zM777.6 828.8h-534.4c-73.6 0-112-38.4-112-112v-534.4c0-73.6 38.4-112 112-112h534.4c73.6 0 112 38.4 112 112v534.4c3.2 73.6-38.4 112-112 112zM860.8 182.4c0-57.6-25.6-80-80-80h-534.4c-57.6 0-80 25.6-80 80v534.4c0 57.6 25.6 80 80 80h534.4c57.6 0 80-25.6 80-80v-534.4z" />
<glyph unicode="&#xe63e;" glyph-name="i63-questions" d="M755.2 585.6h-105.6v105.6c0 89.6-48 137.6-137.6 137.6h-243.2c-89.6 0-137.6-48-137.6-137.6v-121.6c0-83.2 41.6-131.2 121.6-137.6v-105.6c0-6.4 3.2-12.8 9.6-16s12.8 0 16 3.2l92.8 92.8v-83.2c0-89.6 48-137.6 137.6-137.6h115.2l115.2-115.2c3.2-3.2 6.4-3.2 12.8-3.2 3.2 0 3.2 0 6.4 0 6.4 3.2 9.6 9.6 9.6 16v105.6c80 6.4 121.6 51.2 121.6 137.6v121.6c3.2 89.6-44.8 137.6-134.4 137.6zM284.8 364.8v83.2c0 9.6-6.4 16-16 16-70.4 0-105.6 32-105.6 105.6v121.6c0 70.4 32 105.6 105.6 105.6h243.2c70.4 0 105.6-32 105.6-105.6v-105.6h-105.6c-86.4 0-134.4-44.8-137.6-131.2l-89.6-89.6zM860.8 326.4c0-70.4-32-105.6-105.6-105.6-9.6 0-16-6.4-16-16v-83.2l-92.8 92.8c-3.2 3.2-6.4 3.2-12.8 3.2h-121.6c-70.4 0-105.6 32-105.6 105.6v121.6c0 70.4 32 105.6 105.6 105.6h243.2c70.4 0 105.6-32 105.6-105.6v-118.4z" />
<glyph unicode="&#xe63f;" glyph-name="i64-reviews" d="M886.4 700.8l-121.6 121.6c-3.2 3.2-6.4 3.2-12.8 3.2s-9.6-3.2-12.8-3.2l-115.2-115.2h-380.8c-73.6 0-112-38.4-112-112v-412.8c0-73.6 38.4-112 112-112h412.8c73.6 0 112 38.4 112 112v380.8l115.2 115.2c9.6 6.4 9.6 16 3.2 22.4zM739.2 182.4c0-57.6-25.6-80-80-80h-412.8c-57.6 0-80 25.6-80 80v412.8c0 57.6 25.6 80 80 80h348.8l-214.4-214.4c-3.2-3.2-3.2-6.4-3.2-12.8v-121.6c0-9.6 6.4-16 16-16h121.6c3.2 0 9.6 3.2 12.8 3.2l214.4 214.4v-345.6zM505.6 342.4h-99.2v99.2l348.8 348.8 99.2-99.2-348.8-348.8z" />
<glyph unicode="&#xe640;" glyph-name="i65-youtube" d="M832 576v0c-3.2 12.8-9.6 51.2-28.8 70.4-25.6 25.6-54.4 28.8-67.2 32h-3.2c-86.4 6.4-217.6 6.4-220.8 6.4 0 0-131.2 0-220.8-6.4h-3.2c-12.8 0-41.6-3.2-67.2-32-22.4-22.4-28.8-67.2-28.8-70.4s-6.4-51.2-6.4-102.4v-48c0-51.2 6.4-102.4 6.4-105.6 0-6.4 6.4-48 28.8-70.4 22.4-25.6 51.2-28.8 70.4-32 3.2 0 6.4 0 9.6 0 51.2-6.4 208-6.4 214.4-6.4 0 0 134.4 0 220.8 6.4h3.2c12.8 0 41.6 3.2 67.2 32 22.4 22.4 28.8 67.2 28.8 70.4s6.4 51.2 6.4 102.4v48c-6.4 54.4-9.6 105.6-9.6 105.6zM803.2 425.6c0-48-6.4-99.2-6.4-99.2 0-9.6-9.6-41.6-19.2-54.4-16-19.2-35.2-19.2-48-22.4h-3.2c-86.4-6.4-217.6-6.4-217.6-6.4-3.2 0-163.2 0-208 6.4-3.2 0-6.4 0-9.6 0-16 3.2-35.2 3.2-51.2 22.4-9.6 9.6-19.2 38.4-19.2 54.4 0 0-6.4 51.2-6.4 99.2v48c0 48 6.4 99.2 6.4 99.2 3.2 16 9.6 41.6 19.2 54.4 16 19.2 35.2 19.2 48 22.4h3.2c86.4 6.4 217.6 6.4 217.6 6.4s131.2 0 217.6-6.4h3.2c12.8 0 32-3.2 48-22.4 12.8-12.8 19.2-38.4 19.2-54.4 0-3.2 6.4-51.2 6.4-99.2v-48zM444.8 358.4l163.2 92.8-163.2 86.4z" />
<glyph unicode="&#xe641;" glyph-name="i66-delete" d="M761.6-9.6h-499.2c-54.4 0-99.2 44.8-99.2 99.2v608c0 3.2 3.2 9.6 6.4 12.8h-92.8c-9.6 0-16 6.4-16 16s6.4 16 16 16h262.4v92.8c0 38.4 32 70.4 70.4 70.4h208c38.4 0 70.4-32 70.4-70.4v-92.8h262.4c9.6 0 16-6.4 16-16s-6.4-16-16-16h-92.8c3.2-3.2 6.4-6.4 6.4-12.8v-608c-3.2-54.4-48-99.2-102.4-99.2zM188.8 710.4c3.2-3.2 6.4-6.4 6.4-12.8v-608c0-38.4 28.8-67.2 67.2-67.2h499.2c38.4 0 67.2 28.8 67.2 67.2v608c0 3.2 3.2 9.6 6.4 12.8h-646.4zM368 742.4h284.8v92.8c0 22.4-16 38.4-38.4 38.4h-208c-22.4 0-38.4-16-38.4-38.4v-92.8zM684.8 147.2c-9.6 0-16 6.4-16 16v368c0 9.6 6.4 16 16 16s16-6.4 16-16v-368c0-9.6-6.4-16-16-16zM515.2 147.2c-9.6 0-16 6.4-16 16v368c0 9.6 6.4 16 16 16s16-6.4 16-16v-368c0-9.6-6.4-16-16-16zM345.6 147.2c-9.6 0-16 6.4-16 16v368c0 9.6 6.4 16 16 16s16-6.4 16-16v-368c0-9.6-6.4-16-16-16z" />
<glyph unicode="&#xe642;" glyph-name="i67-insurance" d="M963.2 393.6c0 240-188.8 435.2-422.4 448v57.6c0 9.6-6.4 16-16 16s-16-6.4-16-16v-57.6c-246.4-3.2-448-204.8-448-451.2 0-9.6 6.4-12.8 12.8-16 0 0 3.2-3.2 3.2-3.2 6.4-3.2 16 0 22.4 6.4 3.2 9.6 9.6 12.8 16 19.2l3.2 3.2c60.8 60.8 160 60.8 220.8-3.2 6.4-6.4 12.8-12.8 16-22.4 3.2-6.4 9.6-9.6 12.8-9.6 0 0 0 0 0 0 6.4 0 12.8 3.2 16 9.6 3.2 9.6 9.6 12.8 16 19.2l3.2 3.2c28.8 28.8 64 41.6 102.4 44.8v-348.8c0-3.2-3.2-76.8-76.8-76.8s-76.8 67.2-76.8 73.6c0 9.6-6.4 16-16 16s-16-6.4-16-16c0-35.2 25.6-105.6 108.8-105.6s108.8 70.4 108.8 108.8v352c32-3.2 60.8-19.2 86.4-41.6 0 0 3.2-3.2 3.2-3.2 6.4-6.4 12.8-12.8 16-22.4 3.2-6.4 9.6-9.6 12.8-9.6 0 0 0 0 0 0 6.4 0 12.8 3.2 16 9.6 3.2 9.6 9.6 12.8 16 19.2l3.2 3.2c60.8 60.8 160 60.8 220.8 0 0 0 3.2-3.2 3.2-3.2 6.4-6.4 12.8-12.8 16-22.4 3.2-6.4 9.6-9.6 12.8-9.6s6.4 0 6.4 3.2c12.8 9.6 16 16 12.8 25.6zM672 425.6v0c-6.4-6.4-9.6-9.6-12.8-12.8-3.2 3.2-6.4 9.6-12.8 12.8-73.6 73.6-192 73.6-265.6 0l-3.2-3.2c-3.2-3.2-6.4-6.4-9.6-9.6-3.2 3.2-6.4 9.6-12.8 12.8-73.6 73.6-192 73.6-265.6 0v0c16 214.4 198.4 387.2 419.2 387.2 217.6 0 396.8-166.4 416-377.6-70.4 64-182.4 60.8-252.8-9.6z" />
<glyph unicode="&#xe643;" glyph-name="i68-green" d="M880-38.4h-742.4c-28.8 0-54.4 25.6-54.4 54.4s25.6 54.4 54.4 54.4h112v54.4h-112c-16 0-32 6.4-41.6 19.2s-12.8 28.8-9.6 48l204.8 704c6.4 22.4 28.8 41.6 54.4 41.6s48-16 54.4-41.6l92.8-252.8c3.2-6.4 0-12.8-3.2-16-64-57.6-99.2-137.6-99.2-220.8 0-51.2 12.8-99.2 38.4-144 3.2-3.2 3.2-6.4 6.4-9.6 22.4-35.2 54.4-70.4 92.8-96 6.4-3.2 9.6-9.6 6.4-19.2s-9.6-12.8-16-12.8h-80v-54.4h163.2v96c-99.2 38.4-166.4 131.2-166.4 236.8 0 140.8 115.2 256 256 256s256-115.2 256-256c0-105.6-67.2-201.6-166.4-236.8v-96h102.4c28.8 0 54.4-25.6 54.4-54.4s-28.8-54.4-57.6-54.4zM137.6 38.4c-12.8 0-22.4-9.6-22.4-22.4s9.6-22.4 22.4-22.4h742.4c12.8 0 22.4 9.6 22.4 22.4s-9.6 22.4-22.4 22.4h-118.4c-9.6 0-16 6.4-16 16v121.6c0 6.4 3.2 12.8 9.6 16 92.8 28.8 153.6 115.2 153.6 211.2 0 121.6-102.4 224-224 224s-224-99.2-224-224c0-96 60.8-182.4 153.6-211.2 6.4-3.2 9.6-9.6 9.6-16v-121.6c0-9.6-6.4-16-16-16h-195.2c-9.6 0-16 6.4-16 16v86.4c0 9.6 6.4 16 16 16h48c-25.6 22.4-48 48-64 76.8-3.2 3.2-3.2 6.4-3.2 6.4-28.8 51.2-41.6 105.6-41.6 160 0 89.6 38.4 176 102.4 240l-89.6 246.4c-3.2 12.8-12.8 19.2-22.4 19.2s-19.2-6.4-22.4-16l-204.8-704c0-6.4 0-12.8 3.2-19.2s9.6-9.6 19.2-9.6h128c9.6 0 16-6.4 16-16v-86.4c0-9.6-6.4-16-16-16h-128z" />
<glyph unicode="&#xe644;" glyph-name="i69-boca" d="M678.4 835.2c0 0 0-3.2 3.2-3.2 6.4-12.8 9.6-25.6 16-38.4 3.2-12.8 6.4-22.4 9.6-32 0-6.4 0-12.8 3.2-19.2 0-6.4 0-12.8 0-16 3.2-19.2 6.4-41.6 9.6-64v-3.2c3.2-19.2 6.4-44.8 32-60.8 3.2-9.6 6.4-19.2 6.4-28.8-3.2 0-6.4 0-9.6 0s-3.2 0-6.4 0c-6.4 0-12.8-3.2-16-9.6-6.4 3.2-12.8 6.4-22.4 6.4-6.4 0-16-3.2-19.2-6.4 0 0-3.2 0-3.2-3.2-9.6-3.2-25.6-12.8-32-32 0 0 0 0-3.2 0-9.6 0-19.2-3.2-25.6-6.4 0 12.8 0 22.4 0 28.8 0 3.2 0 6.4 0 9.6 0 16-6.4 28.8-12.8 38.4l-3.2 3.2c-3.2 6.4-6.4 12.8-12.8 22.4-3.2 6.4-6.4 12.8-9.6 19.2 0 0 0 3.2 0 3.2 0 3.2 3.2 6.4 3.2 9.6s6.4 16 3.2 28.8c0 3.2-3.2 9.6-3.2 12.8 0 0 0 3.2 0 3.2 0 3.2 0 9.6 0 19.2-3.2 9.6-3.2 16-6.4 25.6 0 6.4-3.2 12.8-3.2 16s0 6.4 0 9.6-3.2 16-6.4 22.4c-3.2 9.6-9.6 16-16 19.2-6.4 9.6-12.8 19.2-19.2 25.6h144zM307.2 835.2c-3.2 0-3.2 0-6.4 0 0 0-3.2 0-3.2 0-3.2 0-9.6 0-12.8 0-9.6 0-19.2 0-28.8-3.2-16-3.2-35.2-6.4-54.4-16-6.4-3.2-12.8-6.4-19.2-6.4-3.2 0-3.2 0-6.4 0h-6.4c-12.8 3.2-22.4 3.2-35.2 6.4-3.2 0-9.6 0-12.8 0-16 0-35.2-6.4-48-19.2 0 3.2 0 9.6 0 9.6 3.2 9.6 9.6 19.2 12.8 28.8h220.8zM102.4 544c9.6 0 22.4-3.2 35.2-6.4l-3.2-3.2c-3.2-3.2-6.4-6.4-6.4-6.4-3.2 0-6.4 0-9.6 0-6.4 0-12.8-3.2-19.2-6.4 0 0 0 3.2 0 3.2v3.2c0 6.4-3.2 9.6-3.2 16 0 0 0 0 0 0 3.2 0 6.4 0 6.4 0zM774.4 480c0-9.6 0-19.2 0-28.8 0-12.8-3.2-22.4-6.4-28.8-6.4-9.6-16-19.2-22.4-35.2-3.2-6.4-6.4-9.6-19.2-16 12.8 25.6 25.6 51.2 38.4 76.8 3.2 9.6 6.4 16 6.4 22.4 0 3.2 0 6.4 3.2 9.6zM598.4 467.2c0-3.2 0-9.6 0-12.8 0-9.6 3.2-16 6.4-25.6 0-3.2 0-6.4 3.2-6.4 0 0 0 0 0 0v-3.2c0 0 0-3.2-3.2-3.2-3.2-6.4-6.4-16-6.4-25.6 0-28.8 16-48 41.6-60.8 6.4-3.2 16-3.2 22.4-3.2 0 0 3.2 0 3.2 0-3.2-3.2-3.2-9.6-6.4-12.8-6.4 3.2-16 3.2-22.4 3.2-12.8 0-22.4-3.2-28.8-12.8-9.6-9.6-12.8-22.4-9.6-35.2 0-3.2 0-3.2 0-6.4 0 0 0-3.2-3.2-3.2l-32-67.2c-6.4-12.8-3.2-32 12.8-41.6l3.2-3.2c6.4-3.2 12.8-6.4 19.2-6.4 9.6 0 19.2 3.2 25.6 12.8 3.2 3.2 6.4 9.6 9.6 12.8 6.4 6.4 9.6 16 16 22.4 0 0 3.2-3.2 3.2-3.2 9.6-16 19.2-28.8 32-38.4 9.6-9.6 19.2-16 28.8-22.4h3.2l6.4-3.2c9.6-6.4 19.2-12.8 35.2-19.2 12.8-3.2 25.6-6.4 38.4-9.6s25.6-6.4 38.4-9.6c12.8-3.2 25.6-9.6 38.4-19.2h-758.4c3.2 6.4 6.4 12.8 9.6 19.2 0 3.2 3.2 6.4 3.2 9.6 3.2 6.4 9.6 19.2 3.2 35.2l-3.2 9.6c6.4 12.8 9.6 25.6 3.2 38.4 0 3.2-3.2 3.2-3.2 6.4s0 6.4-3.2 9.6-6.4 9.6-9.6 12.8c3.2 6.4 9.6 19.2 6.4 32 0 3.2-3.2 6.4-3.2 9.6 0 0 0 0 0 0 0 6.4 0 16 0 25.6 0 12.8-3.2 22.4-3.2 28.8 9.6-25.6 38.4-32 51.2-32 9.6 0 19.2 3.2 25.6 6.4 12.8 9.6 19.2 22.4 22.4 32 3.2 0 6.4 0 12.8 0 9.6 0 19.2 0 28.8 3.2 0-3.2 3.2-6.4 3.2-9.6 3.2-6.4 6.4-9.6 9.6-16 0-6.4 0-9.6 3.2-16-3.2 0-6.4 0-9.6 0s-6.4 0-12.8 0c-3.2 0-6.4 0-9.6 0-9.6 0-19.2-3.2-25.6-9.6-9.6-12.8-9.6-25.6-9.6-32 0-16 16-32 32-32h19.2c0 0-3.2-3.2-3.2-3.2s-3.2 0-3.2 0-6.4 0-9.6 0h-3.2c-9.6 0-16-3.2-22.4-9.6s-9.6-16-6.4-22.4v-12.8c0-9.6 6.4-22.4 19.2-25.6 3.2-3.2 9.6-3.2 12.8-3.2 0 0 0 0 0 0 3.2-3.2 6.4-3.2 6.4-6.4 6.4-3.2 9.6-3.2 16-3.2s9.6 0 16 3.2c3.2 0 6.4-3.2 9.6-3.2s3.2 0 6.4 0l32 6.4c3.2 0 9.6 3.2 12.8 3.2l6.4 3.2c3.2 3.2 9.6 6.4 12.8 9.6 6.4 3.2 16 12.8 19.2 25.6 12.8 3.2 22.4 12.8 25.6 25.6 3.2 6.4 3.2 12.8 3.2 19.2 3.2 0 9.6-3.2 16-3.2 16 0 32 9.6 38.4 28.8 0 0 0 0 0 0 3.2 3.2 9.6 9.6 12.8 16 3.2 3.2 6.4 9.6 9.6 12.8 12.8 3.2 22.4 12.8 25.6 32 6.4 3.2 12.8 9.6 19.2 16 3.2 6.4 6.4 12.8 9.6 22.4v3.2c3.2 3.2 3.2 9.6 6.4 19.2 3.2 0 6.4 3.2 9.6 6.4l3.2 3.2c3.2 3.2 6.4 6.4 9.6 9.6 0 0 3.2 3.2 3.2 3.2 6.4 6.4 22.4 22.4 19.2 44.8 9.6 19.2 9.6 35.2 9.6 51.2 0 0 0 0 0 0zM697.6 867.2c-211.2 0-419.2 0-630.4 0-6.4-16-12.8-32-22.4-48-3.2-9.6-3.2-22.4-6.4-32 0-12.8 3.2-22.4 6.4-35.2 3.2-16-3.2-28.8-9.6-44.8-9.6-22.4-6.4-48-3.2-70.4 3.2-9.6 3.2-19.2 6.4-28.8s9.6-16 12.8-25.6c0-3.2 3.2-3.2 3.2-6.4 3.2-16 9.6-32 9.6-48 3.2-12.8 6.4-28.8 3.2-41.6-3.2-22.4-3.2-41.6 3.2-64 3.2-9.6 0-25.6-9.6-32-3.2 0-3.2-3.2-6.4-6.4 9.6-3.2 9.6-6.4 9.6-16s6.4-19.2 12.8-25.6c6.4-6.4 6.4-12.8 3.2-22.4-3.2-16-3.2-35.2 0-51.2 0-9.6 0-19.2 0-32 0 0 0-3.2 0-3.2 12.8-6.4 3.2-16 0-19.2-6.4-9.6-3.2-19.2-3.2-25.6s0-12.8 9.6-12.8c0 0 0 0 3.2 0-6.4-6.4-9.6-9.6 0-12.8 6.4 0 6.4-9.6 3.2-12.8-3.2-6.4-9.6-9.6-12.8-16 3.2 0 6.4-3.2 9.6-3.2 3.2-6.4 6.4-12.8 6.4-19.2 0 0 0-3.2 0-3.2-6.4-9.6-9.6-25.6-19.2-35.2-12.8-9.6-19.2-25.6-16-41.6 310.4 0 620.8 0 931.2 0 3.2 9.6-6.4 12.8-12.8 12.8 0 0 0 0 0 0s0 0 0 0c-9.6 0-12.8 3.2-19.2 9.6-12.8 9.6-25.6 12.8-38.4 22.4-6.4 3.2-9.6 6.4-16 9.6-19.2 9.6-41.6 22.4-60.8 28.8-25.6 9.6-54.4 12.8-80 22.4-12.8 3.2-22.4 12.8-32 19.2s-19.2 12.8-25.6 19.2c-9.6 9.6-19.2 22.4-28.8 35.2s-16 28.8-25.6 41.6c-6.4 6.4-12.8 12.8-22.4 22.4 0 9.6 0 12.8 9.6 12.8 3.2 0 9.6 0 16-3.2s12.8-3.2 16-3.2c0 0 0 0 3.2 0s9.6 3.2 9.6 9.6c3.2 3.2 6.4 9.6 6.4 16 3.2 28.8 28.8 35.2 51.2 44.8 16 6.4 28.8 16 35.2 32 3.2 9.6 9.6 19.2 19.2 28.8 9.6 12.8 12.8 28.8 12.8 44.8 3.2 32-3.2 60.8-9.6 89.6-6.4 22.4-12.8 44.8-19.2 67.2 0 3.2-3.2 9.6-6.4 12.8-19.2 9.6-19.2 28.8-22.4 44.8-3.2 19.2-6.4 41.6-9.6 60.8 0 12.8 0 25.6-3.2 38.4s-6.4 25.6-9.6 35.2c-3.2 12.8-9.6 28.8-16 41.6-6.4 3.2-12.8 9.6-16 19.2v0zM396.8 819.2c0 0 0 0 0 0 9.6 0 19.2 3.2 28.8 3.2 0 0 3.2 0 3.2 0 16 0 28.8 0 44.8 0 22.4-3.2 41.6-3.2 54.4-28.8 3.2-6.4 9.6-9.6 12.8-16 3.2-9.6 3.2-19.2 6.4-28.8 3.2-12.8 6.4-28.8 9.6-41.6 0-6.4 0-9.6 0-16s3.2-12.8 6.4-19.2c0-3.2 0-6.4 0-9.6-3.2-9.6-12.8-22.4-6.4-35.2 6.4-16 16-28.8 25.6-44.8 6.4-9.6 12.8-19.2 12.8-28.8 0-16 6.4-32 0-51.2-3.2-9.6-9.6-22.4-16-28.8 0-3.2 0-6.4 0-6.4 0-16 0-32-12.8-44.8-3.2-3.2 0-6.4 0-9.6 3.2-12.8-6.4-19.2-12.8-25.6-3.2-3.2-6.4-6.4-9.6-9.6 0 0 0 3.2 0 9.6-3.2-3.2-6.4-6.4-9.6-9.6-3.2 3.2-3.2 6.4-6.4 9.6 0-6.4-3.2-12.8-3.2-16 0-6.4 0-9.6 0-16s-3.2-9.6-6.4-16c-3.2-6.4-6.4-12.8-9.6-19.2 0-3.2-3.2-3.2-6.4-3.2 0 0 0 0 0 0s0 0 0 0c-9.6 0-12.8-6.4-12.8-12.8 0-9.6 0-16-6.4-16-3.2 0-6.4 0-9.6 3.2-6.4-9.6-9.6-19.2-16-28.8-3.2-6.4-9.6-9.6-12.8-12.8 0 0-3.2-3.2-3.2-3.2-3.2-9.6-6.4-12.8-12.8-12.8-3.2 0-6.4 0-9.6 3.2-3.2 0 0 6.4-3.2 9.6 0 0 3.2 3.2 3.2 3.2-3.2 0-3.2 0-6.4 0 0 0-3.2 0-3.2 0-3.2 0-9.6 0-9.6 3.2-9.6 9.6-16 19.2-22.4 32-6.4-3.2-9.6-6.4-16-6.4s-9.6 3.2-16 3.2c0 0-3.2 3.2-3.2 3.2s0 0 0 0c-3.2-3.2-6.4-3.2-9.6-3.2-6.4 0-9.6 9.6-16 12.8-3.2 0-9.6-3.2-12.8-3.2 0 3.2 0 6.4 0 9.6-3.2 6.4-9.6 16-12.8 22.4s0 6.4 3.2 9.6 9.6 6.4 16 12.8c-6.4 6.4-9.6 12.8-16 12.8-3.2 0-6.4 0-9.6 0-9.6 0-19.2 0-25.6-6.4-9.6-6.4-19.2-6.4-28.8-6.4-6.4 0-12.8 0-19.2 3.2-6.4 0-12.8 6.4-19.2 12.8 0 0-3.2 0-3.2 0 0-3.2 3.2-6.4 3.2-9.6s3.2-6.4 3.2-9.6c-6.4-9.6-6.4-25.6-19.2-32 0 0-3.2 0-6.4 0-6.4 0-19.2 3.2-19.2 9.6-3.2 12.8-6.4 22.4-22.4 28.8 3.2 12.8-16 12.8-16 25.6 0 9.6-3.2 19.2-6.4 28.8s-6.4 22.4-9.6 32c-3.2 12.8-3.2 28.8 3.2 41.6 0 3.2 0 6.4 0 9.6 3.2 0 3.2 3.2 6.4 3.2 12.8-9.6 25.6-19.2 41.6-19.2 3.2 0 9.6 0 12.8 3.2 3.2 0 3.2 0 3.2 0 9.6 0 12.8-6.4 19.2-12.8 0 0 3.2-3.2 3.2-3.2s0 0 0 0c6.4 3.2 9.6 3.2 16 6.4 9.6 19.2 16 41.6 16 67.2s-6.4 35.2-32 41.6c-22.4 6.4-48 12.8-73.6 12.8-3.2 0-6.4 0-9.6 0-6.4 0-9.6 0-16-3.2 0 0-3.2 0-3.2 0-3.2 0-6.4 3.2-3.2 6.4 3.2 9.6 6.4 16 6.4 25.6 3.2 12.8 3.2 28.8 3.2 41.6 0 3.2-3.2 6.4-6.4 9.6 0 3.2 0 9.6 0 12.8 0 12.8 0 25.6 3.2 35.2s0 19.2 0 28.8c0 6.4 0 9.6 6.4 12.8 3.2 0 6.4 9.6 9.6 12.8 6.4 9.6 19.2 16 32 16 3.2 0 6.4 0 6.4 0 16-3.2 32-6.4 48-9.6 0 0 0 0 3.2 0 0 0 0 0 0 0 12.8 3.2 25.6 6.4 38.4 12.8s28.8 9.6 44.8 12.8c12.8 3.2 25.6 0 38.4 3.2 6.4 0 9.6 3.2 16 3.2 9.6 0 16 0 25.6 0 0 0 0 0 0 0s3.2 0 3.2 0c0 0 0 0 0 0 12.8 3.2 22.4 9.6 35.2 16 0 0 3.2 0 3.2 0-6.4 0-3.2-3.2 0-3.2v0zM742.4 502.4c0 12.8 3.2 25.6 3.2 38.4 6.4-12.8 6.4-25.6 0-38.4-6.4-9.6-6.4-25.6-12.8-35.2-12.8-28.8-28.8-57.6-44.8-86.4-6.4-12.8-19.2-19.2-28.8-19.2-3.2 0-6.4 0-9.6 3.2-12.8 6.4-22.4 16-22.4 32 0 6.4 6.4 12.8 6.4 22.4 0 3.2 3.2 9.6 3.2 12.8-3.2 9.6-6.4 22.4-6.4 32s0 22.4 3.2 32c0 3.2 6.4 6.4 9.6 6.4s9.6-3.2 12.8-6.4c6.4-12.8 16-19.2 28.8-25.6 0 0 3.2 0 3.2 0 3.2 0 3.2 0 3.2 0 3.2 3.2 3.2 6.4 3.2 9.6 0 6.4 0 16-3.2 22.4 0 3.2-3.2 6.4-6.4 6.4-3.2 3.2-9.6 6.4-12.8 9.6 3.2 16 19.2 16 25.6 22.4 0 0 0 0 0 0 3.2 0 12.8-6.4 16-9.6 6.4-6.4 12.8-16 19.2-22.4 3.2-6.4 6.4-6.4 9.6-6.4v0zM131.2 496c16 0 22.4 12.8 32 22.4 6.4-6.4 9.6-9.6 12.8-16-6.4-3.2-16-12.8-22.4-12.8-3.2 0-6.4 0-9.6 0s-9.6 0-12.8 0c-3.2 0-6.4 3.2-9.6 9.6 3.2-3.2 6.4-3.2 9.6-3.2v0zM268.8 156.8c-3.2 16-3.2 16 12.8 22.4 9.6 3.2 16 12.8 16 25.6 0 3.2-3.2 6.4-6.4 12.8-3.2 3.2-6.4 6.4-6.4 9.6-3.2 3.2-6.4 6.4-9.6 9.6 9.6 9.6 19.2 12.8 32 12.8 6.4 0 12.8 0 22.4-3.2 6.4-3.2 16-3.2 22.4-3.2 3.2 0 6.4 0 6.4-3.2 3.2-12.8 19.2-25.6 9.6-41.6 0 0 0-3.2 0-3.2s0 0 0 0c-12.8 0-22.4-9.6-25.6-22.4 0-3.2-6.4-6.4-9.6-9.6s-9.6-6.4-16-9.6c-9.6 0-22.4-3.2-32-6.4-3.2 3.2-6.4 6.4-6.4 9.6-6.4-3.2-9.6-6.4-19.2-12.8 0 0-3.2 3.2-6.4 3.2-3.2 6.4-6.4 9.6-9.6 9.6s-6.4-3.2-9.6-6.4c0 3.2 0 6.4 0 9.6 3.2 0 6.4 0 9.6 0 0 0 3.2 0 3.2 0 6.4 0 16 0 22.4-3.2v0zM598.4 172.8c-3.2 3.2-3.2 3.2 0 0 6.4 25.6 19.2 44.8 28.8 67.2 9.6-6.4 6.4-16 3.2-22.4-9.6-12.8-22.4-28.8-32-44.8v0zM243.2 240c0 0 3.2 0 3.2 0 3.2 0 6.4 3.2 6.4 3.2 3.2 0 3.2-3.2 0-9.6-9.6 0-16 0-25.6 0 0 6.4 0 9.6 3.2 9.6 0 0 3.2 0 6.4 0 3.2-3.2 6.4-3.2 6.4-3.2v0zM323.2 553.6c-6.4-3.2-9.6-6.4-16-9.6-3.2 0-9.6 3.2-12.8 3.2 9.6 3.2 19.2 3.2 28.8 6.4zM332.8 585.6c-19.2 0-38.4-6.4-57.6-12.8-9.6-3.2-19.2-9.6-32-12.8 6.4-6.4 9.6-9.6 9.6-12.8 6.4-9.6 12.8-16 12.8-25.6 0-6.4 3.2-9.6 9.6-9.6 0 0 3.2 0 3.2 0 3.2 3.2 6.4 3.2 9.6 3.2 6.4 0 9.6-3.2 16-6.4s9.6-9.6 16-16c6.4-9.6 19.2-12.8 32-12.8 16 0 32 6.4 44.8 16-9.6 0-22.4-3.2-32-3.2-12.8 0-25.6 3.2-38.4 9.6 3.2 6.4 6.4 12.8 9.6 19.2 9.6-6.4 16-9.6 22.4-12.8 0 0 3.2 0 3.2 0s3.2 0 3.2 0c3.2 3.2 9.6 6.4 12.8 9.6 9.6 6.4 6.4 9.6-3.2 16 3.2 3.2 6.4 3.2 9.6 3.2s6.4 0 6.4-3.2c3.2 0 3.2-6.4 6.4-6.4 6.4-3.2 12.8-6.4 19.2-12.8 3.2-3.2 6.4-3.2 6.4-3.2 3.2 0 6.4 3.2 9.6 3.2 0 0 3.2 3.2 3.2 3.2 3.2 3.2 9.6 6.4 9.6 12.8 3.2 6.4 6.4 16 6.4 22.4-9.6 3.2-19.2 9.6-28.8 12.8-25.6 6.4-54.4 9.6-83.2 16 0 3.2-3.2 3.2-6.4 3.2v0z" />
<glyph unicode="&#xe645;" glyph-name="i70-delivery" d="M76.8 323.2h467.2c6.4 0 12.8 6.4 12.8 12.8v409.6c0 22.4-19.2 41.6-41.6 41.6h-409.6c-22.4 0-41.6-19.2-41.6-41.6v-409.6c0-9.6 6.4-12.8 12.8-12.8zM96 745.6c0 6.4 3.2 9.6 9.6 9.6h409.6c6.4 0 9.6-3.2 9.6-9.6v-393.6h-428.8v393.6zM982.4 281.6h-32v188.8c0 22.4-6.4 44.8-19.2 60.8l-83.2 124.8c-19.2 28.8-54.4 48-92.8 48h-131.2c-16 0-28.8-12.8-28.8-28.8v-393.6h-214.4c19.2-16 35.2-41.6 38.4-70.4h224c6.4 54.4 54.4 96 112 96s105.6-41.6 112-96h112c6.4 0 12.8 6.4 12.8 12.8v41.6c3.2 9.6-3.2 16-9.6 16zM844.8 505.6h-172.8c-6.4 0-12.8 6.4-12.8 12.8v96c0 6.4 6.4 12.8 12.8 12.8h105.6c3.2 0 9.6-3.2 12.8-6.4l67.2-96c3.2-6.4-3.2-19.2-12.8-19.2zM627.2 668.8h124.8c25.6 0 51.2-12.8 64-35.2l28.8-41.6-32 44.8c-9.6 12.8-22.4 19.2-38.4 19.2h-105.6c-22.4 0-38.4-16-44.8-35.2v48zM963.2 243.2h-67.2c-19.2 57.6-73.6 96-137.6 96-60.8 0-115.2-41.6-137.6-96h-176c0 3.2 0 3.2-3.2 6.4h153.6c19.2 0 32 12.8 32 32v227.2c6.4-19.2 22.4-35.2 44.8-35.2h172.8c16 0 32 9.6 41.6 25.6 6.4 12.8 6.4 25.6 3.2 38.4l16-22.4c9.6-12.8 12.8-28.8 12.8-44.8v-188.8c0-19.2 12.8-32 32-32h16v-6.4zM758.4 281.6c-48 0-86.4-38.4-86.4-86.4s38.4-86.4 86.4-86.4c48 0 86.4 38.4 86.4 86.4s-38.4 86.4-86.4 86.4zM758.4 150.4c-22.4 0-41.6 19.2-41.6 41.6s19.2 41.6 41.6 41.6c22.4 0 41.6-19.2 41.6-41.6s-19.2-41.6-41.6-41.6zM307.2 281.6c-48 0-86.4-38.4-86.4-86.4s38.4-86.4 86.4-86.4 86.4 38.4 86.4 86.4c0 48-38.4 86.4-86.4 86.4zM307.2 150.4c-22.4 0-41.6 19.2-41.6 41.6s19.2 41.6 41.6 41.6c22.4 0 41.6-19.2 41.6-41.6 3.2-22.4-16-41.6-41.6-41.6zM41.6 281.6c-6.4 0-12.8-6.4-12.8-12.8v-41.6c0-6.4 6.4-12.8 12.8-12.8h153.6c3.2 28.8 19.2 51.2 38.4 70.4h-192zM172.8 243.2h-112v6.4h112c0-3.2 0-3.2 0-6.4z" />
<glyph unicode="&#xe646;" glyph-name="i71-open" d="M432 659.2l64 64v-144c0-9.6 6.4-16 16-16s16 6.4 16 16v144l64-64c6.4-6.4 16-6.4 22.4 0s6.4 16 0 22.4l-92.8 92.8c0 0 0 0 0 0s0 0 0 0c-3.2 3.2-6.4 3.2-9.6 3.2 0 0 0 0 0 0v0c0 0-3.2 0-3.2 0s0 0 0 0 0 0 0 0c-3.2 0-6.4-3.2-9.6-3.2 0 0 0 0 0 0s0 0 0 0v0 0l-92.8-92.8c-6.4-6.4-6.4-16 0-22.4s19.2-6.4 25.6 0zM982.4 624c-6.4 6.4-16 6.4-22.4 0l-179.2-179.2h-537.6l-179.2 179.2c-6.4 6.4-16 6.4-22.4 0s-6.4-16 0-22.4l179.2-179.2v-288c0-9.6 6.4-16 16-16h550.4c9.6 0 16 6.4 16 16v288l179.2 179.2c6.4 6.4 6.4 16 0 22.4zM771.2 150.4h-518.4v262.4h518.4v-262.4z" />
<glyph unicode="&#xe647;" glyph-name="i72-return" d="M825.6 688c-32 41.6-67.2 76.8-108.8 99.2 0 0 0 0 0 0-12.8 6.4-25.6 12.8-38.4 19.2 0 0-3.2 0-3.2 3.2v0c-32 12.8-64 22.4-102.4 28.8-105.6 16-204.8-6.4-294.4-73.6-86.4-64-137.6-150.4-150.4-256-19.2-102.4 3.2-201.6 67.2-291.2 57.6-73.6 131.2-121.6 224-144l-73.6-28.8c-9.6-3.2-12.8-12.8-9.6-19.2s9.6-9.6 16-9.6c3.2 0 3.2 0 6.4 0l131.2 51.2c0 0 3.2 0 3.2 0s3.2 3.2 3.2 3.2 3.2 3.2 3.2 6.4 0 3.2 0 6.4 0 3.2-3.2 6.4c0 0 0 3.2-3.2 3.2l-73.6 89.6c-6.4 6.4-16 6.4-22.4 3.2-6.4-6.4-6.4-16-3.2-22.4l48-60.8c-92.8 19.2-166.4 64-224 137.6-57.6 80-80 169.6-60.8 265.6 12.8 99.2 57.6 176 137.6 236.8 83.2 60.8 172.8 83.2 268.8 67.2 35.2-6.4 67.2-16 96-28.8 54.4-22.4 99.2-60.8 137.6-108.8 57.6-83.2 80-172.8 64-268.8-6.4-60.8-28.8-112-64-156.8-22.4-32-44.8-57.6-73.6-80-19.2-9.6-41.6-22.4-60.8-38.4l19.2-25.6c19.2 12.8 38.4 25.6 57.6 35.2 0 0 3.2 0 3.2 3.2 32 25.6 57.6 54.4 80 86.4 38.4 48 60.8 105.6 70.4 169.6 19.2 105.6-3.2 201.6-67.2 291.2zM387.2 345.6c-12.8 0-25.6 0-38.4 3.2s-25.6 6.4-38.4 12.8v-28.8c12.8-6.4 22.4-9.6 35.2-12.8s25.6-3.2 38.4-3.2c32 0 57.6 6.4 76.8 22.4s25.6 35.2 25.6 60.8c0 19.2-6.4 32-16 44.8s-25.6 19.2-48 22.4v0c19.2 3.2 32 9.6 41.6 22.4s16 25.6 16 41.6c0 22.4-6.4 38.4-22.4 51.2s-35.2 19.2-60.8 19.2c-16 0-32-3.2-48-6.4s-28.8-12.8-38.4-22.4l16-22.4c12.8 9.6 25.6 16 35.2 19.2s22.4 6.4 35.2 6.4c16 0 28.8-3.2 38.4-12.8s12.8-19.2 12.8-32c0-16-6.4-28.8-19.2-38.4s-28.8-12.8-51.2-12.8h-28.8v-25.6h25.6c51.2 0 76.8-16 76.8-51.2 6.4-38.4-19.2-57.6-64-57.6zM691.2 355.2c16 22.4 22.4 57.6 22.4 105.6 0 44.8-6.4 80-22.4 105.6s-38.4 35.2-67.2 35.2c-32 0-54.4-12.8-67.2-35.2s-22.4-57.6-22.4-105.6c0-44.8 6.4-80 22.4-105.6s38.4-35.2 67.2-35.2c28.8 0 51.2 12.8 67.2 35.2zM620.8 345.6c-19.2 0-35.2 9.6-44.8 28.8s-12.8 48-12.8 86.4 3.2 70.4 12.8 86.4 25.6 25.6 44.8 25.6c19.2 0 35.2-9.6 44.8-28.8s12.8-48 12.8-86.4-3.2-67.2-12.8-86.4-22.4-25.6-44.8-25.6z" />
<glyph unicode="&#xe648;" glyph-name="i73-24-7" d="M969.6 512c-16 121.6-80 230.4-176 307.2-80 60.8-179.2 96-278.4 96-22.4 0-41.6 0-64-3.2-25.6-12.8-25.6-41.6-6.4-41.6 3.2 0 6.4 0 12.8 3.2 19.2 3.2 38.4 3.2 57.6 3.2 208 0 390.4-153.6 416-368 28.8-230.4-134.4-444.8-364.8-476.8-19.2-3.2-38.4-3.2-57.6-3.2-70.4 0-137.6 16-201.6 51.2 12.8 6.4 25.6 19.2 32 32l3.2 9.6c9.6 19.2 6.4 51.2-3.2 70.4l-41.6 70.4c-9.6 19.2-35.2 35.2-57.6 35.2 0 0 0 0 0 0h-38.4c-54.4 92.8-54.4 208-6.4 304h38.4c22.4 0 48 16 57.6 38.4l38.4 73.6c9.6 19.2 9.6 51.2 0 70.4l-3.2 9.6c-9.6 19.2-35.2 35.2-54.4 35.2 0 0 0 0 0 0l-57.6-3.2c-9.6 0-28.8-12.8-28.8-12.8-89.6-99.2-140.8-230.4-137.6-364.8s57.6-265.6 150.4-358.4c0 0 19.2-12.8 28.8-12.8 0 0 0 0 0 0h25.6c0-3.2 3.2-6.4 6.4-9.6 70.4-44.8 150.4-70.4 233.6-73.6 6.4 0 9.6 0 16 0 22.4 0 41.6 0 64 3.2 252.8 25.6 432 262.4 396.8 515.2zM294.4 102.4c-6.4-3.2-12.8-9.6-16-16-6.4 9.6-16 12.8-25.6 12.8 0 0 0 0 0 0h-22.4c-3.2 0-6.4 3.2-9.6 6.4-86.4 86.4-137.6 208-137.6 332.8-3.2 124.8 44.8 249.6 128 342.4 3.2 3.2 6.4 3.2 9.6 6.4l54.4 3.2c9.6 0 22.4-9.6 25.6-16l3.2-9.6c6.4-9.6 6.4-32 0-41.6l-38.4-73.6c-6.4-9.6-19.2-19.2-28.8-19.2h-38.4c-12.8 0-22.4-6.4-28.8-16-54.4-105.6-51.2-233.6 6.4-332.8 6.4-9.6 16-16 28.8-16 0 0 0 0 0 0h38.4c9.6 0 25.6-9.6 28.8-16l41.6-70.4c6.4-9.6 6.4-32 3.2-41.6l-3.2-9.6c-3.2-12.8-9.6-19.2-19.2-25.6zM313.6 547.2c12.8 12.8 25.6 19.2 38.4 19.2 9.6 0 16-3.2 22.4-6.4s6.4-12.8 6.4-19.2c0-9.6-3.2-16-6.4-22.4-6.4-6.4-12.8-16-25.6-28.8l-44.8-44.8v-22.4h102.4v22.4h-70.4l32 32c16 16 25.6 28.8 32 35.2 6.4 9.6 9.6 19.2 9.6 28.8 0 16-3.2 25.6-12.8 32s-19.2 12.8-35.2 12.8c-16 0-32-6.4-48-16v-22.4zM499.2 422.4h25.6v38.4h19.2v19.2h-19.2v102.4h-28.8l-70.4-105.6v-16h73.6v-38.4zM448 480l44.8 67.2c3.2 6.4 3.2 9.6 6.4 9.6v0c0-6.4 0-9.6 0-16v-64h-51.2zM710.4 214.4l60.8 153.6v9.6h-108.8v-22.4h80l-60.8-140.8zM546.778 195.132l-29.981 11.19 163.38 437.72 29.981-11.19-163.38-437.72z" />
<glyph unicode="&#xe649;" glyph-name="i74-0-24" d="M969.6 512c-16 121.6-80 230.4-176 307.2-80 60.8-179.2 96-278.4 96-22.4 0-41.6 0-64-3.2-25.6-12.8-25.6-41.6-6.4-41.6 3.2 0 6.4 0 12.8 3.2 19.2 3.2 38.4 3.2 57.6 3.2 208 0 390.4-153.6 416-368 28.8-230.4-134.4-444.8-364.8-476.8-19.2-3.2-38.4-3.2-57.6-3.2-70.4 0-137.6 16-201.6 51.2 12.8 6.4 25.6 19.2 32 32l3.2 9.6c9.6 19.2 6.4 51.2-3.2 70.4l-41.6 70.4c-9.6 19.2-35.2 35.2-57.6 35.2 0 0 0 0 0 0h-38.4c-54.4 92.8-54.4 208-6.4 304h38.4c22.4 0 48 16 57.6 38.4l38.4 73.6c9.6 19.2 9.6 51.2 0 70.4l-3.2 9.6c-9.6 19.2-35.2 35.2-54.4 35.2 0 0 0 0 0 0l-57.6-3.2c-9.6 0-28.8-12.8-28.8-12.8-89.6-99.2-140.8-230.4-137.6-364.8s57.6-265.6 150.4-358.4c0 0 19.2-12.8 28.8-12.8 0 0 0 0 0 0h25.6c0-3.2 3.2-6.4 6.4-9.6 70.4-44.8 150.4-70.4 233.6-73.6 6.4 0 9.6 0 16 0 22.4 0 41.6 0 64 3.2 252.8 25.6 432 262.4 396.8 515.2zM294.4 102.4c-6.4-3.2-12.8-9.6-16-16-6.4 9.6-16 12.8-25.6 12.8 0 0 0 0 0 0h-22.4c-3.2 0-6.4 3.2-9.6 6.4-86.4 86.4-137.6 208-137.6 332.8-3.2 124.8 44.8 249.6 128 342.4 3.2 3.2 6.4 3.2 9.6 6.4l54.4 3.2c9.6 0 22.4-9.6 25.6-16l3.2-9.6c6.4-9.6 6.4-32 0-41.6l-38.4-73.6c-6.4-9.6-19.2-19.2-28.8-19.2h-38.4c-12.8 0-22.4-6.4-28.8-16-54.4-105.6-51.2-233.6 6.4-332.8 6.4-9.6 16-16 28.8-16 0 0 0 0 0 0h38.4c9.6 0 25.6-9.6 28.8-16l41.6-70.4c6.4-9.6 6.4-32 3.2-41.6l-3.2-9.6c-3.2-12.8-9.6-19.2-19.2-25.6zM316.8 512c-9.6-16-16-35.2-16-64 0-25.6 3.2-44.8 12.8-60.8 9.6-12.8 22.4-19.2 38.4-19.2 19.2 0 32 6.4 41.6 22.4s16 35.2 16 64c0 54.4-19.2 83.2-54.4 83.2-12.8-3.2-28.8-9.6-38.4-25.6zM358.4 515.2c19.2 0 28.8-22.4 28.8-64s-9.6-60.8-28.8-60.8c-19.2 0-28.8 19.2-28.8 60.8s9.6 64 28.8 64zM502.4 444.8h60.8v-19.2h-60.8v19.2zM633.6 435.2l-44.8-44.8v-22.4h102.4v22.4h-70.4l32 32c16 16 25.6 28.8 32 35.2 6.4 9.6 9.6 19.2 9.6 28.8 0 16-3.2 25.6-12.8 32s-19.2 12.8-35.2 12.8c-16 0-32-6.4-48-16v-25.6c12.8 12.8 25.6 19.2 38.4 19.2 9.6 0 16-3.2 22.4-6.4s6.4-12.8 6.4-19.2c0-9.6-3.2-16-6.4-22.4-6.4-6.4-12.8-12.8-25.6-25.6zM780.8 531.2l-70.4-105.6v-16h73.6v-38.4h25.6v38.4h19.2v19.2h-19.2v102.4h-28.8zM784 492.8v-64h-48l44.8 67.2c3.2 6.4 3.2 9.6 6.4 9.6v0c-3.2-3.2-3.2-9.6-3.2-12.8z" />
<glyph unicode="&#xe64a;" glyph-name="i75-safe" d="M745.6 502.4v185.6c0 128-105.6 233.6-233.6 233.6s-233.6-105.6-233.6-233.6v-185.6c-67.2-9.6-115.2-67.2-115.2-137.6v-246.4c0-76.8 64-140.8 140.8-140.8h419.2c76.8 0 140.8 64 140.8 140.8v246.4c-3.2 67.2-118.4 137.6-118.4 137.6zM832 118.4c0-60.8-51.2-112-112-112h-419.2c-60.8 0-112 51.2-112 112v246.4c0 54.4 38.4 99.2 92.8 108.8l22.4 3.2v208c0 112 92.8 204.8 204.8 204.8s204.8-92.8 204.8-204.8v-201.6l12.8-6.4c32-19.2 102.4-73.6 102.4-112v-246.4zM512 835.2c-83.2 0-150.4-67.2-150.4-150.4v-211.2h300.8v211.2c0 83.2-67.2 150.4-150.4 150.4zM633.6 502.4h-243.2v182.4c0 67.2 54.4 121.6 121.6 121.6s121.6-54.4 121.6-121.6v-182.4zM604.8 307.2l-60.8-22.4v67.2h-54.4v-67.2l-64 22.4-19.2-54.4 67.2-19.2-48-57.6 51.2-35.2 38.4 60.8 41.6-60.8 48 35.2-44.8 57.6 64 19.2z" />
<glyph unicode="&#xe64b;" glyph-name="i76-free-delivery" d="M345.6 272h172.8v198.4h-172.8zM57.6 614.4h201.6v-115.2h-201.6v115.2zM758.4 224c-48 0-86.4-38.4-86.4-86.4s38.4-86.4 86.4-86.4 86.4 38.4 86.4 86.4c-3.2 48-41.6 86.4-86.4 86.4zM758.4 96c-22.4 0-41.6 19.2-41.6 41.6s19.2 41.6 41.6 41.6c22.4 0 41.6-19.2 41.6-41.6s-19.2-41.6-41.6-41.6zM547.2 496v118.4h-201.6v-115.2h201.6v-3.2zM259.2 272v198.4h-172.8v-198.4zM44.8 224c-6.4 0-12.8-6.4-12.8-12.8v-41.6c0-6.4 6.4-12.8 12.8-12.8h153.6c3.2 28.8 19.2 51.2 38.4 70.4h-192zM172.8 185.6h-112v6.4h112c0-3.2 0-3.2 0-6.4zM310.4 224c-48 0-86.4-38.4-86.4-86.4s38.4-86.4 86.4-86.4c48 0 86.4 38.4 86.4 86.4-3.2 48-41.6 86.4-86.4 86.4zM310.4 96c-22.4 0-41.6 19.2-41.6 41.6s19.2 41.6 41.6 41.6c22.4 0 41.6-19.2 41.6-41.6s-19.2-41.6-41.6-41.6zM979.2 224h-32v185.6c0 22.4-6.4 44.8-19.2 60.8l-83.2 124.8c-19.2 28.8-54.4 48-92.8 48h-131.2c-16 0-28.8-12.8-28.8-28.8v-393.6h-214.4c19.2-16 35.2-41.6 38.4-70.4h224c6.4 54.4 54.4 96 112 96s102.4-41.6 112-96h112c6.4 0 12.8 6.4 12.8 12.8v41.6c6.4 12.8 0 19.2-9.6 19.2zM620.8 185.6h-176c0 3.2 0 3.2-3.2 6.4h176c3.2-3.2 3.2-3.2 3.2-6.4zM854.4 470.4c6.4-9.6 0-22.4-12.8-22.4h-172.8c-6.4 0-12.8 6.4-12.8 12.8v96c0 6.4 6.4 12.8 12.8 12.8h105.6c3.2 0 9.6-3.2 12.8-6.4l67.2-92.8zM627.2 611.2h124.8c25.6 0 51.2-12.8 64-35.2l25.6-38.4-28.8 41.6c-9.6 12.8-22.4 19.2-38.4 19.2h-105.6c-22.4 0-38.4-16-44.8-35.2v48zM963.2 185.6h-67.2c-19.2 57.6-73.6 96-137.6 96-54.4 0-105.6-32-131.2-80v246.4c6.4-19.2 22.4-35.2 44.8-35.2h172.8c16 0 32 9.6 41.6 25.6 6.4 12.8 6.4 25.6 3.2 38.4l16-22.4c9.6-12.8 12.8-28.8 12.8-44.8v-217.6h48v-6.4zM128 723.2c3.2-3.2 3.2-6.4 6.4-9.6 6.4-6.4 9.6-12.8 16-16s9.6-9.6 16-12.8c6.4-3.2 9.6-6.4 16-9.6s9.6-3.2 16-6.4c3.2-3.2 9.6-3.2 12.8-6.4 3.2 0 9.6-3.2 12.8-3.2 6.4-3.2 16-3.2 19.2-3.2 6.4 0 9.6 0 12.8 0 0 0 3.2 0 3.2 0s0 0 0 0l3.2 3.2c0 0-6.4 3.2-16 9.6 6.4-3.2-134.4 67.2-73.6 118.4 57.6 51.2 99.2-105.6 105.6-112 0-3.2 0-6.4 0-6.4h3.2c0 0 0 0 0 3.2 0 0 0 3.2 0 3.2 0 3.2 0 6.4 3.2 12.8 0 6.4 0 12.8 0 22.4s0 19.2-3.2 28.8c-3.2 9.6-3.2 22.4-9.6 32-3.2 6.4-3.2 12.8-6.4 19.2 0 3.2-3.2 6.4-6.4 9.6s-3.2 6.4-6.4 9.6-9.6 12.8-16 19.2c-3.2 3.2-6.4 6.4-12.8 9.6-3.2 3.2-9.6 3.2-16 6.4-6.4 0-12.8 3.2-19.2 3.2s-12.8 0-19.2-3.2-22.4-9.6-28.8-16c-3.2-3.2-6.4-6.4-9.6-9.6l-3.2-3.2c0 0 0 0 0 0v0 0 0 0l-3.2-3.2c-3.2-3.2-6.4-9.6-6.4-16-3.2-6.4-3.2-12.8-3.2-19.2 0-12.8 0-25.6 6.4-32 0-12.8 3.2-19.2 6.4-22.4zM460.8 729.6c35.2-64-86.4-73.6-99.2-76.8-9.6-3.2-16-3.2-16-3.2v-3.2c0 0 0 0 0 0s3.2 0 3.2 0 6.4-3.2 12.8-3.2c6.4 0 12.8 0 22.4-3.2 3.2 0 9.6 0 12.8 0s9.6 0 16 0c6.4 0 9.6 0 16 3.2 6.4 0 9.6 3.2 16 3.2 6.4 3.2 12.8 3.2 19.2 6.4s12.8 6.4 19.2 9.6c3.2 3.2 6.4 3.2 9.6 6.4s6.4 6.4 9.6 9.6 12.8 19.2 16 28.8c0 6.4 3.2 12.8 0 19.2 0 6.4 0 12.8-3.2 16v3.2c0 0 0 0 0 0v3.2c-3.2 3.2-3.2 9.6-6.4 12.8-6.4 9.6-12.8 16-22.4 25.6-6.4 3.2-9.6 6.4-16 9.6s-12.8 3.2-19.2 3.2c-6.4 0-12.8 0-16-3.2-6.4 0-9.6-3.2-12.8-3.2-9.6-3.2-16-6.4-22.4-12.8-3.2-3.2-6.4-3.2-9.6-6.4s-6.4-6.4-6.4-6.4c-3.2-6.4-9.6-9.6-12.8-16-6.4-9.6-12.8-19.2-19.2-28.8-3.2-9.6-6.4-19.2-9.6-25.6s-3.2-16-6.4-19.2c0-6.4-3.2-9.6-3.2-12.8 0 0 0-3.2 0-3.2s0-3.2 0-3.2l3.2-3.2c-6.4 9.6 89.6 137.6 124.8 73.6zM262.4 614.4h80c0 0 3.2 38.4-38.4 38.4s-41.6-38.4-41.6-38.4z" />
<glyph unicode="&#xe64c;" glyph-name="i77-97percent" d="M182.4 528h-112c-22.4 0-41.6-22.4-41.6-48v-307.2c0-25.6 19.2-48 41.6-48h112c22.4 0 41.6 22.4 41.6 48v307.2c0 25.6-16 48-41.6 48zM192 169.6c0-9.6-6.4-16-9.6-16h-112c-3.2 0-9.6 6.4-9.6 16v307.2c0 9.6 6.4 16 9.6 16h112c3.2 0 9.6-6.4 9.6-16v-307.2zM464 233.6c-16 0-28.8 3.2-41.6 9.6v-38.4c12.8-6.4 28.8-9.6 44.8-9.6 28.8 0 51.2 9.6 67.2 32s25.6 51.2 25.6 89.6c0 32-6.4 57.6-19.2 73.6s-32 25.6-54.4 25.6c-22.4 0-38.4-6.4-54.4-19.2-12.8-12.8-22.4-32-22.4-54.4 0-19.2 6.4-35.2 16-48 12.8-12.8 25.6-19.2 41.6-19.2 19.2 0 32 6.4 41.6 22.4v0c0-19.2-3.2-35.2-12.8-48-3.2-9.6-16-16-32-16zM505.6 320c-6.4-6.4-12.8-9.6-19.2-9.6-9.6 0-16 3.2-22.4 9.6s-6.4 16-6.4 25.6c0 9.6 3.2 19.2 6.4 25.6 6.4 6.4 12.8 9.6 19.2 9.6 9.6 0 16-3.2 19.2-9.6 6.4-6.4 9.6-16 9.6-28.8 0-6.4-3.2-16-6.4-22.4zM928 416l-137.6-214.4h35.2l137.6 214.4zM848 323.2c9.6 9.6 16 25.6 16 41.6s-3.2 28.8-12.8 38.4c-9.6 9.6-22.4 12.8-35.2 12.8-16 0-28.8-6.4-38.4-16-3.2-3.2-6.4-9.6-9.6-16 0-3.2 0-3.2 0-6.4l-3.2-6.4c0-3.2 0-9.6 0-12.8 0-16 3.2-28.8 12.8-38.4s22.4-12.8 35.2-12.8c12.8 0 25.6 6.4 35.2 16zM790.4 361.6c0 19.2 6.4 28.8 22.4 28.8 12.8 0 19.2-9.6 19.2-28.8s-6.4-28.8-22.4-28.8c-12.8 0-19.2 9.6-19.2 28.8zM982.4 297.6c-9.6 9.6-22.4 12.8-35.2 12.8-16 0-28.8-6.4-38.4-16s-16-25.6-16-41.6c0-16 3.2-28.8 12.8-38.4s22.4-12.8 35.2-12.8c16 0 28.8 6.4 38.4 16s16 25.6 16 41.6c0 16-3.2 28.8-12.8 38.4zM944 227.2c-12.8 0-22.4 9.6-22.4 28.8s6.4 28.8 22.4 28.8c6.4 0 9.6-3.2 16-6.4 3.2-6.4 6.4-12.8 6.4-22.4-3.2-19.2-9.6-28.8-22.4-28.8zM585.6 377.6h99.2l-76.8-172.8h48l70.4 182.4c0 3.2 3.2 9.6 3.2 12.8v19.2h-147.2v-41.6zM688 192c-6.4-12.8-16-19.2-28.8-19.2-6.4-6.4-12.8-12.8-22.4-12.8 0 0 0 0-3.2 0h-345.6c-9.6 0-16 6.4-16 16v307.2c0 6.4 6.4 16 12.8 16 0 0 0 0 3.2 0v0h6.4c0 0 0 0 3.2 0 12.8 3.2 25.6 9.6 35.2 19.2 0 0 0 0 0 3.2 3.2 3.2 3.2 6.4 6.4 9.6 22.4 44.8 44.8 108.8 35.2 169.6 0 3.2 0 3.2 0 6.4s0 3.2 0 6.4c0 16 12.8 28.8 28.8 28.8 9.6 0 19.2-3.2 22.4-12.8 0 0 0 0 3.2-3.2 6.4-9.6 67.2-89.6 19.2-204.8-3.2-6.4-3.2-12.8 0-16 3.2-6.4 9.6-6.4 16-6.4h172.8c16 0 28.8-12.8 28.8-28.8 0-6.4-3.2-12.8-6.4-19.2h38.4c3.2 6.4 3.2 12.8 3.2 19.2 0 16-6.4 32-19.2 44.8s-28.8 19.2-44.8 19.2c0 0 0 0 0 0h-147.2c41.6 128-32 214.4-35.2 217.6 0 0 0 0 0 0-12.8 16-32 25.6-51.2 25.6-35.2 0-64-28.8-64-64 0-3.2 0-3.2 0-6.4s0-3.2 0-6.4c12.8-57.6-12.8-118.4-28.8-153.6 0-3.2-3.2-6.4-3.2-9.6-3.2-3.2-6.4-3.2-9.6-6.4h-6.4c0 0-3.2 0-3.2 0-25.6 0-48-22.4-48-51.2v-307.2c0-28.8 22.4-51.2 51.2-51.2h348.8c0 0 3.2 0 3.2 0 32 3.2 57.6 32 57.6 64 0 6.4-3.2 16-3.2 22.4l-9.6-16z" />
<glyph unicode="&#xe64d;" glyph-name="i78-best-brands" d="M534.4 694.4l188.8-108.8c-9.6 0-19.2-3.2-25.6-9.6l-38.4-32-44.8 19.2c-6.4 3.2-12.8 3.2-16 3.2-12.8 0-25.6-6.4-35.2-19.2s-9.6-25.6-6.4-38.4l16-51.2-35.2-38.4c-12.8-12.8-16-32-6.4-48 6.4-16 22.4-25.6 41.6-25.6 0 0 0 0 0 0h48l22.4-41.6c6.4-12.8 22.4-22.4 38.4-22.4 19.2 0 35.2 12.8 41.6 32l16 48 51.2 12.8c16 3.2 28.8 16 32 35.2 3.2 16-3.2 32-16 44.8l-41.6 28.8 6.4 48c0 9.6 0 19.2-3.2 25.6l160-92.8-150.4-262.4-390.4 227.2-12.8 92.8v6.4l16-16c3.2-3.2 6.4-6.4 12.8-9.6 12.8-6.4 25.6-9.6 41.6-9.6 6.4 0 12.8 0 19.2 3.2 19.2 6.4 38.4 19.2 48 38.4s12.8 41.6 6.4 60.8c-6.4 19.2-19.2 38.4-38.4 48-12.8 6.4-25.6 9.6-41.6 9.6 0 0 0 0-3.2 0l99.2 41.6zM384 633.6c-6.4-6.4-12.8-12.8-16-19.2s-6.4-16-9.6-22.4l-3.2 32 28.8 9.6zM256 736c-32 0-64-6.4-96-16-60.8-19.2-118.4-64-102.4-121.6 3.2-6.4 3.2-12.8 9.6-19.2 25.6-48 83.2-70.4 176-70.4 3.2 0 9.6 0 12.8 0 28.8 0 57.6 3.2 83.2 9.6l16-105.6 432-249.6 182.4 316.8-432 249.6-217.6-86.4 12.8-80c-19.2-3.2-38.4-6.4-57.6-6.4-9.6 0-19.2 0-25.6 0-22.4 0-41.6 0-57.6 3.2-28.8 6.4-57.6 12.8-73.6 32-3.2 6.4-6.4 12.8-9.6 16-3.2 9.6 0 16 3.2 25.6 16 25.6 67.2 41.6 92.8 48 19.2 3.2 38.4 6.4 54.4 6.4 32 0 67.2-6.4 99.2-16 3.2 0 6.4 0 6.4 0 6.4 0 9.6 3.2 12.8 6.4 6.4 6.4 9.6 16 6.4 25.6-3.2 6.4-6.4 12.8-16 16-35.2 9.6-73.6 16-112 16v0zM390.4 582.4c0 6.4 3.2 12.8 6.4 16 9.6 16 25.6 25.6 41.6 25.6 9.6 0 16-3.2 22.4-6.4 9.6-6.4 19.2-16 22.4-28.8s3.2-25.6-3.2-35.2c-6.4-9.6-16-19.2-28.8-22.4-3.2 0-9.6-3.2-12.8-3.2-9.6 0-16 3.2-22.4 6.4-3.2 0-6.4 3.2-6.4 6.4 16 6.4 28.8 12.8 44.8 19.2 9.6 6.4 12.8 16 12.8 25.6-3.2 6.4-6.4 12.8-12.8 16-3.2 0-6.4 3.2-9.6 3.2s-6.4 0-9.6-3.2c-19.2-9.6-32-12.8-44.8-19.2v0zM662.4 508.8c3.2 0 6.4 0 6.4 3.2l48 38.4c3.2 3.2 3.2 3.2 6.4 3.2 6.4 0 12.8-6.4 9.6-12.8l-9.6-60.8c0-3.2 0-9.6 3.2-9.6l51.2-38.4c6.4-6.4 6.4-19.2-3.2-19.2l-64-12.8c-3.2 0-6.4-3.2-9.6-9.6l-19.2-60.8c-3.2-6.4-6.4-9.6-9.6-9.6s-6.4 3.2-9.6 6.4l-28.8 54.4c-3.2 3.2-6.4 6.4-9.6 6.4 0 0 0 0 0 0l-60.8-3.2c0 0 0 0 0 0-9.6 0-12.8 12.8-6.4 19.2l41.6 44.8c3.2 3.2 3.2 6.4 3.2 12.8l-19.2 60.8c-3.2 6.4 3.2 16 9.6 16 0 0 3.2 0 3.2 0l57.6-25.6c6.4-3.2 9.6-3.2 9.6-3.2v0z" />
<glyph unicode="&#xe64e;" glyph-name="i79-supermarket" d="M729.6 553.6l-188.8 217.6c-3.2 3.2-6.4 6.4-12.8 6.4h-80c-3.2 0-9.6-3.2-12.8-6.4l-185.6-217.6c-3.2-3.2-6.4-12.8-3.2-16 3.2-6.4 9.6-9.6 16-9.6h454.4c6.4 0 12.8 3.2 16 9.6 3.2 3.2 3.2 12.8-3.2 16zM297.6 560l160 185.6h67.2l160-185.6h-387.2zM192 419.2c-12.8-12.8-19.2-28.8-19.2-44.8v-246.4c0-16 6.4-32 19.2-41.6 12.8-12.8 25.6-19.2 44.8-19.2s32 6.4 44.8 19.2c12.8 12.8 19.2 25.6 19.2 41.6v246.4c0 19.2-6.4 32-19.2 44.8-25.6 22.4-64 22.4-89.6 0zM265.6 128c0-9.6-3.2-16-9.6-19.2-12.8-12.8-28.8-12.8-41.6 0-6.4 6.4-9.6 12.8-9.6 19.2v246.4c0 9.6 3.2 16 9.6 22.4s12.8 9.6 19.2 9.6 16-3.2 19.2-9.6c6.4-6.4 9.6-12.8 9.6-22.4v-246.4zM976 560h-137.6c0 3.2-3.2 9.6-6.4 12.8l-224 249.6c0 3.2 0 6.4 0 12.8 0 25.6-6.4 44.8-22.4 60.8-16 19.2-35.2 25.6-57.6 25.6h-73.6c-22.4 0-41.6-9.6-57.6-25.6s-22.4-38.4-22.4-60.8v-9.6l-227.2-252.8c-3.2-3.2-3.2-6.4-6.4-9.6h-96c-9.6 0-16-6.4-16-16v-121.6c0-9.6 6.4-16 16-16h16v-310.4c0-32 12.8-60.8 35.2-83.2s51.2-35.2 83.2-35.2h662.4c32 0 60.8 12.8 83.2 35.2s35.2 51.2 35.2 83.2v310.4h16c9.6 0 16 6.4 16 16v121.6c0 3.2-6.4 12.8-16 12.8zM960 435.2h-16c-9.6 0-16-6.4-16-16v-326.4c0-25.6-9.6-44.8-25.6-60.8s-35.2-25.6-57.6-25.6h-662.4c-22.4 0-41.6 9.6-57.6 25.6s-25.6 38.4-25.6 60.8v326.4c0 9.6-6.4 16-16 16h-16v89.6h89.6c6.4 0 9.6 3.2 12.8 6.4s3.2 9.6 6.4 12.8l230.4 256c3.2 3.2 3.2 6.4 3.2 9.6v16c0 16 6.4 28.8 16 41.6 9.6 9.6 19.2 16 32 16h73.6c12.8 0 25.6-6.4 35.2-16 9.6-12.8 16-25.6 16-41.6 0-3.2 0-9.6 0-12.8 0-6.4 0-9.6 3.2-16l230.4-256c0-3.2 0-3.2 0-6.4v-6.4c3.2-6.4 9.6-9.6 16-9.6h134.4v-83.2zM377.6 419.2c-12.8-12.8-19.2-28.8-19.2-44.8v-246.4c0-16 6.4-32 19.2-41.6 12.8-12.8 25.6-19.2 44.8-19.2s32 6.4 44.8 19.2c12.8 12.8 19.2 25.6 19.2 41.6v246.4c0 19.2-6.4 32-19.2 44.8-28.8 22.4-67.2 22.4-89.6 0zM448 128c0-9.6-3.2-16-9.6-19.2-12.8-12.8-28.8-12.8-41.6 0-6.4 6.4-9.6 12.8-9.6 19.2v246.4c0 9.6 3.2 16 9.6 22.4s12.8 9.6 19.2 9.6 16-3.2 19.2-9.6c6.4-6.4 9.6-12.8 9.6-22.4v-246.4zM560 419.2c-12.8-12.8-19.2-28.8-19.2-44.8v-246.4c0-16 6.4-32 19.2-41.6 12.8-12.8 25.6-19.2 44.8-19.2s32 6.4 44.8 19.2c12.8 12.8 19.2 25.6 19.2 41.6v246.4c0 19.2-6.4 32-19.2 44.8-25.6 22.4-64 22.4-89.6 0zM633.6 128c0-9.6-3.2-16-9.6-19.2-12.8-12.8-28.8-12.8-41.6 0-6.4 6.4-9.6 12.8-9.6 19.2v246.4c0 9.6 3.2 16 9.6 22.4s12.8 9.6 19.2 9.6 16-3.2 19.2-9.6c6.4-6.4 9.6-12.8 9.6-22.4v-246.4zM745.6 419.2c-12.8-12.8-19.2-28.8-19.2-44.8v-246.4c0-16 6.4-32 19.2-41.6 12.8-12.8 25.6-19.2 44.8-19.2 16 0 32 6.4 44.8 19.2s19.2 25.6 19.2 41.6v246.4c0 19.2-6.4 32-19.2 44.8-25.6 22.4-64 22.4-89.6 0zM809.6 396.8c6.4-6.4 9.6-12.8 9.6-22.4v-246.4c0-9.6-3.2-16-9.6-19.2-12.8-12.8-28.8-12.8-41.6 0-6.4 6.4-9.6 12.8-9.6 19.2v246.4c0 9.6 3.2 16 9.6 22.4s12.8 9.6 19.2 9.6 16-3.2 22.4-9.6z" />
<glyph unicode="&#xe64f;" glyph-name="i80-online-delivery" d="M678.4 473.6c0 9.6-6.4 16-16 16h-300.8c-9.6 0-16-6.4-16-16s6.4-16 16-16h300.8c9.6 0 16 6.4 16 16zM860.8 640h-35.2v182.4c0 76.8-41.6 115.2-115.2 115.2h-400c-76.8 0-115.2-41.6-115.2-115.2v-182.4h-38.4c-73.6 0-112-41.6-112-115.2 0 0 0 0 0 0v-448c0-76.8 41.6-115.2 115.2-115.2h700.8c73.6 3.2 112 41.6 112 115.2v448c0 0 0 0 0 0 3.2 73.6-35.2 115.2-112 115.2zM828.8 608h35.2c54.4 0 80-22.4 83.2-76.8l-118.4-89.6v166.4zM227.2 822.4c0 57.6 25.6 83.2 83.2 83.2h400c57.6 0 83.2-25.6 83.2-83.2v-406.4l-284.8-220.8-284.8 220.8v406.4zM160 608h38.4v-166.4l-118.4 89.6c0 51.2 25.6 73.6 80 76.8zM944 73.6c0-57.6-25.6-83.2-80-83.2h-700.8c-57.6 0-83.2 25.6-83.2 83.2v416l124.8-96c0 0 0 0 0 0l300.8-233.6c6.4-3.2 12.8-3.2 19.2 0l300.8 233.6c0 0 0 0 0 0l124.8 96v-416zM361.6 758.4h198.4c9.6 0 16 6.4 16 16s-6.4 16-16 16h-198.4c-9.6 0-16-6.4-16-16s6.4-16 16-16zM361.6 608h300.8c9.6 0 16 6.4 16 16s-6.4 16-16 16h-300.8c-9.6 0-16-6.4-16-16s6.4-16 16-16z" />
<glyph unicode="&#xe650;" glyph-name="i81-puzzle" d="M620.8 32h-412.8c-73.6 0-112 38.4-112 112v108.8c0 6.4 3.2 12.8 9.6 12.8 6.4 3.2 12.8 3.2 16-3.2 19.2-12.8 38.4-22.4 64-22.4 28.8 0 54.4 9.6 73.6 32 22.4 22.4 32 44.8 32 73.6s-9.6 54.4-32 73.6c-19.2 19.2-44.8 32-73.6 32-25.6 0-44.8-6.4-64-22.4-3.2-3.2-12.8-3.2-16-3.2s-9.6 9.6-9.6 12.8v108.8c0 73.6 38.4 112 112 112h80c-6.4 16-12.8 35.2-12.8 57.6 0 38.4 12.8 70.4 38.4 96 28.8 25.6 60.8 41.6 96 41.6 38.4 0 70.4-12.8 96-38.4 28.8-28.8 41.6-60.8 41.6-96 0-19.2-3.2-38.4-12.8-57.6h80c73.6 0 112-38.4 112-112v-80c16 6.4 35.2 12.8 57.6 12.8 38.4 0 70.4-12.8 96-38.4 28.8-28.8 41.6-60.8 41.6-96 0-38.4-12.8-70.4-41.6-96-25.6-25.6-57.6-41.6-96-41.6-19.2 0-38.4 3.2-57.6 12.8v-80c6.4-73.6-32-112-105.6-112zM128 227.2v-80c0-57.6 25.6-80 80-80h412.8c57.6 0 80 25.6 80 80v105.6c0 6.4 3.2 12.8 9.6 12.8 6.4 3.2 12.8 3.2 16-3.2 19.2-12.8 38.4-22.4 64-22.4 28.8 0 54.4 9.6 73.6 32 22.4 22.4 32 44.8 32 73.6s-9.6 54.4-32 73.6c-19.2 19.2-44.8 32-73.6 32-25.6 0-44.8-6.4-64-22.4-6.4-3.2-12.8-3.2-16-3.2-6.4 3.2-9.6 9.6-9.6 12.8v108.8c0 57.6-25.6 80-80 80h-108.8c-6.4 0-12.8 3.2-16 9.6s-3.2 12.8 3.2 16c16 19.2 22.4 38.4 22.4 64 0 28.8-9.6 54.4-32 73.6-19.2 19.2-44.8 32-73.6 32s-54.4-9.6-73.6-32c-19.2-22.4-28.8-44.8-28.8-73.6 0-25.6 6.4-44.8 22.4-64 3.2-6.4 3.2-12.8 3.2-16s-9.6-9.6-12.8-9.6h-108.8c-57.6 0-80-25.6-80-80v-80c16 6.4 35.2 12.8 57.6 12.8 38.4 0 70.4-12.8 96-38.4 28.8-28.8 41.6-60.8 41.6-96 0-38.4-12.8-70.4-41.6-96-25.6-25.6-57.6-41.6-96-41.6-32 6.4-51.2 9.6-67.2 19.2z" />
<glyph unicode="&#xe651;" glyph-name="i82-contact" d="M512 931.2c-220.8 0-454.4-134.4-454.4-505.6 0-28.8 3.2-57.6 6.4-86.4 0 0 0 0 0-3.2 12.8-89.6 41.6-156.8 92.8-198.4 70.4-60.8 147.2-51.2 150.4-51.2 6.4 0 12.8 6.4 12.8 16v374.4c0 16-6.4 28.8-19.2 38.4s-28.8 12.8-41.6 9.6c-51.2-12.8-128-38.4-169.6-96 3.2 294.4 160 467.2 422.4 467.2s422.4-176 422.4-467.2c-41.6 57.6-118.4 86.4-169.6 96-16 3.2-32 0-41.6-9.6-12.8-9.6-19.2-25.6-19.2-38.4v-374.4c0-9.6 6.4-16 12.8-16 0 0 6.4 0 16 0 3.2 0 9.6 0 16 0-38.4-19.2-80-35.2-128-41.6v3.2c0 22.4-19.2 38.4-38.4 38.4h-131.2c-22.4 0-38.4-19.2-38.4-38.4v-44.8c0-22.4 19.2-38.4 38.4-38.4h131.2c22.4 0 38.4 19.2 38.4 38.4v9.6c121.6 16 211.2 76.8 265.6 140.8 0 0 3.2 3.2 3.2 3.2 3.2 3.2 3.2 3.2 6.4 6.4 3.2 6.4 9.6 9.6 12.8 16 19.2 28.8 32 54.4 38.4 76.8 0 0 0 0 0 0 9.6 25.6 12.8 51.2 19.2 80 0 0 0 0 0 0 3.2 25.6 6.4 54.4 6.4 86.4-6.4 374.4-240 508.8-460.8 508.8zM265.6 496c6.4 0 12.8 0 16-3.2s6.4-9.6 6.4-16v-358.4c-22.4 0-70.4 6.4-112 44.8s-70.4 96-80 179.2c-3.2 102.4 105.6 140.8 169.6 153.6zM588.8 3.2c0-3.2-3.2-6.4-6.4-6.4h-131.2c-3.2 0-6.4 3.2-6.4 6.4v44.8c0 3.2 3.2 6.4 6.4 6.4h131.2c3.2 0 6.4-3.2 6.4-6.4v-44.8zM892.8 217.6c-9.6-16-22.4-28.8-35.2-44.8-3.2-3.2-3.2-3.2-6.4-6.4-41.6-38.4-89.6-41.6-112-44.8v358.4c0 6.4 3.2 12.8 6.4 16s6.4 3.2 12.8 3.2c0 0 3.2 0 3.2 0 64-12.8 169.6-54.4 172.8-156.8-9.6-51.2-22.4-92.8-41.6-124.8z" />
<glyph unicode="&#xe652;" glyph-name="i83-showroom" d="M896 787.2h-768c-9.6 0-16-6.4-16-16v-646.4c0-9.6 6.4-16 16-16h416c9.6 0 16 6.4 16 16v297.6h192v-297.6c0-9.6 6.4-16 16-16h131.2c9.6 0 16 6.4 16 16v643.2c-3.2 9.6-9.6 19.2-19.2 19.2zM784 140.8v297.6c0 9.6-6.4 16-16 16h-224c-9.6 0-16-6.4-16-16v-297.6h-384v454.4h739.2v-454.4h-99.2zM409.6 454.4h-156.8c-9.6 0-16-6.4-16-16v-156.8c0-9.6 6.4-16 16-16h156.8c9.6 0 16 6.4 16 16v156.8c0 9.6-6.4 16-16 16zM393.6 300.8h-124.8v124.8h124.8v-124.8z" />
<glyph unicode="&#xe653;" glyph-name="i84-shopping-list" d="M252.8 627.2h134.4c9.6 0 16 6.4 16 16s-6.4 16-16 16h-134.4c-9.6 0-16-6.4-16-16s6.4-16 16-16zM265.6 492.8h-12.8c-9.6 0-16-6.4-16-16s6.4-16 16-16h192c9.6 0 16 6.4 16 16s-6.4 16-16 16h-179.2zM633.6 336h-380.8c-9.6 0-16-6.4-16-16s6.4-16 16-16h380.8c9.6 0 16 6.4 16 16s-6.4 16-16 16zM633.6 169.6h-380.8c-9.6 0-16-6.4-16-16s6.4-16 16-16h380.8c9.6 0 16 6.4 16 16s-6.4 16-16 16zM700.8 921.6c-128 0-233.6-105.6-233.6-233.6s105.6-233.6 233.6-233.6 233.6 105.6 233.6 233.6-105.6 233.6-233.6 233.6zM812.8 732.8l-124.8-124.8c-3.2-3.2-6.4-3.2-12.8-3.2s-9.6 0-12.8 3.2l-76.8 76.8c-6.4 6.4-6.4 16 0 22.4s16 6.4 22.4 0l64-64 112 112c6.4 6.4 16 6.4 22.4 0s12.8-16 6.4-22.4zM764.8 6.4h-643.2v851.2h313.6c6.4 9.6 16 22.4 22.4 32h-352c-9.6 0-16-6.4-16-16v-883.2c0-9.6 6.4-16 16-16h675.2c9.6 0 16 6.4 16 16v400c-9.6-3.2-22.4-6.4-32-9.6v-374.4z" />
<glyph unicode="&#xe654;" glyph-name="i85-specs" d="M329.6 691.2c-16 0-32-6.4-44.8-16s-19.2-25.6-16-44.8c0-16 6.4-32 16-44.8s25.6-19.2 44.8-19.2c16 0 32 6.4 44.8 19.2s19.2 25.6 19.2 44.8c0 16-6.4 32-19.2 44.8s-28.8 16-44.8 16zM329.6 326.4c-16 0-32-6.4-44.8-16s-19.2-25.6-16-44.8c0-16 6.4-32 16-44.8 12.8-12.8 25.6-19.2 44.8-19.2 16 0 32 6.4 44.8 19.2s19.2 25.6 19.2 44.8c0 16-6.4 32-19.2 44.8s-28.8 16-44.8 16zM329.6 508.8c-16 0-32-6.4-44.8-16s-19.2-25.6-16-44.8c0-16 6.4-32 16-44.8 12.8-12.8 25.6-19.2 44.8-19.2 16 0 32 6.4 44.8 19.2s19.2 25.6 19.2 44.8c0 16-6.4 32-19.2 44.8s-28.8 16-44.8 16zM755.2 268.8h-256c-9.6 0-16-6.4-16-16s6.4-16 16-16h256c9.6 0 16 6.4 16 16s-6.4 16-16 16zM777.6 828.8h-534.4c-73.6 0-112-38.4-112-112v-534.4c0-73.6 38.4-112 112-112h534.4c73.6 0 112 38.4 112 112v534.4c3.2 73.6-38.4 112-112 112zM860.8 182.4c0-57.6-25.6-80-80-80h-534.4c-57.6 0-80 25.6-80 80v534.4c0 57.6 25.6 80 80 80h534.4c57.6 0 80-25.6 80-80v-534.4zM755.2 659.2h-256c-9.6 0-16-6.4-16-16s6.4-16 16-16h256c9.6 0 16 6.4 16 16s-6.4 16-16 16zM755.2 464h-256c-9.6 0-16-6.4-16-16s6.4-16 16-16h256c9.6 0 16 6.4 16 16s-6.4 16-16 16z" />
<glyph unicode="&#xe655;" glyph-name="i86-same-day" d="M489.6 166.4h60.8l3.2 3.2v236.8h-48c-3.2-6.4-6.4-12.8-6.4-16-6.4-3.2-9.6-6.4-12.8-12.8-6.4-3.2-12.8-3.2-19.2-6.4h-25.6v-44.8h44.8v-160zM774.4 800h-32v32c0 9.6-6.4 16-16 16s-16-6.4-16-16v-32h-400v32c0 9.6-6.4 16-16 16s-16-6.4-16-16v-32h-32c-73.6 0-112-38.4-112-112v-528c0-73.6 38.4-112 112-112h528c73.6 0 112 38.4 112 112v528c0 73.6-38.4 112-112 112zM854.4 160c0-54.4-25.6-80-80-80h-528c-54.4 0-80 25.6-80 80v368h688v-368zM854.4 560h-688v128c0 54.4 25.6 80 80 80h32v-32c0-9.6 6.4-16 16-16s16 6.4 16 16v32h400v-32c0-9.6 6.4-16 16-16s16 6.4 16 16v32h32c54.4 0 80-25.6 80-80v-128z" />
<glyph unicode="&#xe656;" glyph-name="i87-2h" d="M662.4 627.2v105.6h-64v-288h60.8l3.2 3.2v118.4h112v-121.6h64l3.2 3.2v288h-64v-108.8h-112zM531.2 528c0 16 0 32-3.2 54.4 0 22.4-3.2 44.8-9.6 64s-16 35.2-28.8 48c-35.2 25.6-80 41.6-134.4 38.4-57.6 3.2-102.4-9.6-134.4-38.4-12.8-16-22.4-32-28.8-51.2-6.4-22.4-9.6-44.8-9.6-73.6v-25.6l112 3.2 3.2 44.8c0 12.8 3.2 25.6 6.4 35.2s9.6 16 19.2 22.4c6.4 3.2 19.2 6.4 35.2 6.4s32-3.2 41.6-12.8c3.2-9.6 6.4-25.6 9.6-51.2v-38.4l-6.4-35.2-19.2-25.6-76.8-76.8c-25.6-16-44.8-35.2-57.6-57.6-12.8-19.2-25.6-38.4-35.2-60.8-9.6-19.2-19.2-41.6-22.4-64s-6.4-44.8-6.4-70.4v-3.2h348.8l3.2 3.2v89.6h-217.6l6.4 6.4 12.8 25.6c12.8 19.2 25.6 35.2 41.6 48l105.6 105.6c12.8 16 19.2 28.8 25.6 44.8s12.8 28.8 19.2 44.8z" />
<glyph unicode="&#xe657;" glyph-name="i88-warranty" d="M768 832h-512c-25.6 0-48-22.4-48-48v-512c0-25.6 22.4-48 48-48h64v32h-64c-9.6 0-16 6.4-16 16v512c0 9.6 6.4 16 16 16h512c9.6 0 16-6.4 16-16v-512c0-9.6-6.4-16-16-16h-67.2v-32h67.2c25.6 0 48 22.4 48 48v512c0 25.6-22.4 48-48 48zM579.2 278.4c28.8 19.2 44.8 54.4 44.8 89.6 0 60.8-51.2 112-112 112s-112-51.2-112-112c0-35.2 19.2-67.2 44.8-89.6l-92.8-192c-3.2-6.4-3.2-9.6 0-16 3.2-3.2 9.6-6.4 12.8-6.4h96c6.4 0 12.8 3.2 16 9.6l32 83.2 32-83.2c3.2-6.4 9.6-9.6 16-9.6h96c6.4 0 9.6 3.2 12.8 6.4s3.2 9.6 0 16l-86.4 192zM432 368c0 44.8 35.2 80 80 80s80-35.2 80-80-35.2-80-80-80-80 35.2-80 80zM569.6 96l-44.8 112c-6.4 12.8-25.6 12.8-28.8 0l-44.8-112h-60.8l80 166.4c12.8-3.2 25.6-6.4 38.4-6.4s25.6 3.2 38.4 6.4l80-166.4h-57.6zM384 640h259.2c9.6 0 16 6.4 16 16s-6.4 16-16 16h-259.2c-9.6 0-16-6.4-16-16s6.4-16 16-16zM384 544h259.2c9.6 0 16 6.4 16 16s-6.4 16-16 16h-259.2c-9.6 0-16-6.4-16-16s6.4-16 16-16z" />
<glyph unicode="&#xe658;" glyph-name="i89-exclusive" d="M646.4 563.2c-12.8 16-32 28.8-54.4 41.6-12.8 3.2-25.6 9.6-38.4 9.6-12.8 3.2-28.8 3.2-41.6 3.2s-28.8 0-38.4-3.2c-12.8-3.2-22.4-6.4-32-9.6-12.8-3.2-22.4-9.6-28.8-12.8-9.6-6.4-19.2-12.8-25.6-22.4-19.2-16-28.8-35.2-38.4-54.4-3.2-9.6-9.6-22.4-9.6-35.2-3.2-12.8-3.2-22.4-3.2-35.2s0-25.6 3.2-38.4c3.2-12.8 6.4-22.4 9.6-35.2 6.4-22.4 19.2-38.4 38.4-54.4 6.4-6.4 16-12.8 25.6-19.2 9.6-3.2 22.4-9.6 35.2-12.8 9.6-3.2 22.4-3.2 35.2-6.4s25.6-3.2 38.4-3.2c19.2 0 35.2 0 51.2 3.2s28.8 6.4 41.6 12.8l32 22.4v3.2l-54.4 67.2c-9.6-3.2-16-6.4-22.4-9.6-12.8-3.2-25.6-6.4-41.6-6.4-19.2 0-35.2 6.4-44.8 12.8s-19.2 16-25.6 28.8l230.4 3.2c3.2 44.8 0 83.2-16 115.2-6.4 12.8-16 25.6-25.6 35.2zM451.2 476.8c6.4 19.2 12.8 32 22.4 38.4 9.6 9.6 19.2 16 38.4 16 16 0 32-6.4 41.6-16s12.8-22.4 16-38.4h-118.4zM844.8 454.4l-73.6 99.2-19.2 121.6c0 6.4-6.4 12.8-12.8 12.8l-121.6 19.2-99.2 73.6c-6.4 3.2-12.8 3.2-19.2 0l-99.2-73.6-121.6-19.2c-6.4 0-12.8-6.4-12.8-12.8l-19.2-121.6-73.6-99.2c-3.2-6.4-3.2-12.8 0-19.2l73.6-96 19.2-121.6c0-6.4 6.4-12.8 12.8-12.8l121.6-19.2 99.2-73.6c3.2-3.2 6.4-3.2 9.6-3.2s6.4 0 9.6 3.2l99.2 73.6 121.6 19.2c6.4 0 12.8 6.4 12.8 12.8l19.2 121.6 73.6 96c3.2 6.4 3.2 16 0 19.2zM745.6 355.2c0-3.2-3.2-3.2-3.2-6.4l-19.2-112-112-19.2c-3.2 0-6.4 0-6.4-3.2l-92.8-67.2-92.8 67.2c-3.2 0-3.2 3.2-6.4 3.2l-112 19.2-19.2 112c0 3.2 0 6.4-3.2 6.4l-67.2 89.6 67.2 92.8c0 3.2 3.2 3.2 3.2 6.4l19.2 112 112 19.2c3.2 0 6.4 0 6.4 3.2l92.8 67.2 92.8-67.2c3.2 0 3.2-3.2 6.4-3.2l112-19.2 19.2-112c0-3.2 0-6.4 3.2-6.4l67.2-92.8-67.2-89.6z" />
<glyph unicode="&#xe659;" glyph-name="i90-star" d="M294.4 99.2c-3.2 0-6.4 0-9.6 3.2-6.4 3.2-6.4 9.6-6.4 16l48 236.8-176 160c-3.2 3.2-6.4 9.6-3.2 16s6.4 9.6 12.8 9.6l240 28.8 99.2 217.6c3.2 6.4 9.6 9.6 16 9.6 0 0 0 0 0 0 6.4 0 12.8-3.2 16-9.6l102.4-217.6 236.8-28.8c6.4 0 12.8-6.4 12.8-9.6s0-12.8-3.2-16l-172.8-160 44.8-236.8c0-6.4 0-12.8-6.4-16s-12.8-3.2-16 0l-211.2 115.2-211.2-115.2c-6.4-3.2-9.6-3.2-12.8-3.2zM512 249.6c3.2 0 6.4 0 6.4-3.2l188.8-102.4-38.4 211.2c0 6.4 0 9.6 6.4 16l153.6 144-211.2 25.6c-6.4 0-9.6 3.2-12.8 9.6l-89.6 195.2-89.6-195.2c-3.2-6.4-6.4-9.6-12.8-9.6l-214.4-25.6 156.8-144c3.2-3.2 6.4-9.6 6.4-16l-41.6-211.2 188.8 102.4c-3.2 3.2 0 3.2 3.2 3.2z" />
</font>
</defs>
</svg>
