<?xml version="1.0" standalone="no"?>
<!DOCTYPE svg PUBLIC "-//W3C//DTD SVG 1.1//EN" "http://www.w3.org/Graphics/SVG/1.1/DTD/svg11.dtd" >
<svg xmlns="http://www.w3.org/2000/svg">
<metadata>Generated by IcoMoon</metadata>
<defs>
<font id="layout-bold" horiz-adv-x="1024">
<font-face units-per-em="1024" ascent="960" descent="-64" />
<missing-glyph horiz-adv-x="1024" />
<glyph unicode="&#x20;" horiz-adv-x="512" d="" />
<glyph unicode="&#xe600;" glyph-name="i01-home" d="M534.4 726.4c-12.8 12.8-32 12.8-44.8 0l-358.4-336c-6.4-6.4-9.6-16-9.6-22.4v-336c0-19.2 12.8-32 32-32h252.8c19.2 0 32 12.8 32 32v236.8h150.4v-236.8c0-19.2 12.8-32 32-32h252.8c19.2 0 32 12.8 32 32v336c0 9.6-3.2 16-9.6 22.4l-361.6 336zM1001.6 457.6l-169.6 153.6v233.6c0 19.2-12.8 32-32 32h-131.2c-19.2 0-32-12.8-32-32v-54.4l-105.6 96c-12.8 12.8-32 12.8-44.8 0l-464-428.8c-12.8-12.8-12.8-32-3.2-44.8s32-12.8 44.8-3.2l448 409.6 448-409.6c6.4-6.4 12.8-9.6 22.4-9.6s16 3.2 22.4 9.6c9.6 16 9.6 35.2-3.2 48z" />
<glyph unicode="&#xe601;" glyph-name="i02-cart" d="M448 214.4c-19.2 0-35.2-6.4-48-19.2s-19.2-28.8-19.2-48c0-19.2 6.4-35.2 19.2-48s28.8-19.2 48-19.2c19.2 0 35.2 6.4 48 19.2s19.2 28.8 19.2 48c0 19.2-6.4 35.2-19.2 48-9.6 12.8-25.6 19.2-48 19.2zM812.8 214.4c-19.2 0-35.2-6.4-48-19.2s-19.2-28.8-19.2-48c0-19.2 6.4-35.2 19.2-48s28.8-19.2 48-19.2c19.2 0 35.2 6.4 48 19.2s19.2 28.8 19.2 48c0 19.2-6.4 35.2-19.2 48s-28.8 19.2-48 19.2zM892.8 320h-512l-192 480c-6.4 12.8-16 19.2-28.8 19.2h-92.8c-19.2 0-32-12.8-32-32s12.8-32 32-32h70.4l192-480c6.4-12.8 16-19.2 28.8-19.2h534.4c19.2 0 32 12.8 32 32s-16 32-32 32zM982.4 755.2c-6.4 6.4-16 12.8-25.6 12.8h-630.4c-9.6 0-19.2-6.4-25.6-12.8-6.4-9.6-6.4-19.2-6.4-28.8l102.4-336c3.2-12.8 16-22.4 32-22.4h448c16 0 28.8 9.6 32 25.6l83.2 336c0 9.6-3.2 19.2-9.6 25.6z" />
<glyph unicode="&#xe602;" glyph-name="i03-cart-express" d="M457.6 214.4c-19.2 0-35.2-6.4-48-19.2s-19.2-28.8-19.2-48c0-19.2 6.4-35.2 19.2-48s28.8-19.2 48-19.2c19.2 0 35.2 6.4 48 19.2s19.2 28.8 19.2 48c0 19.2-6.4 35.2-19.2 48s-28.8 19.2-48 19.2zM819.2 214.4c-19.2 0-35.2-6.4-48-19.2s-19.2-28.8-19.2-48c0-19.2 6.4-35.2 19.2-48s28.8-19.2 48-19.2c19.2 0 35.2 6.4 48 19.2s19.2 28.8 19.2 48c0 19.2-6.4 35.2-19.2 48s-28.8 19.2-48 19.2zM899.2 320h-512l-192 480c-6.4 12.8-16 19.2-28.8 19.2h-92.8c-19.2 0-32-12.8-32-32s12.8-32 32-32h70.4l192-480c6.4-12.8 16-19.2 28.8-19.2h534.4c19.2 0 32 12.8 32 32s-16 32-32 32zM988.8 755.2c-6.4 6.4-16 12.8-25.6 12.8h-630.4c-9.6 0-19.2-6.4-25.6-12.8-6.4-9.6-6.4-19.2-6.4-28.8l102.4-336c3.2-12.8 16-22.4 32-22.4h448c16 0 28.8 9.6 32 25.6l83.2 336c0 9.6-3.2 19.2-9.6 25.6zM163.2 537.6c19.2 0 32 12.8 32 32s-12.8 32-32 32h-102.4c-19.2 0-32-12.8-32-32s12.8-32 32-32h102.4zM195.2 441.6c19.2 0 32 12.8 32 32s-12.8 32-32 32h-102.4c-19.2 0-32-12.8-32-32s12.8-32 32-32h102.4zM227.2 409.6h-102.4c-19.2 0-32-12.8-32-32s12.8-32 32-32h102.4c19.2 0 32 12.8 32 32s-16 32-32 32z" />
<glyph unicode="&#xe603;" glyph-name="i04-cart-add" d="M448 214.4c-19.2 0-35.2-6.4-48-19.2s-19.2-28.8-19.2-48c0-19.2 6.4-35.2 19.2-48s28.8-19.2 48-19.2c19.2 0 35.2 6.4 48 19.2s19.2 28.8 19.2 48c0 19.2-6.4 35.2-19.2 48-9.6 12.8-25.6 19.2-48 19.2zM812.8 214.4c-19.2 0-35.2-6.4-48-19.2s-19.2-28.8-19.2-48c0-19.2 6.4-35.2 19.2-48s28.8-19.2 48-19.2c19.2 0 35.2 6.4 48 19.2s19.2 28.8 19.2 48c0 19.2-6.4 35.2-19.2 48s-28.8 19.2-48 19.2zM892.8 320h-512l-192 480c-6.4 12.8-16 19.2-28.8 19.2h-92.8c-19.2 0-32-12.8-32-32s12.8-32 32-32h70.4l192-480c6.4-12.8 16-19.2 28.8-19.2h534.4c19.2 0 32 12.8 32 32s-16 32-32 32zM982.4 755.2c-6.4 6.4-16 12.8-25.6 12.8h-630.4c-9.6 0-19.2-6.4-25.6-12.8-6.4-9.6-6.4-19.2-6.4-28.8l102.4-336c3.2-12.8 16-22.4 32-22.4h448c16 0 28.8 9.6 32 25.6l83.2 336c0 9.6-3.2 19.2-9.6 25.6zM739.2 569.6l-80-80c0 0 0 0 0 0s0 0 0 0 0 0 0 0 0 0 0 0 0 0 0 0 0 0 0 0 0 0 0 0c-3.2-3.2-3.2-3.2-6.4-3.2 0 0 0 0 0 0s-3.2 0-3.2 0c0 0 0 0 0 0s0 0 0 0v0c0 0 0 0 0 0s0 0 0 0 0 0-3.2 0-3.2 0-6.4 0c0 0 0 0 0 0v0c0 0 0 0 0 0v0c0 0 0 0 0 0s0 0 0 0 0 0 0 0 0 0 0 0v0 0c-3.2 0-3.2 3.2-6.4 3.2l-80 80c-6.4 6.4-6.4 16 0 22.4s16 6.4 22.4 0l54.4-54.4v124.8c0 9.6 6.4 16 16 16s16-6.4 16-16v-124.8l54.4 54.4c6.4 6.4 16 6.4 22.4 0 3.2-3.2 3.2-6.4 3.2-12.8s0-6.4-3.2-9.6z" />
<glyph unicode="&#xe604;" glyph-name="i05-cart-success" d="M448 214.4c-19.2 0-35.2-6.4-48-19.2s-19.2-28.8-19.2-48c0-19.2 6.4-35.2 19.2-48s28.8-19.2 48-19.2c19.2 0 35.2 6.4 48 19.2s19.2 28.8 19.2 48c0 19.2-6.4 35.2-19.2 48-9.6 12.8-25.6 19.2-48 19.2zM812.8 214.4c-19.2 0-35.2-6.4-48-19.2s-19.2-28.8-19.2-48c0-19.2 6.4-35.2 19.2-48s28.8-19.2 48-19.2c19.2 0 35.2 6.4 48 19.2s19.2 28.8 19.2 48c0 19.2-6.4 35.2-19.2 48s-28.8 19.2-48 19.2zM892.8 320h-512l-192 480c-6.4 12.8-16 19.2-28.8 19.2h-92.8c-19.2 0-32-12.8-32-32s12.8-32 32-32h70.4l192-480c6.4-12.8 16-19.2 28.8-19.2h534.4c19.2 0 32 12.8 32 32s-16 32-32 32zM982.4 755.2c-6.4 6.4-16 12.8-25.6 12.8h-630.4c-9.6 0-19.2-6.4-25.6-12.8-6.4-9.6-6.4-19.2-6.4-28.8l102.4-336c3.2-12.8 16-22.4 32-22.4h448c16 0 28.8 9.6 32 25.6l83.2 336c0 9.6-3.2 19.2-9.6 25.6zM780.8 624l-128-128c-3.2-3.2-6.4-3.2-12.8-3.2s-9.6 3.2-12.8 3.2l-80 80c-6.4 6.4-6.4 16 0 22.4s16 6.4 22.4 0l67.2-67.2 118.4 118.4c6.4 6.4 16 6.4 22.4 0s9.6-19.2 3.2-25.6z" />
<glyph unicode="&#xe605;" glyph-name="i06-cart-error" d="M982.4 755.2c-6.4 6.4-16 12.8-25.6 12.8h-630.4c-9.6 0-19.2-6.4-25.6-12.8-6.4-9.6-6.4-19.2-6.4-28.8l102.4-336c3.2-12.8 16-22.4 32-22.4h448c16 0 28.8 9.6 32 25.6l83.2 336c0 9.6-3.2 19.2-9.6 25.6zM710.4 531.2c6.4-6.4 6.4-16 0-22.4-3.2-3.2-6.4-3.2-12.8-3.2s-9.6 0-12.8 3.2l-48 48-48-48c-3.2-3.2-6.4-3.2-12.8-3.2s-9.6 0-12.8 3.2c-6.4 6.4-6.4 16 0 22.4l48 48-48 48c-6.4 6.4-6.4 16 0 22.4s16 6.4 22.4 0l48-48 48 48c6.4 6.4 16 6.4 22.4 0s6.4-16 0-22.4l-48-48 54.4-48zM448 214.4c-19.2 0-35.2-6.4-48-19.2s-19.2-28.8-19.2-48c0-19.2 6.4-35.2 19.2-48s28.8-19.2 48-19.2c19.2 0 35.2 6.4 48 19.2s19.2 28.8 19.2 48c0 19.2-6.4 35.2-19.2 48-9.6 12.8-25.6 19.2-48 19.2zM812.8 214.4c-19.2 0-35.2-6.4-48-19.2s-19.2-28.8-19.2-48c0-19.2 6.4-35.2 19.2-48s28.8-19.2 48-19.2c19.2 0 35.2 6.4 48 19.2s19.2 28.8 19.2 48c0 19.2-6.4 35.2-19.2 48s-28.8 19.2-48 19.2zM892.8 320h-512l-192 480c-6.4 12.8-16 19.2-28.8 19.2h-92.8c-19.2 0-32-12.8-32-32s12.8-32 32-32h70.4l192-480c6.4-12.8 16-19.2 28.8-19.2h534.4c19.2 0 32 12.8 32 32s-16 32-32 32z" />
<glyph unicode="&#xe606;" glyph-name="i07-cart-proceed" d="M448 214.4c-19.2 0-35.2-6.4-48-19.2s-19.2-28.8-19.2-48c0-19.2 6.4-35.2 19.2-48s28.8-19.2 48-19.2c19.2 0 35.2 6.4 48 19.2s19.2 28.8 19.2 48c0 19.2-6.4 35.2-19.2 48-9.6 12.8-25.6 19.2-48 19.2zM812.8 214.4c-19.2 0-35.2-6.4-48-19.2s-19.2-28.8-19.2-48c0-19.2 6.4-35.2 19.2-48s28.8-19.2 48-19.2c19.2 0 35.2 6.4 48 19.2s19.2 28.8 19.2 48c0 19.2-6.4 35.2-19.2 48s-28.8 19.2-48 19.2zM892.8 320h-512l-192 480c-6.4 12.8-16 19.2-28.8 19.2h-92.8c-19.2 0-32-12.8-32-32s12.8-32 32-32h70.4l192-480c6.4-12.8 16-19.2 28.8-19.2h534.4c19.2 0 32 12.8 32 32s-16 32-32 32zM982.4 755.2c-6.4 6.4-16 12.8-25.6 12.8h-630.4c-9.6 0-19.2-6.4-25.6-12.8-6.4-9.6-6.4-19.2-6.4-28.8l102.4-336c3.2-12.8 16-22.4 32-22.4h448c16 0 28.8 9.6 32 25.6l83.2 336c0 9.6-3.2 19.2-9.6 25.6zM745.6 582.4c0 0 0 0 0 0 0-6.4-3.2-9.6-3.2-12.8 0 0 0 0 0 0s0 0 0 0l-80-80c-3.2-3.2-6.4-3.2-12.8-3.2s-9.6 0-12.8 3.2c-6.4 6.4-6.4 16 0 22.4l54.4 54.4h-124.8c-9.6 0-16 6.4-16 16s6.4 16 16 16h124.8l-54.4 54.4c-3.2 3.2-3.2 6.4-3.2 12.8s0 9.6 3.2 12.8c6.4 6.4 16 6.4 22.4 0l80-80c0 0 0 0 0 0v0c0 0 0 0 0 0s0 0 0 0v0c3.2-9.6 6.4-12.8 6.4-16 0 0 0 0 0 0z" />
<glyph unicode="&#xe607;" glyph-name="i08-cart-bag" d="M880 633.6c0 16-16 32-32 32h-150.4v70.4c0 102.4-83.2 185.6-185.6 185.6s-185.6-83.2-185.6-185.6v-73.6h-150.4c-16 0-32-12.8-32-32l-28.8-620.8c0-9.6 3.2-16 9.6-22.4s16-9.6 22.4-9.6h729.6c9.6 0 16 3.2 22.4 9.6s9.6 16 9.6 22.4l-28.8 624zM390.4 736c0 67.2 54.4 121.6 121.6 121.6s121.6-54.4 121.6-121.6v-73.6h-240v73.6h-3.2z" />
<glyph unicode="&#xe608;" glyph-name="i09-cart-basket" d="M908.8 598.4h-80l-140.8 227.2c-9.6 16-28.8 19.2-44.8 9.6s-19.2-28.8-9.6-44.8l118.4-192h-473.6l118.4 192c9.6 16 3.2 35.2-9.6 44.8-16 9.6-35.2 3.2-44.8-9.6l-140.8-227.2h-86.4c-32 0-57.6-22.4-57.6-51.2v-80c0-19.2 12.8-32 32-32h848c19.2 0 32 12.8 32 32v80c0 28.8-25.6 51.2-60.8 51.2zM867.2 406.4h-700.8c-9.6 0-19.2-3.2-25.6-12.8-6.4-6.4-9.6-19.2-6.4-28.8l67.2-288c3.2-16 16-25.6 32-25.6h560c16 0 28.8 9.6 32 25.6l67.2 288c3.2 9.6 0 19.2-6.4 28.8-3.2 6.4-9.6 12.8-19.2 12.8zM364.8 169.6c0 0-3.2 0 0 0-19.2 0-32 12.8-35.2 28.8l-6.4 134.4c0 19.2 12.8 32 28.8 35.2 19.2 0 32-12.8 35.2-28.8l6.4-134.4c0-19.2-12.8-35.2-28.8-35.2zM560 188.8c0-19.2-12.8-32-32-32s-32 12.8-32 32v150.4c0 19.2 12.8 32 32 32s32-12.8 32-32v-150.4zM716.8 198.4c0-16-16-28.8-32-28.8 0 0 0 0-3.2 0-19.2 0-32 16-28.8 35.2l6.4 134.4c0 19.2 16 32 35.2 28.8 19.2 0 32-16 28.8-35.2l-6.4-134.4z" />
<glyph unicode="&#xe609;" glyph-name="i10-search" d="M889.6 118.4l-153.6 140.8c54.4 60.8 86.4 140.8 86.4 227.2 0 192-156.8 348.8-348.8 348.8s-348.8-156.8-348.8-348.8 156.8-348.8 348.8-348.8c80 0 156.8 28.8 214.4 76.8l156.8-144c6.4-6.4 12.8-9.6 22.4-9.6s16 3.2 22.4 9.6c12.8 16 12.8 35.2 0 48zM473.6 275.2c-19.2 0-32 12.8-32 32s12.8 32 32 32c83.2 0 147.2 67.2 147.2 147.2 0 19.2 12.8 32 32 32s32-12.8 32-32c0-118.4-96-211.2-211.2-211.2z" />
<glyph unicode="&#xe60a;" glyph-name="i11-user" d="M859.808 209.76c-39.584 25.792-93.536 55.104-158.56 86.24l-37.728 21.088c-5.6 5.184-10.176 11.264-13.536 18.336-4.256 9.376-9.184 26.56-10.432 56.896 15.744 15.616 28.224 39.072 37.728 70.688 5.984 17.856 9.824 28.256 12.192 34.24l13.408 4.64c2.592 0.896 5.056 2.112 7.328 3.648 20.16 13.472 31.68 37.92 35.2 73.664 1.728 12.864 0.064 32.736-16.736 53.376-2.144 2.88-3.328 4.864-4 6.080l8.256 71.68c0.16 1.216 0.224 2.432 0.224 3.648 0 51.104-13.824 92.448-40.992 122.88-25.76 28.832-64.352 49.12-117.44 60.704l-59.008 7.712c-2.784 0.384-5.6 0.384-8.384 0l-60.736-8.192c-50.208-11.104-89.024-31.264-115.904-60.576-26.4-30.4-39.776-71.616-39.776-122.56 0-1.216 0.064-2.464 0.224-3.68l7.744-67.072-5.76-13.632c-14.752-20.064-16.128-38.272-14.624-49.344 3.552-36.384 14.816-60.928 35.456-75.808 6.048-4.032 13.056-7.136 21.152-9.376 2.272-6.272 5.664-16.192 10.528-31.744 10.272-32.064 23.072-55.488 38.816-71.072-1.12-27.296-5.216-43.904-9.088-53.792l-20.576-26.656c-6.976-5.248-15.744-9.824-26.592-13.472-1.248-0.448-2.464-0.928-3.648-1.504-66.944-32.16-120.864-61.472-160.288-87.136-80.064-51.904-123.36-114.144-128.672-185.024-0.672-8.864 2.4-17.632 8.448-24.16 6.048-6.496 14.56-10.208 23.456-10.208h888.992c8.896 0 17.408 3.712 23.456 10.208 6.016 6.528 9.088 15.296 8.448 24.16-5.248 70.976-48.544 133.248-128.576 185.12zM364.608 554.496c-1.344 0.352-2.752 0.608-4.128 0.736-6.752 0.768-9.888 2.016-10.272 2.048-1.056 1.184-5.952 7.808-8.16 29.76 0.096 0.544 0.96 2.72 3.744 6.112 1.92 2.336 3.488 4.96 4.672 7.776l10.624 25.184c2.144 5.088 2.944 10.624 2.304 16.128l-8.512 73.536c0.288 34.176 8.384 60.672 23.52 78.144 17.216 18.784 44.8 32.48 79.296 40.224l53.92 7.168 52.032-6.688c36.96-8.16 64.128-21.76 80.768-40.416 16.128-18.016 24.448-44.416 24.704-78.432l-8.512-73.856c-1.6-14.912 3.904-30.496 17.6-48.736 2.784-3.392 3.648-5.6 3.616-6.656-1.632-16.416-4.736-23.68-6.304-26.4l-16.224-5.696c-19.872-5.088-25.664-20.064-43.008-72.064-11.040-36.608-22.304-45.696-25.504-47.584-9.632-5.792-15.52-16.224-15.52-27.424 0-41.76 5.376-73.92 16.64-98.784 2.56-5.44 5.44-10.624 8.672-15.52l-91.072-91.040-89.824 89.184 8.864 11.52c1.504 1.952 2.784 4.096 3.808 6.336 11.040 24.384 16.384 56.544 16.384 98.304 0 11.232-5.92 21.664-15.52 27.424-3.264 1.952-14.784 11.2-26.56 47.904-16.192 51.584-21.76 66.656-42.048 71.808z" />
<glyph unicode="&#xe60b;" glyph-name="i12-email" d="M76.8 182.4l265.6 265.6-265.6 268.8zM902.4 761.6h-780.8l390.4-390.4zM534.4 304c-6.4-6.4-16-9.6-22.4-9.6v0c-9.6 0-16 3.2-22.4 9.6l-99.2 99.2-268.8-268.8h780.8l-268.8 268.8-99.2-99.2zM947.2 182.4v534.4l-265.6-268.8z" />
<glyph unicode="&#xe60c;" glyph-name="i13-lock" d="M736 547.2v166.4c0 73.6-64 208-224 208s-224-131.2-224-208v-166.4h-160v-576h768v576h-160zM352 713.6c0 41.6 64 144 160 144s160-105.6 160-144v-166.4h-320v166.4z" />
<glyph unicode="&#xe60d;" glyph-name="i14-minus" d="M643.2 416h-262.4c-19.2 0-32 12.8-32 32s12.8 32 32 32h262.4c19.2 0 32-12.8 32-32s-16-32-32-32z" />
<glyph unicode="&#xe60e;" glyph-name="i15-plus" d="M643.2 480h-99.2v99.2c0 19.2-12.8 32-32 32s-32-12.8-32-32v-99.2h-99.2c-19.2 0-32-12.8-32-32s12.8-32 32-32h99.2v-99.2c0-19.2 12.8-32 32-32s32 12.8 32 32v99.2h99.2c19.2 0 32 12.8 32 32s-16 32-32 32z" />
<glyph unicode="&#xe60f;" glyph-name="i16-check" d="M464 278.4c-9.6 0-16 3.2-22.4 9.6l-153.6 153.6c-12.8 12.8-12.8 32 0 44.8s32 12.8 44.8 0l131.2-131.2 227.2 227.2c12.8 12.8 32 12.8 44.8 0s12.8-32 0-44.8l-249.6-249.6c-6.4-6.4-12.8-9.6-22.4-9.6z" />
<glyph unicode="&#xe610;" glyph-name="i17-close" d="M556.8 448l70.4 70.4c12.8 12.8 12.8 32 0 44.8s-32 12.8-44.8 0l-70.4-70.4-70.4 70.4c-12.8 12.8-32 12.8-44.8 0s-12.8-32 0-44.8l70.4-70.4-70.4-70.4c-12.8-12.8-12.8-32 0-44.8 6.4-6.4 16-9.6 22.4-9.6s16 3.2 22.4 9.6l70.4 70.4 70.4-70.4c6.4-6.4 16-9.6 22.4-9.6s16 3.2 22.4 9.6c12.8 12.8 12.8 32 0 44.8l-70.4 70.4z" />
<glyph unicode="&#xe611;" glyph-name="i18-backward" d="M560 448l118.4 118.4c12.8 12.8 12.8 32 0 44.8s-32 12.8-44.8 0l-140.8-140.8c-12.8-12.8-12.8-32 0-44.8l140.8-140.8c6.4-6.4 16-9.6 22.4-9.6s16 3.2 22.4 9.6c12.8 12.8 12.8 32 0 44.8l-118.4 118.4zM416 448l118.4 118.4c12.8 12.8 12.8 32 0 44.8s-32 12.8-44.8 0l-140.8-140.8c-12.8-12.8-12.8-32 0-44.8l140.8-140.8c6.4-6.4 16-9.6 22.4-9.6s16 3.2 22.4 9.6c12.8 12.8 12.8 32 0 44.8l-118.4 118.4z" />
<glyph unicode="&#xe612;" glyph-name="i19-forward" d="M531.2 470.4l-140.8 140.8c-12.8 12.8-32 12.8-44.8 0s-12.8-32 0-44.8l118.4-118.4-118.4-118.4c-12.8-12.8-12.8-32 0-44.8 6.4-6.4 16-9.6 22.4-9.6s16 3.2 22.4 9.6l140.8 140.8c12.8 12.8 12.8 32 0 44.8zM678.4 470.4l-140.8 140.8c-12.8 12.8-32 12.8-44.8 0s-12.8-32 0-44.8l115.2-118.4-118.4-118.4c-12.8-12.8-12.8-32 0-44.8 6.4-6.4 16-9.6 22.4-9.6s16 3.2 22.4 9.6l140.8 140.8c16 12.8 16 32 3.2 44.8z" />
<glyph unicode="&#xe613;" glyph-name="i20-left" d="M464 448l163.2 163.2c12.8 12.8 12.8 32 0 44.8s-32 12.8-44.8 0l-185.6-185.6c-12.8-12.8-12.8-32 0-44.8l185.6-185.6c6.4-6.4 16-9.6 22.4-9.6s16 3.2 22.4 9.6c12.8 12.8 12.8 32 0 44.8l-163.2 163.2z" />
<glyph unicode="&#xe614;" glyph-name="i21-right" d="M627.2 470.4l-185.6 185.6c-12.8 12.8-32 12.8-44.8 0s-12.8-32 0-44.8l163.2-163.2-163.2-163.2c-12.8-12.8-12.8-32 0-44.8 6.4-6.4 16-9.6 22.4-9.6s16 3.2 22.4 9.6l185.6 185.6c12.8 12.8 12.8 32 0 44.8z" />
<glyph unicode="&#xe615;" glyph-name="i22-up" d="M720 377.6l-185.6 185.6c-12.8 12.8-32 12.8-44.8 0l-185.6-185.6c-12.8-12.8-12.8-32 0-44.8 6.4-6.4 16-9.6 22.4-9.6s16 3.2 22.4 9.6l163.2 163.2 163.2-163.2c6.4-6.4 16-9.6 22.4-9.6s16 3.2 22.4 9.6c12.8 12.8 12.8 32 0 44.8z" />
<glyph unicode="&#xe616;" glyph-name="i23-down" d="M720 563.2c-12.8 12.8-32 12.8-44.8 0l-163.2-163.2-163.2 163.2c-12.8 12.8-32 12.8-44.8 0s-12.8-32 0-44.8l185.6-185.6c6.4-6.4 16-9.6 22.4-9.6s16 3.2 22.4 9.6l185.6 185.6c12.8 12.8 12.8 32 0 44.8z" />
<glyph unicode="&#xe617;" glyph-name="i24-round-minus" d="M512 915.2c-259.2 0-467.2-208-467.2-467.2s208-467.2 467.2-467.2 467.2 211.2 467.2 467.2-208 467.2-467.2 467.2zM643.2 416h-262.4c-19.2 0-32 12.8-32 32s12.8 32 32 32h262.4c19.2 0 32-12.8 32-32s-16-32-32-32z" />
<glyph unicode="&#xe618;" glyph-name="i25-round-plus" d="M512 915.2c-259.2 0-467.2-208-467.2-467.2s208-467.2 467.2-467.2 467.2 211.2 467.2 467.2-208 467.2-467.2 467.2zM643.2 416h-99.2v-99.2c0-19.2-12.8-32-32-32s-32 12.8-32 32v99.2h-99.2c-19.2 0-32 12.8-32 32s12.8 32 32 32h99.2v99.2c0 19.2 12.8 32 32 32s32-12.8 32-32v-99.2h99.2c19.2 0 32-12.8 32-32s-16-32-32-32z" />
<glyph unicode="&#xe619;" glyph-name="i26-round-check" d="M512 915.2c-259.2 0-467.2-208-467.2-467.2s208-467.2 467.2-467.2 467.2 208 467.2 467.2-208 467.2-467.2 467.2zM736 537.6l-249.6-249.6c-6.4-6.4-16-9.6-22.4-9.6s-16 3.2-22.4 9.6l-153.6 153.6c-12.8 12.8-12.8 32 0 44.8s32 12.8 44.8 0l131.2-131.2 227.2 227.2c12.8 12.8 32 12.8 44.8 0s12.8-32 0-44.8z" />
<glyph unicode="&#xe61a;" glyph-name="i27-round-close" d="M512 915.2c-259.2 0-467.2-208-467.2-467.2s208-467.2 467.2-467.2 467.2 211.2 467.2 467.2-208 467.2-467.2 467.2zM627.2 380.8c12.8-12.8 12.8-32 0-44.8-6.4-6.4-16-9.6-22.4-9.6s-16 3.2-22.4 9.6l-70.4 67.2-70.4-70.4c-6.4-6.4-16-9.6-22.4-9.6s-16 3.2-22.4 9.6c-12.8 12.8-12.8 32 0 44.8l70.4 70.4-70.4 70.4c-12.8 12.8-12.8 32 0 44.8s32 12.8 44.8 0l70.4-70.4 70.4 70.4c12.8 12.8 32 12.8 44.8 0s12.8-32 0-44.8l-70.4-70.4 70.4-67.2z" />
<glyph unicode="&#xe61b;" glyph-name="i28-round-left" d="M512 915.2c-259.2 0-467.2-208-467.2-467.2s208-467.2 467.2-467.2 467.2 211.2 467.2 467.2-208 467.2-467.2 467.2zM627.2 284.8c12.8-12.8 12.8-32 0-44.8-6.4-6.4-16-9.6-22.4-9.6s-16 3.2-22.4 9.6l-185.6 185.6c-12.8 12.8-12.8 32 0 44.8l185.6 185.6c12.8 12.8 32 12.8 44.8 0s12.8-32 0-44.8l-163.2-163.2 163.2-163.2z" />
<glyph unicode="&#xe61c;" glyph-name="i29-round-right" d="M512 915.2c-259.2 0-467.2-208-467.2-467.2s208-467.2 467.2-467.2 467.2 211.2 467.2 467.2-208 467.2-467.2 467.2zM627.2 425.6l-185.6-185.6c-6.4-6.4-16-9.6-22.4-9.6s-16 3.2-22.4 9.6c-12.8 12.8-12.8 32 0 44.8l163.2 163.2-163.2 163.2c-12.8 12.8-12.8 32 0 44.8s32 12.8 44.8 0l185.6-185.6c12.8-12.8 12.8-32 0-44.8z" />
<glyph unicode="&#xe61d;" glyph-name="i30-round-up" d="M512 915.2c-259.2 0-467.2-208-467.2-467.2s208-467.2 467.2-467.2 467.2 211.2 467.2 467.2-208 467.2-467.2 467.2zM720 358.4c-6.4-6.4-16-9.6-22.4-9.6s-16 3.2-22.4 9.6l-163.2 163.2-163.2-163.2c-6.4-6.4-16-9.6-22.4-9.6s-16 3.2-22.4 9.6c-12.8 12.8-12.8 32 0 44.8l185.6 185.6c12.8 12.8 32 12.8 44.8 0l185.6-185.6c12.8-12.8 12.8-32 0-44.8z" />
<glyph unicode="&#xe61e;" glyph-name="i31-round-down" d="M512 915.2c-259.2 0-467.2-208-467.2-467.2s208-467.2 467.2-467.2 467.2 211.2 467.2 467.2-208 467.2-467.2 467.2zM723.2 515.2l-179.2-179.2c-6.4-6.4-12.8-6.4-19.2-9.6s-9.6-6.4-16-6.4c-9.6 0-16 3.2-22.4 9.6l-185.6 185.6c-12.8 12.8-12.8 32 0 44.8s32 12.8 44.8 0l166.4-166.4 163.2 163.2c12.8 12.8 32 12.8 44.8 0s12.8-32 3.2-41.6z" />
<glyph unicode="&#xe61f;" glyph-name="i32-facebook" d="M0 960v-1024h1024v1024h-1024zM650.56 615.36c0-5.76-4.8-10.56-10.56-10.56h-44.8c-30.72 0-36.48-12.16-36.48-35.84v-49.28h78.080c2.88 0 5.44-0.96 7.36-3.2 1.92-1.92 3.2-4.48 3.2-7.36v-84.16c0-5.76-4.8-10.56-10.56-10.56h-78.080v-212.48c0-5.76-4.8-10.56-10.56-10.56h-87.040c-5.76 0-10.56 4.8-10.56 10.56v212.48h-66.56c-5.76 0-10.56 4.8-10.56 10.56v84.16c0 5.76 4.8 10.56 10.56 10.56h66.88v58.24c0 76.48 48.32 126.080 122.88 126.080h66.56c5.76 0 10.56-4.8 10.56-10.56v-78.080z" />
<glyph unicode="&#xe620;" glyph-name="i33-twitter" d="M0 960v-1024h1024v1024h-1024zM713.6 550.4v-12.8c0-137.6-105.6-297.6-297.6-297.6-57.6 0-115.2 16-160 48 9.6 0 16 0 25.6 0 48 0 92.8 16 128 44.8-44.8 0-83.2 32-96 73.6 6.4 0 12.8-3.2 19.2-3.2 9.6 0 19.2 0 28.8 3.2-48 9.6-83.2 51.2-83.2 102.4v0c12.8-6.4 28.8-12.8 48-12.8-28.8 19.2-44.8 51.2-44.8 86.4 0 19.2 6.4 38.4 12.8 51.2 51.2-64 128-105.6 214.4-108.8-3.2 6.4-3.2 16-3.2 22.4 0 57.6 48 105.6 105.6 105.6 28.8 0 57.6-12.8 76.8-32 22.4 3.2 44.8 12.8 67.2 25.6-6.4-25.6-25.6-44.8-44.8-57.6 22.4 3.2 41.6 9.6 60.8 16-19.2-19.2-35.2-38.4-57.6-54.4z" />
<glyph unicode="&#xe621;" glyph-name="i34-google" d="M0 960v-1024h1024v1024h-1024zM512 209.28c-131.84 0-238.72 106.88-238.72 238.72s106.88 238.72 238.72 238.72c62.080 0 118.72-23.68 160.96-62.4l-70.4-68.8c-24.32 20.48-56 32.96-90.56 32.96-77.44 0-140.48-63.040-140.48-140.48s63.040-140.48 140.48-140.48c60.16 0 111.36 37.76 131.2 90.56h-134.4v99.84h236.8c3.52-16 5.12-32.64 5.12-49.92 0-131.84-106.88-238.72-238.72-238.72z" />
<glyph unicode="&#xe622;" glyph-name="i35-yahoo" d="M0 960v-1024h1024v1024h-1024zM691.2 537.6c-16-3.2-147.2-105.6-156.8-131.2-3.2-9.6 0-92.8 3.2-105.6 9.6-3.2 70.4 0 83.2-3.2v-25.6c-12.8 0-92.8 0-137.6 0-22.4 0-99.2-3.2-121.6-3.2l3.2 25.6c12.8 0 64-3.2 76.8 9.6 6.4 6.4 3.2 86.4 3.2 99.2-6.4 16-121.6 160-150.4 182.4h-76.8v35.2h262.4v-38.4h-80c35.2-51.2 86.4-115.2 108.8-144l105.6 96h-64l-6.4 41.6h230.4l-3.2-3.2-16-22.4-6.4-9.6h-41.6c-6.4 0-12.8-3.2-16-3.2zM761.6 272h-38.4v38.4l22.4-3.2h19.2l-3.2-35.2zM764.8 336l-35.2 3.2v163.2c9.6-3.2 70.4-6.4 76.8-6.4l-41.6-160z" />
<glyph unicode="&#xe623;" glyph-name="i36-attention" d="M976 86.4l-435.2 758.4c-12.8 19.2-44.8 19.2-54.4 0l-441.6-761.6c-6.4-9.6-6.4-22.4 0-32s16-16 28.8-16h880c0 0 0 0 0 0 19.2 0 32 12.8 32 32 0 6.4-3.2 16-9.6 19.2zM537.6 192c-6.4-6.4-12.8-9.6-22.4-9.6s-16 3.2-22.4 9.6c-6.4 6.4-9.6 12.8-9.6 22.4s3.2 16 9.6 22.4c12.8 12.8 32 12.8 44.8 0 6.4-6.4 9.6-12.8 9.6-22.4 0-6.4-3.2-16-9.6-22.4zM547.2 524.8l-16-195.2c0-9.6-9.6-16-19.2-16s-16 6.4-16 16l-16 195.2c0 19.2 12.8 32 28.8 35.2 19.2 0 32-12.8 35.2-28.8 3.2-3.2 3.2-6.4 3.2-6.4z" />
<glyph unicode="&#xe624;" glyph-name="i37-error" d="M512 915.2c-259.2 0-467.2-208-467.2-467.2s208-467.2 467.2-467.2 467.2 208 467.2 467.2-208 467.2-467.2 467.2zM534.4 268.8c-6.4-6.4-12.8-12.8-22.4-12.8s-16 3.2-22.4 9.6c-6.4 6.4-9.6 16-9.6 22.4 0 9.6 3.2 16 9.6 22.4 12.8 12.8 32 12.8 44.8 0 6.4-6.4 9.6-12.8 9.6-22.4 0-6.4-3.2-16-9.6-19.2zM544 598.4l-16-195.2c0-9.6-9.6-16-19.2-16s-16 6.4-16 16l-12.8 195.2c0 19.2 12.8 32 28.8 35.2 19.2 0 32-12.8 35.2-28.8 0-3.2 0-6.4 0-6.4z" />
<glyph unicode="&#xe625;" glyph-name="i38-info" d="M784 720c-73.6 73.6-166.4 112-272 112s-198.4-38.4-272-112c0 0 0 0 0 0-73.6-73.6-112-166.4-112-272s38.4-198.4 112-272c73.6-73.6 166.4-112 272-112s198.4 38.4 272 112c73.6 73.6 112 166.4 112 272s-38.4 198.4-112 272zM544 249.6h-64v233.6h64v-233.6zM553.6 563.2c-9.6-12.8-22.4-19.2-41.6-19.2-16 0-32 6.4-41.6 19.2-9.6 9.6-16 22.4-16 41.6 0 16 6.4 32 16 41.6 12.8 9.6 25.6 16 41.6 16 19.2 0 32-6.4 41.6-16 12.8-12.8 19.2-25.6 19.2-41.6-3.2-19.2-9.6-32-19.2-41.6z" />
<glyph unicode="&#xe626;" glyph-name="i39-up-down" d="M377.6 483.2c9.6 0 16 3.2 22.4 9.6l112 112 112-112c6.4-6.4 16-9.6 22.4-9.6s16 3.2 22.4 9.6c12.8 12.8 12.8 32 0 44.8l-134.4 134.4c-12.8 12.8-32 12.8-44.8 0l-134.4-134.4c-12.8-12.8-12.8-32 0-44.8 6.4-6.4 12.8-9.6 22.4-9.6zM624 406.4l-112-115.2-112 112c-12.8 12.8-32 12.8-44.8 0s-12.8-32 0-44.8l134.4-134.4c6.4-6.4 16-9.6 22.4-9.6s16 3.2 22.4 9.6l134.4 134.4c12.8 12.8 12.8 32 0 44.8s-32 12.8-44.8 3.2z" />
<glyph unicode="&#xe627;" glyph-name="i40-left-right" d="M736 470.4l-134.4 134.4c-12.8 12.8-32 12.8-44.8 0s-12.8-32 0-44.8l112-112-112-112c-12.8-12.8-12.8-32 0-44.8 6.4-6.4 16-9.6 22.4-9.6s16 3.2 22.4 9.6l134.4 134.4c12.8 12.8 12.8 32 0 44.8zM470.4 604.8c-12.8 12.8-32 12.8-44.8 0l-137.6-134.4c-12.8-12.8-12.8-32 0-44.8l134.4-134.4c6.4-6.4 16-9.6 22.4-9.6s16 3.2 22.4 9.6c12.8 12.8 12.8 32 0 44.8l-112 112 112 112c12.8 12.8 12.8 32 3.2 44.8z" />
<glyph unicode="&#xe628;" glyph-name="i41-round-up-down" d="M512 915.2c-259.2 0-467.2-208-467.2-467.2s208-467.2 467.2-467.2 467.2 208 467.2 467.2-208 467.2-467.2 467.2zM668.8 358.4l-134.4-134.4c-6.4-6.4-16-9.6-22.4-9.6s-16 3.2-22.4 9.6l-134.4 134.4c-12.8 12.8-12.8 32 0 44.8s32 12.8 44.8 0l112-112 112 112c12.8 12.8 32 12.8 44.8 0s12.8-32 0-44.8zM668.8 489.6c-6.4-6.4-16-9.6-22.4-9.6s-16 3.2-22.4 9.6l-112 115.2-112-112c-6.4-6.4-16-9.6-22.4-9.6s-16 3.2-22.4 9.6c-12.8 12.8-12.8 32 0 44.8l134.4 134.4c12.8 12.8 32 12.8 44.8 0l134.4-134.4c12.8-12.8 12.8-35.2 0-48z" />
<glyph unicode="&#xe629;" glyph-name="i42-round-left-right" d="M512 915.2c-259.2 0-467.2-208-467.2-467.2s208-467.2 467.2-467.2 467.2 208 467.2 467.2-208 467.2-467.2 467.2zM470.4 336c12.8-12.8 12.8-32 0-44.8-6.4-6.4-16-9.6-22.4-9.6s-16 3.2-22.4 9.6l-137.6 134.4c-12.8 12.8-12.8 32 0 44.8l134.4 134.4c12.8 12.8 32 12.8 44.8 0s12.8-32 0-44.8l-112-112 115.2-112zM736 425.6l-134.4-134.4c-6.4-6.4-16-9.6-22.4-9.6s-16 3.2-22.4 9.6c-12.8 12.8-12.8 32 0 44.8l112 112-112 112c-12.8 12.8-12.8 32 0 44.8s32 12.8 44.8 0l134.4-134.4c12.8-12.8 12.8-32 0-44.8z" />
<glyph unicode="&#xe62a;" glyph-name="i43-go-left" d="M508.8 230.4c-9.6 0-16 3.2-22.4 9.6l-179.2 179.2c-12.8 3.2-16 12.8-16 28.8 0 0 0 0 0 0 0 9.6 3.2 16 9.6 22.4l185.6 185.6c12.8 12.8 32 12.8 44.8 0s12.8-32 0-44.8l-131.2-131.2c112 0 300.8 0 300.8 0 19.2 0 32-12.8 32-32s-12.8-32-32-32h-300.8l131.2-131.2c12.8-12.8 12.8-32 0-44.8-6.4-6.4-16-9.6-22.4-9.6z" />
<glyph unicode="&#xe62b;" glyph-name="i44-go-right" d="M515.2 230.4c-9.6 0-16 3.2-22.4 9.6-12.8 12.8-12.8 32 0 44.8l131.2 131.2c-112 0-300.8 0-300.8 0-19.2 0-32 12.8-32 32s12.8 32 32 32h300.8l-131.2 131.2c-12.8 12.8-12.8 32 0 44.8s32 12.8 44.8 0l179.2-179.2c12.8-3.2 16-12.8 16-28.8 0 0 0 0 0 0 0-9.6-3.2-16-9.6-22.4l-185.6-185.6c-6.4-6.4-12.8-9.6-22.4-9.6z" />
<glyph unicode="&#xe62c;" glyph-name="i45-go-up" d="M512 227.2c-19.2 0-32 12.8-32 32v300.8l-131.2-131.2c-12.8-12.8-32-12.8-44.8 0s-12.8 32 0 44.8l185.6 185.6c0 0 0 0 3.2 3.2 6.4 3.2 9.6 6.4 16 6.4 3.2 0 3.2 0 6.4 0v0 0c6.4 0 16-3.2 19.2-9.6 0 0 0 0 0 0l185.6-185.6c6.4-6.4 9.6-16 9.6-22.4s-3.2-16-9.6-22.4c-12.8-12.8-32-12.8-44.8 0l-131.2 131.2v-300.8c0-19.2-12.8-32-32-32z" />
<glyph unicode="&#xe62d;" glyph-name="i46-go-down" d="M512 227.2c0 0 0 0 0 0v0 0c-9.6 0-16 3.2-22.4 9.6 0 0 0 0 0 0l-185.6 185.6c-6.4 6.4-9.6 16-9.6 22.4s3.2 16 9.6 22.4c12.8 12.8 32 12.8 44.8 0l131.2-131.2v300.8c0 19.2 12.8 32 32 32s32-12.8 32-32v-300.8l131.2 131.2c12.8 12.8 32 12.8 44.8 0s12.8-32 0-44.8l-185.6-185.6c0 0 0 0-3.2-3.2-6.4-3.2-9.6-6.4-16-6.4 0 0-3.2 0-3.2 0z" />
<glyph unicode="&#xe62e;" glyph-name="i47-expand" d="M784 144c0 0 0 0 0 0h-160c-19.2 0-32 12.8-32 32s12.8 32 32 32h80l-137.6 137.6c-12.8 12.8-12.8 32 0 44.8s32 12.8 44.8 0l137.6-137.6v80c0 19.2 12.8 32 32 32s32-12.8 32-32v-160c0 0 0 0 0 0v0c0-9.6-3.2-16-6.4-22.4 0 0-3.2-3.2-3.2-3.2-3.2 0-9.6-3.2-19.2-3.2 3.2 0 0 0 0 0zM396.8 144h-160c0 0 0 0 0 0v0c-6.4 0-16 3.2-22.4 6.4v0c0 0 0 0 0 0-3.2 0-3.2 3.2-3.2 3.2-3.2 6.4-6.4 9.6-6.4 16 0 0 0 3.2 0 3.2v156.8c0 19.2 12.8 32 32 32s32-12.8 32-32v-80l137.6 137.6c12.8 12.8 32 12.8 44.8 0s12.8-32 0-44.8l-137.6-137.6h80c19.2 0 32-12.8 32-32s-9.6-28.8-28.8-28.8zM592 496c-9.6 0-16 3.2-22.4 9.6-12.8 12.8-12.8 32 0 44.8l137.6 137.6h-80c-19.2 0-32 12.8-32 32s12.8 32 32 32h156.8c0 0 0 0 3.2 0 6.4 0 12.8-3.2 16-6.4 3.2 0 3.2-3.2 3.2-3.2 6.4-6.4 6.4-12.8 6.4-22.4v0c0 0 0 0 0 0v-160c0-19.2-12.8-32-32-32s-32 12.8-32 32v83.2l-137.6-137.6c-3.2-6.4-12.8-9.6-19.2-9.6zM432 496c-9.6 0-16 3.2-22.4 9.6l-137.6 137.6v-80c0-19.2-12.8-32-32-32s-32 12.8-32 32v156.8c0 0 0 3.2 0 3.2 0 6.4 3.2 12.8 6.4 16 0 3.2 3.2 3.2 3.2 3.2s0 0 0 0v0c6.4 6.4 12.8 9.6 22.4 9.6v0c0 0 0 0 0 0h160c19.2 0 32-12.8 32-32s-12.8-32-32-32h-83.2l137.6-137.6c12.8-12.8 12.8-32 0-44.8-6.4-6.4-12.8-9.6-22.4-9.6z" />
<glyph unicode="&#xe62f;" glyph-name="i48-reduce" d="M784 144c-9.6 0-16 3.2-22.4 9.6l-137.6 137.6v-80c0-19.2-12.8-32-32-32s-32 12.8-32 32v160c0 0 0 0 0 0v0c0 9.6 3.2 16 6.4 22.4 0 0 3.2 3.2 3.2 3.2 6.4 3.2 9.6 6.4 16 6.4 0 0 0 0 3.2 0h156.8c19.2 0 32-12.8 32-32s-12.8-32-32-32h-80l137.6-137.6c12.8-12.8 12.8-32 0-44.8-3.2-9.6-9.6-12.8-19.2-12.8zM240 144c-9.6 0-16 3.2-22.4 9.6-12.8 12.8-12.8 32 0 44.8l137.6 137.6h-80c-19.2 0-32 12.8-32 32s12.8 32 32 32h160c0 0 0 0 0 0v0c9.6 0 16-3.2 22.4-6.4 0 0 3.2-3.2 3.2-3.2s0 0 0 0v0c3.2-6.4 6.4-9.6 6.4-16 0 0 0 0 0-3.2v-156.8c0-19.2-12.8-32-32-32s-32 12.8-32 32v80l-137.6-137.6c-9.6-9.6-19.2-12.8-25.6-12.8zM592 496c0 0-3.2 0 0 0-9.6 0-16 3.2-19.2 6.4-3.2 0-3.2 3.2-3.2 3.2-6.4 6.4-6.4 12.8-6.4 22.4v0c0 0 0 0 0 0v160c0 19.2 12.8 32 32 32s32-12.8 32-32v-80l137.6 137.6c12.8 12.8 32 12.8 44.8 0s12.8-32 0-44.8l-137.6-137.6h80c19.2 0 32-12.8 32-32s-12.8-32-32-32h-160c0-3.2 0-3.2 0-3.2zM432 496h-160c-19.2 0-32 12.8-32 32s12.8 32 32 32h80l-134.4 137.6c-12.8 12.8-12.8 32 0 44.8s32 12.8 44.8 0l137.6-137.6v80c0 19.2 12.8 32 32 32s32-12.8 32-32v-156.8c0 0 0 0 0-3.2 0-6.4-3.2-12.8-6.4-16v0c0 0 0 0 0 0 0-3.2-3.2-3.2-3.2-3.2-6.4-6.4-12.8-9.6-22.4-9.6v0c0 0 0 0 0 0z" />
<glyph unicode="&#xe630;" glyph-name="i49-quickview" d="M512 560c-60.8 0-112-51.2-112-112s51.2-112 112-112 112 51.2 112 112-51.2 112-112 112zM976 460.8c-3.2 9.6-118.4 275.2-454.4 275.2h-19.2c-329.6 0-451.2-265.6-454.4-275.2s-3.2-19.2 0-25.6c6.4-9.6 128-262.4 464-272 0 0 0 0 0 0 332.8 0 460.8 262.4 464 272 3.2 6.4 3.2 16 0 25.6zM512 240c-115.2 0-208 92.8-208 208s92.8 208 208 208 208-92.8 208-208-92.8-208-208-208z" />
<glyph unicode="&#xe631;" glyph-name="i50-fav" d="M515.2 19.2h-3.2c-6.4 0-12.8 3.2-19.2 6.4-281.6 192-432 371.2-454.4 544-12.8 96 12.8 179.2 83.2 240 48 44.8 105.6 67.2 172.8 67.2s128-22.4 176-67.2c16-16 32-32 41.6-48 9.6 19.2 25.6 35.2 41.6 51.2 48 44.8 105.6 67.2 172.8 67.2s124.8-22.4 176-67.2c67.2-64 96-144 83.2-246.4-22.4-172.8-172.8-348.8-454.4-544-3.2-3.2-9.6-3.2-16-3.2z" />
<glyph unicode="&#xe632;" glyph-name="i51-zoom-in" d="M889.6 118.4l-153.6 140.8c54.4 60.8 86.4 140.8 86.4 227.2 0 192-156.8 348.8-348.8 348.8-192-3.2-348.8-156.8-348.8-348.8s156.8-348.8 345.6-348.8c80 0 156.8 28.8 214.4 76.8l156.8-144c6.4-6.4 12.8-9.6 22.4-9.6s16 3.2 22.4 9.6c16 16 16 35.2 3.2 48zM601.6 454.4h-96v-96c0-19.2-12.8-32-32-32s-32 12.8-32 32v96h-96c-19.2 0-32 12.8-32 32s12.8 32 32 32h96v96c0 19.2 12.8 32 32 32s32-12.8 32-32v-96h96c19.2 0 32-12.8 32-32s-16-32-32-32z" />
<glyph unicode="&#xe633;" glyph-name="i52-list-add" d="M697.6 704c-160 0-288-128-288-288s128-288 288-288 288 128 288 288-128 288-288 288zM806.4 396.8h-89.6v-89.6c0-9.6-9.6-19.2-19.2-19.2s-19.2 9.6-19.2 19.2v89.6h-89.6c-9.6 0-19.2 9.6-19.2 19.2s9.6 19.2 19.2 19.2h89.6v89.6c0 9.6 9.6 19.2 19.2 19.2s19.2-9.6 19.2-19.2v-89.6h89.6c9.6 0 19.2-9.6 19.2-19.2s-9.6-19.2-19.2-19.2zM249.6 512h92.8c6.4 22.4 12.8 44.8 22.4 64h-115.2c-19.2 0-32-12.8-32-32s16-32 32-32zM249.6 704h220.8c35.2 28.8 76.8 51.2 121.6 64h-342.4c-19.2 0-32-12.8-32-32s16-32 32-32zM249.6 320h92.8c-6.4 19.2-9.6 41.6-12.8 64h-80c-19.2 0-32-12.8-32-32s16-32 32-32zM406.4 192h-156.8c-19.2 0-32-12.8-32-32s12.8-32 32-32h220.8c-25.6 19.2-44.8 41.6-64 64zM140.8 576h-70.4c-19.2 0-32-12.8-32-32s12.8-32 32-32h70.4c19.2 0 32 12.8 32 32s-12.8 32-32 32zM140.8 768h-70.4c-19.2 0-32-12.8-32-32s12.8-32 32-32h70.4c19.2 0 32 12.8 32 32s-12.8 32-32 32zM140.8 384h-70.4c-19.2 0-32-12.8-32-32s12.8-32 32-32h70.4c19.2 0 32 12.8 32 32s-12.8 32-32 32zM140.8 192h-70.4c-19.2 0-32-12.8-32-32s12.8-32 32-32h70.4c19.2 0 32 12.8 32 32s-12.8 32-32 32z" />
<glyph unicode="&#xe634;" glyph-name="i53-list-added" d="M697.6 704c-160 0-288-128-288-288s128-288 288-288 288 128 288 288-128 288-288 288zM835.2 470.4l-153.6-153.6c-3.2-3.2-9.6-6.4-12.8-6.4s-9.6 3.2-12.8 6.4l-92.8 92.8c-6.4 6.4-6.4 19.2 0 28.8 6.4 6.4 19.2 6.4 28.8 0l80-80 140.8 140.8c6.4 6.4 19.2 6.4 28.8 0 0-9.6 0-19.2-6.4-28.8zM249.6 512h92.8c6.4 22.4 12.8 44.8 22.4 64h-115.2c-19.2 0-32-12.8-32-32s16-32 32-32zM249.6 704h220.8c35.2 28.8 76.8 51.2 121.6 64h-342.4c-19.2 0-32-12.8-32-32s16-32 32-32zM249.6 320h92.8c-6.4 19.2-9.6 41.6-12.8 64h-80c-19.2 0-32-12.8-32-32s16-32 32-32zM406.4 192h-156.8c-19.2 0-32-12.8-32-32s12.8-32 32-32h220.8c-25.6 19.2-44.8 41.6-64 64zM140.8 576h-70.4c-19.2 0-32-12.8-32-32s12.8-32 32-32h70.4c19.2 0 32 12.8 32 32s-12.8 32-32 32zM140.8 768h-70.4c-19.2 0-32-12.8-32-32s12.8-32 32-32h70.4c19.2 0 32 12.8 32 32s-12.8 32-32 32zM140.8 384h-70.4c-19.2 0-32-12.8-32-32s12.8-32 32-32h70.4c19.2 0 32 12.8 32 32s-12.8 32-32 32zM140.8 192h-70.4c-19.2 0-32-12.8-32-32s12.8-32 32-32h70.4c19.2 0 32 12.8 32 32s-12.8 32-32 32z" />
<glyph unicode="&#xe635;" glyph-name="i54-mechanism" d="M464 329.6c6.4 9.6 6.4 22.4 0 35.2l-6.4 16c9.6 9.6 22.4 19.2 28.8 28.8l16-6.4c22.4-9.6 51.2 0 60.8 22.4l16 32c9.6 22.4 0 51.2-22.4 60.8l-16 6.4c3.2 12.8 3.2 28.8 0 41.6l16 6.4c12.8 3.2 19.2 12.8 25.6 22.4s6.4 22.4 0 35.2l-12.8 32c-9.6 22.4-35.2 35.2-57.6 25.6l-16-6.4c-6.4 12.8-16 22.4-25.6 32l9.6 16c9.6 22.4 0 51.2-22.4 60.8l-32 16c-22.4 9.6-51.2 0-60.8-22.4l-9.6-16c-12.8 0-25.6 0-38.4 0l-6.4 16c-9.6 22.4-35.2 35.2-57.6 28.8l-35.2-12.8c-22.4-9.6-35.2-35.2-25.6-57.6l6.4-16c-12.8-9.6-22.4-19.2-32-28.8l-16 6.4c-22.4 9.6-48 0-57.6-22.4l-16-32c-9.6-22.4 0-51.2 22.4-60.8l16-6.4c-3.2-12.8-3.2-28.8 0-41.6l-19.2-6.4c-22.4-9.6-35.2-35.2-25.6-57.6l12.8-32c3.2-12.8 12.8-19.2 22.4-25.6s22.4-6.4 35.2 0l16 6.4c9.6-9.6 19.2-22.4 28.8-28.8l-6.4-16c-9.6-22.4 0-51.2 22.4-60.8l32-16c22.4-9.6 51.2 0 60.8 22.4l6.4 16c12.8-3.2 28.8-3.2 41.6 0l6.4-16c3.2-12.8 12.8-19.2 22.4-25.6 6.4-3.2 12.8-3.2 19.2-3.2s9.6 0 16 3.2l32 12.8c9.6-3.2 19.2 6.4 25.6 16zM428.8 505.6c-19.2-38.4-57.6-64-102.4-64-16 0-32 3.2-48 9.6-54.4 25.6-76.8 92.8-51.2 150.4 19.2 38.4 57.6 64 102.4 64 16 0 32-3.2 48-9.6 54.4-25.6 76.8-92.8 51.2-150.4zM953.6 505.6c3.2 6.4 3.2 12.8 0 19.2l-9.6 25.6c-3.2 9.6-12.8 16-22.4 16-3.2 0-6.4 0-6.4 0l-19.2-12.8c-9.6 12.8-19.2 22.4-28.8 32l9.6 19.2c6.4 12.8 0 25.6-12.8 32l-22.4 9.6c-3.2 0-6.4 3.2-9.6 3.2-9.6 0-16-6.4-22.4-12.8l-9.6-22.4c-9.6 0-16 3.2-25.6 3.2-6.4 0-12.8 0-19.2 0l-6.4 19.2c-3.2 9.6-12.8 16-22.4 16-3.2 0-6.4 0-6.4 0l-22.4-12.8c-12.8-3.2-19.2-19.2-12.8-28.8l6.4-19.2c-12.8-9.6-22.4-19.2-32-28.8l-19.2 9.6c-3.2 0-6.4 3.2-9.6 3.2-9.6 0-16-6.4-22.4-12.8l-9.6-22.4c-6.4-12.8 0-25.6 12.8-32l19.2-9.6c-3.2-12.8-3.2-28.8 0-41.6l-19.2-6.4c-12.8-3.2-19.2-19.2-12.8-28.8l9.6-25.6c3.2-6.4 6.4-9.6 12.8-12.8 3.2 0 6.4-3.2 9.6-3.2s6.4 0 9.6 0l19.2 6.4c9.6-12.8 19.2-22.4 28.8-32l-9.6-19.2c-6.4-12.8 0-25.6 12.8-32l22.4-9.6c3.2 0 6.4-3.2 9.6-3.2 9.6 0 16 6.4 22.4 12.8l9.6 19.2c9.6 0 16-3.2 25.6-3.2 6.4 0 12.8 0 19.2 0l6.4-19.2c3.2-6.4 6.4-9.6 12.8-12.8 3.2 0 6.4-3.2 9.6-3.2s6.4 0 9.6 0l25.6 9.6c6.4 3.2 9.6 6.4 12.8 12.8s3.2 12.8 0 19.2l-6.4 19.2c12.8 9.6 22.4 19.2 32 28.8l19.2-9.6c3.2 0 6.4-3.2 9.6-3.2 9.6 0 16 6.4 22.4 12.8l9.6 22.4c6.4 12.8 0 25.6-12.8 32l-19.2 9.6c3.2 12.8 3.2 28.8 0 41.6l19.2 6.4c-3.2 9.6 3.2 12.8 3.2 19.2zM860.8 432c-16-32-48-54.4-83.2-54.4 0 0 0 0 0 0-12.8 0-25.6 3.2-38.4 6.4-44.8 19.2-67.2 73.6-48 121.6 16 32 48 54.4 83.2 54.4 0 0 0 0 0 0 12.8 0 25.6-3.2 38.4-6.4 48-22.4 67.2-76.8 48-121.6zM694.4 265.6c-3.2 6.4-9.6 9.6-16 9.6-3.2 0-3.2 0-6.4 0l-12.8-6.4c-6.4 9.6-12.8 16-22.4 22.4l6.4 12.8c3.2 9.6 0 19.2-9.6 22.4l-16 6.4c-3.2 0-3.2 0-6.4 0-6.4 0-12.8-3.2-16-9.6l-6.4-12.8c-6.4 0-12.8 0-19.2 0-3.2 0-9.6 0-12.8 0l-6.4 12.8c-3.2 6.4-9.6 9.6-16 9.6-3.2 0-3.2 0-6.4 0l-16-6.4c-9.6-3.2-12.8-12.8-9.6-22.4l6.4-12.8c-9.6-6.4-16-12.8-22.4-22.4l-6.4 12.8c-3.2 0-3.2 0-6.4 0-6.4 0-12.8-3.2-16-9.6l-6.4-16c-3.2-9.6 0-19.2 9.6-22.4l12.8-6.4c-3.2-9.6-3.2-19.2 0-28.8l-16-6.4c-9.6-3.2-12.8-12.8-9.6-22.4l6.4-16c0-3.2 3.2-6.4 9.6-9.6 3.2 0 3.2 0 6.4 0s3.2 0 6.4 0l12.8 6.4c6.4-9.6 12.8-16 22.4-22.4l-6.4-12.8c-3.2-9.6 0-19.2 9.6-22.4l16-6.4c3.2 0 3.2 0 6.4 0 6.4 0 12.8 3.2 16 9.6l6.4 12.8c6.4 0 12.8 0 19.2 0 3.2 0 9.6 0 12.8 0l6.4-12.8c0-3.2 3.2-6.4 9.6-9.6 3.2 0 3.2 0 6.4 0s3.2 0 6.4 0l16 6.4c3.2 0 6.4 3.2 9.6 9.6 3.2 3.2 3.2 9.6 0 12.8l-6.4 12.8c9.6 6.4 16 12.8 22.4 22.4l12.8-6.4c3.2 0 3.2 0 6.4 0 6.4 0 12.8 3.2 16 9.6l6.4 16c3.2 9.6 0 19.2-9.6 22.4h-16c3.2 9.6 3.2 19.2 0 28.8l12.8 6.4c3.2 0 6.4 3.2 9.6 9.6 3.2 3.2 3.2 9.6 0 12.8l-6.4 16zM633.6 182.4c-9.6-22.4-32-38.4-57.6-38.4 0 0 0 0 0 0-9.6 0-19.2 3.2-25.6 6.4-32 16-48 54.4-32 86.4 9.6 22.4 32 38.4 57.6 38.4 0 0 0 0 0 0 9.6 0 19.2-3.2 25.6-6.4 32-12.8 48-51.2 32-86.4z" />
<glyph unicode="&#xe636;" glyph-name="i55-question" d="M512 204.8c-9.6 0-16 3.2-22.4 9.6s-9.6 12.8-9.6 22.4c0 9.6 3.2 16 9.6 22.4 12.8 12.8 32 12.8 44.8 0 6.4-6.4 9.6-12.8 9.6-22.4s-3.2-16-9.6-22.4c-6.4-6.4-16-9.6-22.4-9.6zM512 320c-19.2 0-32 12.8-32 32 0 54.4 38.4 105.6 70.4 137.6 25.6 25.6 48 57.6 28.8 108.8-9.6 22.4-48 35.2-83.2 28.8-25.6-6.4-54.4-19.2-54.4-67.2 0-19.2-12.8-32-32-32s-32 12.8-32 32c0 67.2 41.6 115.2 105.6 128 57.6 12.8 131.2-9.6 156.8-67.2 38.4-89.6-22.4-153.6-41.6-176-35.2-35.2-51.2-70.4-51.2-96-3.2-12.8-19.2-28.8-35.2-28.8z" />
<glyph unicode="&#xe637;" glyph-name="i56-round-question" d="M512 915.2c-259.2 0-467.2-208-467.2-467.2s208-467.2 467.2-467.2 467.2 208 467.2 467.2-208 467.2-467.2 467.2zM512 48c-220.8 0-400 179.2-400 400s179.2 400 400 400 400-179.2 400-400-179.2-400-400-400zM512 784c-185.6 0-336-150.4-336-336s150.4-336 336-336 336 150.4 336 336-150.4 336-336 336zM534.4 214.4c-6.4-6.4-12.8-9.6-22.4-9.6s-16 3.2-22.4 9.6c-6.4 6.4-9.6 12.8-9.6 22.4s3.2 16 9.6 22.4c12.8 12.8 35.2 12.8 44.8 0 6.4-6.4 9.6-12.8 9.6-22.4s-3.2-16-9.6-22.4zM595.2 448c-35.2-35.2-51.2-70.4-51.2-96 0-19.2-12.8-32-32-32s-32 12.8-32 32c0 54.4 38.4 105.6 70.4 137.6 25.6 25.6 48 57.6 28.8 108.8-9.6 22.4-48 35.2-83.2 28.8-25.6-6.4-54.4-19.2-54.4-67.2 0-19.2-12.8-32-32-32s-32 12.8-32 32c0 67.2 41.6 115.2 105.6 128 57.6 12.8 131.2-9.6 156.8-67.2 35.2-89.6-25.6-153.6-44.8-172.8z" />
<glyph unicode="&#xe638;" glyph-name="i57-percentage" d="M326.4 476.8c89.6 0 160 70.4 160 156.8s-70.4 156.8-160 156.8-160-70.4-160-156.8c0-86.4 70.4-156.8 160-156.8zM316.8 681.6c25.6 0 48-22.4 48-48s-22.4-48-48-48-48 22.4-48 48 22.4 48 48 48zM697.6 419.2c-89.6 0-160-70.4-160-156.8s70.4-156.8 160-156.8 160 70.4 160 156.8c0 86.4-70.4 156.8-160 156.8zM697.6 214.4c-25.6 0-48 22.4-48 48s22.4 48 48 48c25.6 0 48-22.4 48-48s-19.2-48-48-48zM828.8 764.8c-25.6 25.6-73.6 25.6-102.4 0l-531.2-531.2c-28.8-28.8-28.8-73.6 0-102.4 12.8-12.8 32-22.4 51.2-22.4s38.4 6.4 51.2 22.4l531.2 534.4c25.6 25.6 25.6 73.6 0 99.2zM774.4 710.4l-518.4-518.4c-3.2-3.2-9.6-6.4-16-6.4s-12.8 3.2-16 6.4c-9.6 9.6-9.6 25.6 0 35.2l515.2 515.2c9.6 9.6 25.6 9.6 35.2 0s9.6-22.4 0-32z" />
<glyph unicode="&#xe639;" glyph-name="i58-gift" d="M873.6 633.6h-147.2c32 12.8 60.8 28.8 83.2 54.4 44.8 48 64 118.4 41.6 166.4-19.2 51.2-80 67.2-153.6 41.6-131.2-44.8-179.2-195.2-192-252.8-16 67.2-67.2 252.8-179.2 252.8-25.6 3.2-54.4-9.6-83.2-32-38.4-41.6-38.4-76.8-32-102.4 16-57.6 89.6-102.4 153.6-131.2h-214.4c-25.6 0-44.8-19.2-44.8-44.8v-144c0-25.6 19.2-44.8 44.8-44.8h19.2v-364.8c0-25.6 19.2-44.8 44.8-44.8h592c25.6 0 44.8 19.2 44.8 44.8v364.8h19.2c25.6 0 44.8 19.2 44.8 44.8v144c6.4 25.6-16 48-41.6 48zM304 764.8c0 3.2-3.2 12.8 9.6 25.6 9.6 6.4 16 12.8 25.6 12.8 28.8 0 51.2-57.6 64-99.2-41.6 12.8-92.8 38.4-99.2 60.8zM467.2 73.6h-179.2v323.2h176v-323.2zM467.2 451.2h-288c0 0 0 0-3.2 0h48v92.8h243.2v-92.8zM704 812.8c9.6 3.2 22.4 6.4 28.8 6.4 12.8 0 22.4-3.2 25.6-12.8 6.4-16 0-44.8-19.2-70.4-25.6-32-89.6-44.8-131.2-48 9.6 35.2 38.4 102.4 96 124.8zM736 73.6h-176v323.2h176v-323.2zM800 451.2h-19.2c0 0 64 0 60.8 0h-284.8v96h243.2v-96z" />
<glyph unicode="&#xe63a;" glyph-name="i59-bundle" d="M588.8 716.8h153.6v-102.4h-153.6v102.4zM588.8 563.2h310.4v-204.8h-310.4v204.8zM435.2 716.8h-156.8v-102.4h156.8zM124.8 563.2h310.4v-204.8h-310.4v204.8zM588.8 304v-227.2l-76.8 73.6-76.8-76.8v230.4h-412.8v-307.2h979.2v307.2zM390.4 780.8c0 0 0-3.2 0 0l112-54.4c0 0 0 0 3.2 0s3.2 0 6.4 0v0c0 0 0 0 0 0 3.2 0 6.4 0 9.6 3.2l102.4 48c3.2 0 6.4 3.2 9.6 6.4 0 0 0 0 0 0 3.2 3.2 9.6 6.4 12.8 9.6 12.8 12.8 19.2 28.8 19.2 44.8s-6.4 32-19.2 44.8c-12.8 12.8-25.6 19.2-44.8 19.2 0 0 0 0 0 0-16 0-32-6.4-44.8-19.2-3.2-3.2-9.6-9.6-12.8-16 0 0 0 0 0-3.2l-35.2-73.6-32 64c0 3.2-3.2 6.4-6.4 9.6 0 0 0 0 0 0-3.2 3.2-6.4 9.6-9.6 12.8-12.8 12.8-28.8 19.2-44.8 19.2s-32-6.4-44.8-19.2c-12.8-12.8-19.2-28.8-19.2-44.8 0 0 0 0 0 0 0-19.2 6.4-32 19.2-44.8 6.4 0 12.8-3.2 19.2-6.4zM582.4 848c0 3.2 3.2 3.2 3.2 6.4 3.2 3.2 9.6 6.4 16 6.4s12.8-3.2 16-6.4c3.2-3.2 6.4-9.6 6.4-16s-3.2-12.8-6.4-16c0 0-3.2-3.2-6.4-3.2 0 0-3.2 0-3.2-3.2 0 0 0 0-3.2 0l-54.4-25.6 32 57.6zM403.2 854.4c3.2 3.2 9.6 6.4 16 6.4s12.8-3.2 16-6.4c0 0 3.2-3.2 3.2-6.4 0 0 0-3.2 3.2-3.2 0 0 0 0 0-3.2l25.6-54.4-57.6 28.8c-3.2 0-3.2 3.2-6.4 3.2-3.2 3.2-6.4 9.6-6.4 16 0 9.6 3.2 12.8 6.4 19.2z" />
<glyph unicode="&#xe63b;" glyph-name="i60-promo" d="M988.8 531.2c-6.4 32-25.6 57.6-60.8 80s-51.2 48-48 89.6c3.2 38.4-6.4 70.4-25.6 92.8-22.4 25.6-54.4 35.2-99.2 28.8-41.6-3.2-70.4 9.6-89.6 44.8-32 51.2-67.2 60.8-92.8 60.8s-54.4-12.8-80-35.2c-32-28.8-60.8-32-99.2-16-19.2 6.4-38.4 12.8-54.4 12.8-25.6 0-83.2-9.6-102.4-96-9.6-41.6-32-64-70.4-73.6-41.6-9.6-67.2-28.8-83.2-57.6-12.8-28.8-12.8-60.8 3.2-99.2s12.8-67.2-12.8-99.2c-25.6-32-38.4-64-32-96s25.6-57.6 60.8-80c35.2-22.4 51.2-48 48-89.6-3.2-38.4 6.4-70.4 25.6-92.8 22.4-25.6 54.4-35.2 99.2-28.8 38.4 3.2 70.4-9.6 89.6-44.8 32-51.2 67.2-60.8 92.8-60.8s54.4 12.8 80 35.2c32 28.8 60.8 32 99.2 16 19.2-6.4 38.4-12.8 54.4-12.8 25.6 0 83.2 9.6 102.4 92.8 9.6 41.6 32 64 70.4 73.6 41.6 9.6 67.2 28.8 80 57.6s12.8 60.8-3.2 99.2c-16 38.4-12.8 67.2 12.8 99.2 28.8 38.4 38.4 70.4 35.2 99.2zM793.6 409.6c-19.2-140.8-140.8-246.4-281.6-246.4-12.8 0-25.6 0-41.6 3.2-76.8 9.6-140.8 51.2-188.8 112-44.8 60.8-64 134.4-54.4 211.2 19.2 140.8 140.8 246.4 281.6 246.4 12.8 0 25.6 0 41.6-3.2 156.8-25.6 265.6-169.6 243.2-323.2z" />
<glyph unicode="&#xe63c;" glyph-name="i61-shield" d="M851.2 748.8c-150.4 6.4-256 48-313.6 124.8-12.8 16-38.4 16-51.2 0-57.6-76.8-163.2-118.4-313.6-124.8-16 0-32-16-32-32v-406.4c0-3.2 0-6.4 0-6.4 35.2-140.8 156.8-236.8 361.6-294.4 3.2 0 6.4 0 9.6 0s6.4 0 9.6 0c204.8 57.6 326.4 153.6 361.6 294.4 0 3.2 0 6.4 0 6.4v406.4c0 19.2-12.8 32-32 32zM688 502.4l-201.6-227.2c-6.4-6.4-12.8-9.6-22.4-9.6 0 0 0 0 0 0-9.6 0-16 3.2-22.4 9.6l-102.4 105.6c-12.8 12.8-12.8 32 0 44.8s32 12.8 44.8 0l80-83.2 179.2 201.6c12.8 12.8 32 16 44.8 3.2 9.6-9.6 12.8-32 0-44.8z" />
<glyph unicode="&#xe63d;" glyph-name="i62-description" d="M777.6 844.8h-534.4c-83.2 0-128-48-128-128v-534.4c0-83.2 48-128 128-128h534.4c83.2 0 128 48 128 128v534.4c3.2 80-44.8 128-128 128zM633.6 294.4h-364.8c-19.2 0-32 12.8-32 32s12.8 32 32 32h364.8c19.2 0 32-12.8 32-32s-16-32-32-32zM755.2 416h-486.4c-19.2 0-32 12.8-32 32s12.8 32 32 32h486.4c19.2 0 32-12.8 32-32s-16-32-32-32zM755.2 537.6h-486.4c-19.2 0-32 12.8-32 32s12.8 32 32 32h486.4c19.2 0 32-12.8 32-32s-16-32-32-32z" />
<glyph unicode="&#xe63e;" glyph-name="i63-questions" d="M755.2 51.2c-9.6 0-16 3.2-22.4 9.6l-112 112h-108.8c-99.2 0-153.6 54.4-153.6 153.6v44.8l-67.2-67.2c-9.6-9.6-22.4-12.8-35.2-6.4s-19.2 16-19.2 28.8v92.8c-80 9.6-121.6 64-121.6 150.4v121.6c0 99.2 54.4 153.6 153.6 153.6h243.2c99.2 0 153.6-54.4 153.6-153.6v-89.6h89.6c99.2 0 153.6-54.4 153.6-153.6v-121.6c0-86.4-41.6-140.8-121.6-150.4v-92.8c0-12.8-6.4-25.6-19.2-28.8-6.4 0-9.6-3.2-12.8-3.2zM268.8 780.8c-64 0-89.6-25.6-89.6-89.6v-121.6c0-64 25.6-89.6 89.6-89.6 19.2 0 32-12.8 32-32v-44.8l57.6 57.6c6.4 89.6 57.6 140.8 153.6 140.8h89.6v89.6c0 64-25.6 89.6-89.6 89.6h-243.2z" />
<glyph unicode="&#xe63f;" glyph-name="i64-reviews" d="M656 51.2h-412.8c-83.2 0-128 48-128 128v412.8c0 83.2 48 128 128 128h374.4l112 112c12.8 12.8 32 12.8 44.8 0l121.6-121.6c12.8-12.8 12.8-32 0-44.8l-112-112v-374.4c3.2-80-44.8-128-128-128zM246.4 659.2c-48 0-64-19.2-64-64v-412.8c0-48 19.2-64 64-64h412.8c48 0 64 19.2 64 64v310.4l-188.8-188.8c-6.4-6.4-12.8-9.6-22.4-9.6h-121.6c-19.2 0-32 12.8-32 32v121.6c0 9.6 3.2 16 9.6 22.4l188.8 188.8h-310.4z" />
<glyph unicode="&#xe640;" glyph-name="i65-youtube" d="M448 358.4l163.2 92.8-163.2 86.4zM0 960v-1024h1024v1024h-1024zM825.6 425.6c0-51.2-6.4-102.4-6.4-102.4s-6.4-44.8-25.6-64c-22.4-25.6-51.2-25.6-64-25.6-86.4-6.4-217.6-6.4-217.6-6.4s-163.2 0-211.2 6.4c-12.8 3.2-44.8 3.2-70.4 25.6-19.2 19.2-25.6 64-25.6 64s-6.4 51.2-6.4 102.4v48c0 51.2 6.4 102.4 6.4 102.4s6.4 44.8 25.6 64c22.4 25.6 51.2 25.6 64 25.6 86.4 6.4 217.6 6.4 217.6 6.4v0c0 0 131.2 0 217.6-6.4 12.8 0 38.4 0 64-25.6 19.2-19.2 25.6-64 25.6-64s6.4-51.2 6.4-102.4v-48z" />
<glyph unicode="&#xe641;" glyph-name="i66-delete" d="M947.2 758.4h-246.4v76.8c0 48-38.4 86.4-86.4 86.4h-208c-48 0-86.4-38.4-86.4-86.4v-76.8h-246.4c-19.2 0-32-12.8-32-32s12.8-32 32-32h70.4v-601.6c0-64 51.2-115.2 115.2-115.2h499.2c64 0 115.2 51.2 115.2 115.2v601.6h70.4c19.2 0 32 12.8 32 32s-9.6 32-28.8 32zM377.6 163.2c0-19.2-12.8-32-32-32s-32 12.8-32 32v368c0 19.2 12.8 32 32 32s32-12.8 32-32v-368zM547.2 163.2c0-19.2-12.8-32-32-32s-32 12.8-32 32v368c0 19.2 12.8 32 32 32s32-12.8 32-32v-368zM640 758.4h-252.8v76.8c0 12.8 9.6 22.4 22.4 22.4h208c12.8 0 22.4-9.6 22.4-22.4v-76.8zM716.8 163.2c0-19.2-12.8-32-32-32s-32 12.8-32 32v368c0 19.2 12.8 32 32 32s32-12.8 32-32v-368z" />
<glyph unicode="&#xe642;" glyph-name="i67-insurance" d="M979.2 393.6c0 240-185.6 441.6-422.4 460.8v41.6c0 19.2-12.8 32-32 32s-32-12.8-32-32v-41.6c-249.6-9.6-448-214.4-448-467.2 0-16 9.6-25.6 22.4-28.8 0 0 3.2 0 3.2-3.2 16-6.4 35.2 0 41.6 12.8 3.2 6.4 6.4 9.6 12.8 16l3.2 3.2c54.4 54.4 144 54.4 198.4 0 0 0 3.2-3.2 3.2-3.2 6.4-6.4 9.6-9.6 12.8-16 6.4-12.8 16-19.2 28.8-19.2 0 0 0 0 3.2 0 0 0 0 0 3.2 0 12.8 0 22.4 6.4 28.8 19.2 3.2 6.4 6.4 9.6 12.8 16l3.2 3.2c22.4 22.4 48 35.2 73.6 38.4v-332.8c0-6.4-3.2-60.8-60.8-60.8-54.4 0-60.8 44.8-60.8 60.8 0 19.2-16 32-32 32-19.2 0-32-16-32-32 0-48 35.2-121.6 124.8-121.6s124.8 73.6 124.8 124.8v336c22.4-6.4 41.6-16 57.6-35.2 0 0 3.2-3.2 3.2-3.2 6.4-6.4 9.6-9.6 12.8-16 6.4-9.6 16-16 28.8-16 3.2 0 3.2 0 6.4 0 0 0 0 0 0 0s0 0 0 0c9.6 0 19.2 6.4 25.6 16 3.2 6.4 6.4 9.6 12.8 16l3.2 3.2c54.4 54.4 144 54.4 198.4 0 0 0 3.2-3.2 3.2-3.2 6.4-6.4 9.6-9.6 12.8-16 6.4-12.8 16-19.2 28.8-19.2 3.2 0 9.6 0 12.8 3.2 9.6 3.2 16 19.2 12.8 32z" />
<glyph unicode="&#xe643;" glyph-name="i68-green" d="M918.4 16c0-22.4-16-38.4-38.4-38.4h-742.4c-22.4 0-38.4 16-38.4 38.4s16 38.4 38.4 38.4h128v86.4h-128c-12.8 0-22.4 6.4-28.8 16s-9.6 22.4-6.4 32l204.8 704c3.2 16 19.2 28.8 38.4 28.8s32-12.8 38.4-28.8l96-256c-64-57.6-105.6-140.8-105.6-233.6 0-54.4 12.8-105.6 38.4-150.4 3.2-3.2 3.2-6.4 6.4-9.6 25.6-41.6 57.6-76.8 96-102.4h-96v-86.4h195.2v121.6c-96 32-166.4 121.6-166.4 227.2 0 131.2 108.8 240 240 240s240-105.6 240-240c0-105.6-70.4-195.2-166.4-227.2v-121.6h118.4c19.2 0 38.4-19.2 38.4-38.4v0z" />
<glyph unicode="&#xe644;" glyph-name="i69-boca" d="M982.4 41.6c-9.6 0-12.8 3.2-19.2 9.6-12.8 9.6-25.6 12.8-38.4 22.4-6.4 3.2-9.6 6.4-16 9.6-19.2 9.6-41.6 22.4-60.8 28.8-25.6 9.6-54.4 12.8-80 22.4-12.8 3.2-22.4 12.8-32 19.2s-19.2 12.8-25.6 19.2c-9.6 9.6-19.2 22.4-28.8 35.2s-16 28.8-25.6 41.6c-6.4 6.4-12.8 12.8-22.4 22.4 0 12.8 6.4 16 22.4 9.6 6.4-3.2 12.8-3.2 19.2-3.2 3.2 0 9.6 3.2 9.6 9.6 3.2 3.2 6.4 9.6 6.4 16 3.2 28.8 28.8 35.2 51.2 44.8 16 6.4 28.8 16 35.2 32 3.2 9.6 9.6 19.2 19.2 28.8 9.6 12.8 12.8 28.8 12.8 44.8 3.2 32-3.2 60.8-9.6 89.6-6.4 22.4-12.8 44.8-19.2 67.2 0 3.2-3.2 9.6-6.4 12.8-19.2 9.6-19.2 28.8-22.4 44.8-3.2 19.2-6.4 41.6-9.6 60.8 0 12.8 0 25.6-3.2 38.4s-6.4 25.6-9.6 35.2c-3.2 12.8-9.6 28.8-16 41.6-3.2 9.6-9.6 16-12.8 25.6-211.2 0-419.2 0-630.4 0-6.4-16-12.8-32-22.4-48-3.2-9.6-3.2-22.4-6.4-32 0-12.8 3.2-22.4 6.4-35.2 3.2-16-3.2-28.8-9.6-44.8-9.6-22.4-6.4-48-3.2-70.4 3.2-9.6 3.2-19.2 6.4-28.8s9.6-16 12.8-25.6c0-3.2 3.2-3.2 3.2-6.4 3.2-16 9.6-32 9.6-48 3.2-12.8 6.4-28.8 3.2-41.6-3.2-22.4-3.2-41.6 3.2-64 3.2-9.6 0-25.6-9.6-32-3.2 0-3.2-3.2-6.4-6.4 9.6-3.2 9.6-6.4 9.6-16s6.4-19.2 12.8-25.6c6.4-6.4 6.4-12.8 3.2-22.4-3.2-16-3.2-35.2 0-51.2 0-9.6 0-19.2 0-32 0 0 0-3.2 0-3.2 12.8-6.4 3.2-16 0-19.2-6.4-9.6-3.2-19.2-3.2-25.6s0-12.8 12.8-12.8c-6.4-6.4-9.6-9.6 0-12.8 6.4 0 6.4-9.6 3.2-12.8-3.2-6.4-9.6-9.6-12.8-16 3.2 0 6.4-3.2 9.6-3.2 3.2-6.4 6.4-12.8 6.4-19.2 0 0 0-3.2 0-3.2-6.4-9.6-9.6-25.6-19.2-35.2-12.8-9.6-19.2-25.6-16-41.6 310.4 0 620.8 0 931.2 0 0 3.2-6.4 6.4-12.8 6.4zM640 425.6c-3.2 9.6-6.4 22.4-6.4 32s0 22.4 3.2 32c3.2 9.6 16 9.6 22.4 0 6.4-12.8 16-19.2 28.8-25.6 3.2 0 6.4 0 9.6 0 3.2 3.2 3.2 6.4 3.2 9.6 0 6.4 0 16-3.2 22.4 0 3.2-3.2 6.4-6.4 6.4-3.2 3.2-9.6 6.4-12.8 9.6 3.2 16 19.2 16 25.6 22.4 3.2 0 12.8-3.2 16-9.6 6.4-6.4 12.8-16 19.2-22.4 0 0 3.2 0 6.4-3.2 0 12.8 3.2 25.6 3.2 38.4 6.4-12.8 6.4-25.6 0-38.4-6.4-9.6-6.4-25.6-12.8-35.2-12.8-28.8-28.8-57.6-44.8-86.4-9.6-16-25.6-25.6-38.4-19.2s-22.4 16-22.4 32c0 6.4 6.4 12.8 6.4 22.4 0 3.2 3.2 6.4 3.2 12.8zM240 240c3.2 0 6.4 0 9.6 0 9.6 3.2 12.8 3.2 9.6-9.6-9.6 0-16 0-25.6 0-3.2 6.4-3.2 12.8 6.4 9.6zM368 195.2c0 0 0-3.2 0 0-16-3.2-25.6-12.8-25.6-25.6 0-3.2-6.4-6.4-9.6-9.6s-9.6-6.4-16-9.6c-9.6 0-22.4-3.2-32-6.4-3.2 3.2-6.4 6.4-6.4 9.6-6.4-3.2-9.6-6.4-19.2-12.8 0 0-3.2 3.2-6.4 3.2-6.4 12.8-6.4 12.8-19.2 6.4 0 3.2 0 6.4 0 9.6 3.2 0 6.4 0 12.8 0s16-3.2 25.6-6.4c-3.2 16-3.2 16 12.8 22.4 9.6 3.2 16 12.8 16 25.6 0 3.2-3.2 6.4-6.4 12.8-3.2 3.2-6.4 6.4-6.4 9.6-3.2 3.2-6.4 6.4-9.6 9.6 16 16 32 16 51.2 9.6 6.4-3.2 16-3.2 22.4-3.2 3.2 0 6.4 0 6.4-3.2 3.2-16 16-25.6 9.6-41.6zM582.4 508.8c-3.2-9.6-9.6-22.4-16-28.8 0-3.2 0-6.4 0-6.4 0-16 0-32-12.8-44.8-3.2-3.2 0-6.4 0-9.6 3.2-12.8-6.4-19.2-12.8-25.6-3.2-3.2-6.4-6.4-9.6-9.6 0 0 0 3.2 0 9.6-3.2-3.2-6.4-6.4-9.6-9.6-3.2 3.2-3.2 6.4-6.4 9.6 0-6.4-3.2-12.8-3.2-16 0-6.4 0-9.6 0-16s-3.2-9.6-6.4-16c-3.2-6.4-6.4-12.8-9.6-19.2 0-3.2-3.2-3.2-6.4-3.2-9.6 0-12.8-6.4-12.8-12.8-3.2-16 0-16-16-12.8-6.4-9.6-9.6-19.2-16-28.8-3.2-6.4-9.6-9.6-12.8-12.8 0 0-3.2-3.2-3.2-3.2-6.4-12.8-9.6-16-22.4-9.6-3.2 0 0 6.4-3.2 9.6 0 0 3.2 3.2 3.2 3.2-3.2 0-6.4 0-9.6 0s-9.6 0-9.6 3.2c-9.6 9.6-16 19.2-22.4 32-12.8-9.6-22.4-3.2-32-3.2 0 0-3.2 3.2-3.2 3.2-12.8-12.8-16 6.4-22.4 9.6-3.2 0-9.6-3.2-12.8-3.2 0 3.2 0 6.4 0 9.6-3.2 6.4-9.6 16-12.8 22.4s0 6.4 3.2 9.6 9.6 6.4 16 12.8c-6.4 6.4-9.6 12.8-16 12.8-12.8 0-25.6 0-35.2-3.2-16-9.6-32-9.6-48-3.2-6.4 0-12.8 6.4-19.2 12.8 0 0-3.2 0-3.2 0 0-3.2 3.2-6.4 3.2-9.6s3.2-6.4 3.2-9.6c-6.4-9.6-6.4-25.6-19.2-32-6.4-3.2-25.6 0-25.6 6.4-3.2 12.8-6.4 22.4-22.4 28.8 3.2 12.8-16 12.8-16 25.6 0 9.6-3.2 19.2-6.4 28.8s-6.4 22.4-9.6 32c-3.2 12.8-3.2 28.8 3.2 41.6 0 3.2 0 6.4 0 9.6 3.2 0 3.2 3.2 6.4 3.2 16-12.8 35.2-22.4 54.4-16 12.8 3.2 16-6.4 22.4-12.8 0 0 3.2-3.2 3.2-3.2 6.4 3.2 9.6 3.2 16 6.4 9.6 19.2 16 41.6 16 67.2s-6.4 35.2-32 41.6c-25.6 6.4-54.4 16-80 12.8-6.4 0-9.6 0-16-3.2s-9.6 0-9.6 6.4c3.2 9.6 6.4 16 6.4 25.6 3.2 12.8 3.2 28.8 3.2 41.6 0 3.2-3.2 6.4-6.4 9.6 0 3.2 0 9.6 0 12.8 0 12.8 0 25.6 3.2 35.2s0 19.2 0 28.8c0 6.4 0 9.6 6.4 12.8 3.2 0 6.4 9.6 9.6 12.8 9.6 12.8 25.6 19.2 38.4 16 16-3.2 32-6.4 48-9.6 0 0 3.2 0 3.2 0 12.8 3.2 25.6 6.4 38.4 12.8s28.8 9.6 44.8 12.8c12.8 3.2 25.6 0 38.4 3.2 6.4 0 9.6 3.2 16 3.2 9.6 0 16 0 25.6 0 3.2 0 3.2 0 6.4 0 12.8 3.2 22.4 9.6 35.2 16 3.2 0 9.6 0 12.8 0 9.6 0 16 3.2 25.6 3.2 16 0 32 0 44.8 0 22.4-3.2 41.6-3.2 54.4-28.8 3.2-6.4 9.6-9.6 12.8-16 3.2-9.6 3.2-19.2 6.4-28.8 3.2-12.8 6.4-28.8 9.6-41.6 0-6.4 0-9.6 0-16s3.2-12.8 6.4-19.2c0-3.2 0-6.4 0-9.6-3.2-9.6-12.8-22.4-6.4-35.2 6.4-16 16-28.8 25.6-44.8 6.4-9.6 12.8-19.2 12.8-28.8-6.4-19.2 0-38.4-9.6-54.4zM118.4 499.2c22.4-6.4 32 6.4 41.6 19.2 6.4-6.4 9.6-9.6 12.8-16-6.4-3.2-16-12.8-22.4-12.8-6.4-3.2-16 0-25.6 0 0 0-3.2 6.4-6.4 9.6zM630.4 220.8c-9.6-16-22.4-32-32-48 0 0-3.2 0-3.2 3.2 9.6 22.4 22.4 44.8 32 67.2 6.4-6.4 6.4-16 3.2-22.4zM345.6 585.6c-25.6 3.2-48-3.2-70.4-12.8-9.6-3.2-19.2-9.6-32-12.8 6.4-6.4 9.6-9.6 9.6-12.8 6.4-9.6 12.8-16 12.8-25.6 0-6.4 9.6-12.8 12.8-9.6 9.6 6.4 16 3.2 25.6 0 6.4-3.2 9.6-9.6 16-16 16-19.2 57.6-16 76.8 3.2-25.6-3.2-48-6.4-70.4 6.4 3.2 6.4 6.4 12.8 9.6 19.2 9.6-6.4 16-9.6 22.4-12.8 3.2 0 3.2 0 6.4 0 3.2 3.2 9.6 6.4 12.8 9.6 9.6 6.4 6.4 9.6-3.2 16 6.4 6.4 9.6 6.4 16 3.2 3.2 0 3.2-6.4 6.4-6.4 6.4-3.2 12.8-6.4 19.2-12.8s9.6-3.2 16 0c0 0 3.2 3.2 3.2 3.2 3.2 3.2 9.6 6.4 9.6 12.8 3.2 6.4 6.4 16 6.4 22.4-9.6 3.2-19.2 9.6-28.8 12.8-22.4 3.2-51.2 9.6-76.8 12.8z" />
<glyph unicode="&#xe645;" glyph-name="i70-delivery" d="M515.2 787.2h-409.6c-22.4 0-41.6-19.2-41.6-41.6v-409.6c0-6.4 6.4-12.8 12.8-12.8h467.2c6.4 0 12.8 6.4 12.8 12.8v409.6c0 22.4-19.2 41.6-41.6 41.6v0zM755.2 700.8h-131.2c-16 0-28.8-12.8-28.8-28.8v-393.6h-214.4c19.2-16 35.2-41.6 38.4-70.4h224c6.4 54.4 54.4 96 112 96s105.6-41.6 112-96h112c6.4 0 12.8 6.4 12.8 12.8v41.6c0 6.4-6.4 12.8-12.8 12.8h-32v188.8c0 22.4-6.4 44.8-19.2 60.8l-83.2 124.8c-19.2 35.2-54.4 51.2-89.6 51.2v0zM672 505.6c-6.4 0-12.8 6.4-12.8 12.8v96c0 6.4 6.4 12.8 12.8 12.8h105.6c3.2 0 9.6-3.2 12.8-6.4l67.2-96c6.4-9.6 0-22.4-12.8-22.4h-172.8v3.2zM758.4 281.6c-48 0-86.4-38.4-86.4-86.4s38.4-86.4 86.4-86.4c48 0 86.4 38.4 86.4 86.4s-38.4 86.4-86.4 86.4v0zM758.4 150.4c-22.4 0-41.6 19.2-41.6 41.6s19.2 41.6 41.6 41.6c22.4 0 41.6-19.2 41.6-41.6s-19.2-41.6-41.6-41.6v0zM307.2 281.6c-48 0-86.4-38.4-86.4-86.4s38.4-86.4 86.4-86.4c48 0 86.4 38.4 86.4 86.4s-38.4 86.4-86.4 86.4v0zM307.2 150.4c-22.4 0-41.6 19.2-41.6 41.6s19.2 41.6 41.6 41.6c22.4 0 41.6-19.2 41.6-41.6 3.2-22.4-16-41.6-41.6-41.6v0zM233.6 281.6v0 0zM233.6 281.6h-192c-6.4 0-12.8-6.4-12.8-12.8v-41.6c0-6.4 6.4-12.8 12.8-12.8h153.6c6.4 25.6 19.2 48 38.4 67.2v0z" />
<glyph unicode="&#xe646;" glyph-name="i71-open" d="M787.2 102.4h-550.4c-19.2 0-32 12.8-32 32v281.6l-176 176c-12.8 12.8-12.8 32 0 44.8s32 12.8 44.8 0l176-176h524.8l176 176c12.8 12.8 32 12.8 44.8 0s12.8-32 0-44.8l-176-176v-281.6c0-16-12.8-32-32-32zM512 544c-19.2 0-32 12.8-32 32v105.6l-38.4-38.4c-12.8-12.8-32-12.8-44.8 0s-12.8 32 0 44.8l92.8 92.8c0 0 0 0 0 0 6.4 6.4 12.8 9.6 19.2 9.6 0 0 0 0 0 0s0 0 0 0c3.2 0 3.2 0 6.4 0 6.4 0 12.8-3.2 16-6.4 0 0 0 0 3.2-3.2l92.8-92.8c12.8-12.8 12.8-32 0-44.8s-32-12.8-44.8 0l-38.4 38.4v-105.6c0-16-12.8-32-32-32z" />
<glyph unicode="&#xe647;" glyph-name="i72-return" d="M380.8 364.8c-12.8 0-25.6 3.2-38.4 6.4s-25.6 6.4-35.2 12.8v-48c22.4-9.6 48-16 80-16 35.2 0 64 6.4 83.2 22.4s28.8 35.2 28.8 60.8c0 19.2-6.4 32-16 44.8s-28.8 16-51.2 19.2v0c19.2 3.2 32 12.8 44.8 25.6s16 25.6 16 44.8c0 19.2-9.6 35.2-25.6 48s-38.4 16-67.2 16c-35.2 0-64-9.6-89.6-25.6l25.6-38.4c12.8 6.4 22.4 12.8 32 16s19.2 3.2 28.8 3.2c25.6 0 38.4-9.6 38.4-32 0-12.8-6.4-22.4-16-28.8s-25.6-9.6-48-9.6h-22.4v-44.8h22.4c22.4 0 38.4-3.2 51.2-9.6s16-16 16-28.8c0-12.8-3.2-25.6-12.8-32s-25.6-6.4-44.8-6.4zM694.4 355.2c16 22.4 22.4 57.6 22.4 105.6 0 44.8-9.6 80-25.6 105.6s-41.6 35.2-70.4 35.2c-32 0-57.6-12.8-73.6-35.2s-22.4-57.6-22.4-105.6c0-44.8 9.6-80 25.6-105.6s38.4-35.2 70.4-35.2c32 0 57.6 12.8 73.6 35.2zM649.6 390.4c-6.4-16-16-22.4-28.8-22.4s-22.4 6.4-28.8 22.4-9.6 38.4-9.6 73.6 3.2 57.6 9.6 73.6 16 22.4 28.8 22.4c12.8 0 22.4-6.4 28.8-22.4s9.6-38.4 9.6-73.6c0-35.2-3.2-60.8-9.6-73.6zM838.4 697.6c-32 44.8-70.4 80-115.2 105.6 0 0 0 0 0 0-12.8 6.4-25.6 16-41.6 19.2 0 0-3.2 0-3.2 3.2v0c-32 12.8-67.2 22.4-105.6 28.8-108.8 16-211.2-6.4-307.2-76.8-89.6-67.2-140.8-156.8-153.6-265.6-19.2-108.8 3.2-211.2 70.4-304 51.2-64 112-108.8 185.6-137.6l-32-12.8c-16-6.4-25.6-25.6-19.2-41.6 6.4-12.8 16-19.2 28.8-19.2 3.2 0 6.4 0 12.8 3.2l131.2 51.2c3.2 0 3.2 3.2 6.4 3.2s3.2 3.2 6.4 6.4c3.2 3.2 6.4 9.6 6.4 12.8s0 6.4 0 9.6c0 3.2-3.2 9.6-3.2 12.8s-3.2 3.2-3.2 3.2l-73.6 89.6c-9.6 12.8-32 16-44.8 3.2-12.8-9.6-16-32-3.2-44.8l19.2-22.4c-67.2 22.4-124.8 60.8-169.6 118.4-57.6 80-76.8 163.2-57.6 256 12.8 96 54.4 169.6 128 224 80 57.6 166.4 80 259.2 64 32-6.4 64-12.8 92.8-25.6 51.2-22.4 96-57.6 131.2-105.6 57.6-80 76.8-163.2 64-256-6.4-57.6-28.8-105.6-60.8-147.2-19.2-28.8-44.8-54.4-70.4-76.8-19.2-9.6-41.6-22.4-60.8-38.4l38.4-51.2c19.2 12.8 38.4 25.6 57.6 35.2 3.2 0 3.2 3.2 6.4 3.2 32 25.6 60.8 57.6 83.2 89.6 38.4 51.2 64 108.8 73.6 176 16 112-9.6 214.4-76.8 307.2z" />
<glyph unicode="&#xe648;" glyph-name="i73-24-7" d="M969.6 512c-16 121.6-80 230.4-176 307.2-99.2 73.6-220.8 105.6-342.4 89.6-28.8-16-25.6-51.2 6.4-38.4 230.4 32 444.8-131.2 473.6-361.6s-134.4-444.8-364.8-476.8c-89.6-12.8-179.2 3.2-256 48 12.8 6.4 25.6 19.2 32 32l3.2 9.6c9.6 19.2 6.4 51.2-3.2 70.4l-41.6 70.4c-9.6 19.2-38.4 35.2-57.6 35.2h-38.4c-54.4 92.8-54.4 208-6.4 304h38.4c22.4 0 48 16 57.6 38.4l38.4 73.6c9.6 19.2 9.6 51.2 0 70.4l-3.2 9.6c-9.6 19.2-35.2 35.2-57.6 35.2l-57.6-3.2c-9.6 0-28.8-12.8-28.8-12.8-89.6-99.2-140.8-230.4-137.6-364.8s57.6-265.6 150.4-358.4c0 0 19.2-12.8 28.8-12.8h25.6c0-3.2 3.2-6.4 6.4-9.6 70.4-44.8 150.4-70.4 233.6-73.6 25.6 0 51.2 0 76.8 3.2 256 25.6 435.2 262.4 400 515.2zM313.6 540.8c12.8 9.6 25.6 16 38.4 16 16 0 25.6-6.4 25.6-22.4 0-6.4-3.2-12.8-6.4-19.2s-9.6-12.8-19.2-22.4l-48-44.8v-28.8h105.6v28.8h-67.2l32 28.8c22.4 19.2 35.2 38.4 35.2 57.6 0 12.8-3.2 25.6-12.8 35.2s-22.4 12.8-38.4 12.8c-19.2 0-32-3.2-48-12.8v-28.8zM502.4 422.4h32v35.2h19.2v25.6h-19.2v102.4h-35.2l-67.2-105.6v-22.4h70.4v-35.2zM460.8 480l35.2 54.4c3.2 6.4 6.4 9.6 6.4 12.8v0c0-6.4 0-9.6 0-16v-51.2h-41.6zM720 214.4l57.6 147.2v16h-115.2v-28.8h76.8l-57.6-134.4zM704 659.2c-12.8 3.2-25.6-3.2-32-12.8l-163.2-438.4c-3.2-12.8 3.2-25.6 12.8-32 3.2 0 6.4 0 9.6 0 9.6 0 19.2 6.4 22.4 16l163.2 438.4c3.2 12.8-3.2 25.6-12.8 28.8z" />
<glyph unicode="&#xe649;" glyph-name="i74-0-24" d="M969.6 512c-16 121.6-80 230.4-176 307.2-99.2 73.6-220.8 105.6-342.4 89.6-28.8-16-25.6-51.2 6.4-38.4 230.4 32 444.8-131.2 473.6-361.6s-134.4-444.8-364.8-476.8c-89.6-12.8-179.2 3.2-256 48 12.8 6.4 25.6 19.2 32 32l3.2 9.6c9.6 19.2 6.4 51.2-3.2 70.4l-41.6 70.4c-9.6 19.2-38.4 35.2-57.6 35.2h-38.4c-54.4 92.8-54.4 208-6.4 304h38.4c22.4 0 48 16 57.6 38.4l38.4 73.6c9.6 19.2 9.6 51.2 0 70.4l-3.2 9.6c-9.6 19.2-35.2 35.2-57.6 35.2l-57.6-3.2c-9.6 0-28.8-12.8-28.8-12.8-89.6-99.2-140.8-230.4-137.6-364.8s57.6-265.6 150.4-358.4c0 0 19.2-12.8 28.8-12.8h25.6c0-3.2 3.2-6.4 6.4-9.6 70.4-44.8 150.4-70.4 233.6-73.6 25.6 0 51.2 0 76.8 3.2 256 25.6 435.2 262.4 400 515.2zM316.8 512c-9.6-16-16-35.2-16-64 0-54.4 19.2-80 57.6-80 19.2 0 35.2 6.4 44.8 22.4s16 35.2 16 64c0 54.4-19.2 83.2-57.6 83.2-19.2-3.2-35.2-9.6-44.8-25.6zM361.6 508.8c16 0 22.4-19.2 22.4-57.6s-6.4-57.6-22.4-57.6c-16 0-22.4 19.2-22.4 54.4-3.2 41.6 6.4 60.8 22.4 60.8zM505.6 444.8h60.8v-25.6h-60.8v25.6zM643.2 441.6l-48-44.8v-28.8h105.6v28.8h-67.2l32 28.8c22.4 19.2 35.2 38.4 35.2 57.6 0 12.8-3.2 25.6-12.8 35.2s-22.4 12.8-38.4 12.8c-19.2 0-32-3.2-48-12.8v-32c12.8 9.6 25.6 16 38.4 16 16 0 25.6-6.4 25.6-22.4 0-6.4-3.2-12.8-6.4-19.2 0 0-6.4-9.6-16-19.2zM790.4 531.2l-67.2-105.6v-22.4h70.4v-35.2h32v35.2h19.2v25.6h-19.2v102.4h-35.2zM790.4 480v-51.2h-41.6l35.2 54.4c3.2 6.4 6.4 9.6 6.4 12.8v0c0-6.4 0-9.6 0-16z" />
<glyph unicode="&#xe64a;" glyph-name="i75-safe" d="M745.6 502.4v185.6c0 128-105.6 233.6-233.6 233.6s-233.6-105.6-233.6-233.6v-185.6c-67.2-9.6-115.2-67.2-115.2-137.6v-246.4c0-76.8 64-140.8 140.8-140.8h419.2c76.8 0 140.8 64 140.8 140.8v246.4c-3.2 67.2-54.4 124.8-118.4 137.6zM512 806.4c67.2 0 121.6-54.4 121.6-121.6v-182.4h-243.2v182.4c0 67.2 54.4 121.6 121.6 121.6zM604.8 176l-48-35.2-41.6 60.8-41.6-60.8-48 35.2 44.8 54.4-64 19.2 19.2 57.6 60.8-22.4v64h57.6v-64l60.8 22.4 19.2-57.6-64-16 44.8-57.6z" />
<glyph unicode="&#xe64b;" glyph-name="i76-free-delivery" d="M345.6 272h172.8v198.4h-172.8zM57.6 614.4h201.6v-115.2h-201.6v115.2zM758.4 224c-48 0-86.4-38.4-86.4-86.4s38.4-86.4 86.4-86.4c48 0 86.4 38.4 86.4 86.4-3.2 48-41.6 86.4-86.4 86.4zM758.4 96c-22.4 0-41.6 19.2-41.6 41.6s19.2 41.6 41.6 41.6c22.4 0 41.6-19.2 41.6-41.6s-19.2-41.6-41.6-41.6zM547.2 614.4h-201.6v-115.2h201.6zM86.4 272h172.8v198.4h-172.8zM44.8 224c-6.4 0-12.8-6.4-12.8-12.8v-41.6c0-6.4 6.4-12.8 12.8-12.8h153.6c3.2 28.8 19.2 51.2 38.4 70.4h-192zM310.4 224c-48 0-86.4-38.4-86.4-86.4s38.4-86.4 86.4-86.4c48 0 86.4 38.4 86.4 86.4-3.2 48-41.6 86.4-86.4 86.4zM310.4 96c-22.4 0-41.6 19.2-41.6 41.6s19.2 41.6 41.6 41.6c22.4 0 41.6-19.2 41.6-41.6s-19.2-41.6-41.6-41.6zM979.2 224h-32v185.6c0 22.4-6.4 44.8-19.2 60.8l-83.2 124.8c-19.2 28.8-54.4 48-92.8 48h-131.2c-16 0-28.8-12.8-28.8-28.8v-393.6h-214.4c19.2-16 35.2-41.6 38.4-70.4h224c6.4 54.4 54.4 96 112 96s102.4-41.6 112-96h112c6.4 0 12.8 6.4 12.8 12.8v41.6c6.4 12.8 0 19.2-9.6 19.2zM844.8 448h-172.8c-6.4 0-12.8 6.4-12.8 12.8v96c0 6.4 6.4 12.8 12.8 12.8h105.6c3.2 0 9.6-3.2 12.8-6.4l67.2-96c3.2-6.4-3.2-19.2-12.8-19.2zM128 723.2c3.2-3.2 3.2-6.4 6.4-9.6 6.4-6.4 9.6-12.8 16-16s9.6-9.6 16-12.8c6.4-3.2 9.6-6.4 16-9.6s9.6-3.2 16-6.4c3.2-3.2 9.6-3.2 12.8-6.4 3.2 0 9.6-3.2 12.8-3.2 6.4-3.2 16-3.2 19.2-3.2 6.4 0 9.6 0 12.8 0 0 0 3.2 0 3.2 0s0 0 0 0l3.2 3.2c0 0-6.4 3.2-16 9.6 6.4-3.2-134.4 67.2-73.6 118.4 57.6 51.2 99.2-105.6 105.6-112 0-3.2 0-6.4 0-6.4h3.2c0 0 0 0 0 3.2 0 0 0 3.2 0 3.2 0 3.2 0 6.4 3.2 12.8 0 6.4 0 12.8 0 22.4s0 19.2-3.2 28.8c-3.2 9.6-3.2 22.4-9.6 32-3.2 6.4-3.2 12.8-6.4 19.2 0 3.2-3.2 6.4-6.4 9.6s-3.2 6.4-6.4 9.6-9.6 12.8-16 19.2c-3.2 3.2-6.4 6.4-12.8 9.6-3.2 3.2-9.6 3.2-16 6.4-6.4 0-12.8 3.2-19.2 3.2s-12.8 0-19.2-3.2-22.4-9.6-28.8-16c-3.2-3.2-6.4-6.4-9.6-9.6l-3.2-3.2c0 0 0 0 0 0v0 0 0 0l-3.2-3.2c-3.2-3.2-6.4-9.6-6.4-16-3.2-6.4-3.2-12.8-3.2-19.2 0-12.8 0-25.6 6.4-32 0-12.8 3.2-19.2 6.4-22.4zM460.8 729.6c35.2-64-86.4-73.6-99.2-76.8-9.6-3.2-16-3.2-16-3.2v-3.2c0 0 0 0 0 0s3.2 0 3.2 0 6.4-3.2 12.8-3.2c6.4 0 12.8 0 22.4-3.2 3.2 0 9.6 0 12.8 0s9.6 0 16 0c6.4 0 9.6 0 16 3.2 6.4 0 9.6 3.2 16 3.2 6.4 3.2 12.8 3.2 19.2 6.4s12.8 6.4 19.2 9.6c3.2 3.2 6.4 3.2 9.6 6.4s6.4 6.4 9.6 9.6 12.8 19.2 16 28.8c0 6.4 3.2 12.8 0 19.2 0 6.4 0 12.8-3.2 16v3.2c0 0 0 0 0 0v3.2c-3.2 3.2-3.2 9.6-6.4 12.8-6.4 9.6-12.8 16-22.4 25.6-6.4 3.2-9.6 6.4-16 9.6s-12.8 3.2-19.2 3.2c-6.4 0-12.8 0-16-3.2-6.4 0-9.6-3.2-12.8-3.2-9.6-3.2-16-6.4-22.4-12.8-3.2-3.2-6.4-3.2-9.6-6.4s-6.4-6.4-6.4-6.4c-3.2-6.4-9.6-9.6-12.8-16-6.4-9.6-12.8-19.2-19.2-28.8-3.2-9.6-6.4-19.2-9.6-25.6s-3.2-16-6.4-19.2c0-6.4-3.2-9.6-3.2-12.8 0 0 0-3.2 0-3.2s0-3.2 0-3.2l3.2-3.2c-6.4 9.6 89.6 137.6 124.8 73.6zM262.4 614.4h80c0 0 3.2 38.4-38.4 38.4s-41.6-38.4-41.6-38.4z" />
<glyph unicode="&#xe64c;" glyph-name="i77-97percent" d="M182.4 528h-112c-22.4 0-41.6-22.4-41.6-48v-307.2c0-25.6 19.2-48 41.6-48h112c22.4 0 41.6 22.4 41.6 48v307.2c0 25.6-16 48-41.6 48zM688 192c-6.4-12.8-16-19.2-28.8-19.2-6.4-6.4-12.8-12.8-22.4-12.8 0 0 0 0-3.2 0h-345.6c-9.6 0-16 6.4-16 16v307.2c0 6.4 6.4 16 12.8 16 0 0 0 0 3.2 0v0h6.4c0 0 0 0 3.2 0 12.8 3.2 25.6 9.6 35.2 19.2 0 0 0 0 0 3.2 3.2 3.2 3.2 6.4 6.4 9.6 22.4 44.8 44.8 108.8 35.2 169.6 0 3.2 0 3.2 0 6.4s0 3.2 0 6.4c0 16 12.8 28.8 28.8 28.8 9.6 0 19.2-3.2 22.4-12.8 0 0 0 0 3.2-3.2 6.4-9.6 67.2-89.6 19.2-204.8-3.2-6.4-3.2-12.8 0-16s9.6-6.4 16-6.4h172.8c16 0 28.8-12.8 28.8-28.8 0-6.4-3.2-12.8-6.4-19.2h38.4c3.2 6.4 3.2 12.8 3.2 19.2 0 16-6.4 32-19.2 44.8s-28.8 19.2-44.8 19.2c0 0 0 0 0 0h-147.2c41.6 128-32 214.4-35.2 217.6 0 0 0 0 0 0-12.8 16-32 25.6-51.2 25.6-35.2 0-64-28.8-64-64 0-3.2 0-3.2 0-6.4s0-3.2 0-6.4c12.8-57.6-12.8-118.4-28.8-153.6 0-3.2-3.2-6.4-3.2-9.6-3.2-3.2-6.4-3.2-9.6-6.4h-6.4c0 0-3.2 0-3.2 0-25.6 0-48-22.4-48-51.2v-307.2c0-28.8 22.4-51.2 51.2-51.2h348.8c0 0 3.2 0 3.2 0 32 3.2 57.6 32 57.6 64 0 6.4-3.2 16-3.2 22.4l-9.6-16zM464 233.6c-16 0-28.8 3.2-41.6 9.6v-38.4c12.8-6.4 28.8-9.6 44.8-9.6 28.8 0 51.2 9.6 67.2 32s25.6 51.2 25.6 89.6c0 32-6.4 57.6-19.2 73.6s-32 25.6-54.4 25.6c-22.4 0-38.4-6.4-54.4-19.2-12.8-12.8-22.4-32-22.4-54.4 0-19.2 6.4-35.2 16-48 12.8-12.8 25.6-19.2 41.6-19.2 19.2 0 32 6.4 41.6 22.4v0c0-19.2-3.2-35.2-12.8-48-3.2-9.6-16-16-32-16zM505.6 320c-6.4-6.4-12.8-9.6-19.2-9.6-9.6 0-16 3.2-22.4 9.6s-6.4 16-6.4 25.6c0 9.6 3.2 19.2 6.4 25.6 6.4 6.4 12.8 9.6 19.2 9.6 9.6 0 16-3.2 19.2-9.6 6.4-6.4 9.6-16 9.6-28.8 0-6.4-3.2-16-6.4-22.4zM928 416l-137.6-214.4h35.2l137.6 214.4zM848 323.2c9.6 9.6 16 25.6 16 41.6s-3.2 28.8-12.8 38.4c-9.6 9.6-22.4 12.8-35.2 12.8-16 0-28.8-6.4-38.4-16-3.2-3.2-6.4-9.6-9.6-16 0-3.2 0-3.2 0-6.4l-3.2-6.4c0-3.2 0-9.6 0-12.8 0-16 3.2-28.8 12.8-38.4s22.4-12.8 35.2-12.8c12.8 0 25.6 6.4 35.2 16zM790.4 361.6c0 19.2 6.4 28.8 22.4 28.8 12.8 0 19.2-9.6 19.2-28.8s-6.4-28.8-22.4-28.8c-12.8 0-19.2 9.6-19.2 28.8zM982.4 297.6c-9.6 9.6-22.4 12.8-35.2 12.8-16 0-28.8-6.4-38.4-16s-16-25.6-16-41.6c0-16 3.2-28.8 12.8-38.4s22.4-12.8 35.2-12.8c16 0 28.8 6.4 38.4 16s16 25.6 16 41.6c0 16-3.2 28.8-12.8 38.4zM944 227.2c-12.8 0-22.4 9.6-22.4 28.8s6.4 28.8 22.4 28.8c6.4 0 9.6-3.2 16-6.4 3.2-6.4 6.4-12.8 6.4-22.4-3.2-19.2-9.6-28.8-22.4-28.8zM585.6 377.6h99.2l-76.8-172.8h48l70.4 182.4c0 3.2 3.2 9.6 3.2 12.8v19.2h-147.2v-41.6z" />
<glyph unicode="&#xe64d;" glyph-name="i78-best-brands" d="M537.6 729.6l-217.6-86.4 12.8-80c-19.2-3.2-38.4-6.4-57.6-6.4-32-3.2-57.6 0-83.2 3.2-28.8 6.4-57.6 12.8-73.6 32-3.2 6.4-6.4 12.8-9.6 16-3.2 9.6 0 16 3.2 25.6 16 25.6 67.2 41.6 92.8 48 51.2 9.6 105.6 6.4 153.6-12.8 9.6-3.2 16 0 22.4 3.2 6.4 6.4 9.6 16 6.4 25.6-3.2 6.4-6.4 12.8-16 16-67.2 25.6-144 25.6-208 6.4-60.8-19.2-118.4-64-102.4-121.6 3.2-6.4 3.2-12.8 9.6-19.2 28.8-48 89.6-73.6 188.8-70.4 28.8 0 57.6 3.2 83.2 9.6l16-105.6 432-249.6 182.4 316.8-435.2 249.6zM480 550.4c-6.4-9.6-16-19.2-28.8-22.4s-25.6 0-35.2 6.4c-3.2 0-6.4 3.2-6.4 6.4 16 6.4 28.8 12.8 44.8 19.2 9.6 6.4 12.8 16 12.8 25.6-3.2 6.4-6.4 12.8-12.8 16s-12.8 3.2-19.2 0c-12.8-6.4-25.6-12.8-38.4-16 0 6.4 3.2 12.8 6.4 16 12.8 22.4 41.6 32 64 16 9.6-6.4 19.2-16 22.4-28.8-3.2-12.8-3.2-25.6-9.6-38.4zM777.6 409.6l-64-12.8c-3.2 0-6.4-3.2-9.6-9.6l-19.2-60.8c-3.2-9.6-16-12.8-19.2-3.2l-28.8 54.4c-3.2 3.2-6.4 6.4-9.6 6.4l-60.8-3.2c-9.6 0-12.8 12.8-6.4 19.2l41.6 44.8c3.2 3.2 3.2 6.4 3.2 12.8l-19.2 60.8c-3.2 9.6 6.4 19.2 16 12.8l57.6-25.6c3.2-3.2 9.6 0 12.8 0l48 38.4c6.4 6.4 19.2 0 16-9.6l-9.6-60.8c0-3.2 0-9.6 3.2-9.6l51.2-38.4c9.6 0 6.4-12.8-3.2-16z" />
<glyph unicode="&#xe64e;" glyph-name="i79-supermarket" d="M838.4 560c0 3.2-3.2 9.6-6.4 12.8l-224 249.6c0 3.2 0 6.4 0 12.8 0 25.6-6.4 44.8-22.4 60.8-16 19.2-35.2 25.6-57.6 25.6h-73.6c-22.4 0-41.6-9.6-57.6-25.6s-22.4-38.4-22.4-60.8v-9.6l-227.2-252.8c-3.2-3.2-3.2-6.4-6.4-9.6h-112v-153.6h32v-310.4c0-32 12.8-60.8 35.2-83.2s51.2-35.2 83.2-35.2h662.4c32 0 60.8 12.8 83.2 35.2s35.2 51.2 35.2 83.2v310.4h32v153.6h-153.6zM633.6 374.4v-246.4c0-9.6-3.2-16-9.6-19.2-12.8-12.8-28.8-12.8-41.6 0-6.4 6.4-9.6 12.8-9.6 19.2v246.4c0 9.6 3.2 16 9.6 22.4s12.8 9.6 19.2 9.6 16-3.2 19.2-9.6c9.6-6.4 12.8-12.8 12.8-22.4zM448 374.4v-246.4c0-9.6-3.2-16-9.6-19.2-12.8-12.8-28.8-12.8-41.6 0-6.4 6.4-9.6 12.8-9.6 19.2v246.4c0 9.6 3.2 16 9.6 22.4s12.8 9.6 19.2 9.6 16-3.2 19.2-9.6c12.8-6.4 12.8-12.8 12.8-22.4zM265.6 374.4v-246.4c0-9.6-3.2-16-9.6-19.2-12.8-12.8-28.8-12.8-41.6 0-6.4 6.4-9.6 12.8-9.6 19.2v246.4c0 9.6 3.2 16 9.6 22.4s12.8 9.6 19.2 9.6 16-3.2 19.2-9.6c9.6-6.4 12.8-12.8 12.8-22.4zM819.2 374.4v-246.4c0-9.6-3.2-16-9.6-19.2-12.8-12.8-28.8-12.8-41.6 0-6.4 6.4-9.6 12.8-9.6 19.2v246.4c0 9.6 3.2 16 9.6 22.4s12.8 9.6 19.2 9.6 16-3.2 19.2-9.6c9.6-6.4 12.8-12.8 12.8-22.4zM684.8 560h-384l160 185.6h67.2l156.8-185.6z" />
<glyph unicode="&#xe64f;" glyph-name="i80-online-delivery" d="M864 656h-19.2v166.4c0 83.2-48 131.2-131.2 131.2h-400c-83.2 0-131.2-48-131.2-131.2v-166.4h-19.2c-83.2 0-131.2-48-131.2-131.2 0 0 0 0 0 0v-448c0-83.2 48-131.2 131.2-131.2h704c83.2 3.2 128 51.2 128 131.2v448c0 0 0 0 0 0-3.2 80-48 128-131.2 131.2zM323.2 640c6.4 6.4 9.6 6.4 16 6.4h300.8c6.4 0 12.8-3.2 16-6.4 6.4-6.4 6.4-9.6 6.4-16s-3.2-12.8-6.4-16c-6.4-6.4-9.6-6.4-16-6.4h-300.8c-6.4 0-12.8 3.2-16 6.4-6.4 6.4-6.4 9.6-6.4 16s0 12.8 6.4 16zM313.6 774.4c0 6.4 3.2 12.8 6.4 16 6.4 6.4 9.6 6.4 16 6.4h198.4c6.4 0 12.8-3.2 16-6.4 6.4-6.4 6.4-9.6 6.4-16s-3.2-12.8-6.4-16c-6.4-6.4-9.6-6.4-16-6.4h-198.4c-6.4 0-12.8 3.2-16 6.4s-6.4 6.4-6.4 16zM323.2 489.6c6.4 6.4 9.6 6.4 16 6.4h300.8c6.4 0 12.8-3.2 16-6.4 6.4-6.4 6.4-9.6 6.4-16s-3.2-12.8-6.4-16c-6.4-6.4-9.6-6.4-16-6.4h-300.8c-6.4 0-12.8 3.2-16 6.4-6.4 6.4-6.4 9.6-6.4 16s0 12.8 6.4 16zM928 73.6c0-48-19.2-67.2-64-67.2h-700.8c-48 0-67.2 19.2-67.2 67.2v384l99.2-76.8c0 0 0 0 0 0l300.8-233.6c12.8-9.6 28.8-9.6 38.4 0l300.8 233.6c0 0 0 0 0 0l99.2 76.8v-384z" />
<glyph unicode="&#xe650;" glyph-name="i81-puzzle" d="M620.8 16h-412.8c-83.2 0-128 48-128 128v108.8c0 12.8 6.4 22.4 19.2 28.8 9.6 6.4 25.6 3.2 35.2-3.2 16-12.8 32-16 54.4-16 25.6 0 44.8 9.6 60.8 25.6 19.2 19.2 28.8 38.4 28.8 64s-9.6 44.8-25.6 64c-16 16-38.4 25.6-60.8 25.6-19.2 0-38.4-6.4-54.4-16-9.6-6.4-22.4-9.6-35.2-3.2-9.6 6.4-19.2 16-19.2 28.8v108.8c0 83.2 48 128 128 128h57.6c-3.2 12.8-6.4 25.6-6.4 41.6 0 41.6 16 76.8 44.8 108.8 32 28.8 67.2 44.8 108.8 44.8s76.8-16 108.8-44.8c28.8-28.8 44.8-67.2 44.8-108.8 0-12.8-3.2-28.8-6.4-41.6h57.6c83.2 0 128-48 128-128v-57.6c12.8 3.2 25.6 6.4 41.6 6.4 41.6 0 76.8-16 108.8-44.8 28.8-28.8 44.8-67.2 44.8-108.8s-16-76.8-44.8-108.8c-28.8-28.8-64-44.8-105.6-44.8-12.8 0-28.8 3.2-41.6 6.4v-57.6c-3.2-86.4-48-134.4-131.2-134.4zM144 204.8v-57.6c0-48 19.2-64 64-64h412.8c48 0 64 19.2 64 64v105.6c0 12.8 6.4 22.4 19.2 28.8 9.6 6.4 25.6 3.2 35.2-3.2 16-12.8 32-16 54.4-16 25.6 0 44.8 9.6 60.8 25.6 19.2 19.2 28.8 38.4 28.8 64s-9.6 44.8-25.6 64c-16 16-38.4 25.6-60.8 25.6-19.2 0-38.4-6.4-54.4-16-9.6-6.4-22.4-9.6-35.2-3.2-9.6 6.4-19.2 16-19.2 28.8v108.8c0 48-19.2 64-64 64h-108.8c-12.8 0-22.4 6.4-28.8 19.2s-3.2 25.6 3.2 35.2c12.8 16 19.2 32 19.2 51.2 0 25.6-9.6 44.8-25.6 64-16 16-38.4 25.6-60.8 25.6-25.6 0-44.8-9.6-64-25.6-16-16-25.6-38.4-25.6-64 0-19.2 6.4-38.4 19.2-54.4 6.4-9.6 9.6-22.4 3.2-35.2-6.4-9.6-16-19.2-28.8-19.2h-108.8c-48 0-64-19.2-64-64v-57.6c12.8 3.2 25.6 6.4 41.6 6.4 41.6 0 76.8-16 108.8-44.8 28.8-28.8 44.8-67.2 44.8-108.8s-16-76.8-44.8-108.8c-28.8-28.8-64-44.8-105.6-44.8-28.8 0-41.6 0-54.4 6.4z" />
<glyph unicode="&#xe651;" glyph-name="i82-contact" d="M512 940.8c-227.2 0-470.4-137.6-470.4-521.6 0-32 3.2-60.8 6.4-86.4 0 0 0-3.2 0-3.2 12.8-92.8 44.8-163.2 96-208 73.6-64 160-54.4 163.2-54.4 16 3.2 28.8 16 28.8 32v374.4c0 19.2-9.6 38.4-25.6 51.2s-35.2 16-57.6 12.8c-64-12.8-112-38.4-147.2-70.4 16 256 166.4 409.6 406.4 409.6s390.4-153.6 406.4-409.6c-35.2 32-86.4 54.4-147.2 70.4-19.2 3.2-41.6 0-57.6-12.8s-25.6-32-25.6-51.2v-374.4c0-9.6 3.2-16 9.6-22.4-25.6-9.6-51.2-16-80-19.2-6.4 16-19.2 25.6-35.2 25.6h-131.2c-22.4 0-38.4-19.2-38.4-38.4v-44.8c0-22.4 19.2-38.4 38.4-38.4h131.2c19.2 0 35.2 16 38.4 32 124.8 16 217.6 76.8 275.2 140.8 16 16 28.8 32 38.4 51.2 12.8 22.4 22.4 44.8 25.6 60.8 0 0 0 0 0 0 9.6 25.6 12.8 51.2 19.2 83.2 0 0 0 0 0 3.2 3.2 25.6 6.4 57.6 6.4 86.4-3.2 384-246.4 521.6-473.6 521.6z" />
<glyph unicode="&#xe652;" glyph-name="i83-showroom" d="M896 803.2h-768c-19.2 0-32-12.8-32-32v-92.8c0-19.2 12.8-32 32-32h771.2c19.2 0 32 12.8 32 32v92.8c-3.2 16-16 32-35.2 32zM896 582.4h-768c-19.2 0-32-12.8-32-32v-425.6c0-19.2 12.8-32 32-32h416c19.2 0 32 12.8 32 32v281.6h160v-281.6c0-19.2 12.8-32 32-32h131.2c19.2 0 32 12.8 32 32v422.4c-3.2 19.2-16 35.2-35.2 35.2zM441.6 284.8c0-19.2-12.8-32-32-32h-156.8c-19.2 0-32 12.8-32 32v156.8c0 19.2 12.8 32 32 32h156.8c19.2 0 32-12.8 32-32v-156.8zM288 406.4h92.8v-92.8h-92.8v92.8z" />
<glyph unicode="&#xe653;" glyph-name="i84-shopping-list" d="M700.8 937.6c-137.6 0-249.6-112-249.6-249.6s112-249.6 249.6-249.6 249.6 112 249.6 249.6-112 249.6-249.6 249.6zM822.4 726.4l-124.8-124.8c-6.4-6.4-12.8-9.6-22.4-9.6s-16 3.2-22.4 9.6l-76.8 76.8c-12.8 12.8-12.8 32 0 44.8s32 12.8 44.8 0l54.4-54.4 102.4 102.4c12.8 12.8 32 12.8 44.8 0s12.8-35.2 0-44.8zM499.2 444.8h-246.4c-19.2 0-32 12.8-32 32s12.8 32 32 32h188.8c-22.4 32-38.4 67.2-48 102.4-3.2 0-6.4-3.2-9.6-3.2h-134.4c-19.2 0-32 12.8-32 32s12.8 32 32 32h134.4c0 6.4 0 9.6 0 16 0 83.2 32 156.8 83.2 211.2h-361.6c-19.2 0-32-12.8-32-32v-883.2c0-19.2 12.8-32 32-32h675.2c19.2 0 32 12.8 32 32v406.4c-35.2-12.8-73.6-22.4-112-22.4-73.6 9.6-144 35.2-201.6 76.8 3.2 0 3.2 0 0 0zM633.6 121.6h-380.8c-19.2 0-32 12.8-32 32s12.8 32 32 32h380.8c19.2 0 32-12.8 32-32s-16-32-32-32zM633.6 288h-380.8c-19.2 0-32 12.8-32 32s12.8 32 32 32h380.8c19.2 0 32-12.8 32-32s-16-32-32-32z" />
<glyph unicode="&#xe654;" glyph-name="i85-specs" d="M777.6 844.8h-534.4c-83.2 0-128-48-128-128v-534.4c0-83.2 48-128 128-128h534.4c83.2 0 128 48 128 128v534.4c3.2 80-44.8 128-128 128zM374.4 224c-12.8-12.8-25.6-19.2-44.8-19.2-16 0-32 6.4-44.8 19.2s-19.2 25.6-16 44.8c0 16 6.4 32 16 44.8 12.8 12.8 25.6 19.2 44.8 16 16 0 32-6.4 44.8-16 12.8-12.8 19.2-25.6 19.2-44.8s-6.4-35.2-19.2-44.8zM374.4 403.2c-12.8-12.8-25.6-19.2-44.8-19.2-16 0-32 6.4-44.8 19.2s-19.2 25.6-16 44.8c0 16 6.4 32 16 44.8s25.6 19.2 44.8 16c16 0 32-6.4 44.8-16 12.8-12.8 19.2-25.6 19.2-44.8 0-16-6.4-32-19.2-44.8zM374.4 585.6c-12.8-12.8-25.6-19.2-44.8-19.2-16 0-32 6.4-44.8 19.2s-19.2 25.6-16 44.8c0 16 6.4 32 16 44.8 12.8 12.8 25.6 19.2 44.8 16 16 0 32-6.4 44.8-16 12.8-12.8 19.2-25.6 19.2-44.8 0-16-6.4-32-19.2-44.8zM755.2 220.8h-256c-19.2 0-32 12.8-32 32s12.8 32 32 32h256c19.2 0 32-12.8 32-32s-16-32-32-32zM755.2 416h-256c-19.2 0-32 12.8-32 32s12.8 32 32 32h256c19.2 0 32-12.8 32-32s-16-32-32-32zM755.2 611.2h-256c-19.2 0-32 12.8-32 32s12.8 32 32 32h256c19.2 0 32-12.8 32-32s-16-32-32-32z" />
<glyph unicode="&#xe655;" glyph-name="i86-same-day" d="M774.4 816h-16v16c0 19.2-12.8 32-32 32s-32-12.8-32-32v-16h-368v16c0 19.2-12.8 32-32 32s-32-12.8-32-32v-16h-16c-80 0-128-48-128-128v-528c0-80 48-128 128-128h528c80 0 128 48 128 128v528c0 83.2-44.8 128-128 128zM553.6 169.6v0l-64-3.2v160h-44.8v44.8h25.6c6.4 3.2 12.8 6.4 19.2 6.4 3.2 3.2 6.4 9.6 12.8 12.8 0 3.2 3.2 9.6 6.4 16h48v-236.8zM838.4 576h-656v112c0 44.8 19.2 64 64 64h16v-16c0-19.2 12.8-32 32-32s32 12.8 32 32v16h368v-16c0-19.2 12.8-32 32-32s32 12.8 32 32v16h16c44.8 0 64-19.2 64-64v-112z" />
<glyph unicode="&#xe656;" glyph-name="i87-2h" d="M745.6 864h-470.4c-137.6 0-214.4-76.8-214.4-214.4v-425.6c0-70.4 19.2-121.6 57.6-150.4 35.2-28.8 86.4-41.6 156.8-41.6h470.4c70.4 0 121.6 12.8 156.8 41.6 38.4 32 57.6 83.2 57.6 150.4v425.6c0 137.6-73.6 214.4-214.4 214.4zM534.4 163.2v0l-352-3.2v3.2c0 25.6 3.2 48 6.4 70.4s12.8 44.8 22.4 64c9.6 22.4 22.4 41.6 35.2 60.8 12.8 22.4 32 41.6 57.6 57.6l76.8 76.8 19.2 25.6 6.4 35.2v38.4c-3.2 25.6-6.4 41.6-9.6 51.2-9.6 9.6-25.6 12.8-41.6 12.8s-28.8-3.2-35.2-6.4c-9.6-6.4-16-12.8-19.2-22.4s-6.4-22.4-6.4-35.2l-3.2-44.8-112-3.2v28.8c0 28.8 3.2 51.2 9.6 73.6 6.4 19.2 16 35.2 28.8 51.2 32 28.8 76.8 41.6 134.4 38.4 54.4 3.2 99.2-12.8 134.4-38.4 12.8-12.8 22.4-28.8 28.8-48s9.6-41.6 9.6-64c0-22.4 0-38.4-3.2-54.4-6.4-16-12.8-28.8-19.2-44.8s-12.8-28.8-25.6-44.8l-105.6-105.6c-16-12.8-28.8-28.8-41.6-48l-12.8-25.6-6.4-6.4h217.6v-92.8zM841.6 448v0l-64-3.2v121.6h-112v-118.4l-3.2-3.2h-60.8v288h64v-108.8h112v108.8h64v-284.8z" />
<glyph unicode="&#xe657;" glyph-name="i88-warranty" d="M768 848h-512c-35.2 0-64-28.8-64-64v-512c0-35.2 28.8-64 64-64h64v64h-64v512h512v-512h-67.2v-64h67.2c35.2 0 64 28.8 64 64v512c0 35.2-28.8 64-64 64zM579.2 278.4c6.4 6.4 12.8 9.6 19.2 16 0 0 0 3.2 3.2 3.2 3.2 6.4 9.6 9.6 12.8 16 0 3.2 3.2 3.2 3.2 6.4 3.2 6.4 6.4 12.8 6.4 19.2 0 3.2 0 3.2 3.2 6.4 3.2 9.6 3.2 16 3.2 25.6 0 0 0 0 0 0s0 0 0 0c0 44.8-25.6 80-60.8 99.2-16 6.4-32 12.8-51.2 12.8-38.4 0-73.6-19.2-92.8-51.2-12.8-19.2-19.2-38.4-19.2-64 0 0 0 0 0 0s0 0 0 0c0-9.6 0-16 3.2-25.6 0-3.2 0-3.2 3.2-6.4 3.2-6.4 3.2-12.8 6.4-19.2 0 0 0-3.2 3.2-3.2 3.2-6.4 6.4-12.8 12.8-16 0 0 0 0 3.2-3.2 6.4-6.4 9.6-12.8 16-16l-92.8-192c-3.2-6.4-3.2-9.6 0-16 3.2-3.2 9.6-6.4 12.8-6.4h96c6.4 0 12.8 3.2 16 9.6l32 83.2 32-83.2c3.2-6.4 9.6-9.6 16-9.6h96c6.4 0 9.6 3.2 12.8 6.4s3.2 9.6 0 16l-96 192zM467.2 435.2c12.8 9.6 28.8 12.8 44.8 12.8s32-6.4 44.8-12.8c22.4-16 35.2-38.4 35.2-67.2 0-44.8-35.2-80-80-80s-80 35.2-80 80c0 28.8 12.8 51.2 35.2 67.2zM643.2 688h-259.2c-19.2 0-32-12.8-32-32s12.8-32 32-32h259.2c19.2 0 32 12.8 32 32s-12.8 32-32 32zM643.2 592h-259.2c-19.2 0-32-12.8-32-32s12.8-32 32-32h259.2c19.2 0 32 12.8 32 32s-12.8 32-32 32z" />
<glyph unicode="&#xe658;" glyph-name="i89-exclusive" d="M857.6 464l-70.4 96-19.2 118.4c-3.2 12.8-12.8 25.6-25.6 25.6l-115.2 19.2-96 70.4c-12.8 9.6-25.6 9.6-38.4 0l-96-70.4-115.2-19.2c-12.8-3.2-25.6-12.8-25.6-25.6l-19.2-118.4-70.4-96c-9.6-12.8-9.6-25.6 0-38.4l70.4-92.8 19.2-115.2c3.2-12.8 12.8-25.6 25.6-25.6l115.2-19.2 96-70.4c6.4-3.2 12.8-6.4 19.2-6.4s12.8 3.2 19.2 6.4l96 70.4 115.2 19.2c12.8 3.2 25.6 12.8 25.6 25.6l19.2 115.2 70.4 92.8c9.6 12.8 9.6 28.8 0 38.4zM691.2 406.4l-230.4-3.2c6.4-12.8 12.8-22.4 25.6-28.8 9.6-9.6 25.6-12.8 44.8-12.8 12.8 0 28.8 3.2 41.6 6.4 6.4 3.2 12.8 6.4 22.4 9.6l54.4-67.2v-3.2l-32-22.4c-12.8-3.2-28.8-9.6-41.6-12.8-16-3.2-32-3.2-51.2-3.2-12.8 0-25.6 0-38.4 3.2s-25.6 3.2-35.2 6.4c-12.8 3.2-22.4 9.6-35.2 12.8-9.6 6.4-19.2 12.8-25.6 19.2-19.2 16-28.8 35.2-38.4 54.4-3.2 9.6-9.6 22.4-9.6 35.2-3.2 12.8-3.2 25.6-3.2 38.4s0 22.4 3.2 35.2c3.2 12.8 6.4 22.4 9.6 35.2 6.4 19.2 19.2 35.2 38.4 54.4 6.4 9.6 16 16 25.6 22.4s19.2 9.6 28.8 12.8c9.6 3.2 19.2 9.6 32 9.6 12.8 3.2 25.6 3.2 38.4 3.2s28.8 0 41.6-3.2c12.8-3.2 25.6-6.4 38.4-9.6 22.4-9.6 38.4-25.6 54.4-41.6 9.6-9.6 19.2-22.4 28.8-41.6 9.6-25.6 16-64 12.8-108.8zM512 531.2c-16 0-28.8-6.4-38.4-16s-16-22.4-22.4-38.4h118.4c-3.2 19.2-6.4 32-16 38.4-9.6 12.8-25.6 16-41.6 16z" />
<glyph unicode="&#xe659;" glyph-name="i90-star" d="M729.6 83.2c-6.4 0-9.6 0-16 3.2l-201.6 112-201.6-112c-9.6-6.4-25.6-6.4-35.2 3.2-9.6 6.4-16 19.2-12.8 32l44.8 227.2-169.6 153.6c-9.6 9.6-12.8 22.4-9.6 32 3.2 12.8 12.8 19.2 25.6 22.4l230.4 28.8 96 211.2c6.4 12.8 16 19.2 28.8 19.2 0 0 0 0 0 0 12.8 0 22.4-6.4 28.8-19.2l99.2-211.2 230.4-28.8c12.8 0 22.4-9.6 25.6-22.4s0-25.6-9.6-32l-166.4-153.6 41.6-227.2c3.2-12.8-3.2-25.6-12.8-32-3.2-6.4-9.6-6.4-16-6.4z" />
<glyph unicode="&#xe65a;" glyph-name="i91-360-view" d="M787.2 560c-9.6 0-16 0-22.4-6.4-6.4-3.2-12.8-9.6-19.2-19.2-3.2-9.6-6.4-19.2-6.4-28.8s0-19.2 3.2-25.6c3.2-6.4 6.4-16 9.6-19.2 9.6-9.6 22.4-16 35.2-16 9.6 0 16 3.2 25.6 6.4 6.4 3.2 12.8 12.8 16 19.2 3.2 9.6 6.4 22.4 6.4 32 0 6.4 0 12.8-3.2 22.4-3.2 6.4-6.4 12.8-9.6 19.2-9.6 12.8-22.4 16-35.2 16zM800 476.8c-3.2-6.4-9.6-9.6-16-9.6s-9.6 3.2-12.8 9.6c-3.2 6.4-6.4 12.8-6.4 25.6 0 9.6 3.2 19.2 6.4 25.6s6.4 9.6 12.8 9.6c6.4 0 12.8-3.2 16-9.6s6.4-12.8 6.4-25.6c0-12.8 0-19.2-6.4-25.6zM316.8 371.2c-6.4 0-12.8 3.2-16 9.6-6.4 6.4-9.6 12.8-9.6 22.4v0l-32-3.2c0-19.2 6.4-35.2 19.2-44.8 9.6-9.6 25.6-16 41.6-16s32 6.4 44.8 19.2c12.8 12.8 19.2 32 19.2 51.2 0 12.8-3.2 25.6-9.6 35.2s-16 16-22.4 19.2c6.4 6.4 12.8 12.8 19.2 19.2 3.2 9.6 6.4 19.2 6.4 28.8 0 6.4 0 12.8-3.2 19.2s-6.4 12.8-12.8 19.2-22.4 19.2-41.6 19.2c-6.4 0-12.8 0-19.2-3.2s-12.8-6.4-16-9.6c-9.6-9.6-19.2-22.4-19.2-44.8l32-6.4c0 9.6 3.2 16 9.6 19.2 3.2 3.2 6.4 6.4 12.8 6.4s12.8-3.2 16-6.4c3.2-3.2 3.2-9.6 3.2-16 0-9.6-3.2-16-6.4-22.4-6.4-3.2-12.8-6.4-22.4-6.4l-3.2-35.2c3.2 3.2 9.6 3.2 12.8 3.2 6.4 0 12.8-3.2 19.2-9.6 3.2-6.4 6.4-12.8 6.4-22.4 0-12.8-3.2-22.4-6.4-28.8-9.6-12.8-16-16-22.4-16zM515.2 505.6v0c0 9.6-3.2 19.2-3.2 25.6-3.2 6.4-6.4 12.8-12.8 16-9.6 9.6-22.4 16-35.2 12.8-19.2 0-35.2-9.6-48-28.8-12.8-16-19.2-44.8-19.2-86.4s6.4-70.4 19.2-86.4c12.8-16 25.6-25.6 44.8-25.6 16 0 32 6.4 41.6 19.2s16 32 16 54.4c0 22.4-6.4 38.4-16 51.2-12.8 12.8-25.6 22.4-38.4 19.2-6.4 0-12.8 0-16-3.2-6.4-3.2-9.6-6.4-12.8-12.8 0 12.8 3.2 22.4 3.2 28.8s3.2 12.8 6.4 16c3.2 6.4 9.6 12.8 19.2 12.8 12.8 0 19.2-6.4 19.2-22.4v0l32 9.6zM444.8 441.6c3.2 6.4 9.6 9.6 16 9.6s12.8-3.2 19.2-9.6c3.2-6.4 6.4-16 6.4-28.8s-3.2-25.6-6.4-32c-3.2-6.4-9.6-9.6-16-9.6s-12.8 3.2-16 12.8c-3.2 6.4-6.4 19.2-6.4 32-3.2 9.6 0 19.2 3.2 25.6zM598.4 563.2c-19.2 0-32-6.4-41.6-25.6-12.8-16-16-48-16-86.4 0-41.6 3.2-70.4 16-89.6 9.6-16 25.6-25.6 41.6-25.6s32 9.6 41.6 25.6c9.6 16 16 48 16 89.6s-6.4 70.4-16 86.4c-9.6 16-25.6 25.6-41.6 25.6zM617.6 406.4c0-9.6-3.2-19.2-3.2-22.4-3.2-9.6-9.6-12.8-16-12.8s-12.8 6.4-16 12.8c-3.2 3.2-3.2 12.8-3.2 22.4s0 25.6 0 41.6c0 16 0 28.8 0 41.6 0 9.6 3.2 19.2 3.2 22.4 3.2 9.6 9.6 12.8 16 12.8s12.8-3.2 16-12.8c0-3.2 3.2-12.8 3.2-22.4s0-22.4 3.2-41.6c0-16 0-28.8-3.2-41.6zM896 310.4c0 3.2-3.2 6.4-3.2 6.4-3.2 3.2-6.4 9.6-9.6 12.8s-6.4 3.2-9.6 3.2c-3.2 0-9.6 0-12.8 0s-3.2 0-6.4-3.2l-108.8-41.6c-16-6.4-25.6-25.6-19.2-41.6s25.6-25.6 41.6-19.2l28.8 9.6c-41.6-57.6-96-96-166.4-121.6-92.8-28.8-179.2-22.4-262.4 25.6-86.4 41.6-144 105.6-172.8 195.2-28.8 96-22.4 182.4 22.4 265.6 16 28.8 35.2 57.6 54.4 80 38.4 41.6 86.4 73.6 140.8 89.6 92.8 28.8 179.2 22.4 262.4-22.4 51.2-25.6 92.8-60.8 121.6-105.6 22.4-28.8 38.4-60.8 51.2-92.8l60.8 22.4c-16 38.4-35.2 76.8-60.8 108.8-35.2 54.4-83.2 96-144 124.8-99.2 51.2-201.6 60.8-310.4 25.6-51.2-16-96-41.6-134.4-76.8 0 0 0 0 0 0-12.8-9.6-22.4-22.4-32-32 0 0-3.2-3.2-3.2-3.2v0c-22.4-25.6-44.8-57.6-60.8-89.6-51.2-99.2-60.8-204.8-25.6-313.6 35.2-105.6 102.4-185.6 204.8-230.4 57.6-32 121.6-48 185.6-48 41.6 0 83.2 6.4 124.8 19.2 76.8 28.8 137.6 73.6 188.8 134.4l3.2-32c0-19.2 16-32 35.2-28.8 19.2 0 32 16 28.8 35.2l-6.4 140.8c-6.4 0-6.4 3.2-6.4 3.2z" />
<glyph unicode="&#xe65b;" glyph-name="i92-play" d="M784 720c-73.6 73.6-166.4 112-272 112s-198.4-38.4-272-112c0 0 0 0 0 0-73.6-73.6-112-166.4-112-272s38.4-198.4 112-272c73.6-73.6 166.4-112 272-112s198.4 38.4 272 112c73.6 73.6 112 166.4 112 272s-38.4 198.4-112 272zM678.4 419.2l-236.8-118.4c-3.2-3.2-9.6-3.2-12.8-3.2-6.4 0-12.8 0-16 3.2-9.6 6.4-16 16-16 28.8v236.8c0 9.6 6.4 22.4 16 28.8s22.4 6.4 32 0l236.8-118.4c9.6-6.4 19.2-16 19.2-28.8s-12.8-22.4-22.4-28.8z" />
<glyph unicode="&#xe65c;" glyph-name="i93-like" d="M774.4 838.4h-521.6c-80 0-128-44.8-128-128v-521.6c0-80 44.8-128 128-128h521.6c80 0 128 44.8 128 128v521.6c-3.2 80-48 128-128 128zM364.8 297.6c0-12.8-3.2-19.2-12.8-28.8-6.4-6.4-16-9.6-28.8-9.6-9.6 0-19.2 3.2-25.6 9.6-9.6 6.4-12.8 16-12.8 28.8v163.2c0 12.8 3.2 19.2 12.8 25.6 6.4 6.4 16 9.6 25.6 9.6s19.2-3.2 28.8-9.6c6.4-6.4 12.8-16 12.8-25.6v-163.2zM713.6 348.8c-9.6-38.4-32-70.4-60.8-96-25.6-19.2-51.2-32-76.8-32-6.4 0-12.8 0-16 0-73.6 16-118.4 28.8-140.8 41.6-6.4 3.2-6.4 6.4-9.6 12.8l-6.4 208c0 6.4 3.2 12.8 9.6 16 38.4 16 76.8 35.2 112 54.4 28.8 16 57.6 44.8 86.4 83.2 3.2 6.4 6.4 9.6 9.6 12.8 22.4 22.4 60.8 22.4 83.2 0 9.6-9.6 16-25.6 16-38.4 0-6.4 0-16-3.2-22.4s-6.4-12.8-6.4-16c-16-28.8-38.4-54.4-67.2-76.8-3.2-3.2-3.2-9.6-3.2-9.6s0-3.2 3.2-3.2l35.2-9.6c28.8-6.4 48-19.2 57.6-32 9.6-16 16-32 12.8-48s-16-32-35.2-44.8zM672 448l-35.2 9.6c-16 6.4-25.6 16-28.8 28.8 0 9.6 0 25.6 12.8 38.4 25.6 19.2 48 41.6 60.8 67.2 0 3.2 3.2 9.6 6.4 12.8 0 3.2 0 6.4 0 9.6 0 6.4-3.2 12.8-9.6 16-9.6 12.8-28.8 9.6-35.2 0 0 0 0 0-3.2-3.2 0-3.2-3.2-6.4-3.2-6.4-32-44.8-64-76.8-96-92.8-32-19.2-67.2-35.2-105.6-51.2l6.4-188.8c16-6.4 51.2-19.2 124.8-35.2 22.4-3.2 44.8 3.2 67.2 22.4 25.6 22.4 41.6 48 51.2 83.2 0 3.2 3.2 9.6 9.6 9.6 16 6.4 25.6 16 25.6 28.8 0 6.4-3.2 16-9.6 25.6-3.2 9.6-9.6 19.2-38.4 25.6z" />
<glyph unicode="&#xe65d;" glyph-name="i94-equal" d="M336 512h352c19.2 0 32 12.8 32 32s-12.8 32-32 32h-352c-19.2 0-32-12.8-32-32s12.8-32 32-32zM688 387.2h-352c-19.2 0-32-12.8-32-32s12.8-32 32-32h352c19.2 0 32 12.8 32 32s-12.8 32-32 32z" />
<glyph unicode="&#xe65e;" glyph-name="i95-return-14" d="M377.6 483.2v-160h57.6v275.2h-48l-89.6-70.4 28.8-35.2 32 25.6c3.2 3.2 9.6 9.6 19.2 19.2v-54.4zM675.2 323.2v57.6h32v44.8h-32v172.8h-54.4l-121.6-176v-41.6h118.4v-57.6h57.6zM553.6 425.6l51.2 76.8c6.4 9.6 12.8 19.2 16 28.8v0c0-3.2 0-9.6 0-25.6s0-25.6 0-35.2v-48h-67.2zM838.4 697.6c-32 44.8-70.4 80-115.2 105.6 0 0 0 0 0 0-12.8 6.4-25.6 16-41.6 19.2 0 0-3.2 0-3.2 3.2v0c-32 12.8-67.2 22.4-105.6 28.8-108.8 16-211.2-6.4-307.2-76.8-89.6-67.2-140.8-156.8-153.6-265.6-19.2-108.8 3.2-211.2 70.4-304 51.2-64 112-108.8 185.6-137.6l-32-12.8c-16-6.4-25.6-25.6-19.2-41.6 6.4-12.8 16-19.2 28.8-19.2 3.2 0 6.4 0 12.8 3.2l131.2 51.2c3.2 0 3.2 3.2 6.4 3.2s3.2 3.2 6.4 6.4c3.2 3.2 6.4 9.6 6.4 12.8s0 6.4 0 9.6c0 3.2-3.2 9.6-3.2 12.8s-3.2 3.2-3.2 3.2l-73.6 89.6c-9.6 12.8-32 16-44.8 3.2-12.8-9.6-16-32-3.2-44.8l19.2-22.4c-67.2 22.4-124.8 60.8-169.6 118.4-57.6 80-76.8 163.2-57.6 256 12.8 96 54.4 169.6 128 224 80 57.6 166.4 80 259.2 64 32-6.4 64-12.8 92.8-25.6 51.2-22.4 96-57.6 131.2-105.6 57.6-80 76.8-163.2 64-256-6.4-57.6-28.8-105.6-60.8-147.2-19.2-28.8-44.8-54.4-70.4-76.8-19.2-9.6-41.6-22.4-60.8-38.4l38.4-51.2c19.2 12.8 38.4 25.6 57.6 35.2 3.2 0 3.2 3.2 6.4 3.2 32 25.6 60.8 57.6 83.2 89.6 38.4 51.2 64 108.8 73.6 176 16 112-9.6 214.4-76.8 307.2z" />
<glyph unicode="&#xe65f;" glyph-name="i96-wide-arrow-left" d="M585.6 169.6c-9.6 0-22.4 6.4-28.8 16l-147.2 246.4c-6.4 9.6-6.4 22.4 0 32l147.2 246.4c9.6 16 28.8 19.2 44.8 12.8 16-9.6 19.2-28.8 12.8-44.8l-137.6-230.4 137.6-230.4c9.6-16 3.2-35.2-12.8-44.8-6.4-3.2-9.6-3.2-16-3.2z" />
<glyph unicode="&#xe660;" glyph-name="i97-wide-arrow-right" d="M438.4 169.6c-6.4 0-9.6 0-16 3.2-16 9.6-19.2 28.8-12.8 44.8l137.6 230.4-137.6 230.4c-9.6 16-3.2 35.2 12.8 44.8s35.2 3.2 44.8-12.8l147.2-246.4c6.4-9.6 6.4-22.4 0-32l-147.2-246.4c-6.4-9.6-16-16-28.8-16z" />
<glyph unicode="&#xe661;" glyph-name="i98-reset" d="M860.8 256c-3.2 16-22.4 28.8-38.4 25.6l-51.2-12.8c28.8 54.4 41.6 115.2 35.2 179.2-9.6 89.6-51.2 160-118.4 211.2-67.2 57.6-147.2 83.2-233.6 73.6-89.6-9.6-163.2-51.2-217.6-118.4-57.6-70.4-80-147.2-70.4-233.6 9.6-89.6 51.2-163.2 118.4-214.4 6.4-3.2 12.8-6.4 19.2-6.4 9.6 0 19.2 3.2 25.6 12.8 9.6 12.8 9.6 35.2-6.4 44.8-54.4 44.8-86.4 99.2-92.8 172.8-6.4 67.2 12.8 128 57.6 185.6 44.8 54.4 102.4 86.4 176 96 70.4 6.4 131.2-12.8 185.6-60.8 54.4-41.6 86.4-96 96-169.6 3.2-54.4-6.4-102.4-32-150.4l-16 64c-3.2 16-22.4 28.8-38.4 22.4-16-3.2-28.8-22.4-22.4-38.4l28.8-131.2c0 0 0-3.2 0-3.2 3.2-6.4 3.2-9.6 9.6-12.8 3.2-3.2 3.2-3.2 6.4-3.2 0 0 0 0 0 0 6.4-3.2 16-6.4 22.4-3.2l134.4 28.8c16 6.4 25.6 25.6 22.4 41.6z" />
</font>
</defs>
</svg>
