<?xml version="1.0" standalone="no"?>
<!DOCTYPE svg PUBLIC "-//W3C//DTD SVG 1.1//EN" "http://www.w3.org/Graphics/SVG/1.1/DTD/svg11.dtd" >
<svg xmlns="http://www.w3.org/2000/svg">
<metadata></metadata>
<defs>
<font id="stymiemagbold" horiz-adv-x="1124" >
<font-face units-per-em="2048" ascent="1556" descent="-492" />
<missing-glyph horiz-adv-x="561" />
<glyph horiz-adv-x="0" />
<glyph horiz-adv-x="682" />
<glyph unicode=" "  horiz-adv-x="561" />
<glyph unicode="&#x09;" horiz-adv-x="561" />
<glyph unicode="&#xa0;" horiz-adv-x="561" />
<glyph unicode="!" horiz-adv-x="677" d="M209 0l18 287h242v-287h-260zM227 436v1039h260v-1039h-260z" />
<glyph unicode="&#x22;" horiz-adv-x="643" d="M86 879v557h164v-557h-164zM395 879v557h164v-557h-164z" />
<glyph unicode="#" horiz-adv-x="1574" d="M70 428l61 172h297l90 252h-315l61 172h316l155 436h191l-154 -436h250l156 436h190l-154 -436h291l-59 -172h-293l-90 -252h309l-61 -172h-307l-156 -434h-191l156 434h-252l-158 -434h-190l156 434h-299zM618 598h256l91 254h-256z" />
<glyph unicode="$" d="M51 344l199 86q84 -162 239 -186v411q-202 44 -305.5 145t-103.5 255q0 162 110.5 266.5t298.5 116.5v149h136v-147q141 -17 243 -104t152 -230l-193 -55q-67 155 -202 190v-364q214 -35 326 -140.5t112 -271.5q0 -177 -121 -297t-317 -135v-164h-136v164 q-146 6 -257.5 85.5t-180.5 225.5zM297 1081q0 -149 192 -186v348q-88 -4 -140 -48.5t-52 -113.5zM625 236q227 36 227 202q0 82 -58.5 132.5t-168.5 62.5v-397z" />
<glyph unicode="%" horiz-adv-x="1683" d="M66 1135q0 141 102.5 242.5t243.5 101.5q137 0 240.5 -103t103.5 -241q0 -139 -102 -241.5t-242 -102.5q-144 0 -245 101t-101 243zM256 1135q0 -66 45 -111t111 -45q63 0 108 45t45 111q0 63 -45 109t-108 46q-65 0 -110.5 -45.5t-45.5 -109.5zM303 -25l907 1504h164 l-907 -1504h-164zM924 317q0 140 102.5 242.5t241.5 102.5q137 0 240.5 -102.5t103.5 -242.5q0 -141 -102 -243.5t-242 -102.5q-141 0 -242.5 102.5t-101.5 243.5zM1112 317q0 -66 45 -110.5t111 -44.5q63 0 109 46t46 109t-46 108.5t-109 45.5q-66 0 -111 -44t-45 -110z " />
<glyph unicode="&#x26;" horiz-adv-x="1239" d="M84 360q0 75 21.5 136.5t85 152t192.5 240.5q-91 155 -118 223.5t-27 134.5q0 109 83.5 183.5t204.5 74.5q120 0 204.5 -78t84.5 -190q0 -63 -39.5 -139t-138.5 -205l235 -397q45 104 60 252h205q-37 -294 -142 -469l158 -279h-258l-57 92q-146 -125 -355 -125 q-168 0 -283.5 113t-115.5 280zM313 381q0 -92 62 -150.5t162 -58.5q114 0 204 96l-254 439q-97 -121 -135.5 -194.5t-38.5 -131.5zM428 1257q0 -67 92 -190q57 68 81 111t24 79q0 43 -27 68t-74 25q-43 0 -69.5 -26t-26.5 -67z" />
<glyph unicode="'" horiz-adv-x="333" d="M86 879v557h164v-557h-164z" />
<glyph unicode="(" horiz-adv-x="565" d="M70 596q0 445 266 911h180q-229 -442 -229 -891q0 -435 223 -897h-172q-268 439 -268 877z" />
<glyph unicode=")" horiz-adv-x="565" d="M49 1507h180q267 -457 267 -915q0 -420 -269 -873h-172q224 464 224 897q0 447 -230 891z" />
<glyph unicode="*" horiz-adv-x="1024" d="M80 1114l65 205l267 -96v284h200v-284l267 92l67 -203l-280 -74l190 -239l-172 -123l-172 250l-174 -250l-172 121l192 241z" />
<glyph unicode="+" horiz-adv-x="1705" d="M254 528v166h514v527h170v-527h514v-166h-514v-528h-170v528h-514z" />
<glyph unicode="," horiz-adv-x="561" d="M76 -141l151 430h260l-184 -430h-227z" />
<glyph unicode="-" horiz-adv-x="673" d="M82 367v221h510v-221h-510z" />
<glyph unicode="." horiz-adv-x="561" d="M152 0v289h258v-289h-258z" />
<glyph unicode="/" horiz-adv-x="559" d="M-12 -190l471 1665h139l-471 -1665h-139z" />
<glyph unicode="0" d="M51 702q0 363 138.5 570t383.5 207q232 0 365 -195.5t133 -535.5q0 -365 -138 -569t-388 -204q-225 0 -359.5 199.5t-134.5 527.5zM295 698q0 -238 68 -367.5t192 -129.5q272 0 272 544q0 245 -65.5 376.5t-186.5 131.5q-280 0 -280 -555z" />
<glyph unicode="1" horiz-adv-x="960" d="M180 0v205h187v1046h-187v205h441v-1251h192v-205h-633z" />
<glyph unicode="2" d="M37 0q5 128 87 257t284 316l106 99q135 126 199.5 215t64.5 157q0 96 -60.5 153.5t-160.5 57.5q-112 0 -185 -68.5t-102 -199.5l-217 53q34 198 171.5 318.5t328.5 120.5q203 0 337.5 -120.5t133.5 -303.5q0 -116 -66 -230t-213 -247l-127 -115q-189 -171 -243 -248h434 v213h229v-428h-1001z" />
<glyph unicode="3" d="M49 399l232 31q19 -112 89 -171.5t183 -59.5t182.5 62.5t69.5 164.5q0 115 -87 178.5t-245 63.5q-5 0 -32 -2t-48 -2h-6v186q5 0 24.5 -1t37.5 -1q150 0 227.5 55.5t77.5 163.5q0 84 -57 138.5t-144 54.5q-92 0 -156.5 -53.5t-95.5 -153.5l-227 51q56 181 183.5 278 t311.5 97q180 0 301 -106t121 -265q0 -102 -53.5 -189.5t-153.5 -150.5q128 -41 198.5 -132t70.5 -214q0 -194 -140 -319.5t-356 -125.5q-213 0 -343 108.5t-165 313.5z" />
<glyph unicode="4" d="M39 348v209l657 922h183v-928h184v-203h-184v-143h147v-205h-541v205h162v143h-608zM231 545q33 6 138 6h278v422q0 123 10 182q-20 -71 -75 -151l-252 -357q-34 -50 -99 -102z" />
<glyph unicode="5" d="M51 348l221 82q37 -110 109 -168.5t172 -58.5q121 0 196.5 74.5t75.5 191.5t-77.5 194.5t-194.5 77.5q-140 0 -246 -106l-182 117l55 704h811v-371h-231v148h-361l-26 -318q101 46 202 46q213 0 350.5 -139.5t137.5 -352.5q0 -217 -146.5 -355.5t-373.5 -138.5 q-179 0 -305.5 96t-186.5 277z" />
<glyph unicode="6" d="M57 674q0 236 68.5 419t193 284.5t285.5 101.5t274 -88t160 -250l-225 -43q-19 74 -75.5 118t-135.5 44q-124 0 -202.5 -112.5t-90.5 -309.5q130 127 314 127q187 0 318.5 -140.5t131.5 -343.5q0 -222 -138.5 -364t-354.5 -142q-245 0 -384 187t-139 512zM317 473 q0 -115 71.5 -190.5t180.5 -75.5q116 0 188 77t72 201q0 115 -69 185.5t-180 70.5q-115 0 -189 -75.5t-74 -192.5z" />
<glyph unicode="7" d="M70 985v471h993v-192l-399 -1051h184v-213h-619v213h179l395 1022h-508v-250h-225z" />
<glyph unicode="8" d="M49 412q0 118 65 211.5t187 150.5q-190 117 -190 316q0 170 128.5 280.5t325.5 110.5q195 0 322 -109.5t127 -279.5q0 -98 -50.5 -180.5t-144.5 -139.5q250 -116 250 -354q0 -196 -143 -319.5t-373 -123.5q-220 0 -362 124t-142 313zM289 430q0 -98 75.5 -162.5 t192.5 -64.5q118 0 195 64.5t77 164.5q0 97 -75.5 160t-190.5 63q-123 0 -198.5 -62.5t-75.5 -162.5zM334 1071q0 -88 62 -140t165 -52q104 0 167 52t63 140t-63 139.5t-171 51.5q-96 0 -159.5 -54.5t-63.5 -136.5z" />
<glyph unicode="9" d="M47 975q0 215 139.5 359.5t348.5 144.5q252 0 391 -183.5t139 -515.5q0 -235 -68.5 -418t-193 -284t-285.5 -101t-274 88t-160 250l225 43q19 -75 75.5 -119t135.5 -44q249 0 299 430q-133 -136 -317 -136q-191 0 -323 141.5t-132 344.5zM291 975q0 -117 69.5 -189.5 t182.5 -72.5q115 0 188.5 74.5t73.5 191.5q0 119 -71.5 193.5t-186.5 74.5q-111 0 -183.5 -77t-72.5 -195z" />
<glyph unicode=":" horiz-adv-x="626" d="M182 0v289h260v-289h-260zM182 668v290h260v-290h-260z" />
<glyph unicode=";" horiz-adv-x="626" d="M49 -141l152 430h260l-185 -430h-227zM203 668v290h258v-290h-258z" />
<glyph unicode="&#x3c;" horiz-adv-x="1705" d="M264 530v160l1178 486v-185l-934 -381l934 -381v-182z" />
<glyph unicode="=" horiz-adv-x="1705" d="M254 322v165h1198v-165h-1198zM254 733v168h1198v-168h-1198z" />
<glyph unicode="&#x3e;" horiz-adv-x="1705" d="M264 47v182l934 381l-934 381v185l1178 -486v-160z" />
<glyph unicode="?" horiz-adv-x="1011" d="M63 1061q13 207 131.5 326.5t309.5 119.5q187 0 309.5 -121t122.5 -303q0 -156 -92.5 -261t-245.5 -124v-264h-233v436h34q140 0 215.5 57t75.5 163q0 91 -53 145.5t-141 54.5q-97 0 -151.5 -60t-55.5 -169h-226zM365 0v287h249v-287h-249z" />
<glyph unicode="@" horiz-adv-x="2048" d="M98 522q0 205 81.5 383.5t219.5 302t324.5 194.5t392.5 71q189 0 346.5 -55.5t264 -151t165 -225t58.5 -277.5q0 -97 -26 -192t-77 -177.5t-119 -145.5t-157.5 -99.5t-188.5 -36.5q-106 0 -157 40.5t-51 125.5v4q-56 -87 -129 -127.5t-175 -40.5q-152 0 -232.5 87 t-80.5 249q0 114 37.5 217t100.5 177.5t150 118.5t183 44q173 0 248 -142l55 107h154l-148 -586l-8 -49q0 -38 26.5 -61t69.5 -23q88 0 172 73t136.5 191.5t52.5 243.5q0 167 -86.5 297t-240 201t-349.5 71q-153 0 -287.5 -42t-236 -117.5t-175 -176.5t-111.5 -222.5 t-38 -252.5q0 -312 210.5 -499t557.5 -187q165 0 323 49t292 142l67 -99q-301 -227 -674 -227q-213 0 -390 62.5t-297 172t-186.5 261t-66.5 327.5zM741 444q0 -99 44.5 -151.5t129.5 -52.5q91 0 164 66.5t99 172.5l55 228q-13 85 -61 130.5t-123 45.5q-126 0 -217 -129.5 t-91 -309.5z" />
<glyph unicode="A" horiz-adv-x="1464" d="M27 0v209h125l360 1061h-156v205h756v-205h-154l347 -1061h116v-209h-542v209h161l-90 283h-461l-94 -283h162v-209h-530zM555 690h332l-105 354q-3 3 -6 19q-31 89 -49 205q-10 -82 -57 -228z" />
<glyph unicode="B" horiz-adv-x="1335" d="M63 0v209h142v1061h-142v205h654q219 0 335.5 -90.5t116.5 -258.5q0 -227 -225 -313q137 -37 214 -138t77 -243q0 -203 -151 -317.5t-422 -114.5h-599zM461 209h180q170 0 251 60.5t81 185.5q0 129 -81 190.5t-253 61.5h-178v-498zM461 909h207q125 0 183 43.5t58 137.5 q0 92 -59 136t-184 44h-205v-361z" />
<glyph unicode="C" horiz-adv-x="1576" d="M76 743q0 154 56.5 293.5t154 243t237 164.5t297.5 61q220 0 387 -121v91h203v-480h-203v152q-174 129 -381 129q-218 0 -352.5 -148.5t-134.5 -386.5q0 -230 137.5 -382t343.5 -152q143 0 249 74t163 215h248q-72 -257 -244 -392t-430 -135q-160 0 -297.5 61t-232 165.5 t-148 246.5t-53.5 301z" />
<glyph unicode="D" horiz-adv-x="1466" d="M63 0v209h142v1061h-142v205h525q158 0 290 -39t225.5 -107.5t158.5 -163t96 -204.5t31 -232q0 -140 -54 -270t-153 -232.5t-253 -164.5t-339 -62h-527zM467 209h129q236 0 382 147.5t146 376.5q0 254 -143.5 395.5t-402.5 141.5h-111v-1061z" />
<glyph unicode="E" horiz-adv-x="1253" d="M63 0v209h142v1061h-142v205h1133v-388h-219v183h-514v-412h203v143h215v-522h-215v150h-203v-420h514v231h219v-440h-1133z" />
<glyph unicode="F" horiz-adv-x="1208" d="M63 0v209h142v1061h-142v205h1131v-388h-219v183h-508v-432h219v143h213v-522h-213v149h-219v-399h162v-209h-566z" />
<glyph unicode="G" horiz-adv-x="1689" d="M70 721q0 163 61.5 310t164.5 251t241.5 164.5t287.5 60.5q226 0 406 -131v99h213v-502h-213v151q-163 148 -377 148q-142 0 -261 -69.5t-187 -190t-68 -264.5q0 -229 143.5 -380t358.5 -151q147 0 256 68.5t172 201.5h-342v213h708v-213h-157v-487h-220v139 q-201 -172 -466 -172q-153 0 -289 63t-229.5 167t-148 241t-54.5 283z" />
<glyph unicode="H" horiz-adv-x="1478" d="M63 0v209h142v1061h-142v205h566v-205h-162v-363h547v363h-164v205h565v-205h-141v-1061h141v-209h-565v209h164v461h-547v-461h162v-209h-566z" />
<glyph unicode="I" horiz-adv-x="673" d="M43 0v209h164v1061h-164v205h588v-205h-164v-1061h164v-209h-588z" />
<glyph unicode="J" horiz-adv-x="665" d="M16 35q28 -4 58 -4q76 0 103.5 37t27.5 145v1057h-160v205h588v-205h-166v-1100q0 -209 -90 -308.5t-279 -99.5q-6 0 -30.5 2.5t-44.5 2.5h-7v268z" />
<glyph unicode="K" horiz-adv-x="1347" d="M63 0v209h142v1061h-142v205h570v-205h-166v-469l399 469h-143v205h549v-205h-94l-424 -488l413 -573h117v-209h-567v209h147l-399 547v-547h151v-209h-553z" />
<glyph unicode="L" horiz-adv-x="1150" d="M63 0v209h142v1061h-142v205h586v-205h-184v-1061h422v235h221v-444h-1045z" />
<glyph unicode="M" horiz-adv-x="1802" d="M66 0v209h143v1061h-143v205h538l246 -684q19 -57 53 -203h10q34 142 52 192l243 695h527v-205h-142v-1061h142v-209h-561v209h172v848q0 121 8 176h-13q-19 -89 -49 -176l-309 -875h-162l-309 875q-46 137 -57 176h-11q11 -65 11 -176v-848h176v-209h-565z" />
<glyph unicode="N" horiz-adv-x="1458" d="M63 0v209h142v1061h-142v205h472l432 -809q62 -117 82 -172q-19 92 -19 231v545h-166v205h537v-205h-144v-1299h-204l-557 1039q-57 102 -80 172q16 -94 16 -232v-741h164v-209h-533z" />
<glyph unicode="O" horiz-adv-x="1697" d="M76 737q0 157 62.5 299.5t166.5 245.5t246.5 164t296.5 61q157 0 300.5 -62.5t247 -166.5t165 -246t61.5 -295q0 -125 -40 -242.5t-112.5 -212t-168 -166t-213 -110.5t-240.5 -39q-155 0 -298 62t-246.5 166t-165.5 246t-62 296zM342 739q0 -140 70 -261t187 -191 t249 -70q135 0 252 71t186.5 191.5t69.5 259.5q0 140 -69.5 261t-186.5 191.5t-252 70.5q-134 0 -250.5 -70.5t-186 -191.5t-69.5 -261z" />
<glyph unicode="P" horiz-adv-x="1265" d="M63 0v209h142v1061h-142v205h543q134 0 213 -12.5t142 -39.5q117 -52 184 -162.5t67 -248.5q0 -229 -154 -348t-450 -119h-141v-336h160v-209h-564zM467 745h135q346 0 346 271q0 133 -83.5 193.5t-266.5 60.5h-131v-525z" />
<glyph unicode="Q" horiz-adv-x="1697" d="M76 737q0 154 62 296t165.5 246t246.5 166t298 62q157 0 300.5 -62.5t247 -166.5t165 -246t61.5 -295q0 -145 -55.5 -281.5t-152 -241.5t-235.5 -172t-296 -75v-16q17 -3 204 -41.5t228 -38.5q68 0 147 29l29 -228q-98 -39 -205 -39q-46 0 -283 50.5t-294 50.5 q-116 0 -258 -45l-19 227q112 41 275 41h24v18q-290 53 -472.5 264.5t-182.5 497.5zM342 739q0 -140 70 -261t187 -191t249 -70q135 0 252 71t186.5 191.5t69.5 259.5q0 140 -69.5 261t-186.5 191.5t-252 70.5q-134 0 -250.5 -70.5t-186 -191.5t-69.5 -261z" />
<glyph unicode="R" horiz-adv-x="1345" d="M63 0v209h142v1061h-142v205h627q118 0 188.5 -12.5t129.5 -43.5q86 -46 135 -137t49 -197q0 -113 -78 -210t-203 -127v-19q54 -37 84.5 -91t65.5 -177l72 -252h184v-209h-412l-123 424q-22 75 -40 115t-47.5 64.5t-65 31t-99.5 6.5h-63v-432h162v-209h-566zM467 844h139 q178 0 249 54t71 169q0 103 -65 153t-220 50h-174v-426z" />
<glyph unicode="S" horiz-adv-x="1234" d="M98 1083q0 119 61 216t164 151.5t226 54.5q184 0 315 -110v80h199v-435h-199v154q-137 106 -286 106q-98 0 -155.5 -48t-57.5 -128q0 -57 17.5 -90t75.5 -62.5t175 -58.5q138 -35 231 -75t161 -97t99 -134.5t31 -182.5q0 -198 -133.5 -327.5t-345.5 -129.5 q-179 0 -363 117v-84h-204v510h204v-174q69 -72 158.5 -111t183.5 -39q104 0 169 61t65 161q0 76 -95 139t-288 117l-103 28q-139 38 -222 144.5t-83 246.5z" />
<glyph unicode="T" horiz-adv-x="1230" d="M72 1069v406h1087v-406h-231v201h-183v-1061h162v-209h-583v209h161v1061h-182v-201h-231z" />
<glyph unicode="U" horiz-adv-x="1458" d="M61 1270v205h570v-205h-166v-719q0 -180 62 -259t202 -79t201 78t61 260v719h-166v205h572v-205h-144v-750q0 -263 -137 -408t-387 -145q-251 0 -387.5 145.5t-136.5 411.5v746h-144z" />
<glyph unicode="V" horiz-adv-x="1347" d="M31 1270v205h536v-205h-151l229 -670q31 -89 47 -190q13 89 41 186l197 674h-158v205h537v-205h-123l-400 -1303h-184l-452 1303h-119z" />
<glyph unicode="W" horiz-adv-x="2021" d="M31 1270v205h536v-205h-151l202 -672q27 -95 39 -188q3 64 39 184l258 881h133l265 -881q28 -90 39 -184q8 79 39 188l204 672h-139v205h485v-205h-106l-401 -1303h-175l-241 793q-25 79 -41 188q-21 -126 -39 -184l-242 -797h-174l-409 1303h-121z" />
<glyph unicode="X" horiz-adv-x="1349" d="M35 0v209h133l362 522l-350 539h-135v205h549v-205h-127l213 -320l217 320h-129v205h537v-205h-127l-361 -518l367 -543h125v-209h-553v209h127l-217 323l-222 -323h131v-209h-540z" />
<glyph unicode="Y" horiz-adv-x="1347" d="M35 1270v205h540v-205h-137l258 -369l252 369h-131v205h492v-205h-103l-403 -588v-473h166v-209h-596v209h172v479l-406 582h-104z" />
<glyph unicode="Z" d="M29 0v195l725 1091h-449v-209h-242v398h1006v-166l-733 -1104h479v258h248v-463h-1034z" />
<glyph unicode="[" horiz-adv-x="569" d="M78 -248v1723h452v-175h-254v-1359h254v-189h-452z" />
<glyph unicode="\" horiz-adv-x="559" d="M-12 1475h139l471 -1665h-139z" />
<glyph unicode="]" horiz-adv-x="569" d="M41 -59h254v1359h-254v175h453v-1723h-453v189z" />
<glyph unicode="^" horiz-adv-x="2048" d="M418 899l497 561h218l495 -561h-207l-397 397l-399 -397h-207z" />
<glyph unicode="_" horiz-adv-x="1024" d="M0 -311h1024v-172h-1024v172z" />
<glyph unicode="`" horiz-adv-x="1024" d="M233 1442h222l204 -348h-131z" />
<glyph unicode="a" horiz-adv-x="1232" d="M66 481q0 224 124 364t322 140q176 0 299 -129v102h236v-753h137v-205h-344v135q-143 -158 -338 -158q-190 0 -313 142t-123 362zM303 483q0 -129 74.5 -211t191.5 -82q116 0 191.5 83t75.5 210q0 122 -78 206.5t-189 84.5q-117 0 -191.5 -81.5t-74.5 -209.5z" />
<glyph unicode="b" horiz-adv-x="1234" d="M51 0v205h137v1061h-137v198h373v-608q120 129 299 129q199 0 322.5 -141t123.5 -363q0 -220 -123 -362t-313 -142q-195 0 -338 158v-135h-344zM399 483q0 -127 75.5 -210t191.5 -83q117 0 191.5 82t74.5 211q0 128 -74.5 209.5t-191.5 81.5q-113 0 -190 -83.5 t-77 -207.5z" />
<glyph unicode="c" horiz-adv-x="1052" d="M61 477q0 133 64.5 248.5t176 184.5t241.5 69q132 0 254 -82v61h174v-333h-174v73q-104 78 -209 78q-124 0 -203.5 -79.5t-79.5 -204.5q0 -137 74.5 -222.5t195.5 -85.5q140 0 281 152l143 -135q-186 -230 -430 -230q-105 0 -199 38.5t-162 105.5t-107.5 161.5 t-39.5 200.5z" />
<glyph unicode="d" horiz-adv-x="1232" d="M66 481q0 224 124 364t322 140q176 0 299 -129v410h-137v198h373v-1259h137v-205h-344v135q-143 -158 -338 -158q-190 0 -313 142t-123 362zM303 483q0 -129 74.5 -211t191.5 -82q116 0 191.5 83t75.5 210q0 122 -78 206.5t-189 84.5q-117 0 -191.5 -81.5t-74.5 -209.5z " />
<glyph unicode="e" horiz-adv-x="1132" d="M59 479q0 138 67.5 253.5t186 182t260.5 66.5q224 0 363 -154.5t139 -402.5v-14h-768q17 -109 89.5 -169.5t187.5 -60.5q151 0 233 101l170 -123q-74 -91 -179.5 -139t-232.5 -48q-222 0 -369 144t-147 364zM305 569h535q-23 100 -92 154.5t-173 54.5q-99 0 -173 -57.5 t-97 -151.5z" />
<glyph unicode="f" horiz-adv-x="645" d="M55 0v205h144v553h-144v200h144v166q0 177 87 258.5t273 81.5h37v-192h-27q-79 0 -106 -31.5t-27 -124.5v-158h160v-200h-160v-553h160v-205h-541z" />
<glyph unicode="g" horiz-adv-x="1232" d="M66 485q0 217 122.5 356.5t313.5 139.5q194 0 338 -156v133h344v-200h-137v-631q0 -142 -14.5 -209.5t-51.5 -124.5q-126 -188 -412 -188q-176 0 -272 47l63 198q77 -32 185 -32q142 0 205 56t63 183q0 18 -1 35.5t-1 22.5q-122 -125 -299 -125q-198 0 -322 138t-124 357 zM303 485q0 -127 74.5 -206.5t191.5 -79.5q112 0 189.5 83t77.5 203q0 124 -76.5 206.5t-190.5 82.5q-117 0 -191.5 -81t-74.5 -208z" />
<glyph unicode="h" horiz-adv-x="1234" d="M53 0v205h135v1061h-135v198h373v-633q172 138 328 138q158 0 230.5 -92.5t72.5 -296.5v-375h129v-205h-506v205h139v358q0 100 -33.5 147.5t-105.5 47.5q-120 0 -254 -131v-422h147v-205h-520z" />
<glyph unicode="i" horiz-adv-x="620" d="M61 0v205h136v553h-136v200h373v-753h146v-205h-519zM197 1100v256h237v-256h-237z" />
<glyph unicode="j" horiz-adv-x="577" d="M35 -182q89 2 122 42t33 154v744h-135v200h373v-962q0 -203 -92 -294t-301 -95v211zM190 1100v256h238v-256h-238z" />
<glyph unicode="k" horiz-adv-x="1120" d="M55 0v205h133v1061h-133v198h371v-952l279 246h-103v200h457v-200h-88l-295 -262l297 -291h86v-205h-457v205h88l-264 264v-264h106v-205h-477z" />
<glyph unicode="l" horiz-adv-x="614" d="M53 0v209h137v1057h-137v198h373v-1255h147v-209h-520z" />
<glyph unicode="m" horiz-adv-x="1865" d="M55 0v205h135v553h-135v200h367v-129q103 75 179.5 107.5t150.5 32.5q194 0 278 -154q105 80 189 117t165 37q156 0 229 -92t73 -289v-383h131v-205h-506v205h139v358q0 100 -32.5 145.5t-104.5 45.5q-129 0 -256 -127v-422h133v-205h-508v205h137v358q0 100 -32.5 145.5 t-104.5 45.5q-129 0 -256 -127v-422h147v-205h-518z" />
<glyph unicode="n" horiz-adv-x="1236" d="M55 0v205h135v553h-135v200h367v-129q178 140 334 140q158 0 229.5 -92.5t71.5 -296.5v-375h131v-205h-506v205h137v358q0 100 -32.5 145.5t-104.5 45.5q-129 0 -256 -127v-422h147v-205h-518z" />
<glyph unicode="o" horiz-adv-x="1148" d="M57 477q0 215 149.5 360.5t366.5 145.5q219 0 368 -146t149 -360q0 -219 -146.5 -362.5t-374.5 -143.5q-106 0 -201 39t-163 106t-108 161t-40 200zM301 479q0 -135 74.5 -216t197.5 -81q121 0 198 83t77 214q0 130 -75.5 212.5t-194.5 82.5q-125 0 -201 -81t-76 -214z " />
<glyph unicode="p" horiz-adv-x="1234" d="M51 -190h137v948h-137v200h344v-137q145 160 338 160q189 0 312.5 -143.5t123.5 -360.5q0 -220 -123.5 -362t-322.5 -142q-179 0 -299 129v-292h137v-203h-510v203zM399 477q0 -126 76.5 -209.5t190.5 -83.5q116 0 191 82t75 211t-74.5 211t-191.5 82q-116 0 -191.5 -83 t-75.5 -210z" />
<glyph unicode="q" horiz-adv-x="1234" d="M66 477q0 217 123.5 360.5t312.5 143.5q193 0 338 -160v137h344v-200h-137v-948h137v-203h-510v203h137v292q-123 -129 -299 -129q-199 0 -322.5 140.5t-123.5 363.5zM303 477q0 -129 75 -211t191 -82q112 0 189.5 85t77.5 208q0 127 -75.5 210t-191.5 83 q-117 0 -191.5 -82t-74.5 -211z" />
<glyph unicode="r" horiz-adv-x="786" d="M55 0v205h135v553h-135v200h361v-141q179 154 348 154h6v-209q-10 2 -43 2q-90 0 -161 -32.5t-140 -104.5v-422h147v-205h-518z" />
<glyph unicode="s" horiz-adv-x="1007" d="M96 680q0 134 94 217.5t246 83.5q133 0 246 -78v55h176v-299h-176v68q-112 84 -229 84q-63 0 -102.5 -28t-39.5 -72q0 -72 209 -113l66 -12q174 -33 256 -110.5t82 -199.5q0 -135 -98.5 -218t-262.5 -83q-142 0 -266 95v-70h-188v332h188v-76q116 -104 274 -104 q59 0 98.5 29.5t39.5 72.5q0 36 -39 60.5t-123 43.5l-70 17q-121 29 -179 46.5t-85 37.5q-117 85 -117 221z" />
<glyph unicode="t" horiz-adv-x="626" d="M43 758v200h143v312h236v-312h149v-200h-149v-455q0 -54 25.5 -77t80.5 -23q29 0 43 2v-205q-88 -18 -151 -18q-134 0 -184 69t-50 207v500h-143z" />
<glyph unicode="u" horiz-adv-x="1232" d="M49 758v200h367v-569q0 -103 32.5 -148.5t104.5 -45.5q123 0 256 133v430h-147v200h382v-753h138v-205h-369v125q-172 -141 -332 -141q-158 0 -230.5 93.5t-72.5 297.5v383h-129z" />
<glyph unicode="v" horiz-adv-x="1067" d="M6 758v200h465v-200h-106l114 -289q24 -61 58 -180q20 94 51 174l121 295h-111v200h457v-200h-113l-340 -787h-162l-319 787h-115z" />
<glyph unicode="w" horiz-adv-x="1640" d="M35 758v200h432v-200h-107l111 -312q24 -64 55 -180q25 103 54 174l208 518h68l195 -518q30 -78 57 -174q20 91 57 180l125 312h-123v200h430v-200h-90l-323 -787h-154l-162 400q-28 68 -55 180q-23 -98 -53 -176l-166 -404h-150l-311 787h-98z" />
<glyph unicode="x" horiz-adv-x="1122" d="M61 0v205h121l230 272l-230 281h-119v200h381v-165l115 -148l123 148v165h367v-200h-129l-238 -260l236 -293h131v-205h-406v182l-106 140l-113 -140v-182h-363z" />
<glyph unicode="y" d="M18 758v200h449v-200h-129l149 -348q19 -43 56 -170v-4q22 104 53 167l166 355h-135v200h465v-200h-97l-450 -957h153v-194h-548v194h163l109 211l-326 746h-78z" />
<glyph unicode="z" horiz-adv-x="899" d="M39 0v207l487 561h-247v-119h-220v309h764v-182l-495 -567h295v147h219v-356h-803z" />
<glyph unicode="{" horiz-adv-x="1024" d="M162 442v179q5 0 22 -1.5t21 -1.5q127 0 179 59t52 202v247q0 145 21 206t82 95q45 27 110 38.5t180 11.5h45v-179q-5 0 -24 1t-23 1q-108 0 -147 -42t-39 -173v-241q0 -155 -43 -220.5t-160 -93.5q117 -28 160 -93t43 -220v-240q0 -92 18 -138t56.5 -62.5t113.5 -16.5 q4 0 22 1t23 1v-176h-63q-86 0 -146.5 7.5t-102.5 27t-66.5 43.5t-38 67.5t-17.5 88t-4 114.5v248q0 143 -52 202.5t-179 59.5q-4 0 -21 -1t-22 -1z" />
<glyph unicode="|" horiz-adv-x="1024" d="M424 -483v2048h178v-2048h-178z" />
<glyph unicode="}" horiz-adv-x="1024" d="M152 -238q5 0 23 -1t22 -1q108 0 147 42t39 175v240q0 153 44.5 219t160.5 94q-117 28 -161 93t-44 221v241q0 131 -38 173t-146 42q-4 0 -23 -1t-24 -1v179h45q83 0 135.5 -4t100.5 -17.5t74.5 -36.5t46.5 -63t27 -95t7 -135v-247q0 -143 52 -202t179 -59q4 0 21 1.5 t22 1.5v-179q-5 0 -22 1t-21 1q-127 0 -179 -59.5t-52 -202.5v-248q0 -144 -21.5 -204.5t-81.5 -94.5q-43 -26 -108.5 -37.5t-179.5 -11.5h-45v176z" />
<glyph unicode="~" horiz-adv-x="1705" d="M178 434v187q210 143 387 143q154 0 336 -76q141 -57 250 -57q167 0 379 153v-184q-197 -138 -381 -141q-91 0 -191 35l-75 26q-213 74 -320 74q-161 0 -385 -160z" />
<glyph d="M-29 532l43 127h131q-2 18 -2 70t2 68h-159l43 127h129q50 266 181 410.5t325 144.5q75 0 141.5 -28t103.5 -75v76h191v-440h-191v125q-25 56 -86.5 89.5t-146.5 33.5q-109 0 -180 -86t-97 -250h512l-43 -127h-481q-2 -16 -2 -68q0 -54 2 -70h436l-43 -127h-381 q17 -150 88.5 -240.5t176.5 -90.5q102 0 157 53.5t86 181.5h226q-55 -238 -171.5 -349.5t-308.5 -111.5q-200 0 -331.5 151.5t-165.5 405.5h-185z" />
<glyph unicode="&#xa0;" />
<glyph unicode="&#xa1;" horiz-adv-x="677" d="M190 0v1038h261v-1038h-261zM209 1188v287h260v-287h-260z" />
<glyph unicode="&#xa2;" d="M84 733q0 187 115.5 325.5t300.5 172.5v149h153v-153q83 -15 166 -74v61h174v-333h-174v73q-104 78 -209 78q-124 0 -203 -79.5t-79 -204.5q0 -137 74.5 -222.5t195.5 -85.5q67 0 130 29.5t151 122.5l143 -135q-160 -205 -369 -226v-157h-153v162q-190 40 -303 175.5 t-113 321.5z" />
<glyph unicode="&#xa3;" d="M39 -27v256q105 12 156 82t51 203q0 55 -10 119h-197v178h162q-35 146 -35 283q0 174 114 278.5t304 104.5q320 0 458 -344l-217 -86q-38 111 -95.5 160.5t-147.5 49.5q-80 0 -129.5 -54t-49.5 -144q0 -77 46 -248h280v-178h-248q8 -65 8 -141q0 -134 -47 -218 q134 -73 236 -73q167 0 205 190l227 -35q-32 -185 -134.5 -284t-260.5 -99q-187 0 -367 129q-117 -129 -287 -129h-22z" />
<glyph unicode="&#xa4;" d="M-29 532l43 127h131q-2 18 -2 70t2 68h-159l43 127h129q50 266 181 410.5t325 144.5q75 0 141.5 -28t103.5 -75v76h191v-440h-191v125q-25 56 -86.5 89.5t-146.5 33.5q-109 0 -180 -86t-97 -250h512l-43 -127h-481q-2 -16 -2 -68q0 -54 2 -70h436l-43 -127h-381 q17 -150 88.5 -240.5t176.5 -90.5q102 0 157 53.5t86 181.5h226q-55 -238 -171.5 -349.5t-308.5 -111.5q-200 0 -331.5 151.5t-165.5 405.5h-185z" />
<glyph unicode="&#xa5;" horiz-adv-x="1347" d="M57 657v138h424l-94 133h-330v139h236l-133 188h-103v201h510v-201h-145l264 -385l258 385h-139v201h485v-201h-102l-127 -188h229v-139h-323l-95 -133h418v-138h-499v-450h163v-207h-563v207h170v450h-504z" />
<glyph unicode="&#xa6;" horiz-adv-x="1024" d="M424 -350v758h178v-758h-178zM424 674v758h178v-758h-178z" />
<glyph unicode="&#xa7;" horiz-adv-x="1024" d="M66 772q0 97 58.5 167.5t166.5 102.5q-41 101 -41 162q0 131 102.5 201t298.5 70h203v-340h-205v151h-49q-131 0 -131 -92q0 -62 59 -121l273 -285q155 -166 155 -313q0 -92 -55 -161t-153 -101q71 -99 71 -180q0 -122 -86.5 -193t-238.5 -71h-308v337h201v-145h66 q63 0 91.5 18.5t28.5 59.5q0 48 -65 119l-283 299q-90 94 -124.5 164.5t-34.5 150.5zM279 772q0 -47 59 -106l170 -177q55 -56 87.5 -77t63.5 -21q33 0 57.5 23.5t24.5 58.5q0 59 -82 141l-180 181q-40 40 -61 51.5t-49 11.5q-41 0 -65.5 -23.5t-24.5 -62.5z" />
<glyph unicode="&#xa8;" horiz-adv-x="1024" d="M240 1143v229h204v-229h-204zM580 1143v229h204v-229h-204z" />
<glyph unicode="&#xa9;" horiz-adv-x="1705" d="M113 731q0 114 36.5 224.5t104.5 202.5t158.5 162.5t204.5 110t235 39.5q150 0 287.5 -58.5t236.5 -157.5t158 -236t59 -287q0 -157 -62 -296.5t-164.5 -236t-237 -152.5t-277.5 -56q-146 0 -282.5 60t-236.5 160t-160 237t-60 284zM223 731q0 -126 51.5 -243t137 -202 t201.5 -135.5t241 -50.5q121 0 236 48.5t202 131.5t140 201.5t53 249.5t-51 248.5t-136 201t-201.5 132.5t-242.5 49q-174 0 -320.5 -88.5t-228.5 -233t-82 -309.5zM457 725q0 209 109 332t292 123q147 0 242 -76.5t106 -200.5h-166q-10 73 -60 113.5t-130 40.5 q-99 0 -155 -86.5t-56 -239.5q0 -152 57.5 -234.5t163.5 -82.5q79 0 128.5 44t60.5 124h165q-7 -135 -106.5 -217t-253.5 -82q-183 0 -290 119t-107 323z" />
<glyph unicode="&#xaa;" horiz-adv-x="845" d="M57 1016q0 97 79.5 161t201.5 64q96 0 201 -57q2 10 2 35q0 72 -41 105.5t-127 33.5q-73 0 -174 -41l-58 117q133 53 250 53q53 0 94.5 -6t81 -22.5t65.5 -44t42 -72.5t16 -105v-293h107v-139h-242v59q-94 -76 -229 -76q-118 0 -193.5 64t-75.5 164zM233 1022 q0 -50 39.5 -79.5t106.5 -29.5q72 0 119 30t47 75q0 44 -46.5 72t-119.5 28q-67 0 -106.5 -26t-39.5 -70z" />
<glyph unicode="&#xab;" horiz-adv-x="976" d="M131 477l191 400l163 -72l-166 -328l166 -330l-163 -69zM492 477l190 400l164 -72l-166 -328l166 -330l-164 -69z" />
<glyph unicode="&#xac;" horiz-adv-x="1705" d="M254 696v166h1198v-502h-166v336h-1032z" />
<glyph unicode="&#xad;" horiz-adv-x="673" d="M82 367v221h510v-221h-510z" />
<glyph unicode="&#xae;" horiz-adv-x="1705" d="M113 731q0 191 96 360.5t267.5 274t375.5 104.5q200 0 370.5 -98.5t270.5 -269t100 -371.5q0 -205 -104.5 -377t-274.5 -268t-362 -96q-146 0 -282.5 60t-236.5 159.5t-160 237t-60 284.5zM223 731q0 -126 52 -243t137 -202t198.5 -135.5t233.5 -50.5q168 0 315.5 81.5 t236.5 225t89 314.5q0 177 -86 325t-231 232t-314 84q-129 0 -247 -52.5t-201.5 -139t-133 -202t-49.5 -237.5zM551 330v829h319q172 0 261.5 -57.5t89.5 -167.5q0 -90 -48.5 -149.5t-136.5 -79.5l185 -375h-199l-164 346h-129v-346h-178zM729 786h117q100 0 146 30.5 t46 96.5q0 68 -48.5 101t-151.5 33h-109v-261z" />
<glyph unicode="&#xaf;" horiz-adv-x="1024" d="M236 1184v147h552v-147h-552z" />
<glyph unicode="&#xb0;" horiz-adv-x="673" d="M43 1163q0 124 86.5 210.5t208.5 86.5q119 0 207 -88t88 -209q0 -119 -87 -207t-210 -88q-124 0 -208.5 85t-84.5 210zM152 1165q0 -76 54.5 -131t131.5 -55q78 0 131 54t53 132q0 76 -53.5 130.5t-130.5 54.5t-131.5 -54.5t-54.5 -130.5z" />
<glyph unicode="&#xb1;" horiz-adv-x="1705" d="M254 14v168h1198v-168h-1198zM254 707v165h514v334h170v-334h514v-165h-514v-334h-170v334h-514z" />
<glyph unicode="&#xb2;" horiz-adv-x="741" d="M25 582q3 75 57 154.5t186 189.5l72 59q174 143 174 223q0 57 -39.5 92t-105.5 35q-153 0 -191 -161l-143 32q25 119 114 190.5t216 71.5q136 0 223.5 -71.5t87.5 -182.5q0 -68 -44 -136.5t-140 -149.5l-74 -62q-138 -116 -170 -155h287v127h151v-256h-661z" />
<glyph unicode="&#xb3;" horiz-adv-x="741" d="M33 821l151 19q13 -67 60 -103.5t121 -36.5t119.5 38.5t45.5 99.5q0 69 -57.5 107t-161.5 38q-4 0 -22.5 -2t-32.5 -2v113q2 0 15 -1t26 -1q201 0 201 133q0 49 -38 81.5t-95 32.5q-128 0 -166 -125l-150 31q37 109 121 167t205 58q123 0 200.5 -62t77.5 -159 q0 -129 -135 -205q84 -25 130 -78.5t46 -127.5q0 -117 -91.5 -193t-233.5 -76q-141 0 -228.5 65.5t-107.5 188.5z" />
<glyph unicode="&#xb4;" horiz-adv-x="1024" d="M365 1094l204 348h222l-295 -348h-131z" />
<glyph unicode="&#xb5;" horiz-adv-x="1208" d="M-92 -430l297 1511h229l-125 -635q-12 -58 -12 -104q0 -197 182 -197q121 0 193.5 89t111.5 292l109 555h225l-145 -739q-19 -104 -19 -133q2 -37 16.5 -51.5t51.5 -14.5q27 0 35 2l-33 -159q-73 -17 -150 -17q-149 0 -149 125v15q-42 -67 -108.5 -104.5t-145.5 -37.5 q-82 0 -138 26t-97 83l-99 -506h-229z" />
<glyph unicode="&#xb6;" horiz-adv-x="1024" d="M55 1130q0 159 106.5 254t284.5 95h523v-99h-117v-1380h-129v1380h-168v-1380h-131v784q-167 6 -268 101t-101 245z" />
<glyph unicode="&#xb7;" horiz-adv-x="561" d="M121 727q0 66 47 113t113 47t112.5 -47t46.5 -113q0 -67 -46.5 -113.5t-112.5 -46.5q-67 0 -113.5 46.5t-46.5 113.5z" />
<glyph unicode="&#xb8;" horiz-adv-x="1024" d="M264 -315q157 -43 254 -43q109 0 109 75q0 41 -34.5 60.5t-107.5 19.5q-5 0 -21.5 -1t-21.5 -1v205h93v-94h14q235 0 235 -193q0 -91 -65 -140.5t-182 -49.5q-129 0 -273 43v119z" />
<glyph unicode="&#xb9;" horiz-adv-x="741" d="M168 582v123h123v628h-123v123h291v-751h127v-123h-418z" />
<glyph unicode="&#xba;" horiz-adv-x="862" d="M43 1139q0 151 113 252.5t274 101.5q163 0 275 -102t112 -252q0 -152 -110.5 -253.5t-278.5 -101.5q-163 0 -274 101.5t-111 253.5zM225 1141q0 -94 56.5 -151.5t148.5 -57.5q91 0 149 58.5t58 150.5t-57.5 149.5t-145.5 57.5q-94 0 -151.5 -56.5t-57.5 -150.5z" />
<glyph unicode="&#xbb;" horiz-adv-x="976" d="M131 147l166 330l-166 328l164 72l190 -400l-190 -399zM492 147l165 330l-165 328l161 72l193 -400l-193 -399z" />
<glyph unicode="&#xbc;" horiz-adv-x="1757" d="M162 639v115h117v585h-117v115h276v-700h123v-115h-399zM367 -25l868 1504h158l-871 -1504h-155zM1075 195v116l414 516h115v-518h116v-114h-116v-80h94v-115h-342v115h102v80h-383zM1196 305q36 4 86 4h176v236q0 69 6 102q-13 -44 -47 -86l-160 -199q-33 -41 -61 -57z " />
<glyph unicode="&#xbd;" horiz-adv-x="1757" d="M162 639v115h117v585h-117v115h276v-700h123v-115h-399zM367 -25l868 1504h158l-871 -1504h-155zM1073 0q2 71 54.5 145t179.5 177l65 53q168 137 168 211q0 54 -38 85t-101 31q-142 0 -180 -149l-138 29q25 113 110 179t206 66q131 0 214 -66.5t83 -170.5 q0 -76 -59 -150t-199 -182q-120 -94 -152 -137h275v119h143v-240h-631z" />
<glyph unicode="&#xbe;" horiz-adv-x="1759" d="M31 862l145 19q27 -131 172 -131q72 0 116 35t44 92q0 63 -55.5 100t-153.5 37q-4 0 -22.5 -2t-32.5 -2v104h39q94 0 143 31.5t49 91.5q0 45 -36 75.5t-91 30.5q-119 0 -158 -114l-143 28q36 101 115.5 155t195.5 54t191.5 -58t75.5 -148q0 -118 -131 -191 q80 -23 125 -74.5t45 -120.5q0 -108 -88.5 -177.5t-225.5 -69.5q-134 0 -216.5 60t-102.5 175zM367 -25l868 1504h158l-871 -1504h-155zM1075 195v116l414 516h115v-518h116v-114h-116v-80h94v-115h-342v115h102v80h-383zM1196 305q36 4 86 4h176v236q0 69 6 102 q-13 -44 -47 -86l-160 -199q-33 -41 -61 -57z" />
<glyph unicode="&#xbf;" horiz-adv-x="1011" d="M74 391q0 156 92.5 261t245.5 124v264h233v-436h-35q-140 0 -215.5 -57t-75.5 -162q0 -91 53.5 -146t141.5 -55q97 0 151 60.5t56 169.5h225q-13 -207 -132 -327t-308 -120q-187 0 -309.5 119t-122.5 305zM397 1188v287h248v-287h-248z" />
<glyph unicode="&#xc0;" horiz-adv-x="1464" d="M27 0v209h125l360 1061h-156v205h756v-205h-154l347 -1061h116v-209h-542v209h161l-90 283h-461l-94 -283h162v-209h-530zM455 1966h221l205 -348h-131zM555 690h332l-105 354q-3 3 -6 19q-31 89 -49 205q-10 -82 -57 -228z" />
<glyph unicode="&#xc1;" horiz-adv-x="1464" d="M27 0v209h125l360 1061h-156v205h756v-205h-154l347 -1061h116v-209h-542v209h161l-90 283h-461l-94 -283h162v-209h-530zM555 690h332l-105 354q-3 3 -6 19q-31 89 -49 205q-10 -82 -57 -228zM586 1618l205 348h221l-295 -348h-131z" />
<glyph unicode="&#xc2;" horiz-adv-x="1464" d="M27 0v209h125l360 1061h-156v205h756v-205h-154l347 -1061h116v-209h-542v209h161l-90 283h-461l-94 -283h162v-209h-530zM436 1618l189 348h217l188 -348h-131l-166 209l-168 -209h-129zM555 690h332l-105 354q-3 3 -6 19q-31 89 -49 205q-10 -82 -57 -228z" />
<glyph unicode="&#xc3;" horiz-adv-x="1464" d="M27 0v209h125l360 1061h-156v205h756v-205h-154l347 -1061h116v-209h-542v209h161l-90 283h-461l-94 -283h162v-209h-530zM432 1655q40 219 193 219q58 -6 84 -14l88 -25q48 -6 51 -6q33 0 56 19.5t30 54.5h100q-23 -117 -71 -171.5t-127 -54.5q-18 -2 -70 11l-84 22 q-18 0 -40 6t-24 6q-66 0 -86 -67h-100zM555 690h332l-105 354q-3 3 -6 19q-31 89 -49 205q-10 -82 -57 -228z" />
<glyph unicode="&#xc4;" horiz-adv-x="1464" d="M27 0v209h125l360 1061h-156v205h756v-205h-154l347 -1061h116v-209h-542v209h161l-90 283h-461l-94 -283h162v-209h-530zM461 1667v229h205v-229h-205zM555 690h332l-105 354q-3 3 -6 19q-31 89 -49 205q-10 -82 -57 -228zM801 1667v229h205v-229h-205z" />
<glyph unicode="&#xc5;" horiz-adv-x="1464" d="M27 0v209h125l360 1061h-156v205h756v-205h-151l344 -1061h116v-209h-542v209h161l-86 283h-465l-94 -283h162v-209h-530zM516 1755q0 92 62.5 154.5t154.5 62.5t154.5 -63t62.5 -154q0 -92 -62.5 -154.5t-154.5 -62.5t-154.5 62.5t-62.5 154.5zM555 690h332l-105 354 q-3 3 -6 19q-31 89 -49 205q-10 -82 -57 -228zM641 1753q0 -38 26.5 -64t63.5 -26q38 0 66 26.5t28 63.5q0 38 -28.5 66t-65.5 28t-63.5 -28t-26.5 -66z" />
<glyph unicode="&#xc6;" horiz-adv-x="1990" d="M-27 0v209h109l532 1061h-165v205h1484v-388h-219v183h-512v-371h180v143h215v-522h-215v150h-180v-461h512v231h219v-440h-1120v209h137v274h-473l-133 -274h156v-209h-527zM567 686h383v612h-78z" />
<glyph unicode="&#xc7;" horiz-adv-x="1576" d="M76 743q0 154 56.5 293.5t154 243t237 164.5t297.5 61q220 0 387 -121v91h203v-480h-203v152q-174 129 -381 129q-218 0 -352.5 -148.5t-134.5 -386.5q0 -230 137.5 -382t343.5 -152q143 0 249 74t163 215h248q-72 -257 -244 -392t-430 -135q-160 0 -297.5 61t-232 165.5 t-148 246.5t-53.5 301zM559 -315q157 -43 254 -43q109 0 109 75q0 41 -34.5 60.5t-107.5 19.5q-5 0 -21.5 -1t-21.5 -1v205h92v-94h15q235 0 235 -193q0 -90 -65.5 -140t-182.5 -50q-128 0 -272 43v119z" />
<glyph unicode="&#xc8;" horiz-adv-x="1253" d="M63 0v209h142v1061h-142v205h1133v-388h-219v183h-514v-371h182v143h215v-522h-215v150h-182v-461h514v231h219v-440h-1133zM381 1966h221l205 -348h-131z" />
<glyph unicode="&#xc9;" horiz-adv-x="1253" d="M63 0v209h142v1061h-142v205h1133v-388h-219v183h-514v-371h182v143h215v-522h-215v150h-182v-461h514v231h219v-440h-1133zM512 1618l205 348h221l-295 -348h-131z" />
<glyph unicode="&#xca;" horiz-adv-x="1253" d="M63 0v209h142v1061h-142v205h1133v-388h-219v183h-514v-371h182v143h215v-522h-215v150h-182v-461h514v231h219v-440h-1133zM362 1618l189 348h217l188 -348h-131l-166 209l-167 -209h-130z" />
<glyph unicode="&#xcb;" horiz-adv-x="1253" d="M63 0v209h142v1061h-142v205h1133v-388h-219v183h-514v-371h182v143h215v-522h-215v150h-182v-461h514v231h219v-440h-1133zM387 1667v229h205v-229h-205zM727 1667v229h205v-229h-205z" />
<glyph unicode="&#xcc;" horiz-adv-x="673" d="M43 0v209h164v1061h-164v205h588v-205h-164v-1061h164v-209h-588zM59 1966h222l204 -348h-131z" />
<glyph unicode="&#xcd;" horiz-adv-x="673" d="M43 0v209h164v1061h-164v205h588v-205h-164v-1061h164v-209h-588zM190 1618l205 348h221l-294 -348h-132z" />
<glyph unicode="&#xce;" horiz-adv-x="673" d="M41 1618l188 348h217l189 -348h-131l-166 209l-168 -209h-129zM43 0v209h164v1061h-164v205h588v-205h-164v-1061h164v-209h-588z" />
<glyph unicode="&#xcf;" horiz-adv-x="673" d="M43 0v209h164v1061h-164v205h588v-205h-164v-1061h164v-209h-588zM66 1667v229h204v-229h-204zM406 1667v229h204v-229h-204z" />
<glyph unicode="&#xd0;" horiz-adv-x="1466" d="M0 700v174h205v396h-142v205h525q158 0 290 -39t225.5 -107.5t158.5 -163t96 -204.5t31 -232q0 -140 -54 -270t-153 -232.5t-253 -164.5t-339 -62h-527v209h142v491h-205zM467 209h129q236 0 382 147.5t146 376.5q0 254 -143.5 395.5t-402.5 141.5h-111v-396h328v-174 h-328v-491z" />
<glyph unicode="&#xd1;" horiz-adv-x="1458" d="M63 0v209h142v1061h-142v205h472l432 -809q62 -117 82 -172q-19 92 -19 231v545h-166v205h537v-205h-144v-1299h-204l-557 1039q-57 102 -80 172q16 -94 16 -232v-741h164v-209h-533zM428 1655q40 219 193 219q58 -6 84 -14l88 -25q48 -6 51 -6q33 0 56 19.5t30 54.5h100 q-23 -117 -71 -171.5t-128 -54.5q-17 -1 -69 11l-84 22q-18 0 -40 6t-24 6q-66 0 -86 -67h-100z" />
<glyph unicode="&#xd2;" horiz-adv-x="1697" d="M76 737q0 157 62.5 299.5t166.5 245.5t246.5 164t296.5 61q157 0 300.5 -62.5t247 -166.5t165 -246t61.5 -295q0 -125 -40 -242.5t-112.5 -212t-168 -166t-213 -110.5t-240.5 -39q-155 0 -298 62t-246.5 166t-165.5 246t-62 296zM342 739q0 -140 70 -261t187 -191 t249 -70q135 0 252 71t186.5 191.5t69.5 259.5q0 140 -69.5 261t-186.5 191.5t-252 70.5q-134 0 -250.5 -70.5t-186 -191.5t-69.5 -261zM571 1966h222l204 -348h-131z" />
<glyph unicode="&#xd3;" horiz-adv-x="1697" d="M76 737q0 157 62.5 299.5t166.5 245.5t246.5 164t296.5 61q157 0 300.5 -62.5t247 -166.5t165 -246t61.5 -295q0 -125 -40 -242.5t-112.5 -212t-168 -166t-213 -110.5t-240.5 -39q-155 0 -298 62t-246.5 166t-165.5 246t-62 296zM342 739q0 -140 70 -261t187 -191 t249 -70q135 0 252 71t186.5 191.5t69.5 259.5q0 140 -69.5 261t-186.5 191.5t-252 70.5q-134 0 -250.5 -70.5t-186 -191.5t-69.5 -261zM702 1618l205 348h221l-294 -348h-132z" />
<glyph unicode="&#xd4;" horiz-adv-x="1697" d="M76 737q0 157 62.5 299.5t166.5 245.5t246.5 164t296.5 61q157 0 300.5 -62.5t247 -166.5t165 -246t61.5 -295q0 -125 -40 -242.5t-112.5 -212t-168 -166t-213 -110.5t-240.5 -39q-155 0 -298 62t-246.5 166t-165.5 246t-62 296zM342 739q0 -140 70 -261t187 -191 t249 -70q135 0 252 71t186.5 191.5t69.5 259.5q0 140 -69.5 261t-186.5 191.5t-252 70.5q-134 0 -250.5 -70.5t-186 -191.5t-69.5 -261zM553 1618l188 348h217l189 -348h-131l-166 209l-168 -209h-129z" />
<glyph unicode="&#xd5;" horiz-adv-x="1697" d="M76 737q0 157 62.5 299.5t166.5 245.5t246.5 164t296.5 61q157 0 300.5 -62.5t247 -166.5t165 -246t61.5 -295q0 -125 -40 -242.5t-112.5 -212t-168 -166t-213 -110.5t-240.5 -39q-155 0 -298 62t-246.5 166t-165.5 246t-62 296zM342 739q0 -140 70 -261t187 -191 t249 -70q135 0 252 71t186.5 191.5t69.5 259.5q0 140 -69.5 261t-186.5 191.5t-252 70.5q-134 0 -250.5 -70.5t-186 -191.5t-69.5 -261zM549 1655q40 219 192 219q58 -6 84 -14l88 -25q48 -6 52 -6q33 0 56 19.5t30 54.5h100q-23 -117 -71 -171.5t-128 -54.5q-17 -1 -69 11 l-84 22q-18 0 -40 6t-24 6q-66 0 -86 -67h-100z" />
<glyph unicode="&#xd6;" horiz-adv-x="1697" d="M76 737q0 157 62.5 299.5t166.5 245.5t246.5 164t296.5 61q157 0 300.5 -62.5t247 -166.5t165 -246t61.5 -295q0 -125 -40 -242.5t-112.5 -212t-168 -166t-213 -110.5t-240.5 -39q-155 0 -298 62t-246.5 166t-165.5 246t-62 296zM342 739q0 -140 70 -261t187 -191 t249 -70q135 0 252 71t186.5 191.5t69.5 259.5q0 140 -69.5 261t-186.5 191.5t-252 70.5q-134 0 -250.5 -70.5t-186 -191.5t-69.5 -261zM578 1667v229h204v-229h-204zM918 1667v229h204v-229h-204z" />
<glyph unicode="&#xd7;" horiz-adv-x="1705" d="M287 152l458 458l-458 461l116 117l459 -459l461 459l117 -117l-459 -461l459 -458l-117 -119l-461 461l-459 -461z" />
<glyph unicode="&#xd8;" horiz-adv-x="1697" d="M53 -102l244 299q-221 241 -221 538q0 155 62 298t165.5 246.5t247 165.5t299.5 62q228 0 416 -123l135 168h201l-216 -264q236 -236 236 -553q0 -202 -104 -379.5t-282 -284t-384 -106.5q-237 0 -434 133l-164 -200h-201zM340 739q0 -191 123 -338l643 787 q-124 74 -254 74q-139 0 -257 -71t-186.5 -191.5t-68.5 -260.5zM582 295q125 -76 262 -76q139 0 256.5 69t185.5 187.5t68 257.5q0 203 -129 354z" />
<glyph unicode="&#xd9;" horiz-adv-x="1458" d="M61 1270v205h570v-205h-166v-719q0 -180 62 -259t202 -79t201 78t61 260v719h-166v205h572v-205h-144v-750q0 -263 -137 -408t-387 -145q-251 0 -387.5 145.5t-136.5 411.5v746h-144zM451 1966h221l205 -348h-132z" />
<glyph unicode="&#xda;" horiz-adv-x="1458" d="M61 1270v205h570v-205h-166v-719q0 -180 62 -259t202 -79t201 78t61 260v719h-166v205h572v-205h-144v-750q0 -263 -137 -408t-387 -145q-251 0 -387.5 145.5t-136.5 411.5v746h-144zM582 1618l204 348h222l-295 -348h-131z" />
<glyph unicode="&#xdb;" horiz-adv-x="1458" d="M61 1270v205h570v-205h-166v-719q0 -180 62 -259t202 -79t201 78t61 260v719h-166v205h572v-205h-144v-750q0 -263 -137 -408t-387 -145q-251 0 -387.5 145.5t-136.5 411.5v746h-144zM432 1618l189 348h217l188 -348h-131l-166 209l-168 -209h-129z" />
<glyph unicode="&#xdc;" horiz-adv-x="1458" d="M61 1270v205h570v-205h-166v-719q0 -180 62 -259t202 -79t201 78t61 260v719h-166v205h572v-205h-144v-750q0 -263 -137 -408t-387 -145q-251 0 -387.5 145.5t-136.5 411.5v746h-144zM457 1667v229h205v-229h-205zM797 1667v229h204v-229h-204z" />
<glyph unicode="&#xdd;" horiz-adv-x="1347" d="M35 1270v205h540v-205h-137l258 -369l252 369h-131v205h492v-205h-103l-403 -588v-473h166v-209h-596v209h172v479l-406 582h-104zM526 1618l205 348h221l-295 -348h-131z" />
<glyph unicode="&#xde;" horiz-adv-x="1284" d="M63 0v209h142v1061h-142v205h545v-205h-141v-113h139q139 0 217 -10.5t140 -36.5q112 -46 177.5 -145.5t65.5 -223.5q0 -419 -598 -419h-141v-113h160v-209h-564zM467 516h135q179 0 262.5 57.5t83.5 180.5q0 106 -86 157.5t-264 51.5h-131v-447z" />
<glyph unicode="&#xdf;" horiz-adv-x="1214" d="M57 0v199h125v839q0 202 116 314t323 112q179 0 291 -96.5t112 -247.5q0 -97 -48 -171t-140 -118v-16q141 -29 221 -137.5t80 -269.5q0 -211 -113.5 -323t-327.5 -112q-7 0 -53 4.5t-84 4.5v194q30 0 62 -2t36 -2q127 0 185.5 59.5t58.5 188.5q0 156 -68.5 226.5 t-220.5 70.5q-39 0 -53 -2v176q116 0 181 53.5t65 147.5q0 86 -51.5 137t-139.5 51q-97 0 -148.5 -58t-51.5 -167v-1055h-357z" />
<glyph unicode="&#xe0;" horiz-adv-x="1232" d="M66 481q0 224 124 364t322 140q176 0 299 -129v102h236v-753h137v-205h-344v135q-143 -158 -338 -158q-190 0 -313 142t-123 362zM303 483q0 -129 74.5 -211t191.5 -82q116 0 191.5 83t75.5 210q0 122 -78 206.5t-189 84.5q-117 0 -191.5 -81.5t-74.5 -209.5zM397 1442 h221l205 -348h-131z" />
<glyph unicode="&#xe1;" horiz-adv-x="1232" d="M66 481q0 224 124 364t322 140q176 0 299 -129v102h236v-753h137v-205h-344v135q-143 -158 -338 -158q-190 0 -313 142t-123 362zM303 483q0 -129 74.5 -211t191.5 -82q116 0 191.5 83t75.5 210q0 122 -78 206.5t-189 84.5q-117 0 -191.5 -81.5t-74.5 -209.5zM508 1094 l205 348h221l-295 -348h-131z" />
<glyph unicode="&#xe2;" horiz-adv-x="1232" d="M66 481q0 224 124 364t322 140q176 0 299 -129v102h236v-753h137v-205h-344v135q-143 -158 -338 -158q-190 0 -313 142t-123 362zM297 1094l188 348h217l189 -348h-131l-166 209l-168 -209h-129zM303 483q0 -129 74.5 -211t191.5 -82q116 0 191.5 83t75.5 210 q0 122 -78 206.5t-189 84.5q-117 0 -191.5 -81.5t-74.5 -209.5z" />
<glyph unicode="&#xe3;" horiz-adv-x="1232" d="M66 481q0 224 124 364t322 140q176 0 299 -129v102h236v-753h137v-205h-344v135q-143 -158 -338 -158q-190 0 -313 142t-123 362zM303 483q0 -129 74.5 -211t191.5 -82q116 0 191.5 83t75.5 210q0 122 -78 206.5t-189 84.5q-117 0 -191.5 -81.5t-74.5 -209.5zM313 1130 q40 220 193 220q53 -6 84 -15l88 -24q48 -6 51 -6q33 0 56 19t30 54h100q-23 -117 -70.5 -171t-127.5 -54q-21 -2 -70 10l-84 23q-18 0 -39.5 6t-23.5 6q-66 0 -86 -68h-101z" />
<glyph unicode="&#xe4;" horiz-adv-x="1232" d="M66 481q0 224 124 364t322 140q176 0 299 -129v102h236v-753h137v-205h-344v135q-143 -158 -338 -158q-190 0 -313 142t-123 362zM303 483q0 -129 74.5 -211t191.5 -82q116 0 191.5 83t75.5 210q0 122 -78 206.5t-189 84.5q-117 0 -191.5 -81.5t-74.5 -209.5zM342 1143 v229h205v-229h-205zM682 1143v229h205v-229h-205z" />
<glyph unicode="&#xe5;" horiz-adv-x="1232" d="M66 481q0 224 124 364t322 140q176 0 299 -129v102h236v-753h137v-205h-344v135q-143 -158 -338 -158q-190 0 -313 142t-123 362zM303 483q0 -129 74.5 -211t191.5 -82q116 0 191.5 83t75.5 210q0 122 -78 206.5t-189 84.5q-117 0 -191.5 -81.5t-74.5 -209.5zM379 1333 q0 107 74.5 181.5t181.5 74.5q106 0 182 -75t76 -181t-75 -182t-183 -76t-182 75t-74 183zM508 1331q0 -54 37.5 -90.5t91.5 -36.5t90.5 36.5t36.5 90.5t-36.5 91.5t-90.5 37.5t-91.5 -37.5t-37.5 -91.5z" />
<glyph unicode="&#xe6;" horiz-adv-x="1748" d="M76 301q0 139 108 230.5t267 91.5q130 0 268 -82q2 14 2 49q0 100 -55 149t-170 49q-96 0 -232 -57l-76 166q179 84 336 84q212 0 334 -131q150 131 332 131q224 0 363 -154.5t139 -402.5v-14h-770q17 -110 91 -170t193 -60q143 0 228 101l170 -123q-74 -88 -178 -137.5 t-220 -49.5q-247 0 -397 164q-152 -164 -377 -164q-157 0 -256.5 92t-99.5 238zM311 309q0 -72 52 -112.5t143 -40.5q94 0 156.5 42t62.5 105t-61.5 104.5t-157.5 41.5q-90 0 -142.5 -38t-52.5 -102zM922 569h534q-23 100 -91.5 154.5t-172.5 54.5q-103 0 -175 -56t-95 -153 z" />
<glyph unicode="&#xe7;" horiz-adv-x="1052" d="M61 477q0 133 64.5 248.5t176 184.5t241.5 69q132 0 254 -82v61h174v-333h-174v73q-104 78 -209 78q-124 0 -203.5 -79.5t-79.5 -204.5q0 -137 74.5 -222.5t195.5 -85.5q140 0 281 152l143 -135q-186 -230 -430 -230q-105 0 -199 38.5t-162 105.5t-107.5 161.5 t-39.5 200.5zM309 -315q157 -43 254 -43q109 0 109 75q0 41 -34.5 60.5t-107.5 19.5q-5 0 -21.5 -1t-21.5 -1v205h93v-94h14q235 0 235 -193q0 -91 -65 -140.5t-182 -49.5q-129 0 -273 43v119z" />
<glyph unicode="&#xe8;" horiz-adv-x="1132" d="M59 479q0 138 67.5 253.5t186 182t260.5 66.5q224 0 363 -154.5t139 -402.5v-14h-768q17 -109 89.5 -169.5t187.5 -60.5q151 0 233 101l170 -123q-74 -91 -179.5 -139t-232.5 -48q-222 0 -369 144t-147 364zM293 1442h221l205 -348h-131zM305 569h535q-23 100 -92 154.5 t-173 54.5q-99 0 -173 -57.5t-97 -151.5z" />
<glyph unicode="&#xe9;" horiz-adv-x="1132" d="M59 479q0 138 67.5 253.5t186 182t260.5 66.5q224 0 363 -154.5t139 -402.5v-14h-768q17 -109 89.5 -169.5t187.5 -60.5q151 0 233 101l170 -123q-74 -91 -179.5 -139t-232.5 -48q-222 0 -369 144t-147 364zM305 569h535q-23 100 -92 154.5t-173 54.5q-99 0 -173 -57.5 t-97 -151.5zM424 1094l205 348h221l-295 -348h-131z" />
<glyph unicode="&#xea;" horiz-adv-x="1132" d="M59 479q0 138 67.5 253.5t186 182t260.5 66.5q224 0 363 -154.5t139 -402.5v-14h-768q17 -109 89.5 -169.5t187.5 -60.5q151 0 233 101l170 -123q-74 -91 -179.5 -139t-232.5 -48q-222 0 -369 144t-147 364zM274 1094l189 348h217l188 -348h-131l-166 209l-168 -209h-129 zM305 569h535q-23 100 -92 154.5t-173 54.5q-99 0 -173 -57.5t-97 -151.5z" />
<glyph unicode="&#xeb;" horiz-adv-x="1132" d="M59 479q0 138 67.5 253.5t186 182t260.5 66.5q224 0 363 -154.5t139 -402.5v-14h-768q17 -109 89.5 -169.5t187.5 -60.5q151 0 233 101l170 -123q-74 -91 -179.5 -139t-232.5 -48q-222 0 -369 144t-147 364zM299 1143v229h205v-229h-205zM305 569h535q-23 100 -92 154.5 t-173 54.5q-99 0 -173 -57.5t-97 -151.5zM639 1143v229h205v-229h-205z" />
<glyph unicode="&#xec;" horiz-adv-x="620" d="M33 1442h221l205 -348h-131zM61 0v205h136v553h-136v200h373v-753h146v-205h-519z" />
<glyph unicode="&#xed;" horiz-adv-x="620" d="M61 0v205h136v553h-136v200h373v-753h146v-205h-519zM164 1094l205 348h221l-295 -348h-131z" />
<glyph unicode="&#xee;" horiz-adv-x="620" d="M14 1094l189 348h217l188 -348h-131l-166 209l-168 -209h-129zM61 0v205h136v553h-136v200h373v-753h146v-205h-519z" />
<glyph unicode="&#xef;" horiz-adv-x="620" d="M39 1143v229h205v-229h-205zM61 0v205h136v553h-136v200h373v-753h146v-205h-519zM379 1143v229h205v-229h-205z" />
<glyph unicode="&#xf0;" horiz-adv-x="1146" d="M57 477q0 134 68 248t183.5 180t250.5 66q104 0 178 -51q-92 140 -155 206l-205 -122l-74 114l180 111q-59 56 -137 121l123 114q72 -51 168 -137l197 117l75 -113l-174 -104q357 -375 357 -733q0 -230 -146.5 -376.5t-376.5 -146.5q-106 0 -201 39t-163 106t-108 161 t-40 200zM301 479q0 -135 74.5 -216t197.5 -81q121 0 198 83t77 214q0 129 -76 212t-194 83q-125 0 -201 -81t-76 -214z" />
<glyph unicode="&#xf1;" horiz-adv-x="1236" d="M55 0v205h135v553h-135v200h367v-129q178 140 334 140q158 0 229.5 -92.5t71.5 -296.5v-375h131v-205h-506v205h137v358q0 100 -32.5 145.5t-104.5 45.5q-129 0 -256 -127v-422h147v-205h-518zM317 1130q40 220 193 220q53 -6 84 -15l88 -24q48 -6 51 -6q33 0 56 19 t30 54h101q-23 -117 -71 -171t-128 -54q-21 -2 -70 10l-84 23q-18 0 -39.5 6t-23.5 6q-66 0 -86 -68h-101z" />
<glyph unicode="&#xf2;" horiz-adv-x="1148" d="M57 477q0 215 149.5 360.5t366.5 145.5q219 0 368 -146t149 -360q0 -219 -146.5 -362.5t-374.5 -143.5q-106 0 -201 39t-163 106t-108 161t-40 200zM297 1442h221l205 -348h-131zM301 479q0 -135 74.5 -216t197.5 -81q121 0 198 83t77 214q0 130 -75.5 212.5t-194.5 82.5 q-125 0 -201 -81t-76 -214z" />
<glyph unicode="&#xf3;" horiz-adv-x="1148" d="M57 477q0 215 149.5 360.5t366.5 145.5q219 0 368 -146t149 -360q0 -219 -146.5 -362.5t-374.5 -143.5q-106 0 -201 39t-163 106t-108 161t-40 200zM301 479q0 -135 74.5 -216t197.5 -81q121 0 198 83t77 214q0 130 -75.5 212.5t-194.5 82.5q-125 0 -201 -81t-76 -214z M428 1094l205 348h221l-295 -348h-131z" />
<glyph unicode="&#xf4;" horiz-adv-x="1148" d="M57 477q0 215 149.5 360.5t366.5 145.5q219 0 368 -146t149 -360q0 -219 -146.5 -362.5t-374.5 -143.5q-106 0 -201 39t-163 106t-108 161t-40 200zM279 1094l188 348h217l188 -348h-131l-166 209l-167 -209h-129zM301 479q0 -135 74.5 -216t197.5 -81q121 0 198 83 t77 214q0 130 -75.5 212.5t-194.5 82.5q-125 0 -201 -81t-76 -214z" />
<glyph unicode="&#xf5;" horiz-adv-x="1148" d="M57 477q0 215 149.5 360.5t366.5 145.5q219 0 368 -146t149 -360q0 -219 -146.5 -362.5t-374.5 -143.5q-106 0 -201 39t-163 106t-108 161t-40 200zM274 1130q40 220 193 220q53 -6 84 -15l88 -24q48 -6 51 -6q33 0 56 19t30 54h101q-23 -117 -71 -171t-128 -54 q-21 -2 -70 10l-84 23q-18 0 -39.5 6t-23.5 6q-66 0 -86 -68h-101zM301 479q0 -135 74.5 -216t197.5 -81q121 0 198 83t77 214q0 130 -75.5 212.5t-194.5 82.5q-125 0 -201 -81t-76 -214z" />
<glyph unicode="&#xf6;" horiz-adv-x="1148" d="M57 477q0 215 149.5 360.5t366.5 145.5q219 0 368 -146t149 -360q0 -219 -146.5 -362.5t-374.5 -143.5q-106 0 -201 39t-163 106t-108 161t-40 200zM301 479q0 -135 74.5 -216t197.5 -81q121 0 198 83t77 214q0 130 -75.5 212.5t-194.5 82.5q-125 0 -201 -81t-76 -214z M303 1143v229h205v-229h-205zM643 1143v229h205v-229h-205z" />
<glyph unicode="&#xf7;" horiz-adv-x="1705" d="M254 528v166h1198v-166h-1198zM717 229q0 57 40.5 97.5t96.5 40.5q57 0 97 -40.5t40 -97.5t-40 -96t-97 -39t-97 39t-40 96zM717 989q0 57 40.5 98t96.5 41q57 0 97 -41t40 -98q0 -56 -40 -95.5t-97 -39.5t-97 39t-40 96z" />
<glyph unicode="&#xf8;" horiz-adv-x="1148" d="M12 -154l201 260q-154 154 -154 377q0 215 151.5 357.5t377.5 142.5q131 0 252 -65l139 188h164l-203 -266q150 -144 150 -365q0 -217 -147 -360.5t-374 -143.5q-129 0 -250 62l-143 -187h-164zM301 467q0 -104 57 -184l353 456q-55 35 -133 35q-125 0 -201 -84t-76 -223 zM446 211q53 -29 121 -29q125 0 203 83t78 218q0 104 -53 183z" />
<glyph unicode="&#xf9;" horiz-adv-x="1232" d="M49 758v200h367v-569q0 -103 32.5 -148.5t104.5 -45.5q123 0 256 133v430h-147v200h382v-753h138v-205h-369v125q-172 -141 -332 -141q-158 0 -230.5 93.5t-72.5 297.5v383h-129zM334 1442h221l205 -348h-131z" />
<glyph unicode="&#xfa;" horiz-adv-x="1232" d="M49 758v200h367v-569q0 -103 32.5 -148.5t104.5 -45.5q123 0 256 133v430h-147v200h382v-753h138v-205h-369v125q-172 -141 -332 -141q-158 0 -230.5 93.5t-72.5 297.5v383h-129zM465 1094l205 348h221l-295 -348h-131z" />
<glyph unicode="&#xfb;" horiz-adv-x="1232" d="M49 758v200h367v-569q0 -103 32.5 -148.5t104.5 -45.5q123 0 256 133v430h-147v200h382v-753h138v-205h-369v125q-172 -141 -332 -141q-158 0 -230.5 93.5t-72.5 297.5v383h-129zM315 1094l189 348h217l188 -348h-131l-166 209l-168 -209h-129z" />
<glyph unicode="&#xfc;" horiz-adv-x="1232" d="M49 758v200h367v-569q0 -103 32.5 -148.5t104.5 -45.5q123 0 256 133v430h-147v200h382v-753h138v-205h-369v125q-172 -141 -332 -141q-158 0 -230.5 93.5t-72.5 297.5v383h-129zM340 1143v229h205v-229h-205zM680 1143v229h205v-229h-205z" />
<glyph unicode="&#xfd;" d="M18 758v200h449v-200h-129l149 -348q19 -43 56 -170v-4q22 104 53 167l166 355h-135v200h465v-200h-97l-450 -957h153v-194h-548v194h163l109 211l-326 746h-78zM416 1094l205 348h221l-295 -348h-131z" />
<glyph unicode="&#xfe;" horiz-adv-x="1236" d="M49 1266v198h375v-614q67 69 141 100t168 31q189 0 312.5 -143.5t123.5 -360.5q0 -220 -123.5 -362t-322.5 -142q-179 0 -299 129v-292h137v-203h-510v203h137v1456h-139zM399 479q0 -126 76.5 -210.5t190.5 -84.5q116 0 191 83t75 210q0 129 -74.5 211t-191.5 82 q-113 0 -190 -83.5t-77 -207.5z" />
<glyph unicode="&#xff;" d="M18 758v200h449v-200h-129l149 -348q19 -43 56 -170v-4q22 104 53 167l166 355h-135v200h465v-200h-97l-450 -957h153v-194h-548v194h163l109 211l-326 746h-78zM291 1143v229h205v-229h-205zM631 1143v229h205v-229h-205z" />
<glyph unicode="&#x152;" horiz-adv-x="2076" d="M78 737q0 159 54.5 297.5t153 240t245 160t321.5 58.5q56 0 236.5 -9t201.5 -9h727v-388h-219v183h-514v-371h182v143h213v-522h-213v150h-182v-461h514v231h219v-440h-727q-17 0 -194.5 -9t-239.5 -9q-179 0 -326.5 57.5t-246 158.5t-152 239.5t-53.5 299.5zM340 741 q0 -252 146.5 -398t398.5 -146q75 0 151 12v1061q-84 8 -168 8q-242 0 -385 -144.5t-143 -392.5z" />
<glyph unicode="&#x153;" horiz-adv-x="1906" d="M57 477q0 215 149.5 360.5t366.5 145.5q119 0 212.5 -40t175.5 -126q147 166 393 166q213 0 353 -157.5t140 -397.5v-18h-768q17 -110 91.5 -171t191.5 -61q138 0 227 103l170 -123q-74 -91 -177 -139t-226 -48q-254 0 -391 166q-69 -80 -172 -123t-224 -43 q-106 0 -201 39t-163 106t-108 161t-40 200zM301 479q0 -135 74.5 -216t197.5 -81q121 0 198 83t77 214q0 130 -75.5 212.5t-194.5 82.5q-125 0 -201 -81t-76 -214zM1077 569h535q-23 102 -92 157.5t-172 55.5q-100 0 -174 -58t-97 -155z" />
<glyph unicode="&#x178;" horiz-adv-x="1347" d="M35 1270v205h540v-205h-137l258 -369l252 369h-131v205h492v-205h-103l-403 -588v-473h166v-209h-596v209h172v479l-406 582h-104zM401 1667v229h205v-229h-205zM741 1667v229h205v-229h-205z" />
<glyph unicode="&#x2c6;" horiz-adv-x="1024" d="M215 1094l188 348h218l188 -348h-131l-166 209l-168 -209h-129z" />
<glyph unicode="&#x2dc;" horiz-adv-x="1024" d="M211 1130q40 220 192 220q53 -6 84 -15l88 -24q48 -6 52 -6q33 0 56 19t30 54h100q-23 -117 -71 -171t-128 -54q-20 -2 -69 10l-84 23q-18 0 -40 6t-24 6q-66 0 -86 -68h-100z" />
<glyph unicode="&#x2000;" horiz-adv-x="986" />
<glyph unicode="&#x2001;" horiz-adv-x="1972" />
<glyph unicode="&#x2002;" horiz-adv-x="986" />
<glyph unicode="&#x2003;" horiz-adv-x="1972" />
<glyph unicode="&#x2004;" horiz-adv-x="657" />
<glyph unicode="&#x2005;" horiz-adv-x="493" />
<glyph unicode="&#x2006;" horiz-adv-x="328" />
<glyph unicode="&#x2007;" horiz-adv-x="328" />
<glyph unicode="&#x2008;" horiz-adv-x="246" />
<glyph unicode="&#x2009;" horiz-adv-x="394" />
<glyph unicode="&#x200a;" horiz-adv-x="109" />
<glyph unicode="&#x2010;" horiz-adv-x="673" d="M82 367v221h510v-221h-510z" />
<glyph unicode="&#x2011;" horiz-adv-x="673" d="M82 367v221h510v-221h-510z" />
<glyph unicode="&#x2012;" horiz-adv-x="673" d="M82 367v221h510v-221h-510z" />
<glyph unicode="&#x2013;" horiz-adv-x="1024" d="M0 401v154h1024v-154h-1024z" />
<glyph unicode="&#x2014;" horiz-adv-x="2048" d="M0 401v154h2048v-154h-2048z" />
<glyph unicode="&#x2018;" horiz-adv-x="561" d="M74 1042l184 433h229l-153 -433h-260z" />
<glyph unicode="&#x2019;" horiz-adv-x="561" d="M74 1042l153 433h260l-184 -433h-229z" />
<glyph unicode="&#x201a;" horiz-adv-x="561" d="M74 -141l153 430h260l-184 -430h-229z" />
<glyph unicode="&#x201c;" horiz-adv-x="976" d="M86 1042l184 433h228l-152 -433h-260zM479 1042l185 433h227l-152 -433h-260z" />
<glyph unicode="&#x201d;" horiz-adv-x="976" d="M86 1042l152 433h260l-185 -433h-227zM479 1042l152 433h260l-184 -433h-228z" />
<glyph unicode="&#x201e;" horiz-adv-x="976" d="M86 -141l152 430h260l-185 -430h-227zM479 -141l152 430h260l-184 -430h-228z" />
<glyph unicode="&#x2022;" horiz-adv-x="1208" d="M307 762q0 122 87.5 208.5t209.5 86.5q120 0 207.5 -87.5t87.5 -207.5q0 -121 -87 -209t-210 -88q-124 0 -209.5 87.5t-85.5 209.5z" />
<glyph unicode="&#x2026;" horiz-adv-x="2048" d="M213 0v289h258v-289h-258zM895 0v289h258v-289h-258zM1579 0v289h258v-289h-258z" />
<glyph unicode="&#x202f;" horiz-adv-x="394" />
<glyph unicode="&#x2039;" horiz-adv-x="616" d="M131 477l191 400l163 -72l-166 -328l166 -330l-163 -69z" />
<glyph unicode="&#x203a;" horiz-adv-x="616" d="M131 147l166 330l-166 328l164 72l190 -400l-190 -399z" />
<glyph unicode="&#x205f;" horiz-adv-x="493" />
<glyph unicode="&#x20ac;" d="M-29 532l43 127h131q-2 18 -2 70t2 68h-159l43 127h129q50 266 181 410.5t325 144.5q75 0 141.5 -28t103.5 -75v76h191v-440h-191v125q-25 56 -86.5 89.5t-146.5 33.5q-109 0 -180 -86t-97 -250h512l-43 -127h-481q-2 -16 -2 -68q0 -54 2 -70h436l-43 -127h-381 q17 -150 88.5 -240.5t176.5 -90.5q102 0 157 53.5t86 181.5h226q-55 -238 -171.5 -349.5t-308.5 -111.5q-200 0 -331.5 151.5t-165.5 405.5h-185z" />
<glyph unicode="&#x2122;" horiz-adv-x="1705" d="M225 1366v94h467v-94h-168v-448h-129v448h-170zM809 918v542h170l141 -360l133 360h170v-542h-114v428l-160 -428h-59l-166 428v-428h-115z" />
<glyph unicode="&#x25fc;" horiz-adv-x="962" d="M0 0v963h963v-963h-963z" />
<glyph unicode="&#xfb01;" horiz-adv-x="1259" d="M55 0v205h144v553h-144v200h144v166q0 177 87 258.5t273 81.5h37v-192h-27q-79 0 -106 -31.5t-27 -124.5v-158h160v-200h-160v-553h160v-205h-541zM698 0v205h136v553h-136v200h373v-753h146v-205h-519zM834 1100v256h237v-256h-237z" />
<glyph unicode="&#xfb02;" horiz-adv-x="1259" d="M55 0v205h144v553h-144v200h144v166q0 177 87 258.5t273 81.5h37v-192h-27q-79 0 -106 -31.5t-27 -124.5v-158h160v-200h-160v-553h160v-205h-541zM698 0v205h136v1061h-136v198h373v-1259h146v-205h-519z" />
</font>
</defs>
</svg>
